# MagicaVoxel @ ephtracy

# material
mtllib fleurBlanc.mtl
usemtl palette

# normals
vn -1 0 0
vn 1 0 0
vn 0 0 1
vn 0 0 -1
vn 0 -1 0
vn 0 1 0

# texcoords
vt 0.00195313 0.5
vt 0.169922 0.5
vt 0.208984 0.5

# verts
v -1.5 2 0.5
v -1.5 2 -0.5
v -1.5 3 0.5
v -1.5 3 -0.5
v -0.5 0 1.5
v -0.5 0 0.5
v -0.5 1 1.5
v -0.5 1 0.5
v -0.5 1 -0.5
v -0.5 2 1.5
v -0.5 2 0.5
v -0.5 2 -0.5
v -0.5 2 -1.5
v -0.5 3 1.5
v -0.5 3 0.5
v -0.5 3 -0.5
v -0.5 3 -1.5
v 0.5 0 1.5
v 0.5 0 0.5
v 0.5 1 1.5
v 0.5 1 0.5
v 0.5 1 -0.5
v 0.5 2 1.5
v 0.5 2 0.5
v 0.5 2 -0.5
v 0.5 2 -1.5
v 0.5 3 1.5
v 0.5 3 0.5
v 0.5 3 -0.5
v 0.5 3 -1.5
v 1.5 2 0.5
v 1.5 2 -0.5
v 1.5 3 0.5
v 1.5 3 -0.5
v -0.5 0 1.5
v -0.5 1 1.5
v -0.5 2 1.5
v -0.5 3 1.5
v 0.5 0 1.5
v 0.5 1 1.5
v 0.5 2 1.5
v 0.5 3 1.5
v -1.5 2 0.5
v -1.5 3 0.5
v -0.5 1 0.5
v -0.5 2 0.5
v -0.5 3 0.5
v 0.5 1 0.5
v 0.5 2 0.5
v 0.5 3 0.5
v 1.5 2 0.5
v 1.5 3 0.5
v -0.5 0 0.5
v -0.5 1 0.5
v 0.5 0 0.5
v 0.5 1 0.5
v -1.5 2 -0.5
v -1.5 3 -0.5
v -0.5 1 -0.5
v -0.5 2 -0.5
v -0.5 3 -0.5
v 0.5 1 -0.5
v 0.5 2 -0.5
v 0.5 3 -0.5
v 1.5 2 -0.5
v 1.5 3 -0.5
v -0.5 2 -1.5
v -0.5 3 -1.5
v 0.5 2 -1.5
v 0.5 3 -1.5
v -0.5 0 1.5
v 0.5 0 1.5
v -0.5 0 0.5
v 0.5 0 0.5
v -0.5 1 0.5
v 0.5 1 0.5
v -0.5 1 -0.5
v 0.5 1 -0.5
v -0.5 2 1.5
v 0.5 2 1.5
v -1.5 2 0.5
v -0.5 2 0.5
v 0.5 2 0.5
v 1.5 2 0.5
v -1.5 2 -0.5
v -0.5 2 -0.5
v 0.5 2 -0.5
v 1.5 2 -0.5
v -0.5 2 -1.5
v 0.5 2 -1.5
v -0.5 1 1.5
v 0.5 1 1.5
v -0.5 1 0.5
v 0.5 1 0.5
v -0.5 3 1.5
v 0.5 3 1.5
v -1.5 3 0.5
v -0.5 3 0.5
v 0.5 3 0.5
v 1.5 3 0.5
v -1.5 3 -0.5
v -0.5 3 -0.5
v 0.5 3 -0.5
v 1.5 3 -0.5
v -0.5 3 -1.5
v 0.5 3 -1.5

# faces
f 3/1/1 2/1/1 1/1/1
f 4/1/1 2/1/1 3/1/1
f 7/2/1 6/2/1 5/2/1
f 8/2/1 6/2/1 7/2/1
f 11/2/1 9/2/1 8/2/1
f 12/2/1 9/2/1 11/2/1
f 14/1/1 11/1/1 10/1/1
f 15/1/1 11/1/1 14/1/1
f 16/1/1 13/1/1 12/1/1
f 17/1/1 13/1/1 16/1/1
f 18/2/2 19/2/2 20/2/2
f 20/2/2 19/2/2 21/2/2
f 21/2/2 22/2/2 24/2/2
f 24/2/2 22/2/2 25/2/2
f 23/1/2 24/1/2 27/1/2
f 27/1/2 24/1/2 28/1/2
f 25/1/2 26/1/2 29/1/2
f 29/1/2 26/1/2 30/1/2
f 31/1/2 32/1/2 33/1/2
f 33/1/2 32/1/2 34/1/2
f 39/2/3 36/2/3 35/2/3
f 40/2/3 36/2/3 39/2/3
f 41/1/3 38/1/3 37/1/3
f 42/1/3 38/1/3 41/1/3
f 46/1/3 44/1/3 43/1/3
f 47/1/3 44/1/3 46/1/3
f 48/2/3 46/2/3 45/2/3
f 49/2/3 46/2/3 48/2/3
f 51/1/3 50/1/3 49/1/3
f 52/1/3 50/1/3 51/1/3
f 53/2/4 54/2/4 55/2/4
f 55/2/4 54/2/4 56/2/4
f 57/1/4 58/1/4 60/1/4
f 60/1/4 58/1/4 61/1/4
f 59/2/4 60/2/4 62/2/4
f 62/2/4 60/2/4 63/2/4
f 63/1/4 64/1/4 65/1/4
f 65/1/4 64/1/4 66/1/4
f 67/1/4 68/1/4 69/1/4
f 69/1/4 68/1/4 70/1/4
f 73/2/5 72/2/5 71/2/5
f 74/2/5 72/2/5 73/2/5
f 77/2/5 76/2/5 75/2/5
f 78/2/5 76/2/5 77/2/5
f 82/1/5 80/1/5 79/1/5
f 83/1/5 80/1/5 82/1/5
f 85/1/5 82/1/5 81/1/5
f 86/1/5 82/1/5 85/1/5
f 87/1/5 84/1/5 83/1/5
f 88/1/5 84/1/5 87/1/5
f 89/1/5 87/1/5 86/1/5
f 90/1/5 87/1/5 89/1/5
f 91/2/6 92/2/6 93/2/6
f 93/2/6 92/2/6 94/2/6
f 95/1/6 96/1/6 98/1/6
f 98/1/6 96/1/6 99/1/6
f 97/1/6 98/1/6 101/1/6
f 98/3/6 99/3/6 102/3/6
f 101/1/6 98/1/6 102/1/6
f 99/1/6 100/1/6 103/1/6
f 102/3/6 99/3/6 103/3/6
f 103/1/6 100/1/6 104/1/6
f 102/1/6 103/1/6 105/1/6
f 105/1/6 103/1/6 106/1/6
