# MagicaVoxel @ ephtracy

# material
mtllib rock1_large.mtl
usemtl palette

# normals
vn -1 0 0
vn 1 0 0
vn 0 0 1
vn 0 0 -1
vn 0 -1 0
vn 0 1 0

# texcoords
vt 0.283203 0.5
vt 0.306641 0.5
vt 0.310547 0.5

# verts
v -5.5 0 3
v -5.5 0 -1
v -5.5 1 4
v -5.5 1 3
v -5.5 1 -1
v -5.5 1 -2
v -5.5 2 4
v -5.5 2 2
v -5.5 2 -0
v -5.5 2 -2
v -5.5 3 2
v -5.5 3 -0
v -5.5 3 -1
v -5.5 3 -2
v -5.5 3 -3
v -5.5 4 4
v -5.5 4 2
v -5.5 4 1
v -5.5 4 -0
v -5.5 4 -1
v -5.5 4 -2
v -5.5 4 -3
v -5.5 5 2
v -5.5 5 1
v -5.5 5 -0
v -5.5 5 -1
v -5.5 5 -2
v -5.5 6 -0
v -5.5 6 -1
v -4.5 0 4
v -4.5 0 3
v -4.5 1 5
v -4.5 1 4
v -4.5 1 3
v -4.5 2 5
v -4.5 2 4
v -4.5 2 -2
v -4.5 2 -3
v -4.5 3 5
v -4.5 3 4
v -4.5 3 -2
v -4.5 3 -3
v -4.5 3 -4
v -4.5 4 4
v -4.5 4 3
v -4.5 4 2
v -4.5 4 -2
v -4.5 4 -3
v -4.5 4 -4
v -4.5 5 4
v -4.5 5 3
v -4.5 5 2
v -4.5 5 1
v -4.5 5 -0
v -4.5 5 -1
v -4.5 5 -2
v -4.5 6 -0
v -4.5 6 -1
v -4.5 6 -2
v -4.5 6 -4
v -4.5 7 3
v -4.5 7 -2
v -3.5 3 5
v -3.5 3 4
v -3.5 4 5
v -3.5 4 4
v -3.5 4 -4
v -3.5 4 -5
v -3.5 5 4
v -3.5 5 3
v -3.5 6 -2
v -3.5 6 -4
v -3.5 6 -5
v -3.5 7 4
v -3.5 7 3
v -3.5 7 -2
v -3.5 7 -3
v -3.5 7 -4
v -3.5 8 3
v -3.5 8 -3
v -2.5 0 5
v -2.5 0 4
v -2.5 0 -1
v -2.5 0 -2
v -2.5 1 5
v -2.5 1 4
v -2.5 1 -1
v -2.5 1 -2
v -2.5 2 -3
v -2.5 2 -4
v -2.5 3 -3
v -2.5 3 -4
v -2.5 3 -5
v -2.5 4 5
v -2.5 4 4
v -2.5 4 -4
v -2.5 4 -5
v -2.5 5 5
v -2.5 5 4
v -2.5 7 4
v -2.5 7 3
v -2.5 8 4
v -2.5 8 3
v -2.5 8 2
v -2.5 8 -2
v -2.5 9 2
v -2.5 9 -2
v -1.5 1 -2
v -1.5 1 -3
v -1.5 2 -2
v -1.5 2 -3
v -1.5 5 5
v -1.5 5 4
v -1.5 6 5
v -1.5 6 4
v -1.5 6 -4
v -1.5 6 -5
v -1.5 7 -3
v -1.5 7 -4
v -1.5 7 -5
v -1.5 8 3
v -1.5 8 2
v -1.5 8 -3
v -1.5 8 -4
v -1.5 9 3
v -1.5 9 2
v -0.5 9 1
v -0.5 9 -0
v -0.5 10 1
v -0.5 10 -0
v 0.5 0 -2
v 0.5 0 -3
v 0.5 1 -2
v 0.5 1 -3
v 1.5 1 -3
v 1.5 1 -4
v 1.5 2 -3
v 1.5 2 -4
v -0.5 0 5
v -0.5 0 4
v -0.5 1 5
v -0.5 1 4
v -0.5 6 -4
v -0.5 6 -5
v -0.5 7 -4
v -0.5 7 -5
v -0.5 8 3
v -0.5 8 2
v -0.5 9 3
v -0.5 9 2
v 0.5 7 4
v 0.5 7 3
v 0.5 7 -3
v 0.5 7 -4
v 0.5 8 4
v 0.5 8 3
v 0.5 8 -3
v 0.5 8 -4
v 1.5 0 4
v 1.5 0 2
v 1.5 1 5
v 1.5 1 4
v 1.5 1 2
v 1.5 2 5
v 1.5 2 4
v 1.5 3 -4
v 1.5 3 -5
v 1.5 4 -4
v 1.5 5 -4
v 1.5 5 -5
v 1.5 6 -3
v 1.5 6 -4
v 1.5 6 -5
v 1.5 7 -2
v 1.5 7 -3
v 1.5 7 -4
v 1.5 8 2
v 1.5 8 1
v 1.5 8 -1
v 1.5 8 -2
v 1.5 8 -3
v 1.5 9 2
v 1.5 9 1
v 1.5 9 -0
v 1.5 9 -1
v 1.5 9 -2
v 1.5 10 1
v 1.5 10 -0
v 2.5 0 2
v 2.5 0 -3
v 2.5 1 2
v 2.5 1 -3
v 2.5 1 -4
v 2.5 2 5
v 2.5 2 4
v 2.5 2 -3
v 2.5 2 -4
v 2.5 3 5
v 2.5 3 4
v 2.5 5 5
v 2.5 5 4
v 2.5 5 -3
v 2.5 5 -4
v 2.5 6 5
v 2.5 6 4
v 2.5 6 3
v 2.5 6 -2
v 2.5 6 -3
v 2.5 6 -4
v 2.5 7 4
v 2.5 7 3
v 2.5 7 2
v 2.5 7 -1
v 2.5 7 -2
v 2.5 7 -3
v 2.5 8 3
v 2.5 8 2
v 2.5 8 1
v 2.5 8 -1
v 2.5 8 -2
v 2.5 9 1
v 2.5 9 -1
v 3.5 1 4
v 3.5 1 -3
v 3.5 2 4
v 3.5 2 -2
v 3.5 2 -3
v 3.5 2 -4
v 3.5 3 5
v 3.5 3 4
v 3.5 4 5
v 3.5 4 4
v 3.5 4 -3
v 3.5 5 5
v 3.5 5 4
v 3.5 5 -2
v 3.5 5 -3
v 3.5 5 -4
v 3.5 6 -1
v 3.5 6 -2
v 3.5 6 -3
v 3.5 7 2
v 3.5 7 -1
v 3.5 7 -2
v 3.5 8 2
v 3.5 8 -1
v 4.5 2 4
v 4.5 2 -2
v 4.5 2 -3
v 4.5 3 4
v 4.5 3 -0
v 4.5 3 -2
v 4.5 4 -0
v 4.5 4 -1
v 4.5 4 -2
v 4.5 4 -3
v 4.5 5 4
v 4.5 5 3
v 4.5 5 -1
v 4.5 5 -2
v 4.5 5 -3
v 4.5 6 4
v 4.5 6 3
v 4.5 6 -1
v 4.5 6 -2
v 4.5 7 3
v 4.5 7 -1
v 5.5 3 4
v 5.5 3 -0
v 5.5 4 4
v 5.5 4 3
v 5.5 4 1
v 5.5 4 -0
v 5.5 4 -1
v 5.5 5 4
v 5.5 5 3
v 5.5 5 1
v 5.5 6 3
v 5.5 6 -1
v -4.5 1 5
v -4.5 2 5
v -4.5 3 5
v -3.5 3 5
v -3.5 4 5
v -2.5 0 5
v -2.5 1 5
v -2.5 2 5
v -2.5 3 5
v -2.5 4 5
v -2.5 5 5
v -1.5 4 5
v -1.5 5 5
v -1.5 6 5
v -0.5 0 5
v -0.5 1 5
v -0.5 5 5
v -0.5 6 5
v 0.5 2 5
v 0.5 3 5
v 1.5 1 5
v 1.5 2 5
v 1.5 5 5
v 1.5 6 5
v 2.5 2 5
v 2.5 3 5
v 2.5 4 5
v 2.5 5 5
v 2.5 6 5
v 3.5 3 5
v 3.5 4 5
v 3.5 5 5
v -5.5 1 4
v -5.5 2 4
v -5.5 4 4
v -4.5 0 4
v -4.5 1 4
v -4.5 2 4
v -4.5 3 4
v -4.5 4 4
v -4.5 5 4
v -3.5 3 4
v -3.5 4 4
v -3.5 5 4
v -3.5 7 4
v -2.5 0 4
v -2.5 1 4
v -2.5 4 4
v -2.5 5 4
v -2.5 7 4
v -2.5 8 4
v -1.5 5 4
v -1.5 6 4
v -0.5 0 4
v -0.5 1 4
v -0.5 6 4
v 0.5 7 4
v 0.5 8 4
v 1.5 0 4
v 1.5 1 4
v 1.5 2 4
v 1.5 6 4
v 2.5 2 4
v 2.5 3 4
v 2.5 5 4
v 2.5 6 4
v 2.5 7 4
v 3.5 1 4
v 3.5 2 4
v 3.5 3 4
v 3.5 4 4
v 3.5 5 4
v 4.5 2 4
v 4.5 3 4
v 4.5 5 4
v 4.5 6 4
v 5.5 3 4
v 5.5 4 4
v 5.5 5 4
v -5.5 0 3
v -5.5 1 3
v -4.5 0 3
v -4.5 1 3
v -4.5 5 3
v -4.5 7 3
v -3.5 5 3
v -3.5 7 3
v -3.5 8 3
v -2.5 7 3
v -2.5 8 3
v -1.5 8 3
v -1.5 9 3
v -0.5 8 3
v -0.5 9 3
v 0.5 7 3
v 0.5 8 3
v 2.5 6 3
v 2.5 7 3
v 2.5 8 3
v 4.5 5 3
v 4.5 6 3
v 4.5 7 3
v 5.5 5 3
v 5.5 6 3
v -5.5 4 2
v -5.5 5 2
v -4.5 4 2
v -4.5 5 2
v -2.5 8 2
v -2.5 9 2
v -1.5 8 2
v -1.5 9 2
v -0.5 8 2
v -0.5 9 2
v 1.5 0 2
v 1.5 1 2
v 1.5 8 2
v 1.5 9 2
v 2.5 0 2
v 2.5 1 2
v 2.5 7 2
v 2.5 8 2
v 3.5 7 2
v 3.5 8 2
v -0.5 9 1
v -0.5 10 1
v 1.5 8 1
v 1.5 9 1
v 1.5 10 1
v 2.5 8 1
v 2.5 9 1
v -5.5 5 -0
v -5.5 6 -0
v -4.5 5 -0
v -4.5 6 -0
v -0.5 9 -0
v -0.5 10 -0
v 1.5 9 -0
v 1.5 10 -0
v 4.5 3 -0
v 4.5 4 -0
v 5.5 3 -0
v 5.5 4 -0
v -5.5 0 -1
v -5.5 1 -1
v -5.5 5 -1
v -5.5 6 -1
v -4.5 5 -1
v -4.5 6 -1
v -2.5 0 -1
v -2.5 1 -1
v 1.5 8 -1
v 1.5 9 -1
v 2.5 7 -1
v 2.5 8 -1
v 2.5 9 -1
v 3.5 6 -1
v 3.5 7 -1
v 3.5 8 -1
v 4.5 4 -1
v 4.5 5 -1
v 4.5 6 -1
v 4.5 7 -1
v 5.5 4 -1
v 5.5 6 -1
v -5.5 1 -2
v -5.5 2 -2
v -5.5 3 -2
v -5.5 4 -2
v -5.5 5 -2
v -4.5 2 -2
v -4.5 3 -2
v -4.5 4 -2
v -4.5 5 -2
v -4.5 6 -2
v -4.5 7 -2
v -3.5 6 -2
v -3.5 7 -2
v -2.5 0 -2
v -2.5 1 -2
v -2.5 8 -2
v -2.5 9 -2
v -1.5 1 -2
v -1.5 2 -2
v 0.5 0 -2
v 0.5 1 -2
v 1.5 7 -2
v 1.5 8 -2
v 1.5 9 -2
v 2.5 6 -2
v 2.5 7 -2
v 2.5 8 -2
v 3.5 5 -2
v 3.5 6 -2
v 3.5 7 -2
v 4.5 5 -2
v 4.5 6 -2
v -5.5 3 -3
v -5.5 4 -3
v -4.5 2 -3
v -4.5 3 -3
v -4.5 4 -3
v -3.5 7 -3
v -3.5 8 -3
v -2.5 2 -3
v -2.5 3 -3
v -1.5 1 -3
v -1.5 2 -3
v -1.5 7 -3
v -1.5 8 -3
v 0.5 0 -3
v 0.5 1 -3
v 0.5 7 -3
v 0.5 8 -3
v 1.5 1 -3
v 1.5 2 -3
v 1.5 6 -3
v 1.5 7 -3
v 1.5 8 -3
v 2.5 0 -3
v 2.5 1 -3
v 2.5 2 -3
v 2.5 5 -3
v 2.5 6 -3
v 2.5 7 -3
v 3.5 1 -3
v 3.5 2 -3
v 3.5 4 -3
v 3.5 5 -3
v 3.5 6 -3
v 4.5 2 -3
v 4.5 4 -3
v 4.5 5 -3
v -4.5 3 -4
v -4.5 4 -4
v -4.5 6 -4
v -3.5 4 -4
v -3.5 6 -4
v -3.5 7 -4
v -2.5 2 -4
v -2.5 3 -4
v -2.5 4 -4
v -1.5 6 -4
v -1.5 7 -4
v -1.5 8 -4
v -0.5 3 -4
v -0.5 6 -4
v -0.5 7 -4
v 0.5 3 -4
v 0.5 6 -4
v 0.5 7 -4
v 0.5 8 -4
v 1.5 1 -4
v 1.5 2 -4
v 1.5 3 -4
v 1.5 4 -4
v 1.5 5 -4
v 1.5 6 -4
v 1.5 7 -4
v 2.5 1 -4
v 2.5 2 -4
v 2.5 4 -4
v 2.5 5 -4
v 2.5 6 -4
v 3.5 2 -4
v 3.5 5 -4
v -3.5 4 -5
v -3.5 6 -5
v -2.5 3 -5
v -2.5 4 -5
v -2.5 5 -5
v -1.5 6 -5
v -1.5 7 -5
v -0.5 3 -5
v -0.5 4 -5
v -0.5 5 -5
v -0.5 6 -5
v -0.5 7 -5
v 0.5 3 -5
v 0.5 4 -5
v 0.5 5 -5
v 0.5 6 -5
v 1.5 3 -5
v 1.5 5 -5
v 1.5 6 -5
v -2.5 0 5
v -0.5 0 5
v -4.5 0 4
v -2.5 0 4
v -0.5 0 4
v 1.5 0 4
v -5.5 0 3
v -4.5 0 3
v 1.5 0 2
v 2.5 0 2
v -5.5 0 -1
v -2.5 0 -1
v -2.5 0 -2
v 0.5 0 -2
v 0.5 0 -3
v 2.5 0 -3
v -4.5 1 5
v -2.5 1 5
v -0.5 1 5
v 1.5 1 5
v -5.5 1 4
v -4.5 1 4
v -2.5 1 4
v -0.5 1 4
v 1.5 1 4
v 3.5 1 4
v -5.5 1 3
v -4.5 1 3
v 1.5 1 2
v 2.5 1 2
v -5.5 1 -1
v -2.5 1 -1
v -5.5 1 -2
v -2.5 1 -2
v -1.5 1 -2
v 0.5 1 -2
v -1.5 1 -3
v 0.5 1 -3
v 1.5 1 -3
v 2.5 1 -3
v 3.5 1 -3
v 1.5 1 -4
v 2.5 1 -4
v 1.5 2 5
v 2.5 2 5
v 1.5 2 4
v 2.5 2 4
v 3.5 2 4
v 4.5 2 4
v -4.5 2 -2
v -1.5 2 -2
v 3.5 2 -2
v 4.5 2 -2
v -4.5 2 -3
v -2.5 2 -3
v -1.5 2 -3
v 1.5 2 -3
v 2.5 2 -3
v 3.5 2 -3
v 4.5 2 -3
v -2.5 2 -4
v 1.5 2 -4
v 2.5 2 -4
v 3.5 2 -4
v 2.5 3 5
v 3.5 3 5
v 2.5 3 4
v 3.5 3 4
v 4.5 3 4
v 5.5 3 4
v 4.5 3 -0
v 5.5 3 -0
v -5.5 3 -2
v -4.5 3 -2
v -5.5 3 -3
v -4.5 3 -3
v -2.5 3 -3
v -4.5 3 -4
v -2.5 3 -4
v -0.5 3 -4
v 0.5 3 -4
v 1.5 3 -4
v -2.5 3 -5
v -0.5 3 -5
v 0.5 3 -5
v 1.5 3 -5
v 4.5 4 -0
v 5.5 4 -0
v 4.5 4 -1
v 5.5 4 -1
v -3.5 4 -4
v -2.5 4 -4
v -3.5 4 -5
v -2.5 4 -5
v -4.5 3 5
v -3.5 3 5
v -4.5 3 4
v -3.5 3 4
v -3.5 4 5
v -2.5 4 5
v -5.5 4 4
v -4.5 4 4
v -3.5 4 4
v -2.5 4 4
v -4.5 4 3
v -5.5 4 2
v -4.5 4 2
v -5.5 4 -2
v -4.5 4 -2
v -5.5 4 -3
v -4.5 4 -3
v -2.5 5 5
v -1.5 5 5
v 2.5 5 5
v 3.5 5 5
v -4.5 5 4
v -3.5 5 4
v -2.5 5 4
v -1.5 5 4
v 2.5 5 4
v 3.5 5 4
v 4.5 5 4
v 5.5 5 4
v -4.5 5 3
v -3.5 5 3
v 4.5 5 3
v 5.5 5 3
v -5.5 5 2
v -4.5 5 2
v -5.5 5 1
v -4.5 5 1
v -5.5 5 -0
v -4.5 5 -0
v -5.5 5 -1
v -4.5 5 -1
v -5.5 5 -2
v -4.5 5 -2
v 3.5 5 -2
v 4.5 5 -2
v 2.5 5 -3
v 3.5 5 -3
v 4.5 5 -3
v 2.5 5 -4
v 3.5 5 -4
v -1.5 6 5
v -0.5 6 5
v 1.5 6 5
v 2.5 6 5
v -1.5 6 4
v -0.5 6 4
v 1.5 6 4
v 2.5 6 4
v 4.5 6 4
v 2.5 6 3
v 4.5 6 3
v 5.5 6 3
v -5.5 6 -0
v -4.5 6 -0
v -5.5 6 -1
v -4.5 6 -1
v 3.5 6 -1
v 4.5 6 -1
v 5.5 6 -1
v -4.5 6 -2
v -3.5 6 -2
v 2.5 6 -2
v 3.5 6 -2
v 4.5 6 -2
v 1.5 6 -3
v 2.5 6 -3
v 3.5 6 -3
v -4.5 6 -4
v -3.5 6 -4
v -1.5 6 -4
v -0.5 6 -4
v 0.5 6 -4
v 1.5 6 -4
v 2.5 6 -4
v -3.5 6 -5
v -1.5 6 -5
v -0.5 6 -5
v 0.5 6 -5
v 1.5 6 -5
v -3.5 7 4
v -2.5 7 4
v 0.5 7 4
v 2.5 7 4
v -4.5 7 3
v -3.5 7 3
v -2.5 7 3
v 0.5 7 3
v 2.5 7 3
v 4.5 7 3
v 2.5 7 2
v 3.5 7 2
v 2.5 7 -1
v 3.5 7 -1
v 4.5 7 -1
v -4.5 7 -2
v -3.5 7 -2
v 1.5 7 -2
v 2.5 7 -2
v 3.5 7 -2
v -3.5 7 -3
v -1.5 7 -3
v 0.5 7 -3
v 1.5 7 -3
v 2.5 7 -3
v -3.5 7 -4
v -1.5 7 -4
v -0.5 7 -4
v 0.5 7 -4
v 1.5 7 -4
v -1.5 7 -5
v -0.5 7 -5
v -2.5 8 4
v 0.5 8 4
v -3.5 8 3
v -2.5 8 3
v -1.5 8 3
v -0.5 8 3
v 0.5 8 3
v 2.5 8 3
v -2.5 8 2
v -1.5 8 2
v -0.5 8 2
v 1.5 8 2
v 2.5 8 2
v 3.5 8 2
v 1.5 8 1
v 2.5 8 1
v 1.5 8 -1
v 2.5 8 -1
v 3.5 8 -1
v -2.5 8 -2
v 1.5 8 -2
v 2.5 8 -2
v -3.5 8 -3
v -1.5 8 -3
v 0.5 8 -3
v 1.5 8 -3
v -1.5 8 -4
v 0.5 8 -4
v -1.5 9 3
v -0.5 9 3
v -2.5 9 2
v -1.5 9 2
v -0.5 9 2
v 1.5 9 2
v -0.5 9 1
v 1.5 9 1
v 2.5 9 1
v -0.5 9 -0
v 1.5 9 -0
v 1.5 9 -1
v 2.5 9 -1
v -2.5 9 -2
v 1.5 9 -2
v -0.5 10 1
v 1.5 10 1
v -0.5 10 -0
v 1.5 10 -0

# faces
f 4/1/1 2/1/1 1/1/1
f 5/1/1 2/1/1 4/1/1
f 7/1/1 4/1/1 3/1/1
f 7/1/1 6/1/1 5/1/1
f 7/1/1 5/1/1 4/1/1
f 8/1/1 6/1/1 7/1/1
f 9/1/1 6/1/1 8/1/1
f 10/1/1 6/1/1 9/1/1
f 11/3/1 8/3/1 7/3/1
f 11/1/1 9/1/1 8/1/1
f 12/3/1 10/3/1 9/3/1
f 12/1/1 9/1/1 11/1/1
f 13/3/1 10/3/1 12/3/1
f 14/3/1 10/3/1 13/3/1
f 16/3/1 11/3/1 7/3/1
f 16/3/1 12/3/1 11/3/1
f 16/3/1 13/3/1 12/3/1
f 17/3/1 13/3/1 16/3/1
f 18/3/1 13/3/1 17/3/1
f 19/3/1 13/3/1 18/3/1
f 20/2/1 14/2/1 13/2/1
f 20/3/1 13/3/1 19/3/1
f 20/2/1 15/2/1 14/2/1
f 21/2/1 15/2/1 20/2/1
f 22/2/1 15/2/1 21/2/1
f 23/2/1 18/2/1 17/2/1
f 24/3/1 19/3/1 18/3/1
f 24/2/1 18/2/1 23/2/1
f 25/2/1 21/2/1 20/2/1
f 25/3/1 19/3/1 24/3/1
f 25/2/1 20/2/1 19/2/1
f 26/2/1 21/2/1 25/2/1
f 27/2/1 21/2/1 26/2/1
f 28/2/1 26/2/1 25/2/1
f 29/2/1 26/2/1 28/2/1
f 33/1/1 31/1/1 30/1/1
f 34/1/1 31/1/1 33/1/1
f 35/1/1 33/1/1 32/1/1
f 36/1/1 33/1/1 35/1/1
f 39/3/1 36/3/1 35/3/1
f 40/3/1 36/3/1 39/3/1
f 41/3/1 38/3/1 37/3/1
f 42/3/1 38/3/1 41/3/1
f 48/3/1 43/3/1 42/3/1
f 49/3/1 43/3/1 48/3/1
f 50/3/1 45/3/1 44/3/1
f 51/2/1 46/2/1 45/2/1
f 51/3/1 45/3/1 50/3/1
f 52/2/1 46/2/1 51/2/1
f 56/2/1 48/2/1 47/2/1
f 56/2/1 49/2/1 48/2/1
f 57/2/1 54/2/1 53/2/1
f 57/2/1 53/2/1 52/2/1
f 57/2/1 52/2/1 51/2/1
f 58/2/1 56/2/1 55/2/1
f 59/2/1 49/2/1 56/2/1
f 59/2/1 56/2/1 58/2/1
f 60/2/1 49/2/1 59/2/1
f 61/2/1 57/2/1 51/2/1
f 61/2/1 58/2/1 57/2/1
f 61/2/1 59/2/1 58/2/1
f 62/2/1 59/2/1 61/2/1
f 65/3/1 64/3/1 63/3/1
f 66/3/1 64/3/1 65/3/1
f 72/2/1 68/2/1 67/2/1
f 73/2/1 68/2/1 72/2/1
f 74/2/1 70/2/1 69/2/1
f 75/2/1 70/2/1 74/2/1
f 76/2/1 72/2/1 71/2/1
f 77/2/1 72/2/1 76/2/1
f 78/2/1 72/2/1 77/2/1
f 79/2/1 76/2/1 75/2/1
f 79/2/1 77/2/1 76/2/1
f 80/2/1 77/2/1 79/2/1
f 85/1/1 82/1/1 81/1/1
f 86/1/1 82/1/1 85/1/1
f 87/1/1 84/1/1 83/1/1
f 88/1/1 84/1/1 87/1/1
f 91/1/1 90/1/1 89/1/1
f 92/1/1 90/1/1 91/1/1
f 96/3/1 93/3/1 92/3/1
f 97/3/1 93/3/1 96/3/1
f 98/2/1 95/2/1 94/2/1
f 99/2/1 95/2/1 98/2/1
f 102/2/1 101/2/1 100/2/1
f 103/2/1 101/2/1 102/2/1
f 106/2/1 105/2/1 104/2/1
f 107/2/1 105/2/1 106/2/1
f 110/1/1 109/1/1 108/1/1
f 111/1/1 109/1/1 110/1/1
f 114/2/1 113/2/1 112/2/1
f 115/2/1 113/2/1 114/2/1
f 119/2/1 117/2/1 116/2/1
f 120/2/1 117/2/1 119/2/1
f 123/2/1 119/2/1 118/2/1
f 124/2/1 119/2/1 123/2/1
f 125/2/1 122/2/1 121/2/1
f 126/2/1 122/2/1 125/2/1
f 129/2/1 128/2/1 127/2/1
f 130/2/1 128/2/1 129/2/1
f 133/1/1 132/1/1 131/1/1
f 134/1/1 132/1/1 133/1/1
f 137/1/1 136/1/1 135/1/1
f 138/1/1 136/1/1 137/1/1
f 139/1/2 140/1/2 141/1/2
f 141/1/2 140/1/2 142/1/2
f 143/2/2 144/2/2 145/2/2
f 145/2/2 144/2/2 146/2/2
f 147/2/2 148/2/2 149/2/2
f 149/2/2 148/2/2 150/2/2
f 151/2/2 152/2/2 155/2/2
f 155/2/2 152/2/2 156/2/2
f 153/2/2 154/2/2 157/2/2
f 157/2/2 154/2/2 158/2/2
f 159/1/2 160/1/2 162/1/2
f 162/1/2 160/1/2 163/1/2
f 161/1/2 162/1/2 164/1/2
f 164/1/2 162/1/2 165/1/2
f 166/3/2 167/3/2 168/3/2
f 168/3/2 167/3/2 169/3/2
f 169/3/2 167/3/2 170/3/2
f 169/2/2 170/2/2 172/2/2
f 172/2/2 170/2/2 173/2/2
f 171/2/2 172/2/2 175/2/2
f 175/2/2 172/2/2 176/2/2
f 174/2/2 175/2/2 180/2/2
f 180/2/2 175/2/2 181/2/2
f 177/2/2 178/2/2 182/2/2
f 182/2/2 178/2/2 183/2/2
f 179/2/2 180/2/2 185/2/2
f 185/2/2 180/2/2 186/2/2
f 183/2/2 184/2/2 187/2/2
f 187/2/2 184/2/2 188/2/2
f 189/1/2 190/1/2 191/1/2
f 191/1/2 190/1/2 192/1/2
f 192/1/2 193/1/2 196/1/2
f 196/1/2 193/1/2 197/1/2
f 194/3/2 195/3/2 198/3/2
f 198/3/2 195/3/2 199/3/2
f 200/2/2 201/2/2 204/2/2
f 204/2/2 201/2/2 205/2/2
f 202/2/2 203/2/2 208/2/2
f 208/2/2 203/2/2 209/2/2
f 205/2/2 206/2/2 210/2/2
f 210/2/2 206/2/2 211/2/2
f 207/2/2 208/2/2 214/2/2
f 214/2/2 208/2/2 215/2/2
f 211/2/2 212/2/2 216/2/2
f 216/2/2 212/2/2 217/2/2
f 213/2/2 214/2/2 219/2/2
f 219/2/2 214/2/2 220/2/2
f 218/2/2 219/2/2 221/2/2
f 221/2/2 219/2/2 222/2/2
f 223/1/2 224/1/2 225/1/2
f 225/1/2 224/1/2 226/1/2
f 226/1/2 224/1/2 227/1/2
f 229/3/2 230/3/2 231/3/2
f 231/3/2 230/3/2 232/3/2
f 227/3/2 228/3/2 233/3/2
f 231/2/2 232/2/2 234/2/2
f 234/2/2 232/2/2 235/2/2
f 233/3/2 228/3/2 237/3/2
f 237/3/2 228/3/2 238/3/2
f 236/2/2 237/2/2 240/2/2
f 240/2/2 237/2/2 241/2/2
f 239/2/2 240/2/2 243/2/2
f 243/2/2 240/2/2 244/2/2
f 242/2/2 243/2/2 245/2/2
f 245/2/2 243/2/2 246/2/2
f 247/1/2 248/1/2 250/1/2
f 250/1/2 248/1/2 251/1/2
f 248/3/2 249/3/2 252/3/2
f 251/1/2 248/1/2 252/1/2
f 251/3/2 252/3/2 253/3/2
f 253/3/2 252/3/2 254/3/2
f 252/3/2 249/3/2 255/3/2
f 254/3/2 252/3/2 255/3/2
f 255/3/2 249/3/2 256/3/2
f 254/3/2 255/3/2 259/3/2
f 255/2/2 256/2/2 260/2/2
f 259/3/2 255/3/2 260/3/2
f 260/2/2 256/2/2 261/2/2
f 257/2/2 258/2/2 262/2/2
f 262/2/2 258/2/2 263/2/2
f 259/2/2 260/2/2 264/2/2
f 264/2/2 260/2/2 265/2/2
f 263/2/2 264/2/2 266/2/2
f 266/2/2 264/2/2 267/2/2
f 268/3/2 269/3/2 270/3/2
f 270/3/2 269/3/2 271/3/2
f 271/3/2 269/3/2 272/3/2
f 272/3/2 269/3/2 273/3/2
f 270/2/2 271/2/2 275/2/2
f 271/3/2 272/3/2 276/3/2
f 275/2/2 271/2/2 276/2/2
f 273/2/2 274/2/2 277/2/2
f 276/3/2 272/3/2 277/3/2
f 272/2/2 273/2/2 277/2/2
f 276/2/2 277/2/2 278/2/2
f 277/2/2 274/2/2 279/2/2
f 278/2/2 277/2/2 279/2/2
f 283/3/3 282/3/3 281/3/3
f 286/1/3 281/1/3 280/1/3
f 287/3/3 284/3/3 283/3/3
f 287/3/3 283/3/3 281/3/3
f 287/1/3 281/1/3 286/1/3
f 288/3/3 284/3/3 287/3/3
f 289/3/3 284/3/3 288/3/3
f 291/3/3 289/3/3 288/3/3
f 291/2/3 290/2/3 289/2/3
f 292/2/3 290/2/3 291/2/3
f 294/1/3 286/1/3 285/1/3
f 294/1/3 287/1/3 286/1/3
f 294/1/3 288/1/3 287/1/3
f 295/1/3 288/1/3 294/1/3
f 296/2/3 293/2/3 292/2/3
f 296/3/3 292/3/3 291/3/3
f 297/2/3 293/2/3 296/2/3
f 298/1/3 288/1/3 295/1/3
f 299/3/3 297/3/3 296/3/3
f 299/1/3 288/1/3 298/1/3
f 299/3/3 291/3/3 288/3/3
f 299/3/3 296/3/3 291/3/3
f 300/1/3 298/1/3 295/1/3
f 301/3/3 299/3/3 298/3/3
f 301/1/3 298/1/3 300/1/3
f 302/3/3 297/3/3 299/3/3
f 302/3/3 299/3/3 301/3/3
f 303/3/3 297/3/3 302/3/3
f 304/3/3 302/3/3 301/3/3
f 305/3/3 302/3/3 304/3/3
f 306/3/3 302/3/3 305/3/3
f 307/2/3 303/2/3 302/2/3
f 307/3/3 302/3/3 306/3/3
f 308/2/3 303/2/3 307/2/3
f 309/3/3 306/3/3 305/3/3
f 310/2/3 307/2/3 306/2/3
f 310/3/3 306/3/3 309/3/3
f 311/2/3 307/2/3 310/2/3
f 316/1/3 313/1/3 312/1/3
f 317/3/3 314/3/3 313/3/3
f 317/1/3 313/1/3 316/1/3
f 318/3/3 314/3/3 317/3/3
f 319/3/3 314/3/3 318/3/3
f 321/3/3 320/3/3 319/3/3
f 321/3/3 319/3/3 318/3/3
f 322/3/3 320/3/3 321/3/3
f 323/3/3 320/3/3 322/3/3
f 325/1/3 316/1/3 315/1/3
f 326/1/3 316/1/3 325/1/3
f 327/2/3 324/2/3 323/2/3
f 327/2/3 323/2/3 322/2/3
f 328/2/3 324/2/3 327/2/3
f 329/2/3 324/2/3 328/2/3
f 331/2/3 330/2/3 329/2/3
f 331/2/3 329/2/3 328/2/3
f 332/2/3 330/2/3 331/2/3
f 335/2/3 330/2/3 332/2/3
f 336/2/3 330/2/3 335/2/3
f 337/2/3 330/2/3 336/2/3
f 338/1/3 334/1/3 333/1/3
f 339/1/3 334/1/3 338/1/3
f 341/2/3 336/2/3 335/2/3
f 342/1/3 340/1/3 339/1/3
f 345/2/3 336/2/3 341/2/3
f 346/2/3 336/2/3 345/2/3
f 347/1/3 343/1/3 342/1/3
f 347/1/3 342/1/3 339/1/3
f 348/1/3 343/1/3 347/1/3
f 349/1/3 343/1/3 348/1/3
f 351/2/3 345/2/3 344/2/3
f 352/1/3 349/1/3 348/1/3
f 353/3/3 350/3/3 349/3/3
f 353/1/3 349/1/3 352/1/3
f 354/2/3 351/2/3 350/2/3
f 354/2/3 345/2/3 351/2/3
f 355/2/3 345/2/3 354/2/3
f 356/3/3 350/3/3 353/3/3
f 357/2/3 354/2/3 350/2/3
f 357/3/3 350/3/3 356/3/3
f 358/2/3 354/2/3 357/2/3
f 361/1/3 360/1/3 359/1/3
f 362/1/3 360/1/3 361/1/3
f 365/2/3 364/2/3 363/2/3
f 366/2/3 364/2/3 365/2/3
f 368/2/3 367/2/3 366/2/3
f 369/2/3 367/2/3 368/2/3
f 372/2/3 371/2/3 370/2/3
f 373/2/3 371/2/3 372/2/3
f 377/2/3 375/2/3 374/2/3
f 378/2/3 375/2/3 377/2/3
f 380/2/3 377/2/3 376/2/3
f 381/2/3 377/2/3 380/2/3
f 382/2/3 380/2/3 379/2/3
f 383/2/3 380/2/3 382/2/3
f 386/2/3 385/2/3 384/2/3
f 387/2/3 385/2/3 386/2/3
f 390/2/3 389/2/3 388/2/3
f 391/2/3 389/2/3 390/2/3
f 396/2/3 393/2/3 392/2/3
f 397/2/3 393/2/3 396/2/3
f 398/1/3 395/1/3 394/1/3
f 399/1/3 395/1/3 398/1/3
f 402/2/3 401/2/3 400/2/3
f 403/2/3 401/2/3 402/2/3
f 407/2/3 405/2/3 404/2/3
f 408/2/3 405/2/3 407/2/3
f 409/2/3 407/2/3 406/2/3
f 410/2/3 407/2/3 409/2/3
f 413/2/3 412/2/3 411/2/3
f 414/2/3 412/2/3 413/2/3
f 415/2/4 416/2/4 417/2/4
f 417/2/4 416/2/4 418/2/4
f 419/3/4 420/3/4 421/3/4
f 421/3/4 420/3/4 422/3/4
f 425/2/4 426/2/4 427/2/4
f 427/2/4 426/2/4 428/2/4
f 423/1/4 424/1/4 429/1/4
f 429/1/4 424/1/4 430/1/4
f 431/2/4 432/2/4 434/2/4
f 434/2/4 432/2/4 435/2/4
f 433/2/4 434/2/4 437/2/4
f 437/2/4 434/2/4 438/2/4
f 436/2/4 437/2/4 441/2/4
f 441/2/4 437/2/4 442/2/4
f 439/2/4 440/2/4 443/2/4
f 440/2/4 441/2/4 443/2/4
f 443/2/4 441/2/4 444/2/4
f 445/1/4 446/1/4 450/1/4
f 446/3/4 447/3/4 450/3/4
f 450/3/4 447/3/4 451/3/4
f 448/2/4 449/2/4 452/2/4
f 452/2/4 449/2/4 453/2/4
f 454/2/4 455/2/4 456/2/4
f 456/2/4 455/2/4 457/2/4
f 445/1/4 450/1/4 459/1/4
f 458/1/4 459/1/4 462/1/4
f 459/1/4 450/1/4 462/1/4
f 462/1/4 450/1/4 463/1/4
f 458/1/4 462/1/4 464/1/4
f 464/1/4 462/1/4 465/1/4
f 460/2/4 461/2/4 467/2/4
f 467/2/4 461/2/4 468/2/4
f 466/2/4 467/2/4 470/2/4
f 470/2/4 467/2/4 471/2/4
f 469/2/4 470/2/4 473/2/4
f 473/2/4 470/2/4 474/2/4
f 472/2/4 473/2/4 475/2/4
f 475/2/4 473/2/4 476/2/4
f 477/2/4 478/2/4 480/2/4
f 480/2/4 478/2/4 481/2/4
f 479/3/4 480/3/4 484/3/4
f 484/3/4 480/3/4 485/3/4
f 482/2/4 483/2/4 488/2/4
f 488/2/4 483/2/4 489/2/4
f 486/1/4 487/1/4 491/1/4
f 491/1/4 487/1/4 494/1/4
f 490/1/4 491/1/4 494/1/4
f 494/1/4 487/1/4 495/1/4
f 492/2/4 493/2/4 497/2/4
f 497/2/4 493/2/4 498/2/4
f 490/1/4 494/1/4 499/1/4
f 499/1/4 494/1/4 500/1/4
f 496/2/4 497/2/4 503/2/4
f 503/2/4 497/2/4 504/2/4
f 500/1/4 501/1/4 505/1/4
f 505/1/4 501/1/4 506/1/4
f 502/2/4 503/2/4 508/2/4
f 508/2/4 503/2/4 509/2/4
f 506/3/4 507/3/4 510/3/4
f 507/2/4 508/2/4 511/2/4
f 510/3/4 507/3/4 511/3/4
f 511/2/4 508/2/4 512/2/4
f 513/3/4 514/3/4 516/3/4
f 514/2/4 515/2/4 516/2/4
f 516/2/4 515/2/4 517/2/4
f 513/3/4 516/3/4 520/3/4
f 520/3/4 516/3/4 521/3/4
f 517/2/4 518/2/4 522/2/4
f 522/2/4 518/2/4 523/2/4
f 519/1/4 520/1/4 525/1/4
f 523/2/4 524/2/4 527/2/4
f 519/1/4 525/1/4 528/1/4
f 526/2/4 527/2/4 529/2/4
f 527/2/4 524/2/4 530/2/4
f 529/2/4 527/2/4 530/2/4
f 530/2/4 524/2/4 531/2/4
f 519/1/4 528/1/4 533/1/4
f 533/1/4 528/1/4 534/1/4
f 529/2/4 530/2/4 537/2/4
f 537/2/4 530/2/4 538/2/4
f 532/1/4 533/1/4 539/1/4
f 533/3/4 534/3/4 540/3/4
f 539/1/4 533/1/4 540/1/4
f 534/3/4 535/3/4 540/3/4
f 535/2/4 536/2/4 541/2/4
f 540/3/4 535/3/4 541/3/4
f 536/2/4 537/2/4 541/2/4
f 541/2/4 537/2/4 542/2/4
f 542/2/4 537/2/4 543/2/4
f 540/3/4 541/3/4 544/3/4
f 541/3/4 542/3/4 544/3/4
f 544/3/4 542/3/4 545/3/4
f 546/2/4 547/2/4 549/2/4
f 549/2/4 547/2/4 550/2/4
f 550/2/4 547/2/4 551/2/4
f 548/3/4 549/3/4 553/3/4
f 549/3/4 550/3/4 553/3/4
f 553/3/4 550/3/4 554/3/4
f 551/2/4 552/2/4 555/2/4
f 554/3/4 550/3/4 555/3/4
f 550/2/4 551/2/4 555/2/4
f 555/2/4 552/2/4 556/2/4
f 556/2/4 552/2/4 557/2/4
f 553/1/4 554/1/4 558/1/4
f 554/3/4 555/3/4 559/3/4
f 558/1/4 554/1/4 559/1/4
f 555/3/4 556/3/4 559/3/4
f 559/3/4 556/3/4 560/3/4
f 560/3/4 556/3/4 561/3/4
f 558/3/4 559/3/4 562/3/4
f 559/3/4 560/3/4 562/3/4
f 560/2/4 561/2/4 563/2/4
f 562/3/4 560/3/4 563/3/4
f 563/2/4 561/2/4 564/2/4
f 568/1/5 566/1/5 565/1/5
f 569/1/5 566/1/5 568/1/5
f 572/1/5 568/1/5 567/1/5
f 572/1/5 570/1/5 569/1/5
f 572/1/5 569/1/5 568/1/5
f 573/1/5 570/1/5 572/1/5
f 573/1/5 572/1/5 571/1/5
f 575/1/5 573/1/5 571/1/5
f 575/1/5 574/1/5 573/1/5
f 576/1/5 574/1/5 575/1/5
f 577/1/5 574/1/5 576/1/5
f 578/1/5 574/1/5 577/1/5
f 579/1/5 574/1/5 578/1/5
f 580/1/5 574/1/5 579/1/5
f 586/1/5 582/1/5 581/1/5
f 587/1/5 582/1/5 586/1/5
f 588/1/5 584/1/5 583/1/5
f 589/1/5 584/1/5 588/1/5
f 591/1/5 586/1/5 585/1/5
f 592/1/5 586/1/5 591/1/5
f 593/1/5 590/1/5 589/1/5
f 594/1/5 590/1/5 593/1/5
f 597/1/5 596/1/5 595/1/5
f 598/1/5 596/1/5 597/1/5
f 601/1/5 600/1/5 599/1/5
f 602/1/5 600/1/5 601/1/5
f 604/1/5 590/1/5 594/1/5
f 605/1/5 590/1/5 604/1/5
f 606/1/5 604/1/5 603/1/5
f 607/1/5 604/1/5 606/1/5
f 610/3/5 609/3/5 608/3/5
f 611/3/5 609/3/5 610/3/5
f 616/1/5 613/1/5 612/1/5
f 617/1/5 613/1/5 616/1/5
f 618/3/5 615/3/5 614/3/5
f 619/3/5 615/3/5 618/3/5
f 620/3/5 615/3/5 619/3/5
f 623/3/5 617/3/5 616/3/5
f 624/3/5 617/3/5 623/3/5
f 625/1/5 621/1/5 620/1/5
f 625/1/5 620/1/5 619/1/5
f 626/1/5 621/1/5 625/1/5
f 627/3/5 623/3/5 622/3/5
f 628/3/5 623/3/5 627/3/5
f 631/3/5 630/3/5 629/3/5
f 632/3/5 630/3/5 631/3/5
f 635/3/5 634/3/5 633/3/5
f 636/3/5 634/3/5 635/3/5
f 639/2/5 638/2/5 637/2/5
f 640/2/5 638/2/5 639/2/5
f 642/3/5 641/3/5 640/3/5
f 643/3/5 641/3/5 642/3/5
f 647/3/5 644/3/5 643/3/5
f 648/1/5 645/1/5 644/1/5
f 648/3/5 644/3/5 647/3/5
f 649/3/5 646/3/5 645/3/5
f 649/1/5 645/1/5 648/1/5
f 650/3/5 646/3/5 649/3/5
f 653/2/5 652/2/5 651/2/5
f 654/2/5 652/2/5 653/2/5
f 657/2/5 656/2/5 655/2/5
f 658/2/5 656/2/5 657/2/5
f 659/3/6 660/3/6 661/3/6
f 661/3/6 660/3/6 662/3/6
f 663/3/6 664/3/6 667/3/6
f 667/3/6 664/3/6 668/3/6
f 665/3/6 666/3/6 669/3/6
f 665/3/6 669/3/6 670/3/6
f 670/3/6 669/3/6 671/3/6
f 672/2/6 673/2/6 674/2/6
f 674/2/6 673/2/6 675/2/6
f 676/2/6 677/2/6 682/2/6
f 682/2/6 677/2/6 683/2/6
f 678/2/6 679/2/6 684/2/6
f 684/2/6 679/2/6 685/2/6
f 680/3/6 681/3/6 688/3/6
f 688/3/6 681/3/6 689/3/6
f 686/2/6 687/2/6 690/2/6
f 690/2/6 687/2/6 691/2/6
f 692/2/6 693/2/6 694/2/6
f 694/2/6 693/2/6 695/2/6
f 694/3/6 695/3/6 696/3/6
f 696/3/6 695/3/6 697/3/6
f 698/2/6 699/2/6 700/2/6
f 700/2/6 699/2/6 701/2/6
f 702/2/6 703/2/6 705/2/6
f 705/2/6 703/2/6 706/2/6
f 704/3/6 705/3/6 707/3/6
f 707/3/6 705/3/6 708/3/6
f 709/2/6 710/2/6 713/2/6
f 710/3/6 711/3/6 714/3/6
f 713/2/6 710/2/6 714/2/6
f 711/2/6 712/2/6 715/2/6
f 714/3/6 711/3/6 715/3/6
f 715/2/6 712/2/6 716/2/6
f 716/2/6 717/2/6 718/2/6
f 718/2/6 717/2/6 719/2/6
f 721/2/6 722/2/6 723/2/6
f 723/2/6 722/2/6 724/2/6
f 719/2/6 720/2/6 726/2/6
f 726/2/6 720/2/6 727/2/6
f 725/2/6 726/2/6 731/2/6
f 731/2/6 726/2/6 732/2/6
f 730/2/6 731/2/6 734/2/6
f 734/2/6 731/2/6 735/2/6
f 728/2/6 729/2/6 736/2/6
f 736/2/6 729/2/6 737/2/6
f 733/2/6 734/2/6 741/2/6
f 741/2/6 734/2/6 742/2/6
f 737/2/6 738/2/6 743/2/6
f 743/2/6 738/2/6 744/2/6
f 739/3/6 740/3/6 745/3/6
f 740/2/6 741/2/6 746/2/6
f 745/3/6 740/3/6 746/3/6
f 746/2/6 741/2/6 747/2/6
f 748/2/6 749/2/6 753/2/6
f 753/2/6 749/2/6 754/2/6
f 750/2/6 751/2/6 755/2/6
f 755/2/6 751/2/6 756/2/6
f 756/2/6 757/2/6 758/2/6
f 758/2/6 757/2/6 759/2/6
f 759/2/6 757/2/6 761/2/6
f 761/2/6 757/2/6 762/2/6
f 752/2/6 753/2/6 763/2/6
f 763/2/6 753/2/6 764/2/6
f 760/2/6 761/2/6 766/2/6
f 766/2/6 761/2/6 767/2/6
f 765/2/6 766/2/6 771/2/6
f 771/2/6 766/2/6 772/2/6
f 768/2/6 769/2/6 773/2/6
f 773/2/6 769/2/6 774/2/6
f 770/2/6 771/2/6 776/2/6
f 776/2/6 771/2/6 777/2/6
f 774/2/6 775/2/6 778/2/6
f 778/2/6 775/2/6 779/2/6
f 780/2/6 781/2/6 783/2/6
f 783/2/6 781/2/6 784/2/6
f 784/2/6 781/2/6 785/2/6
f 785/2/6 781/2/6 786/2/6
f 782/2/6 783/2/6 788/2/6
f 783/2/6 784/2/6 788/2/6
f 788/2/6 784/2/6 789/2/6
f 786/2/6 787/2/6 790/2/6
f 785/2/6 786/2/6 790/2/6
f 790/2/6 787/2/6 791/2/6
f 791/2/6 787/2/6 792/2/6
f 792/2/6 793/2/6 794/2/6
f 791/2/6 792/2/6 794/2/6
f 794/2/6 793/2/6 795/2/6
f 795/2/6 793/2/6 797/2/6
f 797/2/6 793/2/6 798/2/6
f 782/2/6 788/2/6 799/2/6
f 796/2/6 797/2/6 800/2/6
f 800/2/6 797/2/6 801/2/6
f 782/2/6 799/2/6 802/2/6
f 799/2/6 800/2/6 802/2/6
f 802/2/6 800/2/6 803/2/6
f 803/2/6 800/2/6 804/2/6
f 804/2/6 800/2/6 805/2/6
f 803/2/6 804/2/6 806/2/6
f 806/2/6 804/2/6 807/2/6
f 808/2/6 809/2/6 811/2/6
f 811/2/6 809/2/6 812/2/6
f 810/2/6 811/2/6 814/2/6
f 812/2/6 813/2/6 814/2/6
f 811/2/6 812/2/6 814/2/6
f 814/2/6 813/2/6 815/2/6
f 810/2/6 814/2/6 817/2/6
f 815/2/6 816/2/6 818/2/6
f 818/2/6 816/2/6 819/2/6
f 817/2/6 818/2/6 819/2/6
f 819/2/6 816/2/6 820/2/6
f 810/2/6 817/2/6 821/2/6
f 817/2/6 819/2/6 821/2/6
f 821/2/6 819/2/6 822/2/6
f 823/2/6 824/2/6 825/2/6
f 825/2/6 824/2/6 826/2/6
