# 3ds Max Wavefront OBJ Exporter v0.97b - (c)2007 guruware
# File Created: 30.01.2016 19:36:55

#
# object default
#

v  -1.0000 -4.0348 1.0000
v  -1.0000 -5.0348 -1.0000
v  -1.0000 -5.0348 1.0000
v  -1.0000 -4.0348 -1.0000
v  -1.0000 -0.0348 1.0000
v  -1.0000 -0.0348 -1.0000
v  1.0000 -5.0348 1.0000
v  1.0000 -5.0348 -1.0000
v  1.0000 -4.0348 1.0000
v  1.0000 -4.0348 -1.0000
v  1.0000 -0.0348 1.0000
v  1.0000 -0.0348 -1.0000
# 12 vertices

vn -1.0000 0.0000 -0.0000
vn 1.0000 0.0000 -0.0000
vn 0.0000 0.0000 1.0000
vn 0.0000 0.0000 -1.0000
vn 0.0000 -1.0000 -0.0000
vn 0.0000 1.0000 -0.0000
# 6 vertex normals

vt 0.0293 0.5000 0.0000
vt 0.1934 0.5000 0.0000
# 2 texture coords

g default
s 1
f 1/1/1 2/1/1 3/1/1 
f 4/1/1 2/1/1 1/1/1 
f 5/2/1 4/2/1 1/2/1 
f 6/2/1 4/2/1 5/2/1 
f 7/1/2 8/1/2 9/1/2 
f 9/1/2 8/1/2 10/1/2 
f 9/2/2 10/2/2 11/2/2 
f 11/2/2 10/2/2 12/2/2 
f 7/1/3 1/1/3 3/1/3 
f 9/2/3 5/2/3 1/2/3 
f 9/1/3 1/1/3 7/1/3 
f 11/2/3 5/2/3 9/2/3 
f 2/1/4 4/1/4 8/1/4 
f 4/2/4 6/2/4 10/2/4 
f 8/1/4 4/1/4 10/1/4 
f 10/2/4 6/2/4 12/2/4 
f 2/1/5 7/1/5 3/1/5 
f 8/1/5 7/1/5 2/1/5 
f 5/2/6 11/2/6 6/2/6 
f 6/2/6 11/2/6 12/2/6 
# 0 polygons - 20 triangles

