# 3ds Max Wavefront OBJ Exporter v0.97b - (c)2007 guruware
# File Created: 30.01.2016 19:48:01

#
# object default
#

v  -2.6111 -2.9486 5.0064
v  -2.6111 -1.9486 4.0064
v  -2.6111 -2.9486 4.0064
v  -2.6111 -1.9486 5.0064
v  -2.6111 -0.9486 4.0064
v  -2.6111 -0.9486 5.0064
v  -2.6111 0.0514 3.0064
v  -2.6111 -0.9486 3.0064
v  -2.6111 0.0514 4.0064
v  -2.6111 0.0514 2.0064
v  -2.6111 1.0514 0.0064
v  -2.6111 0.0514 0.0064
v  -2.6111 1.0514 2.0064
v  -2.6111 1.0514 3.0064
v  1.3889 0.0514 1.0064
v  1.3889 1.0514 0.0064
v  1.3889 0.0514 0.0064
v  1.3889 0.0514 2.0064
v  1.3889 1.0514 1.0064
v  1.3889 1.0514 2.0064
v  1.3889 1.0514 3.0064
v  1.3889 2.0514 2.0064
v  1.3889 2.0514 3.0064
v  2.3889 1.0514 4.0064
v  2.3889 2.0514 3.0064
v  2.3889 1.0514 3.0064
v  2.3889 1.0514 5.0064
v  2.3889 2.0514 4.0064
v  2.3889 3.0514 3.0064
v  2.3889 3.0514 5.0064
v  3.3889 1.0514 6.0064
v  3.3889 3.0514 5.0064
v  3.3889 1.0514 5.0064
v  3.3889 3.0514 6.0064
v  5.3889 2.0514 3.0064
v  5.3889 3.0514 2.0064
v  5.3889 2.0514 2.0064
v  5.3889 3.0514 3.0064
v  7.3889 2.0514 5.0064
v  7.3889 3.0514 4.0064
v  7.3889 2.0514 4.0064
v  7.3889 3.0514 5.0064
v  -1.6111 -2.9486 5.0064
v  -1.6111 -2.9486 4.0064
v  -1.6111 -1.9486 4.0064
v  -1.6111 -1.9486 5.0064
v  -1.6111 -0.9486 4.0064
v  -1.6111 -0.9486 5.0064
v  -1.6111 -0.9486 3.0064
v  -1.6111 0.0514 3.0064
v  -1.6111 0.0514 4.0064
v  -1.6111 0.0514 2.0064
v  -1.6111 0.0514 0.0064
v  -1.6111 1.0514 0.0064
v  -1.6111 1.0514 2.0064
v  -1.6111 1.0514 3.0064
v  2.3889 0.0514 1.0064
v  2.3889 0.0514 0.0064
v  2.3889 1.0514 0.0064
v  2.3889 0.0514 2.0064
v  2.3889 1.0514 1.0064
v  2.3889 1.0514 2.0064
v  3.3889 1.0514 3.0064
v  3.3889 1.0514 2.0064
v  3.3889 2.0514 2.0064
v  3.3889 2.0514 3.0064
v  5.3889 1.0514 4.0064
v  5.3889 1.0514 3.0064
v  5.3889 1.0514 5.0064
v  5.3889 3.0514 4.0064
v  5.3889 3.0514 5.0064
v  7.3889 1.0514 6.0064
v  7.3889 1.0514 5.0064
v  7.3889 2.0514 3.0064
v  7.3889 2.0514 2.0064
v  7.3889 3.0514 2.0064
v  7.3889 3.0514 3.0064
v  7.3889 3.0514 6.0064
v  8.3889 2.0514 5.0064
v  8.3889 2.0514 4.0064
v  8.3889 3.0514 4.0064
v  8.3889 3.0514 5.0064
v  3.3889 3.0514 3.0064
v  3.3889 3.0514 4.0064
# 84 vertices

vn -1.0000 0.0000 -0.0000
vn 1.0000 0.0000 -0.0000
vn 0.0000 0.0000 -1.0000
vn 0.0000 0.0000 1.0000
vn 0.0000 -1.0000 -0.0000
vn 0.0000 1.0000 -0.0000
# 6 vertex normals

vt 0.3066 0.5000 0.0000
vt 0.2715 0.5000 0.0000
vt 0.2090 0.5000 0.0000
# 3 texture coords

g default
s 1
f 1/1/1 2/1/1 3/1/1 
f 1/1/1 4/1/1 2/1/1 
f 4/2/1 5/2/1 2/2/1 
f 4/2/1 6/2/1 5/2/1 
f 5/2/1 7/2/1 8/2/1 
f 5/2/1 9/2/1 7/2/1 
f 10/2/1 11/2/1 12/2/1 
f 7/1/1 13/1/1 10/1/1 
f 10/2/1 13/2/1 11/2/1 
f 7/1/1 14/1/1 13/1/1 
f 15/1/1 16/1/1 17/1/1 
f 18/2/1 19/2/1 15/2/1 
f 15/1/1 19/1/1 16/1/1 
f 18/2/1 20/2/1 19/2/1 
f 21/2/1 22/2/1 20/2/1 
f 21/2/1 23/2/1 22/2/1 
f 24/2/1 25/2/1 26/2/1 
f 27/3/1 28/3/1 24/3/1 
f 24/2/1 28/2/1 25/2/1 
f 28/3/1 29/3/1 25/3/1 
f 27/3/1 30/3/1 28/3/1 
f 28/3/1 30/3/1 29/3/1 
f 31/3/1 32/3/1 33/3/1 
f 31/3/1 34/3/1 32/3/1 
f 35/2/1 36/2/1 37/2/1 
f 35/2/1 38/2/1 36/2/1 
f 39/3/1 40/3/1 41/3/1 
f 39/3/1 42/3/1 40/3/1 
f 43/1/2 44/1/2 45/1/2 
f 43/1/2 45/1/2 46/1/2 
f 46/2/2 45/2/2 47/2/2 
f 46/2/2 47/2/2 48/2/2 
f 47/2/2 49/2/2 50/2/2 
f 47/2/2 50/2/2 51/2/2 
f 52/2/2 53/2/2 54/2/2 
f 50/1/2 52/1/2 55/1/2 
f 52/2/2 54/2/2 55/2/2 
f 50/1/2 55/1/2 56/1/2 
f 57/1/2 58/1/2 59/1/2 
f 60/2/2 57/2/2 61/2/2 
f 57/1/2 59/1/2 61/1/2 
f 60/2/2 61/2/2 62/2/2 
f 63/2/2 64/2/2 65/2/2 
f 63/2/2 65/2/2 66/2/2 
f 67/2/2 68/2/2 35/2/2 
f 67/2/2 35/2/2 38/2/2 
f 69/3/2 67/3/2 70/3/2 
f 67/2/2 38/2/2 70/2/2 
f 69/3/2 70/3/2 71/3/2 
f 72/3/2 73/3/2 39/3/2 
f 74/2/2 75/2/2 76/2/2 
f 74/2/2 76/2/2 77/2/2 
f 72/3/2 39/3/2 42/3/2 
f 72/3/2 42/3/2 78/3/2 
f 79/3/2 80/3/2 81/3/2 
f 79/3/2 81/3/2 82/3/2 
f 11/2/3 53/2/3 12/2/3 
f 11/2/3 54/2/3 53/2/3 
f 16/1/3 58/1/3 17/1/3 
f 16/1/3 59/1/3 58/1/3 
f 22/2/3 62/2/3 20/2/3 
f 22/2/3 64/2/3 62/2/3 
f 22/2/3 65/2/3 64/2/3 
f 36/2/3 75/2/3 37/2/3 
f 36/2/3 76/2/3 75/2/3 
f 7/2/3 49/2/3 8/2/3 
f 7/2/3 50/2/3 49/2/3 
f 29/3/3 66/3/3 25/3/3 
f 29/3/3 83/3/3 66/3/3 
f 66/2/3 68/2/3 63/2/3 
f 83/2/3 68/2/3 66/2/3 
f 83/2/3 35/2/3 68/2/3 
f 83/2/3 38/2/3 35/2/3 
f 2/1/3 44/1/3 3/1/3 
f 5/2/3 45/2/3 2/2/3 
f 2/1/3 45/1/3 44/1/3 
f 5/2/3 47/2/3 45/2/3 
f 40/3/3 80/3/3 41/3/3 
f 40/3/3 81/3/3 80/3/3 
f 71/3/3 73/3/3 69/3/3 
f 71/3/3 39/3/3 73/3/3 
f 71/3/3 42/3/3 39/3/3 
f 20/2/4 18/2/4 60/2/4 
f 20/2/4 60/2/4 62/2/4 
f 14/1/4 7/1/4 50/1/4 
f 14/1/4 50/1/4 56/1/4 
f 23/2/4 21/2/4 26/2/4 
f 23/2/4 26/2/4 25/2/4 
f 38/2/4 35/2/4 74/2/4 
f 38/2/4 74/2/4 77/2/4 
f 9/2/4 5/2/4 47/2/4 
f 9/2/4 47/2/4 51/2/4 
f 4/1/4 1/1/4 43/1/4 
f 6/2/4 4/2/4 46/2/4 
f 4/1/4 43/1/4 46/1/4 
f 6/2/4 46/2/4 48/2/4 
f 30/3/4 27/3/4 33/3/4 
f 30/3/4 33/3/4 32/3/4 
f 42/3/4 39/3/4 79/3/4 
f 42/3/4 79/3/4 82/3/4 
f 34/3/4 31/3/4 72/3/4 
f 34/3/4 72/3/4 78/3/4 
f 44/1/5 1/1/5 3/1/5 
f 44/1/5 43/1/5 1/1/5 
f 49/2/5 5/2/5 8/2/5 
f 49/2/5 47/2/5 5/2/5 
f 58/1/5 15/1/5 17/1/5 
f 58/1/5 57/1/5 15/1/5 
f 53/2/5 10/2/5 12/2/5 
f 53/2/5 52/2/5 10/2/5 
f 57/2/5 18/2/5 15/2/5 
f 57/2/5 60/2/5 18/2/5 
f 52/1/5 7/1/5 10/1/5 
f 52/1/5 50/1/5 7/1/5 
f 62/2/5 21/2/5 20/2/5 
f 64/2/5 21/2/5 62/2/5 
f 64/2/5 26/2/5 21/2/5 
f 64/2/5 63/2/5 26/2/5 
f 68/2/5 24/2/5 63/2/5 
f 63/2/5 24/2/5 26/2/5 
f 68/2/5 67/2/5 24/2/5 
f 67/3/5 27/3/5 24/3/5 
f 67/3/5 33/3/5 27/3/5 
f 67/3/5 69/3/5 33/3/5 
f 69/3/5 31/3/5 33/3/5 
f 73/3/5 31/3/5 69/3/5 
f 73/3/5 72/3/5 31/3/5 
f 75/2/5 35/2/5 37/2/5 
f 75/2/5 74/2/5 35/2/5 
f 80/3/5 39/3/5 41/3/5 
f 80/3/5 79/3/5 39/3/5 
f 47/2/6 5/2/6 6/2/6 
f 47/2/6 6/2/6 48/2/6 
f 50/2/6 7/2/6 9/2/6 
f 50/2/6 9/2/6 51/2/6 
f 59/1/6 16/1/6 19/1/6 
f 59/1/6 19/1/6 61/1/6 
f 54/2/6 11/2/6 13/2/6 
f 54/2/6 13/2/6 55/2/6 
f 61/2/6 19/2/6 20/2/6 
f 61/2/6 20/2/6 62/2/6 
f 55/1/6 13/1/6 14/1/6 
f 55/1/6 14/1/6 56/1/6 
f 65/2/6 22/2/6 23/2/6 
f 65/2/6 23/2/6 25/2/6 
f 65/2/6 25/2/6 66/2/6 
f 76/2/6 36/2/6 38/2/6 
f 76/2/6 38/2/6 77/2/6 
f 83/3/6 29/3/6 84/3/6 
f 38/2/6 83/2/6 84/2/6 
f 38/2/6 84/2/6 70/2/6 
f 70/3/6 84/3/6 30/3/6 
f 84/3/6 29/3/6 30/3/6 
f 70/3/6 30/3/6 32/3/6 
f 70/3/6 32/3/6 71/3/6 
f 81/3/6 40/3/6 42/3/6 
f 81/3/6 42/3/6 82/3/6 
f 71/3/6 32/3/6 34/3/6 
f 42/3/6 71/3/6 34/3/6 
f 42/3/6 34/3/6 78/3/6 
# 0 polygons - 160 triangles

