# 3ds Max Wavefront OBJ Exporter v0.97b - (c)2007 guruware
# File Created: 30.01.2016 19:42:38

#
# object default
#

v  -0.0667 -1.9542 -2.5000
v  -0.0667 -0.9542 2.5000
v  -0.0667 -1.9542 2.5000
v  -0.0667 -0.9542 1.5000
v  -0.0667 -0.9542 -1.5000
v  -0.0667 -0.9542 -2.5000
v  -0.0667 1.0458 2.5000
v  -0.0667 1.0458 1.5000
v  -0.0667 1.0458 0.5000
v  -0.0667 1.0458 -0.5000
v  -0.0667 1.0458 -1.5000
v  -0.0667 1.0458 -2.5000
v  -0.0667 2.0458 1.5000
v  -0.0667 2.0458 0.5000
v  -0.0667 2.0458 -0.5000
v  -0.0667 2.0458 -1.5000
v  -1.0667 1.0458 1.5000
v  -1.0667 2.0458 2.5000
v  -1.0667 1.0458 2.5000
v  -1.0667 2.0458 1.5000
v  -1.0667 1.0458 -2.5000
v  -1.0667 2.0458 -1.5000
v  -1.0667 1.0458 -1.5000
v  -1.0667 2.0458 -2.5000
v  -3.0667 -1.9542 0.5000
v  -3.0667 -0.9542 1.5000
v  -3.0667 -1.9542 1.5000
v  -3.0667 -0.9542 0.5000
v  -2.0667 -1.9542 0.5000
v  -2.0667 -1.9542 2.5000
v  -2.0667 -0.9542 2.5000
v  -2.0667 -0.9542 1.5000
v  -2.0667 -0.9542 0.5000
v  -2.0667 -1.9542 -2.5000
v  -2.0667 -1.9542 -1.5000
v  -2.0667 -0.9542 -1.5000
v  -2.0667 -0.9542 -2.5000
v  -2.0667 0.0458 2.5000
v  -2.0667 0.0458 1.5000
v  -2.0667 0.0458 -1.5000
v  -2.0667 0.0458 -2.5000
v  -2.0667 1.0458 0.5000
v  -2.0667 1.0458 1.5000
v  -2.0667 2.0458 1.5000
v  -2.0667 1.0458 -0.5000
v  -2.0667 2.0458 0.5000
v  -2.0667 1.0458 -1.5000
v  -2.0667 2.0458 -0.5000
v  -2.0667 2.0458 -1.5000
v  -3.0667 -1.9542 -0.5000
v  -3.0667 -0.9542 -0.5000
v  -3.0667 0.0458 1.5000
v  -3.0667 -0.9542 -1.5000
v  -3.0667 0.0458 -1.5000
v  -3.0667 0.0458 2.5000
v  -3.0667 1.0458 2.5000
v  -3.0667 1.0458 1.5000
v  -3.0667 0.0458 -2.5000
v  -3.0667 1.0458 -1.5000
v  -3.0667 1.0458 -2.5000
v  -3.0667 2.0458 2.5000
v  -3.0667 2.0458 1.5000
v  -3.0667 2.0458 -1.5000
v  -3.0667 2.0458 -2.5000
v  -4.0667 -1.9542 0.5000
v  -4.0667 -1.9542 1.5000
v  -4.0667 -0.9542 1.5000
v  -4.0667 -0.9542 0.5000
v  -4.0667 -1.9542 -1.5000
v  -4.0667 -1.9542 -0.5000
v  -4.0667 -0.9542 -0.5000
v  -4.0667 -0.9542 -1.5000
v  -1.0667 0.0458 2.5000
v  -2.0667 1.0458 2.5000
v  -2.0667 2.0458 2.5000
v  -1.0667 0.0458 -2.5000
v  -2.0667 1.0458 -2.5000
v  -2.0667 2.0458 -2.5000
# 78 vertices

vn 1.0000 0.0000 -0.0000
vn -1.0000 0.0000 -0.0000
vn 0.0000 0.0000 1.0000
vn 0.0000 0.0000 -1.0000
vn 0.0000 -1.0000 -0.0000
vn 0.0000 1.0000 -0.0000
# 6 vertex normals

vt 0.2715 0.5000 0.0000
vt 0.3066 0.5000 0.0000
vt 0.0020 0.5000 0.0000
vt 0.2793 0.5000 0.0000
# 4 texture coords

g default
s 1
f 1/1/1 2/1/1 3/1/1 
f 1/1/1 4/1/1 2/1/1 
f 1/1/1 5/1/1 4/1/1 
f 1/1/1 6/1/1 5/1/1 
f 4/2/1 7/2/1 2/2/1 
f 5/1/1 8/1/1 4/1/1 
f 4/2/1 8/2/1 7/2/1 
f 5/1/1 9/1/1 8/1/1 
f 5/1/1 10/1/1 9/1/1 
f 6/2/1 11/2/1 5/2/1 
f 5/1/1 11/1/1 10/1/1 
f 6/2/1 12/2/1 11/2/1 
f 9/2/1 13/2/1 8/2/1 
f 10/1/1 14/1/1 9/1/1 
f 9/2/1 14/2/1 13/2/1 
f 11/2/1 15/2/1 10/2/1 
f 10/1/1 15/1/1 14/1/1 
f 11/2/1 16/2/1 15/2/1 
f 17/3/1 18/3/1 19/3/1 
f 17/3/1 20/3/1 18/3/1 
f 21/3/1 22/3/1 23/3/1 
f 21/3/1 24/3/1 22/3/1 
f 25/1/1 26/1/1 27/1/1 
f 25/1/1 28/1/1 26/1/1 
f 29/1/2 30/1/2 31/1/2 
f 29/1/2 31/1/2 32/1/2 
f 29/1/2 32/1/2 33/1/2 
f 34/1/2 35/1/2 36/1/2 
f 34/1/2 36/1/2 37/1/2 
f 32/2/2 31/2/2 38/2/2 
f 32/2/2 38/2/2 39/2/2 
f 37/2/2 36/2/2 40/2/2 
f 37/2/2 40/2/2 41/2/2 
f 42/2/2 43/2/2 44/2/2 
f 45/1/2 42/1/2 46/1/2 
f 42/2/2 44/2/2 46/2/2 
f 47/2/2 45/2/2 48/2/2 
f 45/1/2 46/1/2 48/1/2 
f 47/2/2 48/2/2 49/2/2 
f 50/1/2 25/1/2 28/1/2 
f 50/1/2 28/1/2 51/1/2 
f 28/1/2 26/1/2 52/1/2 
f 53/1/2 51/1/2 52/1/2 
f 51/1/2 28/1/2 52/1/2 
f 53/1/2 52/1/2 54/1/2 
f 52/3/2 55/3/2 56/3/2 
f 54/1/2 52/1/2 57/1/2 
f 52/3/2 56/3/2 57/3/2 
f 58/3/2 54/3/2 59/3/2 
f 54/1/2 57/1/2 59/1/2 
f 58/3/2 59/3/2 60/3/2 
f 57/4/2 56/4/2 61/4/2 
f 57/4/2 61/4/2 62/4/2 
f 60/4/2 59/4/2 63/4/2 
f 60/4/2 63/4/2 64/4/2 
f 65/1/2 66/1/2 67/1/2 
f 65/1/2 67/1/2 68/1/2 
f 69/1/2 70/1/2 71/1/2 
f 69/1/2 71/1/2 72/1/2 
f 7/2/3 73/2/3 2/2/3 
f 7/2/3 19/2/3 73/2/3 
f 2/1/3 30/1/3 3/1/3 
f 73/2/3 31/2/3 2/2/3 
f 2/1/3 31/1/3 30/1/3 
f 18/3/3 38/3/3 19/3/3 
f 73/2/3 38/2/3 31/2/3 
f 19/3/3 38/3/3 73/3/3 
f 18/3/3 74/3/3 38/3/3 
f 18/3/3 75/3/3 74/3/3 
f 74/3/3 55/3/3 38/3/3 
f 75/4/3 56/4/3 74/4/3 
f 74/3/3 56/3/3 55/3/3 
f 75/4/3 61/4/3 56/4/3 
f 13/2/3 17/2/3 8/2/3 
f 13/2/3 20/2/3 17/2/3 
f 39/1/3 26/1/3 32/1/3 
f 39/1/3 52/1/3 26/1/3 
f 26/1/3 66/1/3 27/1/3 
f 26/1/3 67/1/3 66/1/3 
f 33/1/3 25/1/3 29/1/3 
f 33/1/3 28/1/3 25/1/3 
f 51/1/3 70/1/3 50/1/3 
f 51/1/3 71/1/3 70/1/3 
f 49/4/3 59/4/3 47/4/3 
f 49/4/3 63/4/3 59/4/3 
f 44/4/4 43/4/4 57/4/4 
f 44/4/4 57/4/4 62/4/4 
f 28/1/4 25/1/4 65/1/4 
f 28/1/4 65/1/4 68/1/4 
f 16/2/4 11/2/4 23/2/4 
f 16/2/4 23/2/4 22/2/4 
f 36/1/4 35/1/4 53/1/4 
f 40/1/4 36/1/4 53/1/4 
f 40/1/4 53/1/4 54/1/4 
f 53/1/4 35/1/4 69/1/4 
f 53/1/4 69/1/4 72/1/4 
f 12/2/4 6/2/4 76/2/4 
f 12/2/4 76/2/4 21/2/4 
f 6/1/4 1/1/4 34/1/4 
f 76/2/4 6/2/4 37/2/4 
f 6/1/4 34/1/4 37/1/4 
f 24/3/4 21/3/4 41/3/4 
f 76/2/4 37/2/4 41/2/4 
f 21/3/4 76/3/4 41/3/4 
f 24/3/4 41/3/4 77/3/4 
f 24/3/4 77/3/4 78/3/4 
f 77/3/4 41/3/4 58/3/4 
f 78/4/4 77/4/4 60/4/4 
f 77/3/4 58/3/4 60/3/4 
f 78/4/4 60/4/4 64/4/4 
f 30/1/5 29/1/5 3/1/5 
f 66/1/5 25/1/5 27/1/5 
f 66/1/5 65/1/5 25/1/5 
f 25/1/5 50/1/5 29/1/5 
f 29/1/5 35/1/5 3/1/5 
f 70/1/5 35/1/5 50/1/5 
f 50/1/5 35/1/5 29/1/5 
f 70/1/5 69/1/5 35/1/5 
f 35/1/5 1/1/5 3/1/5 
f 35/1/5 34/1/5 1/1/5 
f 26/1/5 33/1/5 32/1/5 
f 26/1/5 28/1/5 33/1/5 
f 55/3/5 39/3/5 38/3/5 
f 55/3/5 52/3/5 39/3/5 
f 54/3/5 41/3/5 40/3/5 
f 54/3/5 58/3/5 41/3/5 
f 67/1/6 26/1/6 28/1/6 
f 67/1/6 28/1/6 68/1/6 
f 71/1/6 51/1/6 53/1/6 
f 71/1/6 53/1/6 72/1/6 
f 19/2/6 7/2/6 8/2/6 
f 19/2/6 8/2/6 17/2/6 
f 57/1/6 43/1/6 42/1/6 
f 57/1/6 42/1/6 45/1/6 
f 57/1/6 45/1/6 47/1/6 
f 57/1/6 47/1/6 59/1/6 
f 23/2/6 11/2/6 12/2/6 
f 23/2/6 12/2/6 21/2/6 
f 75/3/6 18/3/6 20/3/6 
f 61/4/6 75/4/6 44/4/6 
f 75/3/6 20/3/6 44/3/6 
f 61/4/6 44/4/6 62/4/6 
f 20/2/6 13/2/6 14/2/6 
f 44/2/6 20/2/6 14/2/6 
f 44/2/6 14/2/6 46/2/6 
f 46/1/6 14/1/6 15/1/6 
f 46/1/6 15/1/6 48/1/6 
f 48/2/6 15/2/6 16/2/6 
f 48/2/6 16/2/6 22/2/6 
f 48/2/6 22/2/6 49/2/6 
f 49/3/6 22/3/6 24/3/6 
f 63/4/6 49/4/6 78/4/6 
f 49/3/6 24/3/6 78/3/6 
f 63/4/6 78/4/6 64/4/6 
# 0 polygons - 154 triangles

