# 3ds Max Wavefront OBJ Exporter v0.97b - (c)2007 guruware
# File Created: 30.01.2016 19:50:18

#
# object default
#

v  -2.0000 2.0537 2.0041
v  -2.0000 -0.9463 0.0041
v  -2.0000 -0.9463 2.0041
v  -2.0000 2.0537 1.0041
v  -2.0000 3.0537 2.0041
v  -2.0000 3.0537 1.0041
v  -2.0000 3.0537 0.0041
v  -1.0000 -5.9463 2.0041
v  -1.0000 -6.9463 0.0041
v  -1.0000 -6.9463 2.0041
v  -1.0000 -5.9463 0.0041
v  -1.0000 -4.9463 2.0041
v  -1.0000 -4.9463 0.0041
v  -1.0000 -0.9463 2.0041
v  -1.0000 -0.9463 0.0041
v  1.0000 -6.9463 2.0041
v  1.0000 -6.9463 0.0041
v  1.0000 -5.9463 2.0041
v  1.0000 -5.9463 0.0041
v  1.0000 -4.9463 2.0041
v  1.0000 -4.9463 0.0041
v  1.0000 -0.9463 1.0041
v  1.0000 -0.9463 0.0041
v  1.0000 0.0537 2.0041
v  1.0000 0.0537 1.0041
v  2.0000 -0.9463 1.0041
v  2.0000 -0.9463 0.0041
v  2.0000 0.0537 1.0041
v  2.0000 0.0537 2.0041
v  2.0000 2.0537 2.0041
v  2.0000 2.0537 1.0041
v  2.0000 3.0537 2.0041
v  2.0000 3.0537 1.0041
v  2.0000 3.0537 0.0041
v  -1.0000 0.0537 2.0041
v  -1.0000 1.0537 2.0041
v  -1.0000 2.0537 2.0041
v  -1.0000 3.0537 2.0041
v  -0.0000 0.0537 2.0041
v  -0.0000 1.0537 2.0041
v  1.0000 2.0537 2.0041
v  1.0000 3.0537 2.0041
v  -1.0000 3.0537 1.0041
v  1.0000 3.0537 1.0041
# 44 vertices

vn -1.0000 0.0000 -0.0000
vn 1.0000 0.0000 -0.0000
vn 0.0000 0.0000 1.0000
vn 0.0000 0.0000 -1.0000
vn 0.0000 -1.0000 -0.0000
vn 0.0000 1.0000 -0.0000
# 6 vertex normals

vt 0.0020 0.5000 0.0000
vt 0.0605 0.5000 0.0000
vt 0.2520 0.5000 0.0000
# 3 texture coords

g default
s 1
f 1/1/1 2/1/1 3/1/1 
f 4/1/1 2/1/1 1/1/1 
f 5/2/1 4/2/1 1/2/1 
f 6/1/1 2/1/1 4/1/1 
f 6/2/1 4/2/1 5/2/1 
f 7/1/1 2/1/1 6/1/1 
f 8/2/1 9/2/1 10/2/1 
f 11/2/1 9/2/1 8/2/1 
f 12/3/1 11/3/1 8/3/1 
f 13/3/1 11/3/1 12/3/1 
f 14/1/1 13/1/1 12/1/1 
f 15/1/1 13/1/1 14/1/1 
f 16/2/2 17/2/2 18/2/2 
f 18/2/2 17/2/2 19/2/2 
f 18/3/2 19/3/2 20/3/2 
f 20/3/2 19/3/2 21/3/2 
f 20/1/2 21/1/2 22/1/2 
f 22/1/2 21/1/2 23/1/2 
f 20/1/2 22/1/2 24/1/2 
f 24/1/2 22/1/2 25/1/2 
f 26/1/2 27/1/2 28/1/2 
f 29/1/2 28/1/2 30/1/2 
f 28/1/2 27/1/2 31/1/2 
f 30/1/2 28/1/2 31/1/2 
f 30/2/2 31/2/2 32/2/2 
f 31/1/2 27/1/2 33/1/2 
f 32/2/2 31/2/2 33/2/2 
f 33/1/2 27/1/2 34/1/2 
f 14/1/3 1/1/3 3/1/3 
f 35/1/3 1/1/3 14/1/3 
f 36/1/3 1/1/3 35/1/3 
f 37/2/3 5/2/3 1/2/3 
f 37/1/3 1/1/3 36/1/3 
f 38/2/3 5/2/3 37/2/3 
f 39/2/3 36/2/3 35/2/3 
f 39/1/3 14/1/3 12/1/3 
f 39/1/3 35/1/3 14/1/3 
f 40/1/3 38/1/3 37/1/3 
f 40/2/3 36/2/3 39/2/3 
f 40/1/3 37/1/3 36/1/3 
f 16/2/3 8/2/3 10/2/3 
f 18/3/3 12/3/3 8/3/3 
f 18/2/3 8/2/3 16/2/3 
f 20/1/3 39/1/3 12/1/3 
f 20/3/3 12/3/3 18/3/3 
f 20/1/3 40/1/3 39/1/3 
f 24/1/3 40/1/3 20/1/3 
f 41/1/3 38/1/3 40/1/3 
f 41/1/3 40/1/3 24/1/3 
f 42/1/3 38/1/3 41/1/3 
f 29/1/3 41/1/3 24/1/3 
f 30/2/3 42/2/3 41/2/3 
f 30/1/3 41/1/3 29/1/3 
f 32/2/3 42/2/3 30/2/3 
f 26/1/3 25/1/3 22/1/3 
f 28/1/3 25/1/3 26/1/3 
f 2/1/4 7/1/4 15/1/4 
f 9/2/4 11/2/4 17/2/4 
f 11/3/4 13/3/4 19/3/4 
f 17/2/4 11/2/4 19/2/4 
f 13/1/4 15/1/4 21/1/4 
f 19/3/4 13/3/4 21/3/4 
f 15/1/4 7/1/4 23/1/4 
f 21/1/4 15/1/4 23/1/4 
f 23/1/4 7/1/4 27/1/4 
f 27/1/4 7/1/4 34/1/4 
f 9/2/5 16/2/5 10/2/5 
f 17/2/5 16/2/5 9/2/5 
f 2/1/5 14/1/5 3/1/5 
f 15/1/5 14/1/5 2/1/5 
f 23/1/5 26/1/5 22/1/5 
f 27/1/5 26/1/5 23/1/5 
f 25/1/5 29/1/5 24/1/5 
f 28/1/5 29/1/5 25/1/5 
f 5/2/6 38/2/6 6/2/6 
f 38/1/6 42/1/6 43/1/6 
f 6/2/6 38/2/6 43/2/6 
f 42/2/6 32/2/6 44/2/6 
f 43/1/6 42/1/6 44/1/6 
f 44/2/6 32/2/6 33/2/6 
f 6/1/6 43/1/6 7/1/6 
f 43/1/6 44/1/6 7/1/6 
f 44/1/6 33/1/6 7/1/6 
f 7/1/6 33/1/6 34/1/6 
# 0 polygons - 84 triangles

