# MagicaVoxel @ ephtracy

# material
mtllib fire1.mtl
usemtl palette

# normals
vn -1 0 0
vn 1 0 0
vn 0 0 1
vn 0 0 -1
vn 0 -1 0
vn 0 1 0

# texcoords
vt 0.197266 0.5
vt 0.208984 0.5
vt 0.212891 0.5

# verts
v -4 2 0.5
v -4 2 -0.5
v -4 3 0.5
v -4 3 -0.5
v -4 5 0.5
v -4 5 -0.5
v -4 6 0.5
v -4 6 -0.5
v -3 1 0.5
v -3 1 -0.5
v -3 2 0.5
v -3 2 -0.5
v -3 2 -1.5
v -3 3 1.5
v -3 3 0.5
v -3 3 -0.5
v -3 3 -1.5
v -3 4 1.5
v -3 4 0.5
v -3 4 -0.5
v -3 4 -1.5
v -3 5 0.5
v -3 5 -0.5
v -3 6 1.5
v -3 6 0.5
v -3 6 -0.5
v -3 6 -1.5
v -3 7 0.5
v -3 7 -0.5
v -3 9 0.5
v -3 9 -0.5
v -3 10 1.5
v -3 10 0.5
v -3 11 1.5
v -3 11 0.5
v -3 11 -0.5
v -3 11 -1.5
v -3 12 0.5
v -3 12 -0.5
v -3 12 -1.5
v -2 2 1.5
v -2 2 0.5
v -2 3 2.5
v -2 3 1.5
v -2 3 0.5
v -2 3 -1.5
v -2 3 -2.5
v -2 4 1.5
v -2 4 -1.5
v -2 4 -2.5
v -2 5 2.5
v -2 5 1.5
v -2 5 -1.5
v -2 5 -2.5
v -2 6 -1.5
v -2 6 -2.5
v -2 10 -0.5
v -2 10 -1.5
v -2 11 -0.5
v -2 11 -1.5
v -2 12 0.5
v -2 12 -0.5
v -2 13 0.5
v -2 13 -0.5
v -1 0 0.5
v -1 0 -0.5
v -1 1 1.5
v -1 1 0.5
v -1 1 -0.5
v -1 1 -1.5
v -1 2 2.5
v -1 2 1.5
v -1 2 0.5
v -1 2 -0.5
v -1 2 -1.5
v -1 2 -2.5
v -1 3 3.5
v -1 3 2.5
v -1 3 1.5
v -1 3 -1.5
v -1 3 -2.5
v -1 3 -3.5
v -1 4 -2.5
v -1 5 3.5
v -1 5 2.5
v -1 5 1.5
v -1 5 -2.5
v -1 5 -3.5
v -1 6 2.5
v -1 6 1.5
v -1 6 0.5
v -1 6 -0.5
v -1 6 -1.5
v -1 7 1.5
v -1 7 0.5
v -1 7 -0.5
v -1 7 -1.5
v -1 8 0.5
v -1 8 -0.5
v 0 6 2.5
v 0 6 1.5
v 0 6 -1.5
v 0 6 -2.5
v 0 7 2.5
v 0 7 1.5
v 0 7 0.5
v 0 7 -0.5
v 0 7 -1.5
v 0 7 -2.5
v 0 8 1.5
v 0 8 0.5
v 0 8 -0.5
v 0 8 -1.5
v 0 10 0.5
v 0 10 -0.5
v 1 7 -1.5
v 1 7 -2.5
v 1 8 1.5
v 1 8 0.5
v 1 8 -0.5
v 1 8 -1.5
v 1 8 -2.5
v 1 9 1.5
v 1 9 0.5
v 1 10 0.5
v 1 10 -0.5
v 1 11 1.5
v 1 11 0.5
v 1 11 -0.5
v 1 11 -1.5
v 1 14 0.5
v 1 14 -0.5
v -2 9 0.5
v -2 9 -0.5
v -2 10 1.5
v -2 10 0.5
v -2 10 -0.5
v -2 11 1.5
v -2 11 0.5
v -2 11 -0.5
v -2 11 -1.5
v -2 12 -0.5
v -2 12 -1.5
v -1 10 0.5
v -1 10 -0.5
v -1 10 -1.5
v -1 11 0.5
v -1 11 -0.5
v -1 11 -1.5
v -1 12 0.5
v -1 12 -0.5
v -1 13 0.5
v -1 13 -0.5
v 0 3 -2.5
v 0 3 -3.5
v 0 5 -2.5
v 0 5 -3.5
v 1 0 0.5
v 1 0 -0.5
v 1 1 1.5
v 1 1 0.5
v 1 1 -0.5
v 1 1 -1.5
v 1 2 2.5
v 1 2 1.5
v 1 2 0.5
v 1 2 -0.5
v 1 2 -1.5
v 1 2 -2.5
v 1 3 3.5
v 1 3 2.5
v 1 3 1.5
v 1 3 -1.5
v 1 3 -2.5
v 1 4 -1.5
v 1 4 -2.5
v 1 5 3.5
v 1 5 2.5
v 1 5 1.5
v 1 5 -1.5
v 1 5 -2.5
v 1 6 2.5
v 1 6 1.5
v 1 6 -1.5
v 1 6 -2.5
v 1 7 2.5
v 1 7 1.5
v 1 7 -1.5
v 1 7 -2.5
v 2 1 0.5
v 2 1 -0.5
v 2 2 1.5
v 2 2 0.5
v 2 2 -0.5
v 2 2 -1.5
v 2 3 2.5
v 2 3 1.5
v 2 3 -0.5
v 2 3 -1.5
v 2 4 1.5
v 2 4 0.5
v 2 4 -0.5
v 2 4 -1.5
v 2 4 -2.5
v 2 5 2.5
v 2 5 1.5
v 2 5 0.5
v 2 5 -0.5
v 2 5 -1.5
v 2 5 -2.5
v 2 6 1.5
v 2 6 0.5
v 2 7 0.5
v 2 7 -0.5
v 2 7 -1.5
v 2 7 -2.5
v 2 8 1.5
v 2 8 0.5
v 2 8 -1.5
v 2 8 -2.5
v 2 9 1.5
v 2 9 0.5
v 2 10 0.5
v 2 10 -0.5
v 2 11 1.5
v 2 11 0.5
v 2 11 -0.5
v 2 11 -1.5
v 2 12 0.5
v 2 12 -0.5
v 2 14 0.5
v 2 14 -0.5
v 3 2 0.5
v 3 2 -0.5
v 3 4 1.5
v 3 4 0.5
v 3 4 -0.5
v 3 4 -1.5
v 3 5 1.5
v 3 5 0.5
v 3 5 -0.5
v 3 5 -1.5
v 3 7 0.5
v 3 7 -0.5
v 3 10 0.5
v 3 10 -0.5
v 3 12 0.5
v 3 12 -0.5
v 4 4 0.5
v 4 4 -0.5
v 4 5 0.5
v 4 5 -0.5
v -1 3 3.5
v -1 5 3.5
v 1 3 3.5
v 1 5 3.5
v -2 3 2.5
v -2 5 2.5
v -1 2 2.5
v -1 3 2.5
v -1 5 2.5
v -1 6 2.5
v 0 5 2.5
v 0 6 2.5
v 0 7 2.5
v 1 2 2.5
v 1 3 2.5
v 1 5 2.5
v 1 6 2.5
v 1 7 2.5
v 2 3 2.5
v 2 5 2.5
v -3 3 1.5
v -3 4 1.5
v -3 6 1.5
v -3 10 1.5
v -3 11 1.5
v -2 2 1.5
v -2 3 1.5
v -2 4 1.5
v -2 5 1.5
v -2 10 1.5
v -2 11 1.5
v -1 1 1.5
v -1 2 1.5
v -1 3 1.5
v -1 5 1.5
v -1 6 1.5
v -1 7 1.5
v 0 6 1.5
v 0 7 1.5
v 0 8 1.5
v 1 1 1.5
v 1 2 1.5
v 1 3 1.5
v 1 5 1.5
v 1 6 1.5
v 1 7 1.5
v 1 8 1.5
v 1 9 1.5
v 1 11 1.5
v 2 2 1.5
v 2 3 1.5
v 2 4 1.5
v 2 5 1.5
v 2 6 1.5
v 2 8 1.5
v 2 9 1.5
v 2 11 1.5
v 3 4 1.5
v 3 5 1.5
v -4 2 0.5
v -4 3 0.5
v -4 5 0.5
v -4 6 0.5
v -3 1 0.5
v -3 2 0.5
v -3 3 0.5
v -3 4 0.5
v -3 5 0.5
v -3 6 0.5
v -3 7 0.5
v -3 9 0.5
v -3 10 0.5
v -3 11 0.5
v -3 12 0.5
v -2 2 0.5
v -2 3 0.5
v -2 9 0.5
v -2 10 0.5
v -2 11 0.5
v -2 12 0.5
v -2 13 0.5
v -1 0 0.5
v -1 1 0.5
v -1 2 0.5
v -1 6 0.5
v -1 7 0.5
v -1 8 0.5
v -1 10 0.5
v -1 11 0.5
v -1 12 0.5
v -1 13 0.5
v 0 7 0.5
v 0 8 0.5
v 0 10 0.5
v 1 0 0.5
v 1 1 0.5
v 1 2 0.5
v 1 8 0.5
v 1 9 0.5
v 1 10 0.5
v 1 11 0.5
v 1 14 0.5
v 2 1 0.5
v 2 2 0.5
v 2 4 0.5
v 2 5 0.5
v 2 6 0.5
v 2 7 0.5
v 2 8 0.5
v 2 9 0.5
v 2 10 0.5
v 2 11 0.5
v 2 12 0.5
v 2 14 0.5
v 3 2 0.5
v 3 4 0.5
v 3 5 0.5
v 3 7 0.5
v 3 10 0.5
v 3 12 0.5
v 4 4 0.5
v 4 5 0.5
v -4 2 -0.5
v -4 3 -0.5
v -4 5 -0.5
v -4 6 -0.5
v -3 1 -0.5
v -3 2 -0.5
v -3 3 -0.5
v -3 4 -0.5
v -3 5 -0.5
v -3 6 -0.5
v -3 7 -0.5
v -3 9 -0.5
v -3 11 -0.5
v -2 9 -0.5
v -2 10 -0.5
v -2 11 -0.5
v -2 12 -0.5
v -2 13 -0.5
v -1 0 -0.5
v -1 1 -0.5
v -1 2 -0.5
v -1 6 -0.5
v -1 7 -0.5
v -1 8 -0.5
v -1 11 -0.5
v -1 12 -0.5
v -1 13 -0.5
v 0 7 -0.5
v 0 8 -0.5
v 0 10 -0.5
v 1 0 -0.5
v 1 1 -0.5
v 1 2 -0.5
v 1 8 -0.5
v 1 10 -0.5
v 1 11 -0.5
v 1 14 -0.5
v 2 1 -0.5
v 2 2 -0.5
v 2 3 -0.5
v 2 4 -0.5
v 2 5 -0.5
v 2 7 -0.5
v 2 10 -0.5
v 2 11 -0.5
v 2 12 -0.5
v 2 14 -0.5
v 3 2 -0.5
v 3 4 -0.5
v 3 5 -0.5
v 3 7 -0.5
v 3 10 -0.5
v 3 12 -0.5
v 4 4 -0.5
v 4 5 -0.5
v -3 2 -1.5
v -3 3 -1.5
v -3 4 -1.5
v -3 6 -1.5
v -3 11 -1.5
v -3 12 -1.5
v -2 3 -1.5
v -2 4 -1.5
v -2 5 -1.5
v -2 6 -1.5
v -2 10 -1.5
v -2 11 -1.5
v -2 12 -1.5
v -1 1 -1.5
v -1 2 -1.5
v -1 3 -1.5
v -1 6 -1.5
v -1 7 -1.5
v -1 10 -1.5
v -1 11 -1.5
v 0 2 -1.5
v 0 6 -1.5
v 0 7 -1.5
v 0 8 -1.5
v 1 1 -1.5
v 1 2 -1.5
v 1 3 -1.5
v 1 4 -1.5
v 1 5 -1.5
v 1 6 -1.5
v 1 7 -1.5
v 1 8 -1.5
v 1 11 -1.5
v 2 2 -1.5
v 2 3 -1.5
v 2 4 -1.5
v 2 5 -1.5
v 2 7 -1.5
v 2 8 -1.5
v 2 11 -1.5
v 3 4 -1.5
v 3 5 -1.5
v -2 3 -2.5
v -2 4 -2.5
v -2 5 -2.5
v -2 6 -2.5
v -1 2 -2.5
v -1 3 -2.5
v -1 4 -2.5
v -1 5 -2.5
v -1 6 -2.5
v 0 2 -2.5
v 0 3 -2.5
v 0 5 -2.5
v 0 6 -2.5
v 0 7 -2.5
v 1 2 -2.5
v 1 3 -2.5
v 1 4 -2.5
v 1 5 -2.5
v 1 6 -2.5
v 1 7 -2.5
v 1 8 -2.5
v 2 4 -2.5
v 2 5 -2.5
v 2 7 -2.5
v 2 8 -2.5
v -1 3 -3.5
v -1 5 -3.5
v 0 3 -3.5
v 0 5 -3.5
v -1 0 0.5
v 1 0 0.5
v -1 0 -0.5
v 1 0 -0.5
v -1 1 1.5
v 1 1 1.5
v -3 1 0.5
v -1 1 0.5
v 1 1 0.5
v 2 1 0.5
v -3 1 -0.5
v -1 1 -0.5
v 1 1 -0.5
v 2 1 -0.5
v -1 1 -1.5
v 1 1 -1.5
v -1 2 2.5
v 1 2 2.5
v -2 2 1.5
v -1 2 1.5
v 1 2 1.5
v 2 2 1.5
v -4 2 0.5
v -3 2 0.5
v -2 2 0.5
v -1 2 0.5
v 1 2 0.5
v 2 2 0.5
v 3 2 0.5
v -4 2 -0.5
v -3 2 -0.5
v -1 2 -0.5
v 1 2 -0.5
v 2 2 -0.5
v 3 2 -0.5
v -3 2 -1.5
v -1 2 -1.5
v 0 2 -1.5
v 1 2 -1.5
v 2 2 -1.5
v -1 2 -2.5
v 0 2 -2.5
v 1 2 -2.5
v -1 3 3.5
v 1 3 3.5
v -2 3 2.5
v -1 3 2.5
v 1 3 2.5
v 2 3 2.5
v -3 3 1.5
v -2 3 1.5
v -1 3 1.5
v 1 3 1.5
v 2 3 1.5
v -3 3 0.5
v -2 3 0.5
v -2 3 -1.5
v -1 3 -1.5
v -2 3 -2.5
v -1 3 -2.5
v 0 3 -2.5
v -1 3 -3.5
v 0 3 -3.5
v 2 4 1.5
v 3 4 1.5
v 2 4 0.5
v 3 4 0.5
v 4 4 0.5
v 2 4 -0.5
v 3 4 -0.5
v 4 4 -0.5
v 1 4 -1.5
v 2 4 -1.5
v 3 4 -1.5
v 1 4 -2.5
v 2 4 -2.5
v 1 7 -1.5
v 2 7 -1.5
v 1 7 -2.5
v 2 7 -2.5
v -3 9 0.5
v -2 9 0.5
v -3 9 -0.5
v -2 9 -0.5
v -3 10 1.5
v -2 10 1.5
v -3 10 0.5
v -2 10 0.5
v -1 10 0.5
v -2 10 -0.5
v -1 10 -0.5
v -2 10 -1.5
v -1 10 -1.5
v -3 11 -0.5
v -2 11 -0.5
v -3 11 -1.5
v -2 11 -1.5
v -1 5 3.5
v 1 5 3.5
v -2 5 2.5
v -1 5 2.5
v 0 5 2.5
v 1 5 2.5
v 2 5 2.5
v -2 5 1.5
v -1 5 1.5
v 1 5 1.5
v 2 5 1.5
v 3 5 1.5
v 2 5 0.5
v 3 5 0.5
v 4 5 0.5
v 2 5 -0.5
v 3 5 -0.5
v 4 5 -0.5
v 1 5 -1.5
v 2 5 -1.5
v 3 5 -1.5
v -1 5 -2.5
v 0 5 -2.5
v 1 5 -2.5
v 2 5 -2.5
v -1 5 -3.5
v 0 5 -3.5
v -1 6 2.5
v 0 6 2.5
v -3 6 1.5
v -1 6 1.5
v 0 6 1.5
v -4 6 0.5
v -3 6 0.5
v -1 6 0.5
v -4 6 -0.5
v -3 6 -0.5
v -1 6 -0.5
v -3 6 -1.5
v -2 6 -1.5
v -1 6 -1.5
v 0 6 -1.5
v -2 6 -2.5
v -1 6 -2.5
v 0 6 -2.5
v 0 7 2.5
v 1 7 2.5
v -1 7 1.5
v 0 7 1.5
v 1 7 1.5
v -3 7 0.5
v -1 7 0.5
v 0 7 0.5
v -3 7 -0.5
v -1 7 -0.5
v 0 7 -0.5
v -1 7 -1.5
v 0 7 -1.5
v 1 7 -1.5
v 0 7 -2.5
v 1 7 -2.5
v 0 8 1.5
v 1 8 1.5
v -1 8 0.5
v 0 8 0.5
v 1 8 0.5
v -1 8 -0.5
v 0 8 -0.5
v 1 8 -0.5
v 0 8 -1.5
v 1 8 -1.5
v 2 8 -1.5
v 1 8 -2.5
v 2 8 -2.5
v 0 10 0.5
v 1 10 0.5
v 0 10 -0.5
v 1 10 -0.5
v -3 11 1.5
v -2 11 1.5
v 1 11 1.5
v 2 11 1.5
v -3 11 0.5
v -2 11 0.5
v 1 11 0.5
v 2 11 0.5
v -2 11 -0.5
v -1 11 -0.5
v 1 11 -0.5
v 2 11 -0.5
v -2 11 -1.5
v -1 11 -1.5
v 1 11 -1.5
v 2 11 -1.5
v -3 12 0.5
v -2 12 0.5
v 2 12 0.5
v 3 12 0.5
v -3 12 -0.5
v -2 12 -0.5
v 2 12 -0.5
v 3 12 -0.5
v -3 12 -1.5
v -2 12 -1.5
v -2 13 0.5
v -1 13 0.5
v -2 13 -0.5
v -1 13 -0.5
v 1 14 0.5
v 2 14 0.5
v 1 14 -0.5
v 2 14 -0.5

# faces
f 3/3/1 2/3/1 1/3/1
f 4/3/1 2/3/1 3/3/1
f 5/1/1 4/1/1 3/1/1
f 6/1/1 4/1/1 5/1/1
f 7/3/1 6/3/1 5/3/1
f 8/3/1 6/3/1 7/3/1
f 11/3/1 10/3/1 9/3/1
f 12/3/1 10/3/1 11/3/1
f 16/2/1 13/2/1 12/2/1
f 17/2/1 13/2/1 16/2/1
f 18/1/1 15/1/1 14/1/1
f 19/1/1 15/1/1 18/1/1
f 20/1/1 17/1/1 16/1/1
f 21/1/1 17/1/1 20/1/1
f 22/2/1 19/2/1 18/2/1
f 23/3/1 21/3/1 20/3/1
f 24/2/1 22/2/1 18/2/1
f 25/2/1 22/2/1 24/2/1
f 26/3/1 21/3/1 23/3/1
f 27/3/1 21/3/1 26/3/1
f 28/2/1 26/2/1 25/2/1
f 29/2/1 26/2/1 28/2/1
f 33/2/1 31/2/1 30/2/1
f 34/1/1 33/1/1 32/1/1
f 35/2/1 31/2/1 33/2/1
f 35/1/1 33/1/1 34/1/1
f 36/2/1 31/2/1 35/2/1
f 38/2/1 36/2/1 35/2/1
f 39/1/1 37/1/1 36/1/1
f 39/2/1 36/2/1 38/2/1
f 40/1/1 37/1/1 39/1/1
f 44/2/1 42/2/1 41/2/1
f 45/2/1 42/2/1 44/2/1
f 48/1/1 44/1/1 43/1/1
f 49/2/1 47/2/1 46/2/1
f 50/2/1 47/2/1 49/2/1
f 51/1/1 48/1/1 43/1/1
f 52/1/1 48/1/1 51/1/1
f 53/1/1 50/1/1 49/1/1
f 54/1/1 50/1/1 53/1/1
f 55/2/1 54/2/1 53/2/1
f 56/2/1 54/2/1 55/2/1
f 59/1/1 58/1/1 57/1/1
f 60/1/1 58/1/1 59/1/1
f 63/2/1 62/2/1 61/2/1
f 64/2/1 62/2/1 63/2/1
f 68/3/1 66/3/1 65/3/1
f 69/3/1 66/3/1 68/3/1
f 72/3/1 68/3/1 67/3/1
f 73/3/1 68/3/1 72/3/1
f 74/3/1 70/3/1 69/3/1
f 75/3/1 70/3/1 74/3/1
f 78/2/1 72/2/1 71/2/1
f 79/2/1 72/2/1 78/2/1
f 80/1/1 76/1/1 75/1/1
f 81/1/1 76/1/1 80/1/1
f 83/1/1 82/1/1 81/1/1
f 84/1/1 78/1/1 77/1/1
f 85/1/1 78/1/1 84/1/1
f 87/1/1 82/1/1 83/1/1
f 88/1/1 82/1/1 87/1/1
f 89/2/1 86/2/1 85/2/1
f 90/2/1 86/2/1 89/2/1
f 94/2/1 91/2/1 90/2/1
f 95/2/1 91/2/1 94/2/1
f 96/3/1 93/3/1 92/3/1
f 97/3/1 93/3/1 96/3/1
f 98/2/1 96/2/1 95/2/1
f 99/2/1 96/2/1 98/2/1
f 104/2/1 101/2/1 100/2/1
f 105/2/1 101/2/1 104/2/1
f 108/2/1 103/2/1 102/2/1
f 109/2/1 103/2/1 108/2/1
f 110/2/1 106/2/1 105/2/1
f 111/2/1 106/2/1 110/2/1
f 112/1/1 108/1/1 107/1/1
f 113/1/1 108/1/1 112/1/1
f 114/3/1 112/3/1 111/3/1
f 115/3/1 112/3/1 114/3/1
f 121/1/1 117/1/1 116/1/1
f 122/1/1 117/1/1 121/1/1
f 123/3/1 119/3/1 118/3/1
f 124/3/1 119/3/1 123/3/1
f 125/2/1 124/2/1 123/2/1
f 126/3/1 121/3/1 120/3/1
f 127/2/1 125/2/1 123/2/1
f 128/3/1 126/3/1 125/3/1
f 128/2/1 125/2/1 127/2/1
f 129/3/1 121/3/1 126/3/1
f 129/3/1 126/3/1 128/3/1
f 130/3/1 121/3/1 129/3/1
f 131/3/1 129/3/1 128/3/1
f 132/3/1 129/3/1 131/3/1
f 133/2/2 134/2/2 136/2/2
f 136/2/2 134/2/2 137/2/2
f 135/1/2 136/1/2 138/1/2
f 138/1/2 136/1/2 139/1/2
f 140/1/2 141/1/2 142/1/2
f 142/1/2 141/1/2 143/1/2
f 144/2/2 145/2/2 147/2/2
f 145/1/2 146/1/2 148/1/2
f 147/2/2 145/2/2 148/2/2
f 148/1/2 146/1/2 149/1/2
f 147/1/2 148/1/2 150/1/2
f 150/1/2 148/1/2 151/1/2
f 150/2/2 151/2/2 152/2/2
f 152/2/2 151/2/2 153/2/2
f 154/1/2 155/1/2 156/1/2
f 156/1/2 155/1/2 157/1/2
f 158/3/2 159/3/2 161/3/2
f 161/3/2 159/3/2 162/3/2
f 160/3/2 161/3/2 165/3/2
f 165/3/2 161/3/2 166/3/2
f 162/3/2 163/3/2 167/3/2
f 167/3/2 163/3/2 168/3/2
f 164/2/2 165/2/2 171/2/2
f 171/2/2 165/2/2 172/2/2
f 168/2/2 169/2/2 173/2/2
f 173/2/2 169/2/2 174/2/2
f 173/1/2 174/1/2 175/1/2
f 175/1/2 174/1/2 176/1/2
f 170/1/2 171/1/2 177/1/2
f 177/1/2 171/1/2 178/1/2
f 178/1/2 179/1/2 182/1/2
f 182/1/2 179/1/2 183/1/2
f 180/1/2 181/1/2 184/1/2
f 184/1/2 181/1/2 185/1/2
f 182/2/2 183/2/2 186/2/2
f 186/2/2 183/2/2 187/2/2
f 184/2/2 185/2/2 188/2/2
f 188/2/2 185/2/2 189/2/2
f 190/3/2 191/3/2 193/3/2
f 193/3/2 191/3/2 194/3/2
f 192/2/2 193/2/2 197/2/2
f 194/3/2 195/3/2 198/3/2
f 198/3/2 195/3/2 199/3/2
f 196/2/2 197/2/2 200/2/2
f 197/2/2 193/2/2 200/2/2
f 200/2/2 193/2/2 201/2/2
f 198/2/2 199/2/2 202/2/2
f 202/2/2 199/2/2 203/2/2
f 196/2/2 200/2/2 205/2/2
f 205/2/2 200/2/2 206/2/2
f 203/2/2 204/2/2 209/2/2
f 209/2/2 204/2/2 210/2/2
f 206/2/2 207/2/2 211/2/2
f 211/2/2 207/2/2 212/2/2
f 211/1/2 212/1/2 213/1/2
f 208/2/2 209/2/2 214/2/2
f 214/2/2 209/2/2 215/2/2
f 211/1/2 213/1/2 217/1/2
f 217/1/2 213/1/2 218/1/2
f 215/1/2 216/1/2 219/1/2
f 214/3/2 215/3/2 219/3/2
f 219/1/2 216/1/2 220/1/2
f 217/3/2 218/3/2 221/3/2
f 221/3/2 218/3/2 222/3/2
f 221/2/2 222/2/2 223/2/2
f 214/3/2 219/3/2 224/3/2
f 221/2/2 223/2/2 225/2/2
f 225/2/2 223/2/2 226/2/2
f 224/3/2 219/3/2 227/3/2
f 227/3/2 219/3/2 228/3/2
f 229/3/2 230/3/2 231/3/2
f 231/3/2 230/3/2 232/3/2
f 233/3/2 234/3/2 236/3/2
f 236/3/2 234/3/2 237/3/2
f 235/1/2 236/1/2 239/1/2
f 239/1/2 236/1/2 240/1/2
f 237/3/2 238/3/2 241/3/2
f 241/3/2 238/3/2 242/3/2
f 240/3/2 241/3/2 243/3/2
f 243/3/2 241/3/2 244/3/2
f 243/2/2 244/2/2 245/2/2
f 245/2/2 244/2/2 246/2/2
f 245/3/2 246/3/2 247/3/2
f 247/3/2 246/3/2 248/3/2
f 249/1/2 250/1/2 251/1/2
f 251/1/2 250/1/2 252/1/2
f 255/1/3 254/1/3 253/1/3
f 256/1/3 254/1/3 255/1/3
f 260/1/3 258/1/3 257/1/3
f 261/1/3 258/1/3 260/1/3
f 263/2/3 262/2/3 261/2/3
f 264/2/3 262/2/3 263/2/3
f 266/2/3 260/2/3 259/2/3
f 267/2/3 260/2/3 266/2/3
f 268/1/3 264/1/3 263/1/3
f 269/2/3 265/2/3 264/2/3
f 269/1/3 264/1/3 268/1/3
f 270/2/3 265/2/3 269/2/3
f 271/2/3 268/2/3 267/2/3
f 272/2/3 268/2/3 271/2/3
f 279/1/3 274/1/3 273/1/3
f 280/2/3 275/2/3 274/2/3
f 280/1/3 274/1/3 279/1/3
f 281/2/3 275/2/3 280/2/3
f 282/1/3 277/1/3 276/1/3
f 283/1/3 277/1/3 282/1/3
f 285/2/3 279/2/3 278/2/3
f 286/2/3 279/2/3 285/2/3
f 287/2/3 275/2/3 281/2/3
f 288/2/3 275/2/3 287/2/3
f 290/2/3 289/2/3 288/2/3
f 291/2/3 289/2/3 290/2/3
f 293/3/3 285/3/3 284/3/3
f 294/3/3 285/3/3 293/3/3
f 298/2/3 292/2/3 291/2/3
f 299/2/3 292/2/3 298/2/3
f 302/2/3 295/2/3 294/2/3
f 303/2/3 295/2/3 302/2/3
f 305/2/3 297/2/3 296/2/3
f 306/1/3 298/1/3 297/1/3
f 306/1/3 299/1/3 298/1/3
f 306/2/3 297/2/3 305/2/3
f 307/3/3 300/3/3 299/3/3
f 307/1/3 299/1/3 306/1/3
f 308/2/3 301/2/3 300/2/3
f 308/3/3 300/3/3 307/3/3
f 309/2/3 301/2/3 308/2/3
f 310/1/3 305/1/3 304/1/3
f 311/1/3 305/1/3 310/1/3
f 317/3/3 313/3/3 312/3/3
f 318/1/3 314/1/3 313/1/3
f 318/3/3 313/3/3 317/3/3
f 319/1/3 314/1/3 318/1/3
f 320/3/3 315/3/3 314/3/3
f 320/1/3 314/1/3 319/1/3
f 321/3/3 315/3/3 320/3/3
f 327/3/3 317/3/3 316/3/3
f 327/2/3 318/2/3 317/2/3
f 328/2/3 318/2/3 327/2/3
f 329/2/3 324/2/3 323/2/3
f 330/2/3 324/2/3 329/2/3
f 331/2/3 326/2/3 325/2/3
f 332/2/3 326/2/3 331/2/3
f 335/3/3 327/3/3 316/3/3
f 336/3/3 327/3/3 335/3/3
f 337/2/3 322/2/3 321/2/3
f 338/2/3 322/2/3 337/2/3
f 340/2/3 331/2/3 330/2/3
f 341/1/3 332/1/3 331/1/3
f 341/2/3 331/2/3 340/2/3
f 342/2/3 333/2/3 332/2/3
f 342/1/3 332/1/3 341/1/3
f 343/2/3 333/2/3 342/2/3
f 344/2/3 339/2/3 338/2/3
f 345/2/3 339/2/3 344/2/3
f 347/3/3 335/3/3 334/3/3
f 348/3/3 335/3/3 347/3/3
f 350/3/3 346/3/3 345/3/3
f 351/3/3 346/3/3 350/3/3
f 352/3/3 346/3/3 351/3/3
f 355/3/3 349/3/3 348/3/3
f 356/3/3 349/3/3 355/3/3
f 364/3/3 354/3/3 353/3/3
f 365/3/3 354/3/3 364/3/3
f 366/3/3 354/3/3 365/3/3
f 367/3/3 357/3/3 356/3/3
f 368/3/3 357/3/3 367/3/3
f 369/3/3 359/3/3 358/3/3
f 369/3/3 360/3/3 359/3/3
f 370/2/3 363/2/3 362/2/3
f 370/2/3 361/2/3 360/2/3
f 370/3/3 360/3/3 369/3/3
f 370/2/3 362/2/3 361/2/3
f 371/3/3 365/3/3 364/3/3
f 371/2/3 363/2/3 370/2/3
f 371/3/3 364/3/3 363/3/3
f 372/3/3 365/3/3 371/3/3
f 373/1/3 369/1/3 368/1/3
f 374/1/3 369/1/3 373/1/3
f 375/3/4 376/3/4 380/3/4
f 376/1/4 377/1/4 381/1/4
f 380/3/4 376/3/4 381/3/4
f 381/1/4 377/1/4 382/1/4
f 377/3/4 378/3/4 383/3/4
f 382/1/4 377/1/4 383/1/4
f 383/3/4 378/3/4 384/3/4
f 386/2/4 387/2/4 388/2/4
f 388/2/4 387/2/4 389/2/4
f 389/2/4 387/2/4 390/2/4
f 379/3/4 380/3/4 394/3/4
f 394/3/4 380/3/4 395/3/4
f 384/2/4 385/2/4 396/2/4
f 396/2/4 385/2/4 397/2/4
f 390/1/4 391/1/4 399/1/4
f 391/2/4 392/2/4 400/2/4
f 399/1/4 391/1/4 400/1/4
f 400/2/4 392/2/4 401/2/4
f 397/2/4 398/2/4 402/2/4
f 402/2/4 398/2/4 403/2/4
f 393/3/4 394/3/4 405/3/4
f 405/3/4 394/3/4 406/3/4
f 403/3/4 404/3/4 408/3/4
f 408/3/4 404/3/4 409/3/4
f 406/3/4 407/3/4 412/3/4
f 412/3/4 407/3/4 413/3/4
f 410/3/4 411/3/4 419/3/4
f 419/3/4 411/3/4 420/3/4
f 420/3/4 411/3/4 421/3/4
f 413/3/4 414/3/4 422/3/4
f 414/3/4 415/3/4 422/3/4
f 422/3/4 415/3/4 423/3/4
f 416/3/4 417/3/4 424/3/4
f 417/2/4 418/2/4 425/2/4
f 424/3/4 417/3/4 425/3/4
f 419/3/4 420/3/4 426/3/4
f 425/2/4 418/2/4 426/2/4
f 418/3/4 419/3/4 426/3/4
f 426/3/4 420/3/4 427/3/4
f 423/1/4 424/1/4 428/1/4
f 428/1/4 424/1/4 429/1/4
f 430/2/4 431/2/4 436/2/4
f 431/1/4 432/1/4 436/1/4
f 432/3/4 433/3/4 437/3/4
f 436/1/4 432/1/4 437/1/4
f 437/3/4 433/3/4 438/3/4
f 438/3/4 433/3/4 439/3/4
f 434/1/4 435/1/4 441/1/4
f 441/1/4 435/1/4 442/1/4
f 430/2/4 436/2/4 444/2/4
f 444/2/4 436/2/4 445/2/4
f 440/1/4 441/1/4 448/1/4
f 448/1/4 441/1/4 449/1/4
f 443/3/4 444/3/4 450/3/4
f 446/3/4 447/3/4 451/3/4
f 451/3/4 447/3/4 452/3/4
f 443/3/4 450/3/4 454/3/4
f 454/3/4 450/3/4 455/3/4
f 452/1/4 453/1/4 460/1/4
f 460/1/4 453/1/4 461/1/4
f 455/3/4 456/3/4 463/3/4
f 456/2/4 457/2/4 464/2/4
f 463/3/4 456/3/4 464/3/4
f 464/2/4 457/2/4 465/2/4
f 458/2/4 459/2/4 466/2/4
f 459/2/4 460/2/4 466/2/4
f 466/2/4 460/2/4 467/2/4
f 461/3/4 462/3/4 468/3/4
f 468/3/4 462/3/4 469/3/4
f 465/3/4 466/3/4 470/3/4
f 470/3/4 466/3/4 471/3/4
f 472/2/4 473/2/4 477/2/4
f 473/1/4 474/1/4 478/1/4
f 477/2/4 473/2/4 478/2/4
f 474/2/4 475/2/4 479/2/4
f 478/1/4 474/1/4 479/1/4
f 479/2/4 475/2/4 480/2/4
f 476/1/4 477/1/4 481/1/4
f 481/1/4 477/1/4 482/1/4
f 479/1/4 480/1/4 483/1/4
f 483/1/4 480/1/4 484/1/4
f 481/2/4 482/2/4 486/2/4
f 483/1/4 484/1/4 487/1/4
f 486/2/4 482/2/4 487/2/4
f 482/1/4 483/1/4 487/1/4
f 487/1/4 484/1/4 488/1/4
f 488/1/4 484/1/4 489/1/4
f 484/2/4 485/2/4 490/2/4
f 489/1/4 484/1/4 490/1/4
f 490/2/4 485/2/4 491/2/4
f 488/2/4 489/2/4 493/2/4
f 493/2/4 489/2/4 494/2/4
f 491/1/4 492/1/4 495/1/4
f 495/1/4 492/1/4 496/1/4
f 497/1/4 498/1/4 499/1/4
f 499/1/4 498/1/4 500/1/4
f 503/3/5 502/3/5 501/3/5
f 504/3/5 502/3/5 503/3/5
f 508/3/5 506/3/5 505/3/5
f 509/3/5 506/3/5 508/3/5
f 511/3/5 508/3/5 507/3/5
f 512/3/5 508/3/5 511/3/5
f 513/3/5 510/3/5 509/3/5
f 514/3/5 510/3/5 513/3/5
f 515/3/5 513/3/5 512/3/5
f 516/3/5 513/3/5 515/3/5
f 520/2/5 518/2/5 517/2/5
f 521/2/5 518/2/5 520/2/5
f 525/2/5 520/2/5 519/2/5
f 526/2/5 520/2/5 525/2/5
f 527/2/5 522/2/5 521/2/5
f 528/2/5 522/2/5 527/2/5
f 530/3/5 524/3/5 523/3/5
f 531/3/5 524/3/5 530/3/5
f 534/3/5 529/3/5 528/3/5
f 535/3/5 529/3/5 534/3/5
f 536/2/5 532/2/5 531/2/5
f 537/2/5 532/2/5 536/2/5
f 539/3/5 534/3/5 533/3/5
f 540/3/5 534/3/5 539/3/5
f 541/1/5 538/1/5 537/1/5
f 542/2/5 539/2/5 538/2/5
f 542/1/5 538/1/5 541/1/5
f 543/2/5 539/2/5 542/2/5
f 547/1/5 545/1/5 544/1/5
f 548/1/5 545/1/5 547/1/5
f 551/1/5 547/1/5 546/1/5
f 552/1/5 547/1/5 551/1/5
f 553/2/5 549/2/5 548/2/5
f 554/2/5 549/2/5 553/2/5
f 555/1/5 551/1/5 550/1/5
f 556/1/5 551/1/5 555/1/5
f 559/2/5 558/2/5 557/2/5
f 560/2/5 558/2/5 559/2/5
f 562/1/5 561/1/5 560/1/5
f 563/1/5 561/1/5 562/1/5
f 566/1/5 565/1/5 564/1/5
f 567/1/5 565/1/5 566/1/5
f 570/1/5 568/1/5 567/1/5
f 571/1/5 568/1/5 570/1/5
f 573/3/5 570/3/5 569/3/5
f 574/3/5 570/3/5 573/3/5
f 575/2/5 573/2/5 572/2/5
f 576/2/5 573/2/5 575/2/5
f 579/1/5 578/1/5 577/1/5
f 580/1/5 578/1/5 579/1/5
f 583/2/5 582/2/5 581/2/5
f 584/2/5 582/2/5 583/2/5
f 587/1/5 586/1/5 585/1/5
f 588/1/5 586/1/5 587/1/5
f 590/2/5 589/2/5 588/2/5
f 591/2/5 589/2/5 590/2/5
f 592/1/5 591/1/5 590/1/5
f 593/1/5 591/1/5 592/1/5
f 596/1/5 595/1/5 594/1/5
f 597/1/5 595/1/5 596/1/5
f 598/1/6 599/1/6 601/1/6
f 601/1/6 599/1/6 602/1/6
f 602/1/6 599/1/6 603/1/6
f 600/1/6 601/1/6 605/1/6
f 605/1/6 601/1/6 606/1/6
f 603/2/6 604/2/6 607/2/6
f 607/2/6 604/2/6 608/2/6
f 608/1/6 609/1/6 610/1/6
f 610/1/6 609/1/6 611/1/6
f 611/1/6 612/1/6 614/1/6
f 614/1/6 612/1/6 615/1/6
f 613/3/6 614/3/6 617/3/6
f 617/3/6 614/3/6 618/3/6
f 616/2/6 617/2/6 621/2/6
f 621/2/6 617/2/6 622/2/6
f 619/1/6 620/1/6 623/1/6
f 623/1/6 620/1/6 624/1/6
f 625/2/6 626/2/6 628/2/6
f 628/2/6 626/2/6 629/2/6
f 627/2/6 628/2/6 631/2/6
f 631/2/6 628/2/6 632/2/6
f 630/3/6 631/3/6 633/3/6
f 633/3/6 631/3/6 634/3/6
f 634/3/6 635/3/6 636/3/6
f 636/3/6 635/3/6 637/3/6
f 637/3/6 635/3/6 638/3/6
f 637/2/6 638/2/6 640/2/6
f 638/1/6 639/1/6 641/1/6
f 640/2/6 638/2/6 641/2/6
f 641/1/6 639/1/6 642/1/6
f 643/2/6 644/2/6 646/2/6
f 646/2/6 644/2/6 647/2/6
f 645/2/6 646/2/6 649/2/6
f 649/2/6 646/2/6 650/2/6
f 648/2/6 649/2/6 651/2/6
f 651/2/6 649/2/6 652/2/6
f 652/3/6 653/3/6 654/3/6
f 654/3/6 653/3/6 655/3/6
f 655/2/6 656/2/6 657/2/6
f 657/2/6 656/2/6 658/2/6
f 659/2/6 660/2/6 662/2/6
f 662/2/6 660/2/6 663/2/6
f 661/2/6 662/2/6 664/2/6
f 664/2/6 662/2/6 665/2/6
f 665/1/6 666/1/6 667/1/6
f 667/1/6 666/1/6 668/1/6
f 668/1/6 669/1/6 670/1/6
f 670/1/6 669/1/6 671/1/6
f 672/3/6 673/3/6 674/3/6
f 674/3/6 673/3/6 675/3/6
f 676/1/6 677/1/6 680/1/6
f 680/1/6 677/1/6 681/1/6
f 678/2/6 679/2/6 682/2/6
f 682/2/6 679/2/6 683/2/6
f 684/1/6 685/1/6 688/1/6
f 688/1/6 685/1/6 689/1/6
f 686/3/6 687/3/6 690/3/6
f 690/3/6 687/3/6 691/3/6
f 692/2/6 693/2/6 696/2/6
f 696/2/6 693/2/6 697/2/6
f 694/3/6 695/3/6 698/3/6
f 698/3/6 695/3/6 699/3/6
f 696/1/6 697/1/6 700/1/6
f 700/1/6 697/1/6 701/1/6
f 702/2/6 703/2/6 704/2/6
f 704/2/6 703/2/6 705/2/6
f 706/3/6 707/3/6 708/3/6
f 708/3/6 707/3/6 709/3/6
