# MagicaVoxel @ ephtracy

# material
mtllib fire6.mtl
usemtl palette

# normals
vn -1 0 0
vn 1 0 0
vn 0 0 1
vn 0 0 -1
vn 0 -1 0
vn 0 1 0

# texcoords
vt 0.197266 0.5
vt 0.205078 0.5
vt 0.212891 0.5

# verts
v -4.5 3 0.5
v -4.5 3 -0.5
v -4.5 4 0.5
v -4.5 4 -0.5
v -3.5 2 0.5
v -3.5 2 -0.5
v -3.5 3 0.5
v -3.5 3 -0.5
v -3.5 4 0.5
v -3.5 4 -0.5
v -3.5 5 0.5
v -3.5 5 -0.5
v -3.5 6 0.5
v -3.5 6 -0.5
v -3.5 7 0.5
v -3.5 7 -0.5
v -2.5 1 0.5
v -2.5 1 -0.5
v -2.5 2 0.5
v -2.5 2 -0.5
v -2.5 3 1.5
v -2.5 3 0.5
v -2.5 3 -0.5
v -2.5 3 -1.5
v -2.5 4 0.5
v -2.5 4 -0.5
v -2.5 5 0.5
v -2.5 5 -0.5
v -2.5 6 1.5
v -2.5 6 0.5
v -2.5 6 -0.5
v -2.5 7 1.5
v -2.5 7 0.5
v -2.5 7 -0.5
v -2.5 7 -1.5
v -2.5 8 0.5
v -2.5 8 -0.5
v -1.5 0 0.5
v -1.5 0 -0.5
v -1.5 1 0.5
v -1.5 1 -0.5
v -1.5 1 -1.5
v -1.5 2 1.5
v -1.5 2 0.5
v -1.5 2 -0.5
v -1.5 2 -1.5
v -1.5 3 1.5
v -1.5 3 0.5
v -1.5 3 -0.5
v -1.5 3 -1.5
v -1.5 3 -2.5
v -1.5 4 2.5
v -1.5 4 1.5
v -1.5 5 2.5
v -1.5 5 1.5
v -1.5 5 -1.5
v -1.5 5 -2.5
v -0.5 1 1.5
v -0.5 1 0.5
v -0.5 2 2.5
v -0.5 2 1.5
v -0.5 2 0.5
v -0.5 2 -1.5
v -0.5 2 -2.5
v -0.5 3 3.5
v -0.5 3 2.5
v -0.5 3 -1.5
v -0.5 3 -2.5
v -0.5 3 -3.5
v -0.5 4 3.5
v -0.5 4 2.5
v -0.5 4 1.5
v -0.5 5 2.5
v -0.5 5 1.5
v -0.5 5 -1.5
v -0.5 5 -2.5
v -0.5 5 -3.5
v -0.5 6 2.5
v -0.5 6 1.5
v -0.5 6 0.5
v -0.5 6 -1.5
v -0.5 6 -2.5
v -0.5 7 1.5
v -0.5 7 0.5
v -0.5 12 0.5
v -0.5 12 -0.5
v -0.5 13 0.5
v -0.5 13 -0.5
v 0.5 4 3.5
v 0.5 4 2.5
v 0.5 5 3.5
v 0.5 5 2.5
v 0.5 7 0.5
v 0.5 7 -0.5
v 0.5 8 0.5
v 0.5 8 -0.5
v 1.5 6 2.5
v 1.5 6 1.5
v 1.5 6 -0.5
v 1.5 6 -1.5
v 1.5 7 2.5
v 1.5 7 1.5
v 1.5 7 0.5
v 1.5 7 -0.5
v 1.5 8 1.5
v 1.5 8 0.5
v 1.5 8 -0.5
v 1.5 8 -1.5
v 1.5 9 0.5
v 1.5 9 -0.5
v 2.5 8 1.5
v 2.5 8 0.5
v 2.5 9 1.5
v 2.5 9 0.5
v 2.5 9 -0.5
v 2.5 10 0.5
v 2.5 10 -0.5
v 2.5 11 0.5
v 2.5 11 -0.5
v 2.5 13 0.5
v 2.5 13 -0.5
v 2.5 14 0.5
v 2.5 14 -0.5
v -1.5 6 1.5
v -1.5 6 0.5
v -1.5 6 -0.5
v -1.5 6 -1.5
v -1.5 7 1.5
v -1.5 7 0.5
v -1.5 7 -0.5
v -1.5 7 -1.5
v -1.5 8 0.5
v -1.5 8 -0.5
v 0.5 3 -2.5
v 0.5 3 -3.5
v 0.5 4 -2.5
v 0.5 4 -3.5
v 0.5 5 -1.5
v 0.5 5 -2.5
v 0.5 6 -1.5
v 0.5 6 -2.5
v 0.5 12 0.5
v 0.5 12 -0.5
v 0.5 13 0.5
v 0.5 13 -0.5
v 1.5 1 1.5
v 1.5 1 0.5
v 1.5 1 -0.5
v 1.5 1 -1.5
v 1.5 2 2.5
v 1.5 2 1.5
v 1.5 2 0.5
v 1.5 2 -0.5
v 1.5 2 -1.5
v 1.5 2 -2.5
v 1.5 3 3.5
v 1.5 3 2.5
v 1.5 3 1.5
v 1.5 3 -1.5
v 1.5 3 -2.5
v 1.5 4 -2.5
v 1.5 4 -3.5
v 1.5 5 3.5
v 1.5 5 2.5
v 1.5 5 1.5
v 1.5 5 -2.5
v 1.5 5 -3.5
v 1.5 6 2.5
v 1.5 6 1.5
v 2.5 0 0.5
v 2.5 0 -0.5
v 2.5 1 0.5
v 2.5 1 -0.5
v 2.5 2 -0.5
v 2.5 2 -1.5
v 2.5 3 2.5
v 2.5 3 1.5
v 2.5 3 -0.5
v 2.5 3 -1.5
v 2.5 3 -2.5
v 2.5 4 -1.5
v 2.5 4 -2.5
v 2.5 5 2.5
v 2.5 5 1.5
v 2.5 5 0.5
v 2.5 5 -0.5
v 2.5 5 -1.5
v 2.5 5 -2.5
v 2.5 6 2.5
v 2.5 6 1.5
v 2.5 6 0.5
v 2.5 6 -0.5
v 2.5 6 -1.5
v 2.5 7 2.5
v 2.5 7 1.5
v 2.5 7 0.5
v 2.5 7 -0.5
v 2.5 7 -1.5
v 3.5 1 0.5
v 3.5 1 -0.5
v 3.5 2 1.5
v 3.5 2 0.5
v 3.5 2 -0.5
v 3.5 3 1.5
v 3.5 3 0.5
v 3.5 3 -0.5
v 3.5 3 -1.5
v 3.5 4 0.5
v 3.5 4 -0.5
v 3.5 5 1.5
v 3.5 5 0.5
v 3.5 5 -0.5
v 3.5 5 -1.5
v 3.5 6 0.5
v 3.5 6 -0.5
v 3.5 7 1.5
v 3.5 7 0.5
v 3.5 7 -0.5
v 3.5 7 -1.5
v 3.5 8 -0.5
v 3.5 8 -1.5
v 3.5 9 1.5
v 3.5 9 0.5
v 3.5 9 -0.5
v 3.5 10 0.5
v 3.5 10 -0.5
v 3.5 13 0.5
v 3.5 13 -0.5
v 3.5 14 0.5
v 3.5 14 -0.5
v 4.5 2 0.5
v 4.5 2 -0.5
v 4.5 4 0.5
v 4.5 4 -0.5
v 4.5 5 0.5
v 4.5 5 -0.5
v 4.5 7 0.5
v 4.5 7 -0.5
v 4.5 9 0.5
v 4.5 9 -0.5
v 4.5 10 0.5
v 4.5 10 -0.5
v 4.5 11 0.5
v 4.5 11 -0.5
v -0.5 3 3.5
v -0.5 4 3.5
v 0.5 4 3.5
v 0.5 5 3.5
v 1.5 3 3.5
v 1.5 5 3.5
v -1.5 4 2.5
v -1.5 5 2.5
v -0.5 2 2.5
v -0.5 3 2.5
v -0.5 4 2.5
v -0.5 5 2.5
v -0.5 6 2.5
v 0.5 4 2.5
v 0.5 5 2.5
v 1.5 2 2.5
v 1.5 3 2.5
v 1.5 5 2.5
v 1.5 6 2.5
v 1.5 7 2.5
v 2.5 3 2.5
v 2.5 5 2.5
v 2.5 6 2.5
v 2.5 7 2.5
v -2.5 3 1.5
v -2.5 6 1.5
v -2.5 7 1.5
v -1.5 2 1.5
v -1.5 3 1.5
v -1.5 4 1.5
v -1.5 5 1.5
v -1.5 6 1.5
v -1.5 7 1.5
v -0.5 1 1.5
v -0.5 2 1.5
v -0.5 4 1.5
v -0.5 5 1.5
v -0.5 6 1.5
v -0.5 7 1.5
v 1.5 1 1.5
v 1.5 2 1.5
v 1.5 3 1.5
v 1.5 5 1.5
v 1.5 6 1.5
v 1.5 7 1.5
v 1.5 8 1.5
v 2.5 2 1.5
v 2.5 3 1.5
v 2.5 5 1.5
v 2.5 6 1.5
v 2.5 7 1.5
v 2.5 8 1.5
v 2.5 9 1.5
v 3.5 2 1.5
v 3.5 3 1.5
v 3.5 5 1.5
v 3.5 7 1.5
v 3.5 9 1.5
v -4.5 3 0.5
v -4.5 4 0.5
v -3.5 2 0.5
v -3.5 3 0.5
v -3.5 4 0.5
v -3.5 5 0.5
v -3.5 6 0.5
v -3.5 7 0.5
v -2.5 1 0.5
v -2.5 2 0.5
v -2.5 3 0.5
v -2.5 4 0.5
v -2.5 5 0.5
v -2.5 6 0.5
v -2.5 7 0.5
v -2.5 8 0.5
v -1.5 0 0.5
v -1.5 1 0.5
v -1.5 2 0.5
v -1.5 3 0.5
v -1.5 6 0.5
v -1.5 7 0.5
v -1.5 8 0.5
v -0.5 1 0.5
v -0.5 2 0.5
v -0.5 6 0.5
v -0.5 7 0.5
v -0.5 12 0.5
v -0.5 13 0.5
v 0.5 7 0.5
v 0.5 8 0.5
v 0.5 12 0.5
v 0.5 13 0.5
v 1.5 1 0.5
v 1.5 2 0.5
v 1.5 7 0.5
v 1.5 8 0.5
v 1.5 9 0.5
v 2.5 0 0.5
v 2.5 1 0.5
v 2.5 2 0.5
v 2.5 5 0.5
v 2.5 6 0.5
v 2.5 7 0.5
v 2.5 8 0.5
v 2.5 9 0.5
v 2.5 10 0.5
v 2.5 11 0.5
v 2.5 13 0.5
v 2.5 14 0.5
v 3.5 1 0.5
v 3.5 2 0.5
v 3.5 3 0.5
v 3.5 4 0.5
v 3.5 5 0.5
v 3.5 6 0.5
v 3.5 7 0.5
v 3.5 9 0.5
v 3.5 10 0.5
v 3.5 11 0.5
v 3.5 13 0.5
v 3.5 14 0.5
v 4.5 2 0.5
v 4.5 4 0.5
v 4.5 5 0.5
v 4.5 7 0.5
v 4.5 9 0.5
v 4.5 10 0.5
v 4.5 11 0.5
v -4.5 3 -0.5
v -4.5 4 -0.5
v -3.5 2 -0.5
v -3.5 3 -0.5
v -3.5 4 -0.5
v -3.5 5 -0.5
v -3.5 6 -0.5
v -3.5 7 -0.5
v -2.5 1 -0.5
v -2.5 2 -0.5
v -2.5 3 -0.5
v -2.5 4 -0.5
v -2.5 5 -0.5
v -2.5 6 -0.5
v -2.5 7 -0.5
v -2.5 8 -0.5
v -1.5 0 -0.5
v -1.5 1 -0.5
v -1.5 2 -0.5
v -1.5 3 -0.5
v -1.5 6 -0.5
v -1.5 7 -0.5
v -1.5 8 -0.5
v -0.5 1 -0.5
v -0.5 6 -0.5
v -0.5 12 -0.5
v -0.5 13 -0.5
v 0.5 6 -0.5
v 0.5 7 -0.5
v 0.5 8 -0.5
v 0.5 12 -0.5
v 0.5 13 -0.5
v 1.5 1 -0.5
v 1.5 2 -0.5
v 1.5 6 -0.5
v 1.5 7 -0.5
v 1.5 8 -0.5
v 1.5 9 -0.5
v 2.5 0 -0.5
v 2.5 1 -0.5
v 2.5 2 -0.5
v 2.5 3 -0.5
v 2.5 5 -0.5
v 2.5 6 -0.5
v 2.5 7 -0.5
v 2.5 8 -0.5
v 2.5 9 -0.5
v 2.5 10 -0.5
v 2.5 11 -0.5
v 2.5 13 -0.5
v 2.5 14 -0.5
v 3.5 1 -0.5
v 3.5 2 -0.5
v 3.5 3 -0.5
v 3.5 4 -0.5
v 3.5 5 -0.5
v 3.5 6 -0.5
v 3.5 7 -0.5
v 3.5 8 -0.5
v 3.5 9 -0.5
v 3.5 10 -0.5
v 3.5 11 -0.5
v 3.5 13 -0.5
v 3.5 14 -0.5
v 4.5 2 -0.5
v 4.5 4 -0.5
v 4.5 5 -0.5
v 4.5 7 -0.5
v 4.5 9 -0.5
v 4.5 10 -0.5
v 4.5 11 -0.5
v -2.5 3 -1.5
v -2.5 7 -1.5
v -1.5 1 -1.5
v -1.5 2 -1.5
v -1.5 3 -1.5
v -1.5 5 -1.5
v -1.5 6 -1.5
v -1.5 7 -1.5
v -0.5 1 -1.5
v -0.5 2 -1.5
v -0.5 3 -1.5
v -0.5 5 -1.5
v -0.5 6 -1.5
v 0.5 2 -1.5
v 0.5 5 -1.5
v 0.5 6 -1.5
v 1.5 1 -1.5
v 1.5 2 -1.5
v 1.5 3 -1.5
v 1.5 6 -1.5
v 1.5 8 -1.5
v 2.5 2 -1.5
v 2.5 3 -1.5
v 2.5 4 -1.5
v 2.5 5 -1.5
v 2.5 6 -1.5
v 2.5 7 -1.5
v 3.5 3 -1.5
v 3.5 5 -1.5
v 3.5 7 -1.5
v 3.5 8 -1.5
v -1.5 3 -2.5
v -1.5 5 -2.5
v -0.5 2 -2.5
v -0.5 3 -2.5
v -0.5 5 -2.5
v -0.5 6 -2.5
v 0.5 2 -2.5
v 0.5 3 -2.5
v 0.5 4 -2.5
v 0.5 5 -2.5
v 0.5 6 -2.5
v 1.5 2 -2.5
v 1.5 3 -2.5
v 1.5 4 -2.5
v 1.5 5 -2.5
v 2.5 3 -2.5
v 2.5 4 -2.5
v 2.5 5 -2.5
v -0.5 3 -3.5
v -0.5 5 -3.5
v 0.5 3 -3.5
v 0.5 4 -3.5
v 1.5 4 -3.5
v 1.5 5 -3.5
v -1.5 0 0.5
v 2.5 0 0.5
v -1.5 0 -0.5
v 2.5 0 -0.5
v -0.5 1 1.5
v 1.5 1 1.5
v -2.5 1 0.5
v -1.5 1 0.5
v -0.5 1 0.5
v 1.5 1 0.5
v 2.5 1 0.5
v 3.5 1 0.5
v -2.5 1 -0.5
v -1.5 1 -0.5
v -0.5 1 -0.5
v 1.5 1 -0.5
v 2.5 1 -0.5
v 3.5 1 -0.5
v -1.5 1 -1.5
v -0.5 1 -1.5
v 1.5 1 -1.5
v -0.5 2 2.5
v 1.5 2 2.5
v -1.5 2 1.5
v -0.5 2 1.5
v 1.5 2 1.5
v 2.5 2 1.5
v 3.5 2 1.5
v -3.5 2 0.5
v -2.5 2 0.5
v -1.5 2 0.5
v -0.5 2 0.5
v 1.5 2 0.5
v 2.5 2 0.5
v 3.5 2 0.5
v 4.5 2 0.5
v -3.5 2 -0.5
v -2.5 2 -0.5
v 1.5 2 -0.5
v 2.5 2 -0.5
v 3.5 2 -0.5
v 4.5 2 -0.5
v -0.5 2 -1.5
v 0.5 2 -1.5
v 1.5 2 -1.5
v 2.5 2 -1.5
v -0.5 2 -2.5
v 0.5 2 -2.5
v 1.5 2 -2.5
v -0.5 3 3.5
v 1.5 3 3.5
v -0.5 3 2.5
v 1.5 3 2.5
v 2.5 3 2.5
v -2.5 3 1.5
v -1.5 3 1.5
v 1.5 3 1.5
v 2.5 3 1.5
v -4.5 3 0.5
v -3.5 3 0.5
v -2.5 3 0.5
v -1.5 3 0.5
v -4.5 3 -0.5
v -3.5 3 -0.5
v -2.5 3 -0.5
v -1.5 3 -0.5
v 2.5 3 -0.5
v 3.5 3 -0.5
v -2.5 3 -1.5
v -1.5 3 -1.5
v -0.5 3 -1.5
v 1.5 3 -1.5
v 2.5 3 -1.5
v 3.5 3 -1.5
v -1.5 3 -2.5
v -0.5 3 -2.5
v 0.5 3 -2.5
v 1.5 3 -2.5
v 2.5 3 -2.5
v -0.5 3 -3.5
v 0.5 3 -3.5
v -1.5 4 2.5
v -0.5 4 2.5
v -1.5 4 1.5
v -0.5 4 1.5
v 0.5 4 -2.5
v 1.5 4 -2.5
v 0.5 4 -3.5
v 1.5 4 -3.5
v 1.5 6 2.5
v 2.5 6 2.5
v 1.5 6 1.5
v 2.5 6 1.5
v 2.5 7 1.5
v 3.5 7 1.5
v 2.5 7 0.5
v 3.5 7 0.5
v 4.5 7 0.5
v 2.5 7 -0.5
v 3.5 7 -0.5
v 4.5 7 -0.5
v 2.5 7 -1.5
v 3.5 7 -1.5
v 3.5 10 0.5
v 4.5 10 0.5
v 3.5 10 -0.5
v 4.5 10 -0.5
v -0.5 12 0.5
v 0.5 12 0.5
v -0.5 12 -0.5
v 0.5 12 -0.5
v 2.5 13 0.5
v 3.5 13 0.5
v 2.5 13 -0.5
v 3.5 13 -0.5
v -0.5 4 3.5
v 0.5 4 3.5
v -0.5 4 2.5
v 0.5 4 2.5
v -4.5 4 0.5
v -3.5 4 0.5
v -4.5 4 -0.5
v -3.5 4 -0.5
v 0.5 5 3.5
v 1.5 5 3.5
v -1.5 5 2.5
v -0.5 5 2.5
v 0.5 5 2.5
v 1.5 5 2.5
v 2.5 5 2.5
v -1.5 5 1.5
v -0.5 5 1.5
v 1.5 5 1.5
v 2.5 5 1.5
v 3.5 5 1.5
v 2.5 5 0.5
v 3.5 5 0.5
v 4.5 5 0.5
v 2.5 5 -0.5
v 3.5 5 -0.5
v 4.5 5 -0.5
v -1.5 5 -1.5
v -0.5 5 -1.5
v 0.5 5 -1.5
v 2.5 5 -1.5
v 3.5 5 -1.5
v -1.5 5 -2.5
v -0.5 5 -2.5
v 0.5 5 -2.5
v 1.5 5 -2.5
v 2.5 5 -2.5
v -0.5 5 -3.5
v 1.5 5 -3.5
v -0.5 6 2.5
v 1.5 6 2.5
v -1.5 6 1.5
v -0.5 6 1.5
v 1.5 6 1.5
v -1.5 6 0.5
v -0.5 6 0.5
v -1.5 6 -0.5
v -0.5 6 -0.5
v 0.5 6 -0.5
v 1.5 6 -0.5
v -1.5 6 -1.5
v -0.5 6 -1.5
v 0.5 6 -1.5
v 1.5 6 -1.5
v -0.5 6 -2.5
v 0.5 6 -2.5
v 1.5 7 2.5
v 2.5 7 2.5
v -2.5 7 1.5
v -1.5 7 1.5
v -0.5 7 1.5
v 1.5 7 1.5
v 2.5 7 1.5
v -3.5 7 0.5
v -2.5 7 0.5
v -1.5 7 0.5
v -0.5 7 0.5
v 0.5 7 0.5
v 1.5 7 0.5
v -3.5 7 -0.5
v -2.5 7 -0.5
v -1.5 7 -0.5
v 0.5 7 -0.5
v -2.5 7 -1.5
v -1.5 7 -1.5
v 1.5 8 1.5
v 2.5 8 1.5
v -2.5 8 0.5
v -1.5 8 0.5
v 0.5 8 0.5
v 1.5 8 0.5
v 2.5 8 0.5
v -2.5 8 -0.5
v -1.5 8 -0.5
v 0.5 8 -0.5
v 1.5 8 -0.5
v 2.5 8 -0.5
v 3.5 8 -0.5
v 1.5 8 -1.5
v 3.5 8 -1.5
v 2.5 9 1.5
v 3.5 9 1.5
v 1.5 9 0.5
v 2.5 9 0.5
v 3.5 9 0.5
v 4.5 9 0.5
v 1.5 9 -0.5
v 2.5 9 -0.5
v 3.5 9 -0.5
v 4.5 9 -0.5
v 2.5 11 0.5
v 3.5 11 0.5
v 4.5 11 0.5
v 2.5 11 -0.5
v 3.5 11 -0.5
v 4.5 11 -0.5
v -0.5 13 0.5
v 0.5 13 0.5
v -0.5 13 -0.5
v 0.5 13 -0.5
v 2.5 14 0.5
v 3.5 14 0.5
v 2.5 14 -0.5
v 3.5 14 -0.5

# faces
f 3/3/1 2/3/1 1/3/1
f 4/3/1 2/3/1 3/3/1
f 7/2/1 6/2/1 5/2/1
f 8/2/1 6/2/1 7/2/1
f 11/3/1 10/3/1 9/3/1
f 12/3/1 10/3/1 11/3/1
f 13/2/1 12/2/1 11/2/1
f 14/2/1 12/2/1 13/2/1
f 15/3/1 14/3/1 13/3/1
f 16/3/1 14/3/1 15/3/1
f 19/3/1 18/3/1 17/3/1
f 20/3/1 18/3/1 19/3/1
f 25/1/1 22/1/1 21/1/1
f 26/2/1 24/2/1 23/2/1
f 27/1/1 25/1/1 21/1/1
f 28/2/1 24/2/1 26/2/1
f 29/1/1 27/1/1 21/1/1
f 30/1/1 27/1/1 29/1/1
f 31/2/1 24/2/1 28/2/1
f 32/3/1 30/3/1 29/3/1
f 33/3/1 30/3/1 32/3/1
f 34/2/1 24/2/1 31/2/1
f 35/2/1 24/2/1 34/2/1
f 36/3/1 34/3/1 33/3/1
f 37/3/1 34/3/1 36/3/1
f 40/3/1 39/3/1 38/3/1
f 41/3/1 39/3/1 40/3/1
f 45/3/1 42/3/1 41/3/1
f 46/3/1 42/3/1 45/3/1
f 47/1/1 44/1/1 43/1/1
f 48/1/1 44/1/1 47/1/1
f 49/1/1 46/1/1 45/1/1
f 50/1/1 46/1/1 49/1/1
f 54/2/1 53/2/1 52/2/1
f 55/2/1 53/2/1 54/2/1
f 56/2/1 51/2/1 50/2/1
f 57/2/1 51/2/1 56/2/1
f 61/2/1 59/2/1 58/2/1
f 62/2/1 59/2/1 61/2/1
f 66/1/1 61/1/1 60/1/1
f 67/1/1 64/1/1 63/1/1
f 68/1/1 64/1/1 67/1/1
f 70/1/1 66/1/1 65/1/1
f 71/1/1 61/1/1 66/1/1
f 71/1/1 66/1/1 70/1/1
f 72/1/1 61/1/1 71/1/1
f 76/1/1 69/1/1 68/1/1
f 77/1/1 69/1/1 76/1/1
f 78/1/1 74/1/1 73/1/1
f 79/1/1 74/1/1 78/1/1
f 81/1/1 76/1/1 75/1/1
f 82/1/1 76/1/1 81/1/1
f 83/2/1 80/2/1 79/2/1
f 84/2/1 80/2/1 83/2/1
f 87/1/1 86/1/1 85/1/1
f 88/1/1 86/1/1 87/1/1
f 91/1/1 90/1/1 89/1/1
f 92/1/1 90/1/1 91/1/1
f 95/3/1 94/3/1 93/3/1
f 96/3/1 94/3/1 95/3/1
f 101/2/1 98/2/1 97/2/1
f 102/2/1 98/2/1 101/2/1
f 104/2/1 100/2/1 99/2/1
f 105/2/1 103/2/1 102/2/1
f 106/2/1 103/2/1 105/2/1
f 107/2/1 100/2/1 104/2/1
f 108/2/1 100/2/1 107/2/1
f 109/3/1 107/3/1 106/3/1
f 110/3/1 107/3/1 109/3/1
f 113/2/1 112/2/1 111/2/1
f 114/2/1 112/2/1 113/2/1
f 116/1/1 115/1/1 114/1/1
f 117/1/1 115/1/1 116/1/1
f 118/3/1 117/3/1 116/3/1
f 119/3/1 117/3/1 118/3/1
f 122/1/1 121/1/1 120/1/1
f 123/1/1 121/1/1 122/1/1
f 124/3/2 125/3/2 128/3/2
f 128/3/2 125/3/2 129/3/2
f 126/2/2 127/2/2 130/2/2
f 130/2/2 127/2/2 131/2/2
f 129/3/2 130/3/2 132/3/2
f 132/3/2 130/3/2 133/3/2
f 134/1/2 135/1/2 136/1/2
f 136/1/2 135/1/2 137/1/2
f 138/1/2 139/1/2 140/1/2
f 140/1/2 139/1/2 141/1/2
f 142/1/2 143/1/2 144/1/2
f 144/1/2 143/1/2 145/1/2
f 146/2/2 147/2/2 151/2/2
f 151/2/2 147/2/2 152/2/2
f 148/2/2 149/2/2 153/2/2
f 153/2/2 149/2/2 154/2/2
f 150/1/2 151/1/2 157/1/2
f 157/1/2 151/1/2 158/1/2
f 154/2/2 155/2/2 159/2/2
f 159/2/2 155/2/2 160/2/2
f 156/1/2 157/1/2 163/1/2
f 163/1/2 157/1/2 164/1/2
f 161/1/2 162/1/2 166/1/2
f 166/1/2 162/1/2 167/1/2
f 164/1/2 165/1/2 168/1/2
f 168/1/2 165/1/2 169/1/2
f 170/3/2 171/3/2 172/3/2
f 172/3/2 171/3/2 173/3/2
f 174/3/2 175/3/2 178/3/2
f 178/3/2 175/3/2 179/3/2
f 179/1/2 180/1/2 181/1/2
f 181/1/2 180/1/2 182/1/2
f 176/1/2 177/1/2 183/1/2
f 183/1/2 177/1/2 184/1/2
f 181/2/2 182/2/2 187/2/2
f 187/2/2 182/2/2 188/2/2
f 184/2/2 185/2/2 190/2/2
f 190/2/2 185/2/2 191/2/2
f 186/1/2 187/1/2 192/1/2
f 192/1/2 187/1/2 193/1/2
f 189/2/2 190/2/2 194/2/2
f 190/3/2 191/3/2 195/3/2
f 194/2/2 190/2/2 195/2/2
f 195/3/2 191/3/2 196/3/2
f 192/2/2 193/2/2 197/2/2
f 197/2/2 193/2/2 198/2/2
f 199/3/2 200/3/2 202/3/2
f 202/3/2 200/3/2 203/3/2
f 201/3/2 202/3/2 204/3/2
f 204/3/2 202/3/2 205/3/2
f 204/1/2 205/1/2 208/1/2
f 206/3/2 207/3/2 209/3/2
f 204/1/2 208/1/2 210/1/2
f 210/1/2 208/1/2 211/1/2
f 209/3/2 207/3/2 212/3/2
f 212/3/2 207/3/2 213/3/2
f 211/2/2 212/2/2 214/2/2
f 214/2/2 212/2/2 215/2/2
f 214/3/2 215/3/2 217/3/2
f 217/3/2 215/3/2 218/3/2
f 218/2/2 219/2/2 220/2/2
f 220/2/2 219/2/2 221/2/2
f 216/2/2 217/2/2 222/2/2
f 222/2/2 217/2/2 223/2/2
f 223/1/2 224/1/2 225/1/2
f 225/1/2 224/1/2 226/1/2
f 227/1/2 228/1/2 229/1/2
f 229/1/2 228/1/2 230/1/2
f 231/3/2 232/3/2 233/3/2
f 233/3/2 232/3/2 234/3/2
f 233/1/2 234/1/2 235/1/2
f 235/1/2 234/1/2 236/1/2
f 237/3/2 238/3/2 239/3/2
f 239/3/2 238/3/2 240/3/2
f 241/1/2 242/1/2 243/1/2
f 243/1/2 242/1/2 244/1/2
f 247/1/3 246/1/3 245/1/3
f 249/1/3 247/1/3 245/1/3
f 249/1/3 248/1/3 247/1/3
f 250/1/3 248/1/3 249/1/3
f 255/2/3 252/2/3 251/2/3
f 256/2/3 252/2/3 255/2/3
f 258/1/3 256/1/3 255/1/3
f 258/1/3 257/1/3 256/1/3
f 259/1/3 257/1/3 258/1/3
f 260/1/3 254/1/3 253/1/3
f 261/1/3 254/1/3 260/1/3
f 262/1/3 257/1/3 259/1/3
f 263/1/3 257/1/3 262/1/3
f 265/1/3 262/1/3 261/1/3
f 266/1/3 262/1/3 265/1/3
f 267/2/3 264/2/3 263/2/3
f 268/2/3 264/2/3 267/2/3
f 273/1/3 270/1/3 269/1/3
f 274/1/3 270/1/3 273/1/3
f 275/1/3 270/1/3 274/1/3
f 276/3/3 271/3/3 270/3/3
f 276/1/3 270/1/3 275/1/3
f 277/3/3 271/3/3 276/3/3
f 279/1/3 273/1/3 272/1/3
f 279/1/3 274/1/3 273/1/3
f 280/1/3 274/1/3 279/1/3
f 281/1/3 276/1/3 275/1/3
f 282/1/3 276/1/3 281/1/3
f 284/2/3 279/2/3 278/2/3
f 285/2/3 279/2/3 284/2/3
f 288/2/3 283/2/3 282/2/3
f 289/2/3 283/2/3 288/2/3
f 291/2/3 286/2/3 285/2/3
f 292/2/3 286/2/3 291/2/3
f 293/2/3 288/2/3 287/2/3
f 294/2/3 288/2/3 293/2/3
f 295/2/3 290/2/3 289/2/3
f 296/2/3 290/2/3 295/2/3
f 298/3/3 292/3/3 291/3/3
f 299/1/3 293/1/3 292/1/3
f 299/3/3 292/3/3 298/3/3
f 300/1/3 293/1/3 299/1/3
f 301/2/3 297/2/3 296/2/3
f 301/2/3 296/2/3 295/2/3
f 302/2/3 297/2/3 301/2/3
f 306/3/3 304/3/3 303/3/3
f 307/3/3 304/3/3 306/3/3
f 312/2/3 306/2/3 305/2/3
f 312/2/3 307/2/3 306/2/3
f 313/2/3 307/2/3 312/2/3
f 314/3/3 308/3/3 307/3/3
f 314/2/3 307/2/3 313/2/3
f 315/2/3 309/2/3 308/2/3
f 315/3/3 308/3/3 314/3/3
f 316/3/3 310/3/3 309/3/3
f 316/2/3 309/2/3 315/2/3
f 317/3/3 310/3/3 316/3/3
f 320/3/3 312/3/3 311/3/3
f 321/2/3 313/2/3 312/2/3
f 321/3/3 312/3/3 320/3/3
f 322/2/3 313/2/3 321/2/3
f 324/3/3 318/3/3 317/3/3
f 325/3/3 318/3/3 324/3/3
f 326/3/3 320/3/3 319/3/3
f 326/2/3 321/2/3 320/2/3
f 327/2/3 321/2/3 326/2/3
f 328/2/3 324/2/3 323/2/3
f 329/2/3 324/2/3 328/2/3
f 334/1/3 331/1/3 330/1/3
f 335/1/3 331/1/3 334/1/3
f 336/3/3 326/3/3 319/3/3
f 338/3/3 333/3/3 332/3/3
f 339/3/3 333/3/3 338/3/3
f 341/3/3 336/3/3 319/3/3
f 342/2/3 337/2/3 336/2/3
f 342/3/3 336/3/3 341/3/3
f 343/2/3 337/2/3 342/2/3
f 347/3/3 340/3/3 339/3/3
f 348/3/3 340/3/3 347/3/3
f 353/3/3 343/3/3 342/3/3
f 354/3/3 343/3/3 353/3/3
f 357/2/3 345/2/3 344/2/3
f 358/3/3 346/3/3 345/3/3
f 358/2/3 345/2/3 357/2/3
f 359/3/3 346/3/3 358/3/3
f 360/1/3 349/1/3 348/1/3
f 361/3/3 350/3/3 349/3/3
f 361/1/3 349/1/3 360/1/3
f 362/3/3 350/3/3 361/3/3
f 363/1/3 352/1/3 351/1/3
f 364/1/3 352/1/3 363/1/3
f 365/3/3 356/3/3 355/3/3
f 365/3/3 355/3/3 354/3/3
f 366/1/3 357/1/3 356/1/3
f 366/3/3 356/3/3 365/3/3
f 367/1/3 357/1/3 366/1/3
f 368/3/3 360/3/3 359/3/3
f 369/3/3 360/3/3 368/3/3
f 370/1/3 362/1/3 361/1/3
f 371/1/3 362/1/3 370/1/3
f 372/3/4 373/3/4 375/3/4
f 375/3/4 373/3/4 376/3/4
f 374/2/4 375/2/4 381/2/4
f 375/2/4 376/2/4 381/2/4
f 381/2/4 376/2/4 382/2/4
f 376/3/4 377/3/4 383/3/4
f 382/2/4 376/2/4 383/2/4
f 377/2/4 378/2/4 384/2/4
f 383/3/4 377/3/4 384/3/4
f 378/3/4 379/3/4 385/3/4
f 384/2/4 378/2/4 385/2/4
f 385/3/4 379/3/4 386/3/4
f 380/3/4 381/3/4 389/3/4
f 381/2/4 382/2/4 390/2/4
f 389/3/4 381/3/4 390/3/4
f 390/2/4 382/2/4 391/2/4
f 386/3/4 387/3/4 393/3/4
f 393/3/4 387/3/4 394/3/4
f 388/3/4 389/3/4 395/3/4
f 392/2/4 393/2/4 396/2/4
f 396/2/4 393/2/4 399/2/4
f 399/2/4 393/2/4 400/2/4
f 397/1/4 398/1/4 402/1/4
f 402/1/4 398/1/4 403/1/4
f 388/3/4 395/3/4 404/3/4
f 399/2/4 400/2/4 406/2/4
f 400/3/4 401/3/4 407/3/4
f 406/2/4 400/2/4 407/2/4
f 407/3/4 401/3/4 408/3/4
f 388/3/4 404/3/4 410/3/4
f 404/2/4 405/2/4 411/2/4
f 410/3/4 404/3/4 411/3/4
f 411/2/4 405/2/4 412/2/4
f 408/3/4 409/3/4 417/3/4
f 417/3/4 409/3/4 418/3/4
f 411/3/4 412/3/4 423/3/4
f 412/3/4 413/3/4 423/3/4
f 423/3/4 413/3/4 424/3/4
f 424/3/4 413/3/4 425/3/4
f 414/2/4 415/2/4 427/2/4
f 415/3/4 416/3/4 428/3/4
f 427/2/4 415/2/4 428/2/4
f 428/3/4 416/3/4 429/3/4
f 417/2/4 418/2/4 430/2/4
f 418/1/4 419/1/4 431/1/4
f 430/2/4 418/2/4 431/2/4
f 419/3/4 420/3/4 432/3/4
f 431/1/4 419/1/4 432/1/4
f 432/3/4 420/3/4 433/3/4
f 421/1/4 422/1/4 434/1/4
f 434/1/4 422/1/4 435/1/4
f 425/3/4 426/3/4 436/3/4
f 424/3/4 425/3/4 436/3/4
f 426/1/4 427/1/4 437/1/4
f 436/3/4 426/3/4 437/3/4
f 437/1/4 427/1/4 438/1/4
f 430/3/4 431/3/4 439/3/4
f 429/3/4 430/3/4 439/3/4
f 439/3/4 431/3/4 440/3/4
f 432/1/4 433/1/4 441/1/4
f 441/1/4 433/1/4 442/1/4
f 443/2/4 444/2/4 447/2/4
f 447/2/4 444/2/4 448/2/4
f 448/2/4 444/2/4 449/2/4
f 449/2/4 444/2/4 450/2/4
f 445/3/4 446/3/4 451/3/4
f 446/1/4 447/1/4 452/1/4
f 451/3/4 446/3/4 452/3/4
f 452/1/4 447/1/4 453/1/4
f 448/2/4 449/2/4 454/2/4
f 454/2/4 449/2/4 455/2/4
f 451/2/4 452/2/4 456/2/4
f 451/2/4 456/2/4 459/2/4
f 459/2/4 456/2/4 460/2/4
f 457/1/4 458/1/4 462/1/4
f 460/3/4 461/3/4 464/3/4
f 464/3/4 461/3/4 465/3/4
f 457/1/4 462/1/4 467/1/4
f 462/2/4 463/2/4 468/2/4
f 467/1/4 462/1/4 468/1/4
f 468/2/4 463/2/4 469/2/4
f 465/3/4 466/3/4 470/3/4
f 466/3/4 467/3/4 470/3/4
f 470/3/4 467/3/4 471/3/4
f 469/2/4 463/2/4 472/2/4
f 472/2/4 463/2/4 473/2/4
f 474/2/4 475/2/4 477/2/4
f 477/2/4 475/2/4 478/2/4
f 476/1/4 477/1/4 480/1/4
f 480/1/4 477/1/4 481/1/4
f 478/1/4 479/1/4 483/1/4
f 483/1/4 479/1/4 484/1/4
f 480/2/4 481/2/4 485/2/4
f 481/1/4 482/1/4 486/1/4
f 485/2/4 481/2/4 486/2/4
f 486/1/4 482/1/4 487/1/4
f 486/1/4 487/1/4 489/1/4
f 487/2/4 488/2/4 490/2/4
f 489/1/4 487/1/4 490/1/4
f 490/2/4 488/2/4 491/2/4
f 492/1/4 493/1/4 494/1/4
f 494/1/4 493/1/4 495/1/4
f 495/1/4 493/1/4 496/1/4
f 496/1/4 493/1/4 497/1/4
f 500/3/5 499/3/5 498/3/5
f 501/3/5 499/3/5 500/3/5
f 506/2/5 503/2/5 502/2/5
f 507/2/5 503/2/5 506/2/5
f 510/3/5 505/3/5 504/3/5
f 511/3/5 505/3/5 510/3/5
f 514/3/5 509/3/5 508/3/5
f 515/3/5 509/3/5 514/3/5
f 516/3/5 512/3/5 511/3/5
f 517/2/5 513/2/5 512/2/5
f 517/3/5 512/3/5 516/3/5
f 518/2/5 513/2/5 517/2/5
f 522/1/5 520/1/5 519/1/5
f 523/1/5 520/1/5 522/1/5
f 528/1/5 522/1/5 521/1/5
f 529/1/5 522/1/5 528/1/5
f 530/2/5 524/2/5 523/2/5
f 531/3/5 525/3/5 524/3/5
f 531/2/5 524/2/5 530/2/5
f 532/3/5 525/3/5 531/3/5
f 534/2/5 527/2/5 526/2/5
f 535/2/5 527/2/5 534/2/5
f 538/3/5 533/3/5 532/3/5
f 539/3/5 533/3/5 538/3/5
f 542/3/5 537/3/5 536/3/5
f 543/3/5 537/3/5 542/3/5
f 544/1/5 541/1/5 540/1/5
f 545/2/5 542/2/5 541/2/5
f 545/1/5 541/1/5 544/1/5
f 546/2/5 542/2/5 545/2/5
f 549/1/5 548/1/5 547/1/5
f 550/1/5 548/1/5 549/1/5
f 554/1/5 551/1/5 550/1/5
f 555/1/5 551/1/5 554/1/5
f 558/1/5 553/1/5 552/1/5
f 559/1/5 553/1/5 558/1/5
f 560/3/5 557/3/5 556/3/5
f 561/3/5 557/3/5 560/3/5
f 566/2/5 563/2/5 562/2/5
f 567/2/5 563/2/5 566/2/5
f 570/3/5 565/3/5 564/3/5
f 571/3/5 565/3/5 570/3/5
f 572/2/5 568/2/5 567/2/5
f 573/2/5 568/2/5 572/2/5
f 575/1/5 570/1/5 569/1/5
f 576/1/5 570/1/5 575/1/5
f 577/1/5 574/1/5 573/1/5
f 578/1/5 574/1/5 577/1/5
f 581/2/5 580/2/5 579/2/5
f 582/2/5 580/2/5 581/2/5
f 585/1/5 584/1/5 583/1/5
f 586/1/5 584/1/5 585/1/5
f 589/2/5 588/2/5 587/2/5
f 590/2/5 588/2/5 589/2/5
f 593/2/5 592/2/5 591/2/5
f 594/2/5 592/2/5 593/2/5
f 597/3/5 595/3/5 594/3/5
f 598/3/5 595/3/5 597/3/5
f 599/2/5 597/2/5 596/2/5
f 600/2/5 597/2/5 599/2/5
f 603/1/5 602/1/5 601/1/5
f 604/1/5 602/1/5 603/1/5
f 607/1/5 606/1/5 605/1/5
f 608/1/5 606/1/5 607/1/5
f 611/1/5 610/1/5 609/1/5
f 612/1/5 610/1/5 611/1/5
f 613/1/6 614/1/6 615/1/6
f 615/1/6 614/1/6 616/1/6
f 617/3/6 618/3/6 619/3/6
f 619/3/6 618/3/6 620/3/6
f 621/1/6 622/1/6 625/1/6
f 625/1/6 622/1/6 626/1/6
f 623/2/6 624/2/6 628/2/6
f 628/2/6 624/2/6 629/2/6
f 626/1/6 627/1/6 630/1/6
f 630/1/6 627/1/6 631/1/6
f 631/1/6 632/1/6 633/1/6
f 633/1/6 632/1/6 634/1/6
f 634/1/6 635/1/6 637/1/6
f 637/1/6 635/1/6 638/1/6
f 636/3/6 637/3/6 642/3/6
f 642/3/6 637/3/6 643/3/6
f 639/2/6 640/2/6 644/2/6
f 644/2/6 640/2/6 645/2/6
f 641/2/6 642/2/6 646/2/6
f 646/2/6 642/2/6 647/2/6
f 647/2/6 642/2/6 648/2/6
f 645/1/6 646/1/6 649/1/6
f 646/1/6 647/1/6 649/1/6
f 649/1/6 647/1/6 650/1/6
f 651/1/6 652/1/6 654/1/6
f 654/1/6 652/1/6 655/1/6
f 653/1/6 654/1/6 656/1/6
f 656/1/6 654/1/6 657/1/6
f 658/2/6 659/2/6 662/2/6
f 659/3/6 660/3/6 663/3/6
f 662/2/6 659/2/6 663/2/6
f 660/1/6 661/1/6 664/1/6
f 663/3/6 660/3/6 664/3/6
f 664/1/6 661/1/6 665/1/6
f 663/1/6 664/1/6 666/1/6
f 666/1/6 664/1/6 667/1/6
f 668/2/6 669/2/6 673/2/6
f 673/2/6 669/2/6 674/2/6
f 670/3/6 671/3/6 676/3/6
f 676/3/6 671/3/6 677/3/6
f 672/2/6 673/2/6 678/2/6
f 678/2/6 673/2/6 679/2/6
f 679/2/6 673/2/6 680/2/6
f 675/3/6 676/3/6 681/3/6
f 681/3/6 676/3/6 682/3/6
f 678/2/6 679/2/6 683/2/6
f 677/2/6 678/2/6 683/2/6
f 683/2/6 679/2/6 684/2/6
f 682/2/6 683/2/6 685/2/6
f 685/2/6 683/2/6 686/2/6
f 687/2/6 688/2/6 692/2/6
f 692/2/6 688/2/6 693/2/6
f 689/3/6 690/3/6 694/3/6
f 694/3/6 690/3/6 695/3/6
f 691/3/6 692/3/6 696/3/6
f 696/3/6 692/3/6 697/3/6
f 697/2/6 698/2/6 700/2/6
f 698/2/6 699/2/6 700/2/6
f 700/2/6 699/2/6 701/2/6
f 702/2/6 703/2/6 705/2/6
f 705/2/6 703/2/6 706/2/6
f 704/3/6 705/3/6 708/3/6
f 708/3/6 705/3/6 709/3/6
f 706/3/6 707/3/6 710/3/6
f 710/3/6 707/3/6 711/3/6
f 712/3/6 713/3/6 715/3/6
f 713/1/6 714/1/6 716/1/6
f 715/3/6 713/3/6 716/3/6
f 716/1/6 714/1/6 717/1/6
f 718/1/6 719/1/6 720/1/6
f 720/1/6 719/1/6 721/1/6
f 722/1/6 723/1/6 724/1/6
f 724/1/6 723/1/6 725/1/6
