# 3ds Max Wavefront OBJ Exporter v0.97b - (c)2007 guruware
# File Created: 30.01.2016 14:39:47

mtllib CheneL.mtl

#
# object default
#

v  -3.5000 1.0000 2.5000
v  -3.5000 0.0000 -2.5000
v  -3.5000 0.0000 2.5000
v  -3.5000 1.0000 -1.5000
v  -3.5000 2.0000 2.5000
v  -3.5000 2.0000 0.5000
v  -3.5000 2.0000 -1.5000
v  -3.5000 2.0000 -2.5000
v  -3.5000 3.0000 1.5000
v  -3.5000 3.0000 0.5000
v  -3.5000 3.0000 -0.5000
v  -3.5000 4.0000 1.5000
v  -3.5000 4.0000 0.5000
v  -3.5000 4.0000 -0.5000
v  -3.5000 4.0000 -1.5000
v  -3.5000 5.0000 -1.5000
v  -3.5000 5.0000 -2.5000
v  -3.5000 7.0000 2.5000
v  -3.5000 7.0000 1.5000
v  -3.5000 7.0000 -1.5000
v  -3.5000 7.0000 -2.5000
v  -3.5000 9.0000 1.5000
v  -3.5000 9.0000 0.5000
v  -3.5000 10.0000 0.5000
v  -3.5000 10.0000 -1.5000
v  -2.5000 1.0000 2.5000
v  -2.5000 0.0000 2.5000
v  -2.5000 0.0000 3.5000
v  -2.5000 2.0000 3.5000
v  -2.5000 2.0000 2.5000
v  -2.5000 2.0000 -2.5000
v  -2.5000 0.0000 -3.5000
v  -2.5000 0.0000 -2.5000
v  -2.5000 3.0000 3.5000
v  -2.5000 3.0000 2.5000
v  -2.5000 3.0000 -2.5000
v  -2.5000 3.0000 -3.5000
v  -2.5000 5.0000 -2.5000
v  -2.5000 5.0000 -3.5000
v  -2.5000 6.0000 3.5000
v  -2.5000 6.0000 2.5000
v  -2.5000 7.0000 -2.5000
v  -2.5000 8.0000 -2.5000
v  -2.5000 7.0000 -1.5000
v  -2.5000 8.0000 -3.5000
v  -2.5000 9.0000 1.5000
v  -2.5000 7.0000 1.5000
v  -2.5000 7.0000 2.5000
v  -2.5000 10.0000 2.5000
v  -2.5000 9.0000 0.5000
v  -2.5000 10.0000 0.5000
v  -2.5000 10.0000 -1.5000
v  -2.5000 11.0000 3.5000
v  -2.5000 10.0000 3.5000
v  -2.5000 12.0000 4.5000
v  -2.5000 11.0000 4.5000
v  -2.5000 12.0000 2.5000
v  -2.5000 12.0000 1.5000
v  -2.5000 13.0000 5.5000
v  -2.5000 12.0000 5.5000
v  -2.5000 13.0000 3.5000
v  -2.5000 13.0000 2.5000
v  -2.5000 13.0000 -1.5000
v  -2.5000 13.0000 -2.5000
v  -2.5000 15.0000 4.5000
v  -2.5000 13.0000 6.5000
v  -2.5000 15.0000 3.5000
v  -2.5000 16.0000 1.5000
v  -2.5000 16.0000 0.5000
v  -2.5000 17.0000 0.5000
v  -2.5000 17.0000 -1.5000
v  -2.5000 19.0000 5.5000
v  -2.5000 19.0000 4.5000
v  -2.5000 20.0000 6.5000
v  -2.5000 20.0000 5.5000
v  -1.5000 10.0000 3.5000
v  -1.5000 6.0000 2.5000
v  -1.5000 6.0000 3.5000
v  -1.5000 10.0000 2.5000
v  -1.5000 10.0000 -2.5000
v  -1.5000 8.0000 -3.5000
v  -1.5000 8.0000 -2.5000
v  -1.5000 10.0000 -3.5000
v  -1.5000 11.0000 4.5000
v  -1.5000 10.0000 4.5000
v  -1.5000 11.0000 3.5000
v  -1.5000 12.0000 5.5000
v  -1.5000 11.0000 5.5000
v  -1.5000 12.0000 4.5000
v  -1.5000 13.0000 6.5000
v  -1.5000 12.0000 6.5000
v  -1.5000 13.0000 5.5000
v  -1.5000 13.0000 2.5000
v  -1.5000 12.0000 1.5000
v  -1.5000 12.0000 2.5000
v  -1.5000 15.0000 3.5000
v  -1.5000 13.0000 3.5000
v  -1.5000 15.0000 1.5000
v  -1.5000 17.0000 4.5000
v  -1.5000 15.0000 4.5000
v  -1.5000 17.0000 3.5000
v  -1.5000 17.0000 0.5000
v  -1.5000 16.0000 0.5000
v  -1.5000 16.0000 1.5000
v  -1.5000 17.0000 -1.5000
v  -1.5000 13.0000 -2.5000
v  -1.5000 13.0000 -1.5000
v  -1.5000 17.0000 -2.5000
v  -1.5000 20.0000 7.5000
v  -1.5000 14.0000 6.5000
v  -1.5000 14.0000 7.5000
v  -1.5000 20.0000 6.5000
v  -1.5000 20.0000 5.5000
v  -1.5000 19.0000 4.5000
v  -1.5000 19.0000 5.5000
v  -1.5000 20.0000 4.5000
v  -1.5000 23.0000 1.5000
v  -1.5000 23.0000 -1.5000
v  -0.5000 16.0000 2.5000
v  -0.5000 15.0000 1.5000
v  -0.5000 15.0000 2.5000
v  -0.5000 16.0000 1.5000
v  -0.5000 18.0000 4.5000
v  -0.5000 17.0000 3.5000
v  -0.5000 17.0000 4.5000
v  -0.5000 18.0000 3.5000
v  -0.5000 18.0000 -1.5000
v  -0.5000 17.0000 -2.5000
v  -0.5000 17.0000 -1.5000
v  -0.5000 18.0000 -2.5000
v  0.5000 8.0000 3.5000
v  0.5000 8.0000 2.5000
v  0.5000 10.0000 3.5000
v  0.5000 10.0000 2.5000
v  0.5000 12.0000 6.5000
v  0.5000 12.0000 5.5000
v  0.5000 13.0000 6.5000
v  0.5000 13.0000 5.5000
v  0.5000 14.0000 3.5000
v  0.5000 14.0000 2.5000
v  0.5000 15.0000 3.5000
v  0.5000 15.0000 2.5000
v  0.5000 15.0000 1.5000
v  0.5000 16.0000 2.5000
v  0.5000 16.0000 1.5000
v  0.5000 16.0000 4.5000
v  0.5000 16.0000 3.5000
v  0.5000 18.0000 4.5000
v  0.5000 18.0000 3.5000
v  0.5000 17.0000 -1.5000
v  0.5000 17.0000 -2.5000
v  0.5000 18.0000 -1.5000
v  0.5000 18.0000 -2.5000
v  0.5000 14.0000 7.5000
v  0.5000 14.0000 6.5000
v  0.5000 19.0000 7.5000
v  0.5000 19.0000 6.5000
v  0.5000 21.0000 1.5000
v  0.5000 21.0000 0.5000
v  0.5000 23.0000 1.5000
v  0.5000 23.0000 0.5000
v  1.5000 6.0000 3.5000
v  1.5000 6.0000 2.5000
v  1.5000 8.0000 3.5000
v  1.5000 8.0000 2.5000
v  1.5000 7.0000 -2.5000
v  1.5000 7.0000 -3.5000
v  1.5000 10.0000 -2.5000
v  1.5000 10.0000 -3.5000
v  1.5000 10.0000 4.5000
v  1.5000 10.0000 2.5000
v  1.5000 11.0000 4.5000
v  1.5000 11.0000 2.5000
v  1.5000 11.0000 5.5000
v  1.5000 13.0000 5.5000
v  1.5000 11.0000 1.5000
v  1.5000 14.0000 3.5000
v  1.5000 13.0000 6.5000
v  1.5000 14.0000 2.5000
v  1.5000 15.0000 2.5000
v  1.5000 15.0000 1.5000
v  1.5000 16.0000 4.5000
v  1.5000 16.0000 3.5000
v  1.5000 15.0000 0.5000
v  1.5000 16.0000 0.5000
v  1.5000 12.0000 -1.5000
v  1.5000 12.0000 -2.5000
v  1.5000 16.0000 -1.5000
v  1.5000 17.0000 -1.5000
v  1.5000 17.0000 -2.5000
v  1.5000 19.0000 6.5000
v  1.5000 19.0000 7.5000
v  1.5000 20.0000 7.5000
v  1.5000 20.0000 4.5000
v  1.5000 21.0000 1.5000
v  1.5000 21.0000 0.5000
v  1.5000 23.0000 0.5000
v  1.5000 23.0000 -1.5000
v  2.5000 0.0000 3.5000
v  2.5000 0.0000 2.5000
v  2.5000 1.0000 3.5000
v  2.5000 1.0000 2.5000
v  2.5000 0.0000 -2.5000
v  2.5000 0.0000 -3.5000
v  2.5000 1.0000 -2.5000
v  2.5000 1.0000 -3.5000
v  2.5000 2.0000 2.5000
v  2.5000 3.0000 2.5000
v  2.5000 4.0000 -2.5000
v  2.5000 4.0000 -3.5000
v  2.5000 5.0000 3.5000
v  2.5000 5.0000 2.5000
v  2.5000 5.0000 -2.5000
v  2.5000 6.0000 3.5000
v  2.5000 6.0000 2.5000
v  2.5000 6.0000 -2.5000
v  2.5000 7.0000 -2.5000
v  2.5000 7.0000 -3.5000
v  2.5000 6.0000 1.5000
v  2.5000 8.0000 1.5000
v  2.5000 8.0000 0.5000
v  2.5000 9.0000 0.5000
v  2.5000 7.0000 -1.5000
v  2.5000 9.0000 -1.5000
v  2.5000 11.0000 2.5000
v  2.5000 11.0000 1.5000
v  2.5000 12.0000 -1.5000
v  2.5000 12.0000 -2.5000
v  2.5000 15.0000 1.5000
v  2.5000 15.0000 0.5000
v  2.5000 16.0000 0.5000
v  2.5000 16.0000 -1.5000
v  3.5000 0.0000 2.5000
v  3.5000 0.0000 -2.5000
v  3.5000 1.0000 0.5000
v  3.5000 1.0000 -2.5000
v  3.5000 2.0000 2.5000
v  3.5000 2.0000 0.5000
v  3.5000 2.0000 -0.5000
v  3.5000 2.0000 -1.5000
v  3.5000 3.0000 2.5000
v  3.5000 3.0000 0.5000
v  3.5000 3.0000 -0.5000
v  3.5000 3.0000 -1.5000
v  3.5000 4.0000 0.5000
v  3.5000 4.0000 -2.5000
v  3.5000 5.0000 -1.5000
v  3.5000 5.0000 -2.5000
v  3.5000 6.0000 2.5000
v  3.5000 6.0000 1.5000
v  3.5000 6.0000 -1.5000
v  3.5000 6.0000 -2.5000
v  3.5000 7.0000 -1.5000
v  3.5000 7.0000 -2.5000
v  3.5000 8.0000 1.5000
v  3.5000 8.0000 0.5000
v  3.5000 9.0000 0.5000
v  3.5000 9.0000 -1.5000
v  -0.5000 3.0000 3.5000
v  -0.5000 5.0000 3.5000
v  0.5000 1.0000 3.5000
v  0.5000 2.0000 3.5000
v  0.5000 4.0000 3.5000
v  0.5000 5.0000 3.5000
v  1.5000 4.0000 3.5000
v  1.5000 5.0000 3.5000
v  -1.5000 2.0000 -3.5000
v  -1.5000 3.0000 -3.5000
v  -1.5000 4.0000 -3.5000
v  -1.5000 5.0000 -3.5000
v  -0.5000 1.0000 -3.5000
v  -0.5000 2.0000 -3.5000
v  -0.5000 3.0000 -3.5000
v  -0.5000 4.0000 -3.5000
v  0.5000 2.0000 -3.5000
v  0.5000 3.0000 -3.5000
v  1.5000 3.0000 -3.5000
v  1.5000 4.0000 -3.5000
v  1.5000 0.0000 2.5000
v  1.5000 0.0000 1.5000
v  2.5000 0.0000 1.5000
v  -2.5000 0.0000 -1.5000
v  -1.5000 0.0000 -1.5000
v  -1.5000 0.0000 -2.5000
v  0.5000 20.0000 6.5000
v  0.5000 20.0000 5.5000
v  -0.5000 23.0000 0.5000
v  -0.5000 23.0000 -0.5000
v  0.5000 23.0000 -0.5000
# 289 vertices

vn -1.0000 0.0000 -0.0000
vn 1.0000 0.0000 -0.0000
vn 0.0000 0.0000 1.0000
vn 0.0000 0.0000 -1.0000
vn 0.0000 -1.0000 -0.0000
vn 0.0000 1.0000 -0.0000
# 6 vertex normals

vt 0.2832 0.5000 0.0000
vt 0.2402 0.5000 0.0000
vt 0.2324 0.5000 0.0000
vt 0.2207 0.5000 0.0000
# 4 texture coords

g default
usemtl palette
s 1
f 1/1/1 2/1/1 3/1/1 
f 4/1/1 2/1/1 1/1/1 
f 5/2/1 4/2/1 1/2/1 
f 6/2/1 4/2/1 5/2/1 
f 7/1/1 2/1/1 4/1/1 
f 7/2/1 4/2/1 6/2/1 
f 8/1/1 2/1/1 7/1/1 
f 9/3/1 6/3/1 5/3/1 
f 10/2/1 7/2/1 6/2/1 
f 10/3/1 6/3/1 9/3/1 
f 10/2/1 8/2/1 7/2/1 
f 11/2/1 8/2/1 10/2/1 
f 12/3/1 9/3/1 5/3/1 
f 12/1/1 10/1/1 9/1/1 
f 13/3/1 11/3/1 10/3/1 
f 13/1/1 10/1/1 12/1/1 
f 14/2/1 8/2/1 11/2/1 
f 14/3/1 11/3/1 13/3/1 
f 15/2/1 8/2/1 14/2/1 
f 16/3/1 13/3/1 12/3/1 
f 16/2/1 8/2/1 15/2/1 
f 16/3/1 15/3/1 14/3/1 
f 16/3/1 14/3/1 13/3/1 
f 17/2/1 8/2/1 16/2/1 
f 18/3/1 12/3/1 5/3/1 
f 18/3/1 16/3/1 12/3/1 
f 18/3/1 17/3/1 16/3/1 
f 19/3/1 17/3/1 18/3/1 
f 20/3/1 17/3/1 19/3/1 
f 21/3/1 17/3/1 20/3/1 
f 22/3/1 20/3/1 19/3/1 
f 23/3/1 20/3/1 22/3/1 
f 24/3/1 20/3/1 23/3/1 
f 25/3/1 20/3/1 24/3/1 
f 26/1/1 27/1/1 28/1/1 
f 29/1/1 26/1/1 28/1/1 
f 30/1/1 26/1/1 29/1/1 
f 31/1/1 32/1/1 33/1/1 
f 34/2/1 30/2/1 29/2/1 
f 35/2/1 30/2/1 34/2/1 
f 36/1/1 32/1/1 31/1/1 
f 37/1/1 32/1/1 36/1/1 
f 38/2/1 37/2/1 36/2/1 
f 39/2/1 37/2/1 38/2/1 
f 40/3/1 35/3/1 34/3/1 
f 41/3/1 35/3/1 40/3/1 
f 42/3/1 39/3/1 38/3/1 
f 43/3/1 39/3/1 42/3/1 
f 43/3/1 42/3/1 44/3/1 
f 45/3/1 39/3/1 43/3/1 
f 46/3/1 47/3/1 48/3/1 
f 49/3/1 46/3/1 48/3/1 
f 49/3/1 50/3/1 46/3/1 
f 51/3/1 50/3/1 49/3/1 
f 52/3/1 43/3/1 44/3/1 
f 53/3/1 51/3/1 49/3/1 
f 53/3/1 52/3/1 51/3/1 
f 53/3/1 49/3/1 54/3/1 
f 55/3/1 53/3/1 56/3/1 
f 57/3/1 52/3/1 53/3/1 
f 57/3/1 53/3/1 55/3/1 
f 58/3/1 52/3/1 57/3/1 
f 59/3/1 55/3/1 60/3/1 
f 59/3/1 57/3/1 55/3/1 
f 61/3/1 57/3/1 59/3/1 
f 62/3/1 57/3/1 61/3/1 
f 63/3/1 43/3/1 52/3/1 
f 63/3/1 52/3/1 58/3/1 
f 64/3/1 43/3/1 63/3/1 
f 65/3/1 61/3/1 59/3/1 
f 65/3/1 59/3/1 66/3/1 
f 67/3/1 61/3/1 65/3/1 
f 68/3/1 63/3/1 58/3/1 
f 69/3/1 63/3/1 68/3/1 
f 70/3/1 63/3/1 69/3/1 
f 71/3/1 63/3/1 70/3/1 
f 72/3/1 65/3/1 66/3/1 
f 73/3/1 65/3/1 72/3/1 
f 74/3/1 72/3/1 66/3/1 
f 75/3/1 72/3/1 74/3/1 
f 76/3/1 77/3/1 78/3/1 
f 79/3/1 77/3/1 76/3/1 
f 80/3/1 81/3/1 82/3/1 
f 83/3/1 81/3/1 80/3/1 
f 84/3/1 76/3/1 85/3/1 
f 86/3/1 76/3/1 84/3/1 
f 87/3/1 84/3/1 88/3/1 
f 89/3/1 84/3/1 87/3/1 
f 90/3/1 87/3/1 91/3/1 
f 92/3/1 87/3/1 90/3/1 
f 93/3/1 94/3/1 95/3/1 
f 96/3/1 93/3/1 97/3/1 
f 98/3/1 94/3/1 93/3/1 
f 98/3/1 93/3/1 96/3/1 
f 99/3/1 96/3/1 100/3/1 
f 101/3/1 96/3/1 99/3/1 
f 102/3/1 103/3/1 104/3/1 
f 105/3/1 106/3/1 107/3/1 
f 108/3/1 106/3/1 105/3/1 
f 109/3/1 110/3/1 111/3/1 
f 112/3/1 110/3/1 109/3/1 
f 113/3/1 114/3/1 115/3/1 
f 116/3/1 114/3/1 113/3/1 
f 117/3/1 102/3/1 104/3/1 
f 117/3/1 105/3/1 102/3/1 
f 118/3/1 105/3/1 117/3/1 
f 119/3/1 120/3/1 121/3/1 
f 122/3/1 120/3/1 119/3/1 
f 123/3/1 124/3/1 125/3/1 
f 126/3/1 124/3/1 123/3/1 
f 127/3/1 128/3/1 129/3/1 
f 130/3/1 128/3/1 127/3/1 
f 131/3/2 132/3/2 133/3/2 
f 133/3/2 132/3/2 134/3/2 
f 135/3/2 136/3/2 137/3/2 
f 137/3/2 136/3/2 138/3/2 
f 139/3/2 140/3/2 141/3/2 
f 141/3/2 140/3/2 142/3/2 
f 142/3/2 143/3/2 144/3/2 
f 144/3/2 143/3/2 145/3/2 
f 146/3/2 147/3/2 148/3/2 
f 148/3/2 147/3/2 149/3/2 
f 150/3/2 151/3/2 152/3/2 
f 152/3/2 151/3/2 153/3/2 
f 154/3/2 155/3/2 156/3/2 
f 156/3/2 155/3/2 157/3/2 
f 158/3/2 159/3/2 160/3/2 
f 160/3/2 159/3/2 161/3/2 
f 162/3/2 163/3/2 164/3/2 
f 164/3/2 163/3/2 165/3/2 
f 166/3/2 167/3/2 168/3/2 
f 168/3/2 167/3/2 169/3/2 
f 170/3/2 171/3/2 172/3/2 
f 172/3/2 171/3/2 173/3/2 
f 174/3/2 172/3/2 175/3/2 
f 172/3/2 173/3/2 175/3/2 
f 173/3/2 176/3/2 175/3/2 
f 175/3/2 176/3/2 177/3/2 
f 178/3/2 175/3/2 177/3/2 
f 177/3/2 176/3/2 179/3/2 
f 179/3/2 176/3/2 180/3/2 
f 180/3/2 176/3/2 181/3/2 
f 178/3/2 177/3/2 182/3/2 
f 182/3/2 177/3/2 183/3/2 
f 181/3/2 184/3/2 185/3/2 
f 186/3/2 187/3/2 188/3/2 
f 185/3/2 188/3/2 189/3/2 
f 188/3/2 187/3/2 189/3/2 
f 189/3/2 187/3/2 190/3/2 
f 178/3/2 182/3/2 191/3/2 
f 192/3/2 191/3/2 193/3/2 
f 191/3/2 182/3/2 194/3/2 
f 193/3/2 191/3/2 194/3/2 
f 181/3/2 185/3/2 195/3/2 
f 185/3/2 189/3/2 195/3/2 
f 195/3/2 189/3/2 196/3/2 
f 196/3/2 189/3/2 197/3/2 
f 197/3/2 189/3/2 198/3/2 
f 199/1/2 200/1/2 201/1/2 
f 201/1/2 200/1/2 202/1/2 
f 203/1/2 204/1/2 205/1/2 
f 205/1/2 204/1/2 206/1/2 
f 201/2/2 202/2/2 207/2/2 
f 201/2/2 207/2/2 208/2/2 
f 205/2/2 206/2/2 209/2/2 
f 209/2/2 206/2/2 210/2/2 
f 201/2/2 208/2/2 211/2/2 
f 211/2/2 208/2/2 212/2/2 
f 209/3/2 210/3/2 213/3/2 
f 211/3/2 212/3/2 214/3/2 
f 214/3/2 212/3/2 215/3/2 
f 213/3/2 210/3/2 216/3/2 
f 216/3/2 210/3/2 217/3/2 
f 217/3/2 210/3/2 218/3/2 
f 215/3/2 219/3/2 220/3/2 
f 220/3/2 221/3/2 222/3/2 
f 223/3/2 217/3/2 224/3/2 
f 220/3/2 222/3/2 225/3/2 
f 222/3/2 224/3/2 225/3/2 
f 215/3/2 220/3/2 225/3/2 
f 225/3/2 224/3/2 226/3/2 
f 224/3/2 217/3/2 227/3/2 
f 226/3/2 224/3/2 227/3/2 
f 227/3/2 217/3/2 228/3/2 
f 226/3/2 227/3/2 229/3/2 
f 229/3/2 227/3/2 230/3/2 
f 230/3/2 227/3/2 231/3/2 
f 231/3/2 227/3/2 232/3/2 
f 233/1/2 234/1/2 235/1/2 
f 235/1/2 234/1/2 236/1/2 
f 233/1/2 235/1/2 237/1/2 
f 235/2/2 236/2/2 238/2/2 
f 237/1/2 235/1/2 238/1/2 
f 238/2/2 236/2/2 239/2/2 
f 239/2/2 236/2/2 240/2/2 
f 237/2/2 238/2/2 241/2/2 
f 238/2/2 239/2/2 241/2/2 
f 241/2/2 239/2/2 242/2/2 
f 239/1/2 240/1/2 243/1/2 
f 242/2/2 239/2/2 243/2/2 
f 240/2/2 236/2/2 244/2/2 
f 243/1/2 240/1/2 244/1/2 
f 242/2/2 243/2/2 245/2/2 
f 241/3/2 242/3/2 245/3/2 
f 243/2/2 244/2/2 245/2/2 
f 244/2/2 236/2/2 246/2/2 
f 245/2/2 244/2/2 246/2/2 
f 245/3/2 246/3/2 247/3/2 
f 247/3/2 246/3/2 248/3/2 
f 241/3/2 245/3/2 249/3/2 
f 245/3/2 247/3/2 249/3/2 
f 249/3/2 247/3/2 250/3/2 
f 247/1/2 248/1/2 251/1/2 
f 250/3/2 247/3/2 251/3/2 
f 251/1/2 248/1/2 252/1/2 
f 250/3/2 251/3/2 253/3/2 
f 251/3/2 252/3/2 253/3/2 
f 253/3/2 252/3/2 254/3/2 
f 250/3/2 253/3/2 255/3/2 
f 255/3/2 253/3/2 256/3/2 
f 256/3/2 253/3/2 257/3/2 
f 257/3/2 253/3/2 258/3/2 
f 154/3/3 109/3/3 111/3/3 
f 156/3/3 109/3/3 154/3/3 
f 192/3/3 109/3/3 156/3/3 
f 193/3/3 109/3/3 192/3/3 
f 90/3/3 74/3/3 66/3/3 
f 110/3/3 74/3/3 90/3/3 
f 112/3/3 74/3/3 110/3/3 
f 135/3/3 90/3/3 91/3/3 
f 135/3/3 110/3/3 90/3/3 
f 137/3/3 110/3/3 135/3/3 
f 155/3/3 110/3/3 137/3/3 
f 178/3/3 157/3/3 155/3/3 
f 178/3/3 155/3/3 137/3/3 
f 191/3/3 157/3/3 178/3/3 
f 87/3/3 59/3/3 60/3/3 
f 92/3/3 59/3/3 87/3/3 
f 136/3/3 87/3/3 88/3/3 
f 174/3/3 136/3/3 88/3/3 
f 174/3/3 138/3/3 136/3/3 
f 175/3/3 138/3/3 174/3/3 
f 84/3/3 55/3/3 56/3/3 
f 89/3/3 55/3/3 84/3/3 
f 170/3/3 84/3/3 85/3/3 
f 172/3/3 84/3/3 170/3/3 
f 78/3/3 40/3/3 34/3/3 
f 76/3/3 53/3/3 54/3/3 
f 86/3/3 53/3/3 76/3/3 
f 259/2/3 34/2/3 29/2/3 
f 259/3/3 78/3/3 34/3/3 
f 259/3/3 76/3/3 78/3/3 
f 260/3/3 76/3/3 259/3/3 
f 261/1/3 29/1/3 28/1/3 
f 262/2/3 259/2/3 29/2/3 
f 262/1/3 29/1/3 261/1/3 
f 262/2/3 260/2/3 259/2/3 
f 263/2/3 260/2/3 262/2/3 
f 264/3/3 76/3/3 260/3/3 
f 264/2/3 260/2/3 263/2/3 
f 131/3/3 76/3/3 264/3/3 
f 133/3/3 76/3/3 131/3/3 
f 265/2/3 263/2/3 262/2/3 
f 265/2/3 262/2/3 261/2/3 
f 265/1/3 264/1/3 263/1/3 
f 266/3/3 131/3/3 264/3/3 
f 266/1/3 264/1/3 265/1/3 
f 162/3/3 131/3/3 266/3/3 
f 164/3/3 131/3/3 162/3/3 
f 199/1/3 261/1/3 28/1/3 
f 201/2/3 265/2/3 261/2/3 
f 201/1/3 261/1/3 199/1/3 
f 201/2/3 266/2/3 265/2/3 
f 211/3/3 162/3/3 266/3/3 
f 211/2/3 266/2/3 201/2/3 
f 214/3/3 162/3/3 211/3/3 
f 27/1/3 1/1/3 3/1/3 
f 26/2/3 5/2/3 1/2/3 
f 26/1/3 1/1/3 27/1/3 
f 30/3/3 18/3/3 5/3/3 
f 30/2/3 5/2/3 26/2/3 
f 35/3/3 18/3/3 30/3/3 
f 41/3/3 18/3/3 35/3/3 
f 48/3/3 18/3/3 41/3/3 
f 77/3/3 49/3/3 48/3/3 
f 77/3/3 48/3/3 41/3/3 
f 79/3/3 49/3/3 77/3/3 
f 142/3/3 119/3/3 121/3/3 
f 144/3/3 119/3/3 142/3/3 
f 165/3/3 134/3/3 132/3/3 
f 171/3/3 134/3/3 165/3/3 
f 179/3/3 142/3/3 140/3/3 
f 180/3/3 142/3/3 179/3/3 
f 215/3/3 173/3/3 171/3/3 
f 215/3/3 165/3/3 163/3/3 
f 215/3/3 171/3/3 165/3/3 
f 225/3/3 173/3/3 215/3/3 
f 233/1/3 207/1/3 202/1/3 
f 233/1/3 202/1/3 200/1/3 
f 237/2/3 208/2/3 207/2/3 
f 237/1/3 207/1/3 233/1/3 
f 241/3/3 212/3/3 208/3/3 
f 241/2/3 208/2/3 237/2/3 
f 241/3/3 215/3/3 212/3/3 
f 249/3/3 215/3/3 241/3/3 
f 47/3/3 22/3/3 19/3/3 
f 46/3/3 22/3/3 47/3/3 
f 94/3/3 68/3/3 58/3/3 
f 98/3/3 68/3/3 94/3/3 
f 104/3/3 68/3/3 98/3/3 
f 120/3/3 117/3/3 104/3/3 
f 120/3/3 104/3/3 98/3/3 
f 122/3/3 117/3/3 120/3/3 
f 145/3/3 117/3/3 122/3/3 
f 158/3/3 117/3/3 145/3/3 
f 160/3/3 117/3/3 158/3/3 
f 181/3/3 145/3/3 143/3/3 
f 181/3/3 158/3/3 145/3/3 
f 195/3/3 158/3/3 181/3/3 
f 226/3/3 181/3/3 176/3/3 
f 229/3/3 181/3/3 226/3/3 
f 250/3/3 220/3/3 219/3/3 
f 255/3/3 220/3/3 250/3/3 
f 50/3/3 24/3/3 23/3/3 
f 51/3/3 24/3/3 50/3/3 
f 103/3/3 70/3/3 69/3/3 
f 102/3/3 70/3/3 103/3/3 
f 196/3/3 161/3/3 159/3/3 
f 197/3/3 161/3/3 196/3/3 
f 230/3/3 185/3/3 184/3/3 
f 231/3/3 185/3/3 230/3/3 
f 256/3/3 222/3/3 221/3/3 
f 257/3/3 222/3/3 256/3/3 
f 72/3/4 75/3/4 115/3/4 
f 115/3/4 75/3/4 113/3/4 
f 65/3/4 73/3/4 100/3/4 
f 100/3/4 73/3/4 99/3/4 
f 99/3/4 73/3/4 114/3/4 
f 114/3/4 116/3/4 125/3/4 
f 99/3/4 114/3/4 125/3/4 
f 125/3/4 116/3/4 123/3/4 
f 123/3/4 116/3/4 148/3/4 
f 146/3/4 148/3/4 182/3/4 
f 148/3/4 116/3/4 194/3/4 
f 182/3/4 148/3/4 194/3/4 
f 61/3/4 67/3/4 97/3/4 
f 97/3/4 67/3/4 96/3/4 
f 96/3/4 101/3/4 124/3/4 
f 96/3/4 124/3/4 141/3/4 
f 124/3/4 126/3/4 141/3/4 
f 141/3/4 126/3/4 147/3/4 
f 147/3/4 126/3/4 149/3/4 
f 139/3/4 141/3/4 177/3/4 
f 141/3/4 147/3/4 177/3/4 
f 177/3/4 147/3/4 183/3/4 
f 57/3/4 62/3/4 95/3/4 
f 95/3/4 62/3/4 93/3/4 
f 20/3/4 25/3/4 44/3/4 
f 44/3/4 25/3/4 52/3/4 
f 63/3/4 71/3/4 107/3/4 
f 107/3/4 71/3/4 105/3/4 
f 105/3/4 118/3/4 129/3/4 
f 129/3/4 118/3/4 127/3/4 
f 127/3/4 118/3/4 152/3/4 
f 150/3/4 152/3/4 189/3/4 
f 152/3/4 118/3/4 198/3/4 
f 189/3/4 152/3/4 198/3/4 
f 186/3/4 188/3/4 227/3/4 
f 227/3/4 188/3/4 232/3/4 
f 223/3/4 224/3/4 253/3/4 
f 253/3/4 224/3/4 258/3/4 
f 2/1/4 8/1/4 33/1/4 
f 8/2/4 17/2/4 31/2/4 
f 33/1/4 8/1/4 31/1/4 
f 31/2/4 17/2/4 36/2/4 
f 17/3/4 21/3/4 38/3/4 
f 36/2/4 17/2/4 38/2/4 
f 38/3/4 21/3/4 42/3/4 
f 43/3/4 64/3/4 82/3/4 
f 82/3/4 64/3/4 80/3/4 
f 80/3/4 64/3/4 106/3/4 
f 106/3/4 108/3/4 128/3/4 
f 80/3/4 106/3/4 128/3/4 
f 80/3/4 128/3/4 151/3/4 
f 128/3/4 130/3/4 151/3/4 
f 151/3/4 130/3/4 153/3/4 
f 80/3/4 151/3/4 168/3/4 
f 168/3/4 151/3/4 187/3/4 
f 187/3/4 151/3/4 190/3/4 
f 166/3/4 168/3/4 217/3/4 
f 168/3/4 187/3/4 217/3/4 
f 217/3/4 187/3/4 228/3/4 
f 203/1/4 205/1/4 234/1/4 
f 205/2/4 209/2/4 236/2/4 
f 234/1/4 205/1/4 236/1/4 
f 209/3/4 213/3/4 246/3/4 
f 236/2/4 209/2/4 246/2/4 
f 213/1/4 216/1/4 248/1/4 
f 246/3/4 213/3/4 248/3/4 
f 216/3/4 217/3/4 252/3/4 
f 248/1/4 216/1/4 252/1/4 
f 252/3/4 217/3/4 254/3/4 
f 32/1/4 37/1/4 267/1/4 
f 37/2/4 39/2/4 268/2/4 
f 267/1/4 37/1/4 268/1/4 
f 268/2/4 39/2/4 269/2/4 
f 39/3/4 45/3/4 270/3/4 
f 269/2/4 39/2/4 270/2/4 
f 270/3/4 45/3/4 81/3/4 
f 32/1/4 267/1/4 271/1/4 
f 267/3/4 268/3/4 272/3/4 
f 271/1/4 267/1/4 272/1/4 
f 268/1/4 269/1/4 273/1/4 
f 272/3/4 268/3/4 273/3/4 
f 81/3/4 83/3/4 274/3/4 
f 273/1/4 269/1/4 274/1/4 
f 269/3/4 270/3/4 274/3/4 
f 270/3/4 81/3/4 274/3/4 
f 271/2/4 272/2/4 275/2/4 
f 272/3/4 273/3/4 275/3/4 
f 273/3/4 274/3/4 275/3/4 
f 275/3/4 274/3/4 276/3/4 
f 275/2/4 276/2/4 277/2/4 
f 276/3/4 274/3/4 277/3/4 
f 274/3/4 83/3/4 278/3/4 
f 277/3/4 274/3/4 278/3/4 
f 278/3/4 83/3/4 167/3/4 
f 167/3/4 83/3/4 169/3/4 
f 32/1/4 271/1/4 204/1/4 
f 275/2/4 277/2/4 206/2/4 
f 204/1/4 271/1/4 206/1/4 
f 271/2/4 275/2/4 206/2/4 
f 277/2/4 278/2/4 206/2/4 
f 278/3/4 167/3/4 210/3/4 
f 206/2/4 278/2/4 210/2/4 
f 210/3/4 167/3/4 218/3/4 
f 27/1/5 199/1/5 28/1/5 
f 279/1/5 199/1/5 27/1/5 
f 200/1/5 199/1/5 279/1/5 
f 280/3/5 279/3/5 27/3/5 
f 280/2/5 200/2/5 279/2/5 
f 281/1/5 233/1/5 200/1/5 
f 281/2/5 200/2/5 280/2/5 
f 282/1/5 27/1/5 3/1/5 
f 282/3/5 280/3/5 27/3/5 
f 282/3/5 281/3/5 280/3/5 
f 283/3/5 281/3/5 282/3/5 
f 2/1/5 282/1/5 3/1/5 
f 33/2/5 283/2/5 282/2/5 
f 33/1/5 282/1/5 2/1/5 
f 284/3/5 281/3/5 283/3/5 
f 284/2/5 283/2/5 33/2/5 
f 203/1/5 233/1/5 281/1/5 
f 203/3/5 281/3/5 284/3/5 
f 234/1/5 233/1/5 203/1/5 
f 32/1/5 284/1/5 33/1/5 
f 32/1/5 203/1/5 284/1/5 
f 204/1/5 203/1/5 32/1/5 
f 76/3/5 170/3/5 85/3/5 
f 133/3/5 170/3/5 76/3/5 
f 49/3/5 76/3/5 54/3/5 
f 79/3/5 76/3/5 49/3/5 
f 134/3/5 170/3/5 133/3/5 
f 171/3/5 170/3/5 134/3/5 
f 84/3/5 174/3/5 88/3/5 
f 172/3/5 174/3/5 84/3/5 
f 53/3/5 84/3/5 56/3/5 
f 86/3/5 84/3/5 53/3/5 
f 87/3/5 135/3/5 91/3/5 
f 136/3/5 135/3/5 87/3/5 
f 55/3/5 87/3/5 60/3/5 
f 89/3/5 87/3/5 55/3/5 
f 59/3/5 90/3/5 66/3/5 
f 92/3/5 90/3/5 59/3/5 
f 138/3/5 178/3/5 137/3/5 
f 175/3/5 178/3/5 138/3/5 
f 110/3/5 154/3/5 111/3/5 
f 155/3/5 154/3/5 110/3/5 
f 157/3/5 192/3/5 156/3/5 
f 191/3/5 192/3/5 157/3/5 
f 40/3/6 78/3/6 41/3/6 
f 41/3/6 78/3/6 77/3/6 
f 162/3/6 214/3/6 163/3/6 
f 163/3/6 214/3/6 215/3/6 
f 215/3/6 249/3/6 219/3/6 
f 219/3/6 249/3/6 250/3/6 
f 18/3/6 48/3/6 19/3/6 
f 19/3/6 48/3/6 47/3/6 
f 20/3/6 44/3/6 21/3/6 
f 21/3/6 44/3/6 42/3/6 
f 223/3/6 253/3/6 217/3/6 
f 217/3/6 253/3/6 254/3/6 
f 166/3/6 217/3/6 167/3/6 
f 167/3/6 217/3/6 218/3/6 
f 131/3/6 164/3/6 132/3/6 
f 132/3/6 164/3/6 165/3/6 
f 220/3/6 255/3/6 221/3/6 
f 221/3/6 255/3/6 256/3/6 
f 43/3/6 82/3/6 45/3/6 
f 45/3/6 82/3/6 81/3/6 
f 22/3/6 46/3/6 23/3/6 
f 23/3/6 46/3/6 50/3/6 
f 222/3/6 257/3/6 224/3/6 
f 224/3/6 257/3/6 258/3/6 
f 24/3/6 51/3/6 25/3/6 
f 25/3/6 51/3/6 52/3/6 
f 80/3/6 168/3/6 83/3/6 
f 83/3/6 168/3/6 169/3/6 
f 173/3/6 225/3/6 176/3/6 
f 176/3/6 225/3/6 226/3/6 
f 57/3/6 95/3/6 58/3/6 
f 58/3/6 95/3/6 94/3/6 
f 186/3/6 227/3/6 187/3/6 
f 187/3/6 227/3/6 228/3/6 
f 61/3/6 97/3/6 62/3/6 
f 62/3/6 97/3/6 93/3/6 
f 63/3/6 107/3/6 64/3/6 
f 64/3/6 107/3/6 106/3/6 
f 139/3/6 177/3/6 140/3/6 
f 140/3/6 177/3/6 179/3/6 
f 65/3/6 100/3/6 67/3/6 
f 67/3/6 100/3/6 96/3/6 
f 96/3/6 141/3/6 121/3/6 
f 121/3/6 141/3/6 142/3/6 
f 96/3/6 121/3/6 98/3/6 
f 98/3/6 121/3/6 120/3/6 
f 142/3/6 180/3/6 143/3/6 
f 143/3/6 180/3/6 181/3/6 
f 181/3/6 229/3/6 184/3/6 
f 184/3/6 229/3/6 230/3/6 
f 146/3/6 182/3/6 147/3/6 
f 147/3/6 182/3/6 183/3/6 
f 119/3/6 144/3/6 122/3/6 
f 122/3/6 144/3/6 145/3/6 
f 68/3/6 104/3/6 69/3/6 
f 69/3/6 104/3/6 103/3/6 
f 185/3/6 231/3/6 188/3/6 
f 188/3/6 231/3/6 232/3/6 
f 99/3/6 125/3/6 101/3/6 
f 101/3/6 125/3/6 124/3/6 
f 70/3/6 102/3/6 71/3/6 
f 71/3/6 102/3/6 105/3/6 
f 105/3/6 129/3/6 108/3/6 
f 108/3/6 129/3/6 128/3/6 
f 150/3/6 189/3/6 151/3/6 
f 151/3/6 189/3/6 190/3/6 
f 123/3/6 148/3/6 126/3/6 
f 126/3/6 148/3/6 149/3/6 
f 127/3/6 152/3/6 130/3/6 
f 130/3/6 152/3/6 153/3/6 
f 72/3/6 115/3/6 73/3/6 
f 73/3/6 115/3/6 114/3/6 
f 109/3/6 193/3/6 112/3/6 
f 112/3/6 193/3/6 285/3/6 
f 74/3/6 112/3/6 75/3/6 
f 112/4/6 285/4/6 113/4/6 
f 75/3/6 112/3/6 113/3/6 
f 285/3/6 193/3/6 286/3/6 
f 113/4/6 285/4/6 286/4/6 
f 113/3/6 286/3/6 116/3/6 
f 286/3/6 193/3/6 194/3/6 
f 116/3/6 286/3/6 194/3/6 
f 158/3/6 195/3/6 159/3/6 
f 159/3/6 195/3/6 196/3/6 
f 117/3/6 160/3/6 287/3/6 
f 287/3/6 160/3/6 161/3/6 
f 117/3/6 287/3/6 288/3/6 
f 287/4/6 161/4/6 288/4/6 
f 161/3/6 197/3/6 289/3/6 
f 288/4/6 161/4/6 289/4/6 
f 117/3/6 288/3/6 118/3/6 
f 288/3/6 289/3/6 118/3/6 
f 289/3/6 197/3/6 198/3/6 
f 118/3/6 289/3/6 198/3/6 
# 0 polygons - 574 triangles

