# 3ds Max Wavefront OBJ Exporter v0.97b - (c)2007 guruware
# File Created: 30.01.2016 14:47:02

mtllib CocotierFeuille.mtl

#
# object default
#

v  -6.5000 4.0000 3.0000
v  -6.5000 3.0000 2.0000
v  -6.5000 3.0000 3.0000
v  -6.5000 4.0000 2.0000
v  -6.5000 5.0000 4.0000
v  -6.5000 4.0000 4.0000
v  -6.5000 5.0000 3.0000
v  -6.5000 5.0000 2.0000
v  -6.5000 4.0000 1.0000
v  -6.5000 6.0000 6.0000
v  -6.5000 5.0000 6.0000
v  -6.5000 6.0000 4.0000
v  -6.5000 6.0000 3.0000
v  -6.5000 6.0000 2.0000
v  -6.5000 6.0000 1.0000
v  -6.5000 7.0000 8.0000
v  -6.5000 6.0000 8.0000
v  -6.5000 7.0000 6.0000
v  -6.5000 7.0000 4.0000
v  -6.5000 7.0000 3.0000
v  -6.5000 7.0000 2.0000
v  -6.5000 8.0000 13.0000
v  -6.5000 7.0000 13.0000
v  -6.5000 8.0000 6.0000
v  -6.5000 8.0000 5.0000
v  -6.5000 8.0000 3.0000
v  -6.5000 9.0000 13.0000
v  -6.5000 9.0000 5.0000
v  -5.5000 3.0000 2.0000
v  -5.5000 2.0000 1.0000
v  -5.5000 2.0000 2.0000
v  -5.5000 3.0000 1.0000
v  -5.5000 4.0000 2.0000
v  -5.5000 4.0000 1.0000
v  -5.5000 3.0000 -0.0000
v  -5.5000 5.0000 1.0000
v  -5.5000 5.0000 -0.0000
v  -5.5000 8.0000 17.0000
v  -5.5000 7.0000 13.0000
v  -5.5000 7.0000 17.0000
v  -5.5000 8.0000 14.0000
v  -5.5000 8.0000 13.0000
v  -5.5000 9.0000 17.0000
v  -5.5000 9.0000 15.0000
v  -5.5000 9.0000 14.0000
v  -5.5000 9.0000 13.0000
v  -5.5000 10.0000 15.0000
v  -5.5000 9.0000 9.0000
v  -5.5000 10.0000 9.0000
v  -4.5000 3.0000 1.0000
v  -4.5000 2.0000 -0.0000
v  -4.5000 2.0000 1.0000
v  -4.5000 3.0000 -0.0000
v  -4.5000 7.0000 20.0000
v  -4.5000 6.0000 17.0000
v  -4.5000 6.0000 20.0000
v  -4.5000 7.0000 19.0000
v  -4.5000 7.0000 17.0000
v  -4.5000 8.0000 20.0000
v  -4.5000 8.0000 19.0000
v  -4.5000 8.0000 17.0000
v  -4.5000 9.0000 19.0000
v  -4.5000 9.0000 17.0000
v  -4.5000 10.0000 16.0000
v  -4.5000 9.0000 15.0000
v  -4.5000 9.0000 16.0000
v  -4.5000 10.0000 15.0000
v  -3.5000 2.0000 2.0000
v  -3.5000 1.0000 -0.0000
v  -3.5000 1.0000 2.0000
v  -3.5000 2.0000 1.0000
v  -3.5000 2.0000 -0.0000
v  -3.5000 3.0000 -0.0000
v  -3.5000 2.0000 -1.0000
v  -3.5000 4.0000 -0.0000
v  -3.5000 4.0000 -1.0000
v  -3.5000 5.0000 21.0000
v  -3.5000 4.0000 20.0000
v  -3.5000 4.0000 21.0000
v  -3.5000 5.0000 20.0000
v  -3.5000 6.0000 22.0000
v  -3.5000 5.0000 22.0000
v  -3.5000 5.0000 19.0000
v  -3.5000 6.0000 21.0000
v  -3.5000 6.0000 20.0000
v  -3.5000 6.0000 19.0000
v  -3.5000 7.0000 22.0000
v  -3.5000 7.0000 21.0000
v  -3.5000 7.0000 20.0000
v  -3.5000 8.0000 21.0000
v  -3.5000 8.0000 20.0000
v  -2.5000 1.0000 1.0000
v  -2.5000 0.0000 -0.0000
v  -2.5000 0.0000 1.0000
v  -2.5000 1.0000 -0.0000
v  -2.5000 2.0000 -0.0000
v  -2.5000 1.0000 -1.0000
v  -2.5000 2.0000 -1.0000
v  -2.5000 4.0000 23.0000
v  -2.5000 3.0000 21.0000
v  -2.5000 3.0000 23.0000
v  -2.5000 4.0000 22.0000
v  -2.5000 4.0000 21.0000
v  -2.5000 5.0000 22.0000
v  -2.5000 5.0000 21.0000
v  -2.5000 6.0000 23.0000
v  -2.5000 6.0000 22.0000
v  -1.5000 1.0000 -0.0000
v  -1.5000 0.0000 -1.0000
v  -1.5000 0.0000 -0.0000
v  -1.5000 1.0000 -1.0000
v  -1.5000 3.0000 23.0000
v  -1.5000 2.0000 22.0000
v  -1.5000 2.0000 23.0000
v  -1.5000 3.0000 22.0000
v  1.5000 10.0000 16.0000
v  1.5000 9.0000 15.0000
v  1.5000 9.0000 16.0000
v  1.5000 10.0000 15.0000
v  1.5000 10.0000 10.0000
v  1.5000 9.0000 9.0000
v  1.5000 9.0000 10.0000
v  1.5000 10.0000 9.0000
v  2.5000 8.0000 4.0000
v  2.5000 7.0000 3.0000
v  2.5000 7.0000 4.0000
v  2.5000 8.0000 3.0000
v  2.5000 9.0000 6.0000
v  2.5000 8.0000 5.0000
v  2.5000 8.0000 6.0000
v  2.5000 9.0000 5.0000
v  -2.5000 7.0000 4.0000
v  -2.5000 7.0000 3.0000
v  -2.5000 8.0000 4.0000
v  -2.5000 8.0000 3.0000
v  -2.5000 8.0000 6.0000
v  -2.5000 8.0000 5.0000
v  -2.5000 9.0000 6.0000
v  -2.5000 9.0000 5.0000
v  -1.5000 9.0000 16.0000
v  -1.5000 9.0000 15.0000
v  -1.5000 10.0000 16.0000
v  -1.5000 10.0000 15.0000
v  -1.5000 9.0000 10.0000
v  -1.5000 9.0000 9.0000
v  -1.5000 10.0000 10.0000
v  -1.5000 10.0000 9.0000
v  1.5000 0.0000 -0.0000
v  1.5000 0.0000 -1.0000
v  1.5000 1.0000 -0.0000
v  1.5000 1.0000 -1.0000
v  1.5000 2.0000 23.0000
v  1.5000 2.0000 22.0000
v  1.5000 3.0000 23.0000
v  1.5000 3.0000 22.0000
v  2.5000 0.0000 1.0000
v  2.5000 0.0000 -0.0000
v  2.5000 1.0000 1.0000
v  2.5000 1.0000 -0.0000
v  2.5000 1.0000 -1.0000
v  2.5000 2.0000 -0.0000
v  2.5000 2.0000 -1.0000
v  2.5000 3.0000 23.0000
v  2.5000 3.0000 21.0000
v  2.5000 4.0000 23.0000
v  2.5000 4.0000 22.0000
v  2.5000 4.0000 21.0000
v  2.5000 5.0000 22.0000
v  2.5000 4.0000 20.0000
v  2.5000 5.0000 20.0000
v  2.5000 6.0000 23.0000
v  2.5000 6.0000 22.0000
v  3.5000 1.0000 2.0000
v  3.5000 1.0000 -0.0000
v  3.5000 2.0000 2.0000
v  3.5000 2.0000 -0.0000
v  3.5000 2.0000 -1.0000
v  3.5000 3.0000 -0.0000
v  3.5000 4.0000 -0.0000
v  3.5000 4.0000 -1.0000
v  3.5000 5.0000 22.0000
v  3.5000 5.0000 19.0000
v  3.5000 6.0000 22.0000
v  3.5000 6.0000 20.0000
v  3.5000 6.0000 19.0000
v  3.5000 7.0000 22.0000
v  3.5000 7.0000 21.0000
v  3.5000 7.0000 20.0000
v  3.5000 7.0000 19.0000
v  3.5000 8.0000 21.0000
v  3.5000 8.0000 20.0000
v  4.5000 2.0000 1.0000
v  4.5000 2.0000 -0.0000
v  4.5000 3.0000 1.0000
v  4.5000 3.0000 -0.0000
v  4.5000 6.0000 19.0000
v  4.5000 6.0000 17.0000
v  4.5000 7.0000 19.0000
v  4.5000 7.0000 18.0000
v  4.5000 7.0000 17.0000
v  4.5000 7.0000 20.0000
v  4.5000 8.0000 20.0000
v  4.5000 8.0000 19.0000
v  4.5000 7.0000 16.0000
v  4.5000 8.0000 18.0000
v  4.5000 8.0000 16.0000
v  4.5000 9.0000 19.0000
v  4.5000 9.0000 16.0000
v  4.5000 9.0000 15.0000
v  4.5000 10.0000 16.0000
v  4.5000 10.0000 15.0000
v  5.5000 2.0000 2.0000
v  5.5000 2.0000 1.0000
v  5.5000 3.0000 2.0000
v  5.5000 3.0000 1.0000
v  5.5000 4.0000 2.0000
v  5.5000 3.0000 -0.0000
v  5.5000 4.0000 1.0000
v  5.5000 5.0000 1.0000
v  5.5000 5.0000 -0.0000
v  5.5000 5.0000 2.0000
v  5.5000 6.0000 2.0000
v  5.5000 6.0000 1.0000
v  5.5000 7.0000 16.0000
v  5.5000 7.0000 13.0000
v  5.5000 8.0000 16.0000
v  5.5000 8.0000 13.0000
v  5.5000 9.0000 16.0000
v  5.5000 9.0000 15.0000
v  5.5000 9.0000 13.0000
v  5.5000 10.0000 15.0000
v  5.5000 9.0000 9.0000
v  5.5000 10.0000 9.0000
v  6.5000 3.0000 3.0000
v  6.5000 3.0000 2.0000
v  6.5000 4.0000 3.0000
v  6.5000 4.0000 2.0000
v  6.5000 4.0000 4.0000
v  6.5000 5.0000 4.0000
v  6.5000 4.0000 1.0000
v  6.5000 5.0000 2.0000
v  6.5000 5.0000 1.0000
v  6.5000 5.0000 6.0000
v  6.5000 6.0000 6.0000
v  6.5000 6.0000 4.0000
v  6.5000 6.0000 3.0000
v  6.5000 6.0000 8.0000
v  6.5000 7.0000 8.0000
v  6.5000 7.0000 7.0000
v  6.5000 7.0000 4.0000
v  6.5000 7.0000 3.0000
v  6.5000 7.0000 2.0000
v  6.5000 8.0000 13.0000
v  6.5000 7.0000 13.0000
v  6.5000 8.0000 7.0000
v  6.5000 8.0000 5.0000
v  6.5000 8.0000 3.0000
v  6.5000 9.0000 13.0000
v  6.5000 9.0000 5.0000
v  -1.5000 4.0000 23.0000
v  -0.5000 2.0000 23.0000
v  -0.5000 3.0000 23.0000
v  0.5000 2.0000 23.0000
v  0.5000 3.0000 23.0000
v  1.5000 4.0000 23.0000
v  -5.5000 3.0000 3.0000
v  -5.5000 4.0000 3.0000
v  -4.5000 2.0000 2.0000
v  -4.5000 3.0000 2.0000
v  -0.5000 2.0000 22.0000
v  -0.5000 3.0000 22.0000
v  0.5000 2.0000 22.0000
v  0.5000 3.0000 22.0000
# 273 vertices

vn -1.0000 0.0000 -0.0000
vn 1.0000 0.0000 -0.0000
vn 0.0000 0.0000 1.0000
vn 0.0000 0.0000 -1.0000
vn 0.0000 -1.0000 -0.0000
vn 0.0000 1.0000 -0.0000
# 6 vertex normals

vt 0.1660 0.5000 0.0000
vt 0.1582 0.5000 0.0000
vt 0.1699 0.5000 0.0000
# 3 texture coords

g default
usemtl palette
s 1
f 1/1/1 2/1/1 3/1/1 
f 4/1/1 2/1/1 1/1/1 
f 5/2/1 1/2/1 6/2/1 
f 5/2/1 4/2/1 1/2/1 
f 7/2/1 4/2/1 5/2/1 
f 8/3/1 9/3/1 4/3/1 
f 8/2/1 4/2/1 7/2/1 
f 10/2/1 7/2/1 5/2/1 
f 10/2/1 5/2/1 11/2/1 
f 12/2/1 7/2/1 10/2/1 
f 13/3/1 8/3/1 7/3/1 
f 13/2/1 7/2/1 12/2/1 
f 14/3/1 9/3/1 8/3/1 
f 14/3/1 8/3/1 13/3/1 
f 15/3/1 9/3/1 14/3/1 
f 16/2/1 12/2/1 10/2/1 
f 16/2/1 10/2/1 17/2/1 
f 18/2/1 12/2/1 16/2/1 
f 19/3/1 13/3/1 12/3/1 
f 19/2/1 12/2/1 18/2/1 
f 19/3/1 14/3/1 13/3/1 
f 20/3/1 14/3/1 19/3/1 
f 21/3/1 14/3/1 20/3/1 
f 22/2/1 18/2/1 16/2/1 
f 22/2/1 16/2/1 23/2/1 
f 24/3/1 20/3/1 19/3/1 
f 24/2/1 18/2/1 22/2/1 
f 24/3/1 19/3/1 18/3/1 
f 25/3/1 20/3/1 24/3/1 
f 26/3/1 20/3/1 25/3/1 
f 27/3/1 24/3/1 22/3/1 
f 27/3/1 25/3/1 24/3/1 
f 28/3/1 25/3/1 27/3/1 
f 29/1/1 30/1/1 31/1/1 
f 32/1/1 30/1/1 29/1/1 
f 33/1/1 32/1/1 29/1/1 
f 34/3/1 35/3/1 32/3/1 
f 34/1/1 32/1/1 33/1/1 
f 36/3/1 35/3/1 34/3/1 
f 37/3/1 35/3/1 36/3/1 
f 38/2/1 39/2/1 40/2/1 
f 41/2/1 39/2/1 38/2/1 
f 42/2/1 39/2/1 41/2/1 
f 43/3/1 41/3/1 38/3/1 
f 44/3/1 41/3/1 43/3/1 
f 45/2/1 42/2/1 41/2/1 
f 45/3/1 41/3/1 44/3/1 
f 46/2/1 42/2/1 45/2/1 
f 47/3/1 46/3/1 45/3/1 
f 47/3/1 48/3/1 46/3/1 
f 47/3/1 45/3/1 44/3/1 
f 49/3/1 48/3/1 47/3/1 
f 50/1/1 51/1/1 52/1/1 
f 53/1/1 51/1/1 50/1/1 
f 54/2/1 55/2/1 56/2/1 
f 57/2/1 55/2/1 54/2/1 
f 58/2/1 55/2/1 57/2/1 
f 59/3/1 57/3/1 54/3/1 
f 60/2/1 58/2/1 57/2/1 
f 60/3/1 57/3/1 59/3/1 
f 61/2/1 58/2/1 60/2/1 
f 62/3/1 61/3/1 60/3/1 
f 63/3/1 61/3/1 62/3/1 
f 64/3/1 65/3/1 66/3/1 
f 67/3/1 65/3/1 64/3/1 
f 68/2/1 69/2/1 70/2/1 
f 71/2/1 69/2/1 68/2/1 
f 72/2/1 69/2/1 71/2/1 
f 73/3/1 74/3/1 72/3/1 
f 75/3/1 74/3/1 73/3/1 
f 76/3/1 74/3/1 75/3/1 
f 77/2/1 78/2/1 79/2/1 
f 80/2/1 78/2/1 77/2/1 
f 81/2/1 77/2/1 82/2/1 
f 81/2/1 83/2/1 80/2/1 
f 81/2/1 80/2/1 77/2/1 
f 84/2/1 83/2/1 81/2/1 
f 85/2/1 83/2/1 84/2/1 
f 86/2/1 83/2/1 85/2/1 
f 87/3/1 84/3/1 81/3/1 
f 88/2/1 85/2/1 84/2/1 
f 88/3/1 84/3/1 87/3/1 
f 89/2/1 85/2/1 88/2/1 
f 90/3/1 89/3/1 88/3/1 
f 91/3/1 89/3/1 90/3/1 
f 92/2/1 93/2/1 94/2/1 
f 95/2/1 93/2/1 92/2/1 
f 96/2/1 97/2/1 95/2/1 
f 98/2/1 97/2/1 96/2/1 
f 99/2/1 100/2/1 101/2/1 
f 102/2/1 100/2/1 99/2/1 
f 103/2/1 100/2/1 102/2/1 
f 104/3/1 102/3/1 99/3/1 
f 104/2/1 103/2/1 102/2/1 
f 105/2/1 103/2/1 104/2/1 
f 106/3/1 104/3/1 99/3/1 
f 107/3/1 104/3/1 106/3/1 
f 108/2/1 109/2/1 110/2/1 
f 111/2/1 109/2/1 108/2/1 
f 112/2/1 113/2/1 114/2/1 
f 115/2/1 113/2/1 112/2/1 
f 116/3/1 117/3/1 118/3/1 
f 119/3/1 117/3/1 116/3/1 
f 120/3/1 121/3/1 122/3/1 
f 123/3/1 121/3/1 120/3/1 
f 124/3/1 125/3/1 126/3/1 
f 127/3/1 125/3/1 124/3/1 
f 128/3/1 129/3/1 130/3/1 
f 131/3/1 129/3/1 128/3/1 
f 132/3/2 133/3/2 134/3/2 
f 134/3/2 133/3/2 135/3/2 
f 136/3/2 137/3/2 138/3/2 
f 138/3/2 137/3/2 139/3/2 
f 140/3/2 141/3/2 142/3/2 
f 142/3/2 141/3/2 143/3/2 
f 144/3/2 145/3/2 146/3/2 
f 146/3/2 145/3/2 147/3/2 
f 148/2/2 149/2/2 150/2/2 
f 150/2/2 149/2/2 151/2/2 
f 152/2/2 153/2/2 154/2/2 
f 154/2/2 153/2/2 155/2/2 
f 156/2/2 157/2/2 158/2/2 
f 158/2/2 157/2/2 159/2/2 
f 159/2/2 160/2/2 161/2/2 
f 161/2/2 160/2/2 162/2/2 
f 163/2/2 164/2/2 165/2/2 
f 165/2/2 164/2/2 166/2/2 
f 166/2/2 164/2/2 167/2/2 
f 165/3/2 166/3/2 168/3/2 
f 167/2/2 169/2/2 168/2/2 
f 166/2/2 167/2/2 168/2/2 
f 168/2/2 169/2/2 170/2/2 
f 165/3/2 168/3/2 171/3/2 
f 171/3/2 168/3/2 172/3/2 
f 173/2/2 174/2/2 175/2/2 
f 175/2/2 174/2/2 176/2/2 
f 176/3/2 177/3/2 178/3/2 
f 178/3/2 177/3/2 179/3/2 
f 179/3/2 177/3/2 180/3/2 
f 181/2/2 182/2/2 183/2/2 
f 183/2/2 182/2/2 184/2/2 
f 184/2/2 182/2/2 185/2/2 
f 183/3/2 184/3/2 186/3/2 
f 186/3/2 184/3/2 187/3/2 
f 184/2/2 185/2/2 188/2/2 
f 187/3/2 184/3/2 188/3/2 
f 188/2/2 185/2/2 189/2/2 
f 187/3/2 188/3/2 190/3/2 
f 190/3/2 188/3/2 191/3/2 
f 192/2/2 193/2/2 194/2/2 
f 194/2/2 193/2/2 195/2/2 
f 196/2/2 197/2/2 198/2/2 
f 198/2/2 197/2/2 199/2/2 
f 199/2/2 197/2/2 200/2/2 
f 201/3/2 198/3/2 202/3/2 
f 198/3/2 199/3/2 202/3/2 
f 202/3/2 199/3/2 203/3/2 
f 200/2/2 204/2/2 205/2/2 
f 203/3/2 199/3/2 205/3/2 
f 199/2/2 200/2/2 205/2/2 
f 205/2/2 204/2/2 206/2/2 
f 203/3/2 205/3/2 207/3/2 
f 205/3/2 206/3/2 207/3/2 
f 207/3/2 206/3/2 208/3/2 
f 208/3/2 209/3/2 210/3/2 
f 210/3/2 209/3/2 211/3/2 
f 212/2/2 213/2/2 214/2/2 
f 214/2/2 213/2/2 215/2/2 
f 214/2/2 215/2/2 216/2/2 
f 215/3/2 217/3/2 218/3/2 
f 216/2/2 215/2/2 218/2/2 
f 218/3/2 217/3/2 219/3/2 
f 219/3/2 217/3/2 220/3/2 
f 221/3/2 219/3/2 222/3/2 
f 222/3/2 219/3/2 223/3/2 
f 224/2/2 225/2/2 226/2/2 
f 226/2/2 225/2/2 227/2/2 
f 226/3/2 227/3/2 228/3/2 
f 228/3/2 227/3/2 229/3/2 
f 229/3/2 227/3/2 230/3/2 
f 229/3/2 230/3/2 231/3/2 
f 230/3/2 232/3/2 231/3/2 
f 231/3/2 232/3/2 233/3/2 
f 234/2/2 235/2/2 236/2/2 
f 236/2/2 235/2/2 237/2/2 
f 238/2/2 236/2/2 239/2/2 
f 237/3/2 240/3/2 241/3/2 
f 236/3/2 237/3/2 241/3/2 
f 241/3/2 240/3/2 242/3/2 
f 243/2/2 239/2/2 244/2/2 
f 239/2/2 236/2/2 245/2/2 
f 244/2/2 239/2/2 245/2/2 
f 236/3/2 241/3/2 246/3/2 
f 245/2/2 236/2/2 246/2/2 
f 247/2/2 244/2/2 248/2/2 
f 244/2/2 245/2/2 248/2/2 
f 248/2/2 245/2/2 249/2/2 
f 245/3/2 246/3/2 250/3/2 
f 249/2/2 245/2/2 250/2/2 
f 246/3/2 241/3/2 251/3/2 
f 250/3/2 246/3/2 251/3/2 
f 251/3/2 241/3/2 252/3/2 
f 248/2/2 249/2/2 253/2/2 
f 254/2/2 248/2/2 253/2/2 
f 249/3/2 250/3/2 255/3/2 
f 253/2/2 249/2/2 255/2/2 
f 250/3/2 251/3/2 255/3/2 
f 255/3/2 251/3/2 256/3/2 
f 256/3/2 251/3/2 257/3/2 
f 253/3/2 255/3/2 258/3/2 
f 255/3/2 256/3/2 258/3/2 
f 258/3/2 256/3/2 259/3/2 
f 112/2/3 99/2/3 101/2/3 
f 260/3/3 106/3/3 99/3/3 
f 260/2/3 99/2/3 112/2/3 
f 261/2/3 112/2/3 114/2/3 
f 262/3/3 260/3/3 112/3/3 
f 262/2/3 112/2/3 261/2/3 
f 263/3/3 262/3/3 261/3/3 
f 264/3/3 260/3/3 262/3/3 
f 264/3/3 262/3/3 263/3/3 
f 152/2/3 264/2/3 263/2/3 
f 154/3/3 260/3/3 264/3/3 
f 154/2/3 264/2/3 152/2/3 
f 265/3/3 106/3/3 260/3/3 
f 265/3/3 260/3/3 154/3/3 
f 163/2/3 265/2/3 154/2/3 
f 165/3/3 106/3/3 265/3/3 
f 165/2/3 265/2/3 163/2/3 
f 171/3/3 106/3/3 165/3/3 
f 104/2/3 81/2/3 82/2/3 
f 107/3/3 87/3/3 81/3/3 
f 107/2/3 81/2/3 104/2/3 
f 172/3/3 87/3/3 107/3/3 
f 181/2/3 172/2/3 168/2/3 
f 183/3/3 87/3/3 172/3/3 
f 183/2/3 172/2/3 181/2/3 
f 186/3/3 87/3/3 183/3/3 
f 103/2/3 77/2/3 79/2/3 
f 105/2/3 77/2/3 103/2/3 
f 187/3/3 90/3/3 88/3/3 
f 190/3/3 90/3/3 187/3/3 
f 85/2/3 54/2/3 56/2/3 
f 89/3/3 59/3/3 54/3/3 
f 89/2/3 54/2/3 85/2/3 
f 91/3/3 59/3/3 89/3/3 
f 201/3/3 191/3/3 188/3/3 
f 202/3/3 191/3/3 201/3/3 
f 196/2/3 189/2/3 185/2/3 
f 198/2/3 189/2/3 196/2/3 
f 203/3/3 62/3/3 60/3/3 
f 207/3/3 62/3/3 203/3/3 
f 58/2/3 38/2/3 40/2/3 
f 61/3/3 43/3/3 38/3/3 
f 61/2/3 38/2/3 58/2/3 
f 63/3/3 43/3/3 61/3/3 
f 140/3/3 64/3/3 66/3/3 
f 142/3/3 64/3/3 140/3/3 
f 208/3/3 116/3/3 118/3/3 
f 210/3/3 116/3/3 208/3/3 
f 224/2/3 206/2/3 204/2/3 
f 226/3/3 208/3/3 206/3/3 
f 226/2/3 206/2/3 224/2/3 
f 228/3/3 208/3/3 226/3/3 
f 65/3/3 47/3/3 44/3/3 
f 67/3/3 47/3/3 65/3/3 
f 117/3/3 143/3/3 141/3/3 
f 119/3/3 143/3/3 117/3/3 
f 229/3/3 211/3/3 209/3/3 
f 231/3/3 211/3/3 229/3/3 
f 39/2/3 22/2/3 23/2/3 
f 42/3/3 27/3/3 22/3/3 
f 42/2/3 22/2/3 39/2/3 
f 46/3/3 27/3/3 42/3/3 
f 254/2/3 227/2/3 225/2/3 
f 253/3/3 230/3/3 227/3/3 
f 253/2/3 227/2/3 254/2/3 
f 258/3/3 230/3/3 253/3/3 
f 247/2/3 16/2/3 17/2/3 
f 248/2/3 16/2/3 247/2/3 
f 243/2/3 10/2/3 11/2/3 
f 244/2/3 10/2/3 243/2/3 
f 238/2/3 5/2/3 6/2/3 
f 239/2/3 5/2/3 238/2/3 
f 266/1/3 1/1/3 3/1/3 
f 267/1/3 1/1/3 266/1/3 
f 234/2/3 267/2/3 266/2/3 
f 236/2/3 267/2/3 234/2/3 
f 268/1/3 29/1/3 31/1/3 
f 269/1/3 29/1/3 268/1/3 
f 68/2/3 269/2/3 268/2/3 
f 173/2/3 68/2/3 70/2/3 
f 175/2/3 269/2/3 68/2/3 
f 175/2/3 68/2/3 173/2/3 
f 212/2/3 269/2/3 175/2/3 
f 214/2/3 269/2/3 212/2/3 
f 156/2/3 92/2/3 94/2/3 
f 158/2/3 92/2/3 156/2/3 
f 113/2/4 115/2/4 270/2/4 
f 270/2/4 115/2/4 271/2/4 
f 270/3/4 271/3/4 272/3/4 
f 272/3/4 271/3/4 273/3/4 
f 272/2/4 273/2/4 153/2/4 
f 153/2/4 273/2/4 155/2/4 
f 100/2/4 103/2/4 164/2/4 
f 164/2/4 103/2/4 167/2/4 
f 78/2/4 80/2/4 169/2/4 
f 169/2/4 80/2/4 170/2/4 
f 83/2/4 86/2/4 182/2/4 
f 182/2/4 86/2/4 185/2/4 
f 55/2/4 58/2/4 197/2/4 
f 197/2/4 58/2/4 200/2/4 
f 144/3/4 146/3/4 122/3/4 
f 122/3/4 146/3/4 120/3/4 
f 48/3/4 49/3/4 145/3/4 
f 145/3/4 49/3/4 147/3/4 
f 121/3/4 123/3/4 232/3/4 
f 232/3/4 123/3/4 233/3/4 
f 136/3/4 138/3/4 130/3/4 
f 130/3/4 138/3/4 128/3/4 
f 25/3/4 28/3/4 137/3/4 
f 137/3/4 28/3/4 139/3/4 
f 129/3/4 131/3/4 256/3/4 
f 256/3/4 131/3/4 259/3/4 
f 132/3/4 134/3/4 126/3/4 
f 126/3/4 134/3/4 124/3/4 
f 20/3/4 26/3/4 133/3/4 
f 133/3/4 26/3/4 135/3/4 
f 125/3/4 127/3/4 251/3/4 
f 251/3/4 127/3/4 257/3/4 
f 2/1/4 4/1/4 29/1/4 
f 29/1/4 4/1/4 33/1/4 
f 14/3/4 21/3/4 222/3/4 
f 214/2/4 216/2/4 235/2/4 
f 235/2/4 216/2/4 237/2/4 
f 221/3/4 222/3/4 241/3/4 
f 222/3/4 21/3/4 252/3/4 
f 241/3/4 222/3/4 252/3/4 
f 9/3/4 15/3/4 34/3/4 
f 34/3/4 15/3/4 36/3/4 
f 30/1/4 32/1/4 52/1/4 
f 52/1/4 32/1/4 50/1/4 
f 192/2/4 194/2/4 213/2/4 
f 213/2/4 194/2/4 215/2/4 
f 36/3/4 15/3/4 219/3/4 
f 219/3/4 15/3/4 223/3/4 
f 218/3/4 219/3/4 240/3/4 
f 240/3/4 219/3/4 242/3/4 
f 35/3/4 37/3/4 53/3/4 
f 51/1/4 53/1/4 72/1/4 
f 53/3/4 37/3/4 73/3/4 
f 72/1/4 53/1/4 73/1/4 
f 73/3/4 37/3/4 75/3/4 
f 69/2/4 72/2/4 95/2/4 
f 95/2/4 72/2/4 96/2/4 
f 93/2/4 95/2/4 110/2/4 
f 110/2/4 95/2/4 108/2/4 
f 148/2/4 150/2/4 157/2/4 
f 157/2/4 150/2/4 159/2/4 
f 159/2/4 161/2/4 174/2/4 
f 174/2/4 161/2/4 176/2/4 
f 75/3/4 37/3/4 179/3/4 
f 176/2/4 178/2/4 193/2/4 
f 178/3/4 179/3/4 195/3/4 
f 193/2/4 178/2/4 195/2/4 
f 195/3/4 179/3/4 217/3/4 
f 179/3/4 37/3/4 220/3/4 
f 217/3/4 179/3/4 220/3/4 
f 74/3/4 76/3/4 98/3/4 
f 97/2/4 98/2/4 111/2/4 
f 109/2/4 111/2/4 149/2/4 
f 111/2/4 98/2/4 151/2/4 
f 149/2/4 111/2/4 151/2/4 
f 151/2/4 98/2/4 160/2/4 
f 98/3/4 76/3/4 162/3/4 
f 160/2/4 98/2/4 162/2/4 
f 162/3/4 76/3/4 177/3/4 
f 177/3/4 76/3/4 180/3/4 
f 93/2/5 156/2/5 94/2/5 
f 110/2/5 156/2/5 93/2/5 
f 148/2/5 156/2/5 110/2/5 
f 157/2/5 156/2/5 148/2/5 
f 109/2/5 148/2/5 110/2/5 
f 149/2/5 148/2/5 109/2/5 
f 92/2/5 173/2/5 70/2/5 
f 158/2/5 173/2/5 92/2/5 
f 69/2/5 92/2/5 70/2/5 
f 95/2/5 92/2/5 69/2/5 
f 159/2/5 173/2/5 158/2/5 
f 174/2/5 173/2/5 159/2/5 
f 97/2/5 108/2/5 95/2/5 
f 111/2/5 108/2/5 97/2/5 
f 151/2/5 159/2/5 150/2/5 
f 160/2/5 159/2/5 151/2/5 
f 113/2/5 261/2/5 114/2/5 
f 270/3/5 263/3/5 261/3/5 
f 270/2/5 261/2/5 113/2/5 
f 272/2/5 152/2/5 263/2/5 
f 272/3/5 263/3/5 270/3/5 
f 153/2/5 152/2/5 272/2/5 
f 30/1/5 268/1/5 31/1/5 
f 52/2/5 68/2/5 268/2/5 
f 52/1/5 268/1/5 30/1/5 
f 71/2/5 68/2/5 52/2/5 
f 192/2/5 212/2/5 175/2/5 
f 213/2/5 212/2/5 192/2/5 
f 51/1/5 71/1/5 52/1/5 
f 72/1/5 71/1/5 51/1/5 
f 176/2/5 192/2/5 175/2/5 
f 193/2/5 192/2/5 176/2/5 
f 74/3/5 96/3/5 72/3/5 
f 98/3/5 96/3/5 74/3/5 
f 162/3/5 176/3/5 161/3/5 
f 177/3/5 176/3/5 162/3/5 
f 115/2/5 112/2/5 101/2/5 
f 155/2/5 163/2/5 154/2/5 
f 100/2/5 273/2/5 271/2/5 
f 100/2/5 155/2/5 273/2/5 
f 100/2/5 115/2/5 101/2/5 
f 100/2/5 271/2/5 115/2/5 
f 164/2/5 163/2/5 155/2/5 
f 164/2/5 155/2/5 100/2/5 
f 2/1/5 266/1/5 3/1/5 
f 29/2/5 234/2/5 266/2/5 
f 29/1/5 266/1/5 2/1/5 
f 269/2/5 234/2/5 29/2/5 
f 214/2/5 234/2/5 269/2/5 
f 235/2/5 234/2/5 214/2/5 
f 35/3/5 50/3/5 32/3/5 
f 53/3/5 50/3/5 35/3/5 
f 195/3/5 215/3/5 194/3/5 
f 217/3/5 215/3/5 195/3/5 
f 78/2/5 103/2/5 79/2/5 
f 78/2/5 167/2/5 103/2/5 
f 169/2/5 167/2/5 78/2/5 
f 1/2/5 238/2/5 6/2/5 
f 267/2/5 238/2/5 1/2/5 
f 236/2/5 238/2/5 267/2/5 
f 9/3/5 33/3/5 4/3/5 
f 34/3/5 33/3/5 9/3/5 
f 218/3/5 237/3/5 216/3/5 
f 240/3/5 237/3/5 218/3/5 
f 77/2/5 104/2/5 82/2/5 
f 105/2/5 104/2/5 77/2/5 
f 170/2/5 181/2/5 168/2/5 
f 83/2/5 170/2/5 80/2/5 
f 182/2/5 181/2/5 170/2/5 
f 182/2/5 170/2/5 83/2/5 
f 5/2/5 243/2/5 11/2/5 
f 239/2/5 243/2/5 5/2/5 
f 86/2/5 85/2/5 56/2/5 
f 55/2/5 86/2/5 56/2/5 
f 55/2/5 196/2/5 185/2/5 
f 55/2/5 185/2/5 86/2/5 
f 197/2/5 196/2/5 55/2/5 
f 10/2/5 247/2/5 17/2/5 
f 244/2/5 247/2/5 10/2/5 
f 189/3/5 201/3/5 188/3/5 
f 198/3/5 201/3/5 189/3/5 
f 204/2/5 58/2/5 40/2/5 
f 204/2/5 200/2/5 58/2/5 
f 39/2/5 204/2/5 40/2/5 
f 39/2/5 224/2/5 204/2/5 
f 225/2/5 224/2/5 39/2/5 
f 16/2/5 39/2/5 23/2/5 
f 16/2/5 254/2/5 225/2/5 
f 16/2/5 225/2/5 39/2/5 
f 248/2/5 254/2/5 16/2/5 
f 75/3/6 179/3/6 76/3/6 
f 76/3/6 179/3/6 180/3/6 
f 221/3/6 241/3/6 219/3/6 
f 219/3/6 241/3/6 242/3/6 
f 36/3/6 219/3/6 37/3/6 
f 37/3/6 219/3/6 220/3/6 
f 106/3/6 171/3/6 107/3/6 
f 107/3/6 171/3/6 172/3/6 
f 14/3/6 222/3/6 15/3/6 
f 15/3/6 222/3/6 223/3/6 
f 87/3/6 186/3/6 88/3/6 
f 88/3/6 186/3/6 187/3/6 
f 132/3/6 126/3/6 133/3/6 
f 133/3/6 126/3/6 125/3/6 
f 133/3/6 125/3/6 21/3/6 
f 125/3/6 251/3/6 21/3/6 
f 20/3/6 133/3/6 21/3/6 
f 21/3/6 251/3/6 252/3/6 
f 90/3/6 190/3/6 91/3/6 
f 91/3/6 190/3/6 191/3/6 
f 59/3/6 91/3/6 60/3/6 
f 191/3/6 202/3/6 60/3/6 
f 91/3/6 191/3/6 60/3/6 
f 60/3/6 202/3/6 203/3/6 
f 136/3/6 130/3/6 137/3/6 
f 137/3/6 130/3/6 129/3/6 
f 137/3/6 129/3/6 134/3/6 
f 129/3/6 256/3/6 134/3/6 
f 25/3/6 137/3/6 134/3/6 
f 134/3/6 256/3/6 124/3/6 
f 25/3/6 134/3/6 26/3/6 
f 26/3/6 134/3/6 135/3/6 
f 124/3/6 256/3/6 127/3/6 
f 127/3/6 256/3/6 257/3/6 
f 62/3/6 207/3/6 63/3/6 
f 63/3/6 207/3/6 66/3/6 
f 43/3/6 63/3/6 66/3/6 
f 66/3/6 207/3/6 140/3/6 
f 140/3/6 207/3/6 118/3/6 
f 118/3/6 207/3/6 208/3/6 
f 43/3/6 66/3/6 44/3/6 
f 44/3/6 66/3/6 65/3/6 
f 140/3/6 118/3/6 141/3/6 
f 141/3/6 118/3/6 117/3/6 
f 208/3/6 228/3/6 209/3/6 
f 209/3/6 228/3/6 229/3/6 
f 27/3/6 46/3/6 48/3/6 
f 144/3/6 122/3/6 145/3/6 
f 145/3/6 122/3/6 121/3/6 
f 230/3/6 258/3/6 232/3/6 
f 145/3/6 121/3/6 138/3/6 
f 121/3/6 232/3/6 138/3/6 
f 48/3/6 145/3/6 138/3/6 
f 138/3/6 232/3/6 128/3/6 
f 27/3/6 48/3/6 28/3/6 
f 48/3/6 138/3/6 28/3/6 
f 28/3/6 138/3/6 139/3/6 
f 128/3/6 232/3/6 131/3/6 
f 232/3/6 258/3/6 259/3/6 
f 131/3/6 232/3/6 259/3/6 
f 64/3/6 142/3/6 67/3/6 
f 67/3/6 142/3/6 143/3/6 
f 116/3/6 210/3/6 119/3/6 
f 119/3/6 210/3/6 211/3/6 
f 67/3/6 143/3/6 146/3/6 
f 211/3/6 231/3/6 146/3/6 
f 119/3/6 211/3/6 146/3/6 
f 143/3/6 119/3/6 146/3/6 
f 47/3/6 67/3/6 146/3/6 
f 146/3/6 231/3/6 120/3/6 
f 47/3/6 146/3/6 49/3/6 
f 49/3/6 146/3/6 147/3/6 
f 120/3/6 231/3/6 123/3/6 
f 123/3/6 231/3/6 233/3/6 
# 0 polygons - 542 triangles

