# 3ds Max Wavefront OBJ Exporter v0.97b - (c)2007 guruware
# File Created: 30.01.2016 11:26:16

#
# object default
#

v  -6.0324 -2.0300 0.9918
v  -6.0324 -3.0300 -0.0082
v  -6.0324 -3.0300 0.9918
v  -6.0324 -2.0300 -0.0082
v  -4.0324 -1.0300 0.9918
v  -4.0324 -2.0300 -0.0082
v  -4.0324 -2.0300 0.9918
v  -4.0324 -1.0300 -0.0082
v  -3.0324 -0.0300 0.9918
v  -3.0324 -1.0300 -0.0082
v  -3.0324 -1.0300 0.9918
v  -3.0324 -0.0300 -0.0082
v  -1.0324 -3.0300 0.9918
v  -1.0324 -3.0300 -0.0082
v  -1.0324 -2.0300 0.9918
v  -1.0324 -2.0300 -0.0082
v  -0.0324 -2.0300 0.9918
v  -0.0324 -2.0300 -0.0082
v  -0.0324 -0.0300 0.9918
v  -0.0324 -0.0300 -0.0082
v  -4.0324 -3.0300 0.9918
v  -3.0324 -2.0300 0.9918
v  -2.0324 -1.0300 0.9918
v  -2.0324 -0.0300 0.9918
v  -4.0324 -3.0300 -0.0082
v  -3.0324 -2.0300 -0.0082
v  -2.0324 -1.0300 -0.0082
v  -2.0324 -0.0300 -0.0082
# 28 vertices

vn -1.0000 0.0000 -0.0000
vn 1.0000 0.0000 -0.0000
vn 0.0000 0.0000 1.0000
vn 0.0000 0.0000 -1.0000
vn 0.0000 -1.0000 -0.0000
vn 0.0000 1.0000 -0.0000
# 6 vertex normals

vt 0.0215 0.5000 0.0000
vt 0.2520 0.5000 0.0000
# 2 texture coords

g default
s 1
f 1/1/1 2/1/1 3/1/1 
f 4/1/1 2/1/1 1/1/1 
f 5/1/1 6/1/1 7/1/1 
f 8/1/1 6/1/1 5/1/1 
f 9/1/1 10/1/1 11/1/1 
f 12/1/1 10/1/1 9/1/1 
f 13/2/2 14/2/2 15/2/2 
f 15/2/2 14/2/2 16/2/2 
f 17/2/2 18/2/2 19/2/2 
f 19/2/2 18/2/2 20/2/2 
f 21/1/3 1/1/3 3/1/3 
f 7/1/3 1/1/3 21/1/3 
f 22/2/3 7/2/3 21/2/3 
f 22/1/3 5/1/3 7/1/3 
f 11/1/3 5/1/3 22/1/3 
f 23/2/3 11/2/3 22/2/3 
f 23/1/3 9/1/3 11/1/3 
f 24/1/3 9/1/3 23/1/3 
f 13/2/3 22/2/3 21/2/3 
f 13/2/3 23/2/3 22/2/3 
f 13/2/3 24/2/3 23/2/3 
f 15/2/3 24/2/3 13/2/3 
f 17/2/3 24/2/3 15/2/3 
f 19/2/3 24/2/3 17/2/3 
f 2/1/4 4/1/4 25/1/4 
f 25/1/4 4/1/4 6/1/4 
f 25/2/4 6/2/4 26/2/4 
f 6/1/4 8/1/4 26/1/4 
f 26/1/4 8/1/4 10/1/4 
f 26/2/4 10/2/4 27/2/4 
f 10/1/4 12/1/4 27/1/4 
f 27/1/4 12/1/4 28/1/4 
f 25/2/4 26/2/4 14/2/4 
f 26/2/4 27/2/4 14/2/4 
f 27/2/4 28/2/4 14/2/4 
f 14/2/4 28/2/4 16/2/4 
f 16/2/4 28/2/4 18/2/4 
f 18/2/4 28/2/4 20/2/4 
f 2/1/5 21/1/5 3/1/5 
f 25/2/5 13/2/5 21/2/5 
f 25/1/5 21/1/5 2/1/5 
f 14/2/5 13/2/5 25/2/5 
f 16/2/5 17/2/5 15/2/5 
f 18/2/5 17/2/5 16/2/5 
f 1/1/6 7/1/6 4/1/6 
f 4/1/6 7/1/6 6/1/6 
f 5/1/6 11/1/6 8/1/6 
f 8/1/6 11/1/6 10/1/6 
f 9/1/6 24/1/6 12/1/6 
f 24/2/6 19/2/6 28/2/6 
f 12/1/6 24/1/6 28/1/6 
f 28/2/6 19/2/6 20/2/6 
# 0 polygons - 52 triangles

