# 3ds Max Wavefront OBJ Exporter v0.97b - (c)2007 guruware
# File Created: 30.01.2016 11:22:33

#
# object default
#

v  0.0357 1.0000 1.5000
v  0.0357 0.0000 -1.5000
v  0.0357 0.0000 1.5000
v  0.0357 1.0000 -1.5000
v  1.0357 5.0000 2.5000
v  1.0357 1.0000 1.5000
v  1.0357 1.0000 2.5000
v  1.0357 1.0000 -2.5000
v  1.0357 1.0000 -1.5000
v  1.0357 5.0000 -2.5000
v  1.0357 7.0000 1.5000
v  1.0357 6.0000 0.5000
v  1.0357 6.0000 1.5000
v  1.0357 7.0000 0.5000
v  1.0357 7.0000 -0.5000
v  1.0357 6.0000 -1.5000
v  1.0357 6.0000 -0.5000
v  1.0357 7.0000 -1.5000
v  2.0357 4.0000 3.5000
v  2.0357 2.0000 2.5000
v  2.0357 2.0000 3.5000
v  2.0357 4.0000 2.5000
v  2.0357 4.0000 -2.5000
v  2.0357 2.0000 -3.5000
v  2.0357 2.0000 -2.5000
v  2.0357 4.0000 -3.5000
v  2.0357 6.0000 0.5000
v  2.0357 5.0000 -0.5000
v  2.0357 5.0000 0.5000
v  2.0357 6.0000 -0.5000
v  7.0357 1.0000 0.5000
v  7.0357 0.0000 -0.5000
v  7.0357 0.0000 0.5000
v  7.0357 1.0000 -0.5000
v  7.0357 2.0000 1.5000
v  7.0357 1.0000 1.5000
v  7.0357 1.0000 -1.5000
v  7.0357 2.0000 -1.5000
v  2.0357 0.0000 1.5000
v  2.0357 0.0000 -1.5000
v  2.0357 1.0000 1.5000
v  2.0357 1.0000 -1.5000
v  2.0357 6.0000 1.5000
v  2.0357 7.0000 1.5000
v  2.0357 7.0000 0.5000
v  2.0357 6.0000 -1.5000
v  2.0357 7.0000 -0.5000
v  2.0357 7.0000 -1.5000
v  3.0357 5.0000 0.5000
v  3.0357 5.0000 -0.5000
v  3.0357 6.0000 0.5000
v  3.0357 6.0000 -0.5000
v  4.0357 2.0000 3.5000
v  4.0357 2.0000 2.5000
v  4.0357 3.0000 3.5000
v  4.0357 3.0000 2.5000
v  4.0357 2.0000 -2.5000
v  4.0357 2.0000 -3.5000
v  4.0357 3.0000 -2.5000
v  4.0357 3.0000 -3.5000
v  4.0357 4.0000 3.5000
v  4.0357 4.0000 2.5000
v  4.0357 4.0000 -2.5000
v  4.0357 4.0000 -3.5000
v  5.0357 1.0000 2.5000
v  5.0357 1.0000 -2.5000
v  5.0357 2.0000 1.5000
v  5.0357 2.0000 -1.5000
v  5.0357 3.0000 1.5000
v  5.0357 3.0000 -1.5000
v  5.0357 4.0000 1.5000
v  5.0357 4.0000 -1.5000
v  5.0357 4.0000 0.5000
v  5.0357 5.0000 2.5000
v  5.0357 5.0000 0.5000
v  5.0357 4.0000 -0.5000
v  5.0357 5.0000 -0.5000
v  5.0357 5.0000 -2.5000
v  8.0357 1.0000 1.5000
v  8.0357 1.0000 0.5000
v  8.0357 2.0000 0.5000
v  8.0357 1.0000 -0.5000
v  8.0357 1.0000 -1.5000
v  8.0357 2.0000 -0.5000
v  8.0357 3.0000 1.5000
v  8.0357 3.0000 0.5000
v  8.0357 3.0000 -0.5000
v  8.0357 3.0000 -1.5000
v  8.0357 4.0000 1.5000
v  8.0357 4.0000 0.5000
v  8.0357 4.0000 -0.5000
v  8.0357 4.0000 -1.5000
v  9.0357 0.0000 0.5000
v  9.0357 0.0000 -0.5000
v  9.0357 2.0000 0.5000
v  9.0357 2.0000 -0.5000
v  9.0357 5.0000 0.5000
v  9.0357 5.0000 -0.5000
v  3.0357 3.0000 3.5000
v  3.0357 4.0000 3.5000
v  3.0357 4.0000 2.5000
v  8.0357 0.0000 0.5000
v  8.0357 0.0000 -0.5000
v  3.0357 4.0000 -2.5000
v  3.0357 3.0000 -3.5000
v  3.0357 4.0000 -3.5000
# 106 vertices

vn -1.0000 0.0000 -0.0000
vn 1.0000 0.0000 -0.0000
vn 0.0000 0.0000 1.0000
vn 0.0000 0.0000 -1.0000
vn 0.0000 -1.0000 -0.0000
vn 0.0000 1.0000 -0.0000
# 6 vertex normals

vt 0.2715 0.5000 0.0000
vt 0.0215 0.5000 0.0000
vt 0.0020 0.5000 0.0000
vt 0.2520 0.5000 0.0000
vt 0.2051 0.5000 0.0000
vt 0.2793 0.5000 0.0000
vt 0.1895 0.5000 0.0000
vt 0.2754 0.5000 0.0000
# 8 texture coords

g default
s 1
f 1/1/1 2/1/1 3/1/1 
f 4/1/1 2/1/1 1/1/1 
f 5/1/1 6/1/1 7/1/1 
f 5/1/1 8/1/1 9/1/1 
f 5/1/1 9/1/1 6/1/1 
f 10/1/1 8/1/1 5/1/1 
f 11/2/1 12/2/1 13/2/1 
f 14/2/1 12/2/1 11/2/1 
f 15/2/1 16/2/1 17/2/1 
f 18/2/1 16/2/1 15/2/1 
f 19/3/1 20/3/1 21/3/1 
f 22/3/1 20/3/1 19/3/1 
f 23/3/1 24/3/1 25/3/1 
f 26/3/1 24/3/1 23/3/1 
f 27/4/1 28/4/1 29/4/1 
f 30/4/1 28/4/1 27/4/1 
f 31/5/1 32/5/1 33/5/1 
f 34/5/1 32/5/1 31/5/1 
f 35/5/1 31/5/1 36/5/1 
f 35/5/1 37/5/1 34/5/1 
f 35/5/1 34/5/1 31/5/1 
f 38/5/1 37/5/1 35/5/1 
f 39/1/2 40/1/2 41/1/2 
f 41/1/2 40/1/2 42/1/2 
f 43/2/2 27/2/2 44/2/2 
f 44/2/2 27/2/2 45/2/2 
f 30/2/2 46/2/2 47/2/2 
f 47/2/2 46/2/2 48/2/2 
f 49/4/2 50/4/2 51/4/2 
f 51/4/2 50/4/2 52/4/2 
f 53/3/2 54/3/2 55/3/2 
f 55/3/2 54/3/2 56/3/2 
f 57/3/2 58/3/2 59/3/2 
f 59/3/2 58/3/2 60/3/2 
f 55/6/2 56/6/2 61/6/2 
f 61/6/2 56/6/2 62/6/2 
f 59/6/2 60/6/2 63/6/2 
f 63/6/2 60/6/2 64/6/2 
f 65/1/2 66/1/2 67/1/2 
f 67/1/2 66/1/2 68/1/2 
f 65/1/2 67/1/2 69/1/2 
f 68/1/2 66/1/2 70/1/2 
f 65/1/2 69/1/2 71/1/2 
f 70/1/2 66/1/2 72/1/2 
f 71/1/2 73/1/2 74/1/2 
f 65/1/2 71/1/2 74/1/2 
f 74/1/2 73/1/2 75/1/2 
f 76/1/2 72/1/2 77/1/2 
f 72/1/2 66/1/2 78/1/2 
f 77/1/2 72/1/2 78/1/2 
f 79/5/2 80/5/2 81/5/2 
f 82/5/2 83/5/2 84/5/2 
f 79/5/2 81/5/2 85/5/2 
f 85/5/2 81/5/2 86/5/2 
f 84/5/2 83/5/2 87/5/2 
f 87/5/2 83/5/2 88/5/2 
f 85/7/2 86/7/2 89/7/2 
f 89/7/2 86/7/2 90/7/2 
f 87/7/2 88/7/2 91/7/2 
f 91/7/2 88/7/2 92/7/2 
f 93/8/2 94/8/2 95/8/2 
f 95/8/2 94/8/2 96/8/2 
f 95/5/2 96/5/2 97/5/2 
f 97/5/2 96/5/2 98/5/2 
f 99/3/3 19/3/3 21/3/3 
f 100/3/3 19/3/3 99/3/3 
f 53/3/3 99/3/3 21/3/3 
f 55/6/3 100/6/3 99/6/3 
f 55/3/3 99/3/3 53/3/3 
f 61/6/3 100/6/3 55/6/3 
f 20/1/3 5/1/3 7/1/3 
f 22/1/3 5/1/3 20/1/3 
f 101/1/3 5/1/3 22/1/3 
f 54/1/3 20/1/3 7/1/3 
f 62/1/3 5/1/3 101/1/3 
f 65/1/3 56/1/3 54/1/3 
f 65/1/3 62/1/3 56/1/3 
f 65/1/3 54/1/3 7/1/3 
f 74/1/3 5/1/3 62/1/3 
f 74/1/3 62/1/3 65/1/3 
f 6/1/3 1/1/3 3/1/3 
f 39/1/3 6/1/3 3/1/3 
f 41/1/3 6/1/3 39/1/3 
f 43/2/3 11/2/3 13/2/3 
f 44/2/3 11/2/3 43/2/3 
f 35/5/3 69/5/3 67/5/3 
f 79/5/3 35/5/3 36/5/3 
f 85/7/3 71/7/3 69/7/3 
f 85/5/3 35/5/3 79/5/3 
f 85/5/3 69/5/3 35/5/3 
f 89/7/3 71/7/3 85/7/3 
f 49/4/3 27/4/3 29/4/3 
f 51/4/3 27/4/3 49/4/3 
f 102/5/3 31/5/3 33/5/3 
f 80/5/3 31/5/3 102/5/3 
f 90/5/3 75/5/3 73/5/3 
f 93/8/3 80/8/3 102/8/3 
f 93/8/3 81/8/3 80/8/3 
f 95/5/3 86/5/3 81/5/3 
f 95/8/3 81/8/3 93/8/3 
f 95/5/3 90/5/3 86/5/3 
f 97/5/3 75/5/3 90/5/3 
f 97/5/3 90/5/3 95/5/3 
f 30/2/3 15/2/3 17/2/3 
f 47/2/3 15/2/3 30/2/3 
f 12/2/4 14/2/4 27/2/4 
f 27/2/4 14/2/4 45/2/4 
f 28/4/4 30/4/4 50/4/4 
f 50/4/4 30/4/4 52/4/4 
f 32/5/4 34/5/4 103/5/4 
f 103/5/4 34/5/4 82/5/4 
f 76/5/4 77/5/4 91/5/4 
f 103/8/4 82/8/4 94/8/4 
f 82/8/4 84/8/4 94/8/4 
f 84/5/4 87/5/4 96/5/4 
f 94/8/4 84/8/4 96/8/4 
f 87/5/4 91/5/4 96/5/4 
f 91/5/4 77/5/4 98/5/4 
f 96/5/4 91/5/4 98/5/4 
f 2/1/4 4/1/4 9/1/4 
f 2/1/4 9/1/4 40/1/4 
f 40/1/4 9/1/4 42/1/4 
f 16/2/4 18/2/4 46/2/4 
f 46/2/4 18/2/4 48/2/4 
f 68/5/4 70/5/4 38/5/4 
f 37/5/4 38/5/4 83/5/4 
f 70/7/4 72/7/4 88/7/4 
f 83/5/4 38/5/4 88/5/4 
f 38/5/4 70/5/4 88/5/4 
f 88/7/4 72/7/4 92/7/4 
f 8/1/4 10/1/4 25/1/4 
f 25/1/4 10/1/4 23/1/4 
f 23/1/4 10/1/4 104/1/4 
f 8/1/4 25/1/4 57/1/4 
f 104/1/4 10/1/4 63/1/4 
f 57/1/4 59/1/4 66/1/4 
f 59/1/4 63/1/4 66/1/4 
f 8/1/4 57/1/4 66/1/4 
f 63/1/4 10/1/4 78/1/4 
f 66/1/4 63/1/4 78/1/4 
f 24/3/4 26/3/4 105/3/4 
f 105/3/4 26/3/4 106/3/4 
f 24/3/4 105/3/4 58/3/4 
f 105/6/4 106/6/4 60/6/4 
f 58/3/4 105/3/4 60/3/4 
f 60/6/4 106/6/4 64/6/4 
f 32/5/5 102/5/5 33/5/5 
f 103/8/5 93/8/5 102/8/5 
f 103/5/5 102/5/5 32/5/5 
f 94/8/5 93/8/5 103/8/5 
f 2/1/5 39/1/5 3/1/5 
f 40/1/5 39/1/5 2/1/5 
f 6/1/5 65/1/5 7/1/5 
f 41/1/5 65/1/5 6/1/5 
f 31/5/5 79/5/5 36/5/5 
f 80/5/5 79/5/5 31/5/5 
f 42/1/5 65/1/5 41/1/5 
f 37/5/5 82/5/5 34/5/5 
f 83/5/5 82/5/5 37/5/5 
f 8/1/5 42/1/5 9/1/5 
f 66/1/5 65/1/5 42/1/5 
f 66/1/5 42/1/5 8/1/5 
f 20/3/5 53/3/5 21/3/5 
f 54/3/5 53/3/5 20/3/5 
f 68/5/5 35/5/5 67/5/5 
f 38/5/5 35/5/5 68/5/5 
f 24/3/5 57/3/5 25/3/5 
f 58/3/5 57/3/5 24/3/5 
f 12/2/5 43/2/5 13/2/5 
f 27/2/5 43/2/5 12/2/5 
f 16/2/5 30/2/5 17/2/5 
f 46/2/5 30/2/5 16/2/5 
f 1/1/6 6/1/6 4/1/6 
f 4/1/6 6/1/6 9/1/6 
f 19/3/6 100/3/6 22/3/6 
f 100/6/6 61/6/6 101/6/6 
f 22/3/6 100/3/6 101/3/6 
f 101/6/6 61/6/6 62/6/6 
f 71/7/6 89/7/6 73/7/6 
f 73/7/6 89/7/6 90/7/6 
f 76/7/6 91/7/6 72/7/6 
f 72/7/6 91/7/6 92/7/6 
f 23/3/6 104/3/6 26/3/6 
f 104/6/6 63/6/6 106/6/6 
f 26/3/6 104/3/6 106/3/6 
f 106/6/6 63/6/6 64/6/6 
f 5/1/6 74/1/6 29/1/6 
f 29/1/6 74/1/6 49/1/6 
f 49/1/6 74/1/6 75/1/6 
f 5/1/6 29/1/6 28/1/6 
f 49/1/6 75/1/6 50/1/6 
f 75/5/6 97/5/6 77/5/6 
f 50/1/6 75/1/6 77/1/6 
f 77/5/6 97/5/6 98/5/6 
f 28/1/6 50/1/6 10/1/6 
f 5/1/6 28/1/6 10/1/6 
f 50/1/6 77/1/6 10/1/6 
f 10/1/6 77/1/6 78/1/6 
f 27/4/6 51/4/6 30/4/6 
f 30/4/6 51/4/6 52/4/6 
f 11/2/6 44/2/6 14/2/6 
f 14/2/6 44/2/6 45/2/6 
f 15/2/6 47/2/6 18/2/6 
f 18/2/6 47/2/6 48/2/6 
# 0 polygons - 204 triangles

