# 3ds Max Wavefront OBJ Exporter v0.97b - (c)2007 guruware
# File Created: 30.01.2016 11:20:39

#
# object default
#

v  -12.0000 7.0033 2.0615
v  -12.0000 4.0033 1.0615
v  -12.0000 4.0033 2.0615
v  -12.0000 7.0033 1.0615
v  -11.0000 4.0033 2.0615
v  -11.0000 3.0033 2.0615
v  -11.0000 3.0033 3.0615
v  -11.0000 7.0033 2.0615
v  -11.0000 8.0033 3.0615
v  -11.0000 8.0033 2.0615
v  -10.0000 3.0033 3.0615
v  -10.0000 2.0033 3.0615
v  -10.0000 2.0033 4.0615
v  -10.0000 8.0033 3.0615
v  -10.0000 9.0033 4.0615
v  -10.0000 9.0033 3.0615
v  -9.0000 9.0033 5.0615
v  -9.0000 2.0033 4.0615
v  -9.0000 2.0033 5.0615
v  -9.0000 9.0033 4.0615
v  -6.0000 9.0033 4.0615
v  -6.0000 2.0033 3.0615
v  -6.0000 2.0033 4.0615
v  -6.0000 9.0033 3.0615
v  -5.0000 1.0033 6.0615
v  -5.0000 0.0033 2.0615
v  -5.0000 0.0033 6.0615
v  -5.0000 2.0033 7.0615
v  -5.0000 1.0033 7.0615
v  -5.0000 2.0033 6.0615
v  -5.0000 2.0033 4.0615
v  -5.0000 2.0033 3.0615
v  -5.0000 3.0033 11.0615
v  -5.0000 2.0033 11.0615
v  -5.0000 3.0033 6.0615
v  -5.0000 9.0033 4.0615
v  -5.0000 9.0033 3.0615
v  -5.0000 10.0033 6.0615
v  -5.0000 10.0033 2.0615
v  -4.0000 1.0033 7.0615
v  -4.0000 0.0033 6.0615
v  -4.0000 0.0033 7.0615
v  -4.0000 1.0033 6.0615
v  -4.0000 7.0033 7.0615
v  -4.0000 3.0033 6.0615
v  -4.0000 3.0033 7.0615
v  -4.0000 7.0033 6.0615
v  -4.0000 8.0033 7.0615
v  -4.0000 8.0033 6.0615
v  -4.0000 10.0033 2.0615
v  -4.0000 0.0033 1.0615
v  -4.0000 0.0033 2.0615
v  -4.0000 10.0033 1.0615
v  -4.0000 11.0033 5.0615
v  -4.0000 10.0033 4.0615
v  -4.0000 10.0033 5.0615
v  -4.0000 11.0033 4.0615
v  -3.0000 11.0033 4.0615
v  -3.0000 10.0033 2.0615
v  -3.0000 10.0033 4.0615
v  -3.0000 11.0033 2.0615
v  -2.0000 7.0033 8.0615
v  -2.0000 0.0033 7.0615
v  -2.0000 0.0033 8.0615
v  -2.0000 7.0033 7.0615
v  -2.0000 10.0033 1.0615
v  -2.0000 0.0033 0.0615
v  -2.0000 0.0033 1.0615
v  -2.0000 10.0033 0.0615
v  -1.0000 -3.9967 10.0615
v  -1.0000 -4.9967 9.0615
v  -1.0000 -4.9967 10.0615
v  -1.0000 -3.9967 9.0615
v  -1.0000 -4.9967 8.0615
v  -1.0000 0.0033 8.0615
v  -1.0000 7.0033 10.0615
v  -1.0000 7.0033 8.0615
v  -1.0000 11.0033 2.0615
v  -1.0000 10.0033 1.0615
v  -1.0000 10.0033 2.0615
v  -1.0000 11.0033 1.0615
v  3.0000 1.0033 8.0615
v  3.0000 0.0033 7.0615
v  3.0000 0.0033 8.0615
v  3.0000 1.0033 7.0615
v  3.0000 3.0033 10.0615
v  3.0000 2.0033 7.0615
v  3.0000 2.0033 10.0615
v  3.0000 3.0033 7.0615
v  4.0000 3.0033 11.0615
v  4.0000 2.0033 10.0615
v  4.0000 2.0033 11.0615
v  4.0000 3.0033 10.0615
v  6.0000 9.0033 5.0615
v  6.0000 2.0033 4.0615
v  6.0000 2.0033 5.0615
v  6.0000 9.0033 4.0615
v  9.0000 9.0033 4.0615
v  9.0000 2.0033 3.0615
v  9.0000 2.0033 4.0615
v  9.0000 9.0033 3.0615
v  10.0000 8.0033 3.0615
v  10.0000 3.0033 2.0615
v  10.0000 3.0033 3.0615
v  10.0000 8.0033 2.0615
v  11.0000 7.0033 2.0615
v  11.0000 4.0033 1.0615
v  11.0000 4.0033 2.0615
v  11.0000 7.0033 1.0615
v  -11.0000 4.0033 1.0615
v  -11.0000 7.0033 1.0615
v  -10.0000 3.0033 2.0615
v  -10.0000 8.0033 2.0615
v  -9.0000 2.0033 3.0615
v  -9.0000 9.0033 3.0615
v  -6.0000 2.0033 5.0615
v  -6.0000 9.0033 5.0615
v  -4.0000 2.0033 11.0615
v  -4.0000 2.0033 10.0615
v  -4.0000 3.0033 11.0615
v  -4.0000 3.0033 10.0615
v  -3.0000 2.0033 10.0615
v  -3.0000 2.0033 7.0615
v  -3.0000 3.0033 10.0615
v  -3.0000 3.0033 7.0615
v  1.0000 -4.9967 10.0615
v  1.0000 -4.9967 9.0615
v  1.0000 -3.9967 10.0615
v  1.0000 -4.9967 8.0615
v  1.0000 -3.9967 9.0615
v  1.0000 0.0033 8.0615
v  1.0000 7.0033 10.0615
v  1.0000 7.0033 8.0615
v  1.0000 10.0033 2.0615
v  1.0000 10.0033 1.0615
v  1.0000 11.0033 2.0615
v  1.0000 11.0033 1.0615
v  2.0000 0.0033 8.0615
v  2.0000 0.0033 7.0615
v  2.0000 7.0033 8.0615
v  2.0000 7.0033 7.0615
v  2.0000 0.0033 1.0615
v  2.0000 0.0033 0.0615
v  2.0000 10.0033 1.0615
v  2.0000 10.0033 0.0615
v  3.0000 0.0033 2.0615
v  3.0000 0.0033 1.0615
v  3.0000 1.0033 2.0615
v  3.0000 1.0033 1.0615
v  3.0000 10.0033 4.0615
v  3.0000 10.0033 2.0615
v  3.0000 11.0033 4.0615
v  3.0000 11.0033 2.0615
v  4.0000 0.0033 8.0615
v  4.0000 0.0033 6.0615
v  4.0000 1.0033 8.0615
v  4.0000 1.0033 7.0615
v  4.0000 2.0033 7.0615
v  4.0000 2.0033 6.0615
v  4.0000 3.0033 7.0615
v  4.0000 3.0033 6.0615
v  4.0000 7.0033 7.0615
v  4.0000 7.0033 6.0615
v  4.0000 8.0033 7.0615
v  4.0000 8.0033 6.0615
v  4.0000 1.0033 2.0615
v  4.0000 1.0033 1.0615
v  4.0000 10.0033 2.0615
v  4.0000 10.0033 1.0615
v  4.0000 10.0033 5.0615
v  4.0000 10.0033 4.0615
v  4.0000 11.0033 5.0615
v  4.0000 11.0033 4.0615
v  5.0000 0.0033 6.0615
v  5.0000 0.0033 2.0615
v  5.0000 2.0033 6.0615
v  5.0000 2.0033 4.0615
v  5.0000 2.0033 3.0615
v  5.0000 2.0033 11.0615
v  5.0000 3.0033 11.0615
v  5.0000 3.0033 6.0615
v  5.0000 9.0033 4.0615
v  5.0000 9.0033 3.0615
v  5.0000 10.0033 6.0615
v  5.0000 10.0033 2.0615
v  6.0000 2.0033 3.0615
v  6.0000 9.0033 3.0615
v  9.0000 2.0033 5.0615
v  9.0000 9.0033 5.0615
v  10.0000 2.0033 4.0615
v  10.0000 2.0033 3.0615
v  10.0000 9.0033 4.0615
v  10.0000 9.0033 3.0615
v  11.0000 3.0033 3.0615
v  11.0000 3.0033 2.0615
v  11.0000 8.0033 3.0615
v  11.0000 8.0033 2.0615
v  12.0000 4.0033 2.0615
v  12.0000 4.0033 1.0615
v  12.0000 7.0033 2.0615
v  12.0000 7.0033 1.0615
v  -3.0000 7.0033 7.0615
v  -3.0000 8.0033 7.0615
v  -2.0000 8.0033 7.0615
v  -1.0000 7.0033 7.0615
v  1.0000 7.0033 7.0615
v  2.0000 8.0033 7.0615
v  3.0000 7.0033 7.0615
v  3.0000 8.0033 7.0615
v  -4.0000 9.0033 6.0615
v  -3.0000 8.0033 6.0615
v  -2.0000 8.0033 6.0615
v  -1.0000 8.0033 6.0615
v  -1.0000 9.0033 6.0615
v  1.0000 8.0033 6.0615
v  1.0000 9.0033 6.0615
v  2.0000 8.0033 6.0615
v  3.0000 8.0033 6.0615
v  4.0000 9.0033 6.0615
# 219 vertices

vn -1.0000 0.0000 -0.0000
vn 1.0000 0.0000 -0.0000
vn 0.0000 0.0000 1.0000
vn 0.0000 0.0000 -1.0000
vn 0.0000 -1.0000 -0.0000
vn 0.0000 1.0000 -0.0000
# 6 vertex normals

vt 0.2520 0.5000 0.0000
vt 0.0293 0.5000 0.0000
vt 0.0059 0.5000 0.0000
vt 0.0020 0.5000 0.0000
vt 0.0215 0.5000 0.0000
vt 0.2793 0.5000 0.0000
vt 0.2559 0.5000 0.0000
# 7 texture coords

g default
s 1
f 1/1/1 2/1/1 3/1/1 
f 4/1/1 2/1/1 1/1/1 
f 5/1/1 6/1/1 7/1/1 
f 8/1/1 5/1/1 7/1/1 
f 9/1/1 8/1/1 7/1/1 
f 10/1/1 8/1/1 9/1/1 
f 11/1/1 12/1/1 13/1/1 
f 14/1/1 11/1/1 13/1/1 
f 15/1/1 14/1/1 13/1/1 
f 16/1/1 14/1/1 15/1/1 
f 17/1/1 18/1/1 19/1/1 
f 20/1/1 18/1/1 17/1/1 
f 21/1/1 22/1/1 23/1/1 
f 24/1/1 22/1/1 21/1/1 
f 25/2/1 26/2/1 27/2/1 
f 28/2/1 25/2/1 29/2/1 
f 30/2/1 26/2/1 25/2/1 
f 30/2/1 25/2/1 28/2/1 
f 31/2/1 26/2/1 30/2/1 
f 32/2/1 26/2/1 31/2/1 
f 33/3/1 28/3/1 34/3/1 
f 33/3/1 30/3/1 28/3/1 
f 35/2/1 31/2/1 30/2/1 
f 35/3/1 30/3/1 33/3/1 
f 36/2/1 31/2/1 35/2/1 
f 37/2/1 26/2/1 32/2/1 
f 38/2/1 36/2/1 35/2/1 
f 38/2/1 37/2/1 36/2/1 
f 39/2/1 26/2/1 37/2/1 
f 39/2/1 37/2/1 38/2/1 
f 40/2/1 41/2/1 42/2/1 
f 43/2/1 41/2/1 40/2/1 
f 44/2/1 45/2/1 46/2/1 
f 47/2/1 45/2/1 44/2/1 
f 48/4/1 47/4/1 44/4/1 
f 49/4/1 47/4/1 48/4/1 
f 50/2/1 51/2/1 52/2/1 
f 53/2/1 51/2/1 50/2/1 
f 54/2/1 55/2/1 56/2/1 
f 57/2/1 55/2/1 54/2/1 
f 58/2/1 59/2/1 60/2/1 
f 61/2/1 59/2/1 58/2/1 
f 62/2/1 63/2/1 64/2/1 
f 65/2/1 63/2/1 62/2/1 
f 66/2/1 67/2/1 68/2/1 
f 69/2/1 67/2/1 66/2/1 
f 70/5/1 71/5/1 72/5/1 
f 73/1/1 74/1/1 71/1/1 
f 73/5/1 71/5/1 70/5/1 
f 75/1/1 73/1/1 70/1/1 
f 75/1/1 74/1/1 73/1/1 
f 76/1/1 75/1/1 70/1/1 
f 77/1/1 75/1/1 76/1/1 
f 78/2/1 79/2/1 80/2/1 
f 81/2/1 79/2/1 78/2/1 
f 82/2/1 83/2/1 84/2/1 
f 85/2/1 83/2/1 82/2/1 
f 86/3/1 87/3/1 88/3/1 
f 89/3/1 87/3/1 86/3/1 
f 90/3/1 91/3/1 92/3/1 
f 93/3/1 91/3/1 90/3/1 
f 94/1/1 95/1/1 96/1/1 
f 97/1/1 95/1/1 94/1/1 
f 98/1/1 99/1/1 100/1/1 
f 101/1/1 99/1/1 98/1/1 
f 102/1/1 103/1/1 104/1/1 
f 105/1/1 103/1/1 102/1/1 
f 106/1/1 107/1/1 108/1/1 
f 109/1/1 107/1/1 106/1/1 
f 5/1/2 110/1/2 8/1/2 
f 8/1/2 110/1/2 111/1/2 
f 11/1/2 112/1/2 14/1/2 
f 14/1/2 112/1/2 113/1/2 
f 18/1/2 114/1/2 20/1/2 
f 20/1/2 114/1/2 115/1/2 
f 116/1/2 23/1/2 117/1/2 
f 117/1/2 23/1/2 21/1/2 
f 118/3/2 119/3/2 120/3/2 
f 120/3/2 119/3/2 121/3/2 
f 122/3/2 123/3/2 124/3/2 
f 124/3/2 123/3/2 125/3/2 
f 126/5/2 127/5/2 128/5/2 
f 127/1/2 129/1/2 130/1/2 
f 128/5/2 127/5/2 130/5/2 
f 128/1/2 130/1/2 131/1/2 
f 130/1/2 129/1/2 131/1/2 
f 128/1/2 131/1/2 132/1/2 
f 132/1/2 131/1/2 133/1/2 
f 134/2/2 135/2/2 136/2/2 
f 136/2/2 135/2/2 137/2/2 
f 138/2/2 139/2/2 140/2/2 
f 140/2/2 139/2/2 141/2/2 
f 142/2/2 143/2/2 144/2/2 
f 144/2/2 143/2/2 145/2/2 
f 146/2/2 147/2/2 148/2/2 
f 148/2/2 147/2/2 149/2/2 
f 150/2/2 151/2/2 152/2/2 
f 152/2/2 151/2/2 153/2/2 
f 154/2/2 155/2/2 156/2/2 
f 156/2/2 155/2/2 157/2/2 
f 157/2/2 155/2/2 158/2/2 
f 158/2/2 155/2/2 159/2/2 
f 160/2/2 161/2/2 162/2/2 
f 162/2/2 161/2/2 163/2/2 
f 162/4/2 163/4/2 164/4/2 
f 164/4/2 163/4/2 165/4/2 
f 166/2/2 167/2/2 168/2/2 
f 168/2/2 167/2/2 169/2/2 
f 170/2/2 171/2/2 172/2/2 
f 172/2/2 171/2/2 173/2/2 
f 174/2/2 175/2/2 176/2/2 
f 176/2/2 175/2/2 177/2/2 
f 177/2/2 175/2/2 178/2/2 
f 179/3/2 176/3/2 180/3/2 
f 176/2/2 177/2/2 181/2/2 
f 180/3/2 176/3/2 181/3/2 
f 181/2/2 177/2/2 182/2/2 
f 178/2/2 175/2/2 183/2/2 
f 181/2/2 182/2/2 184/2/2 
f 182/2/2 183/2/2 184/2/2 
f 183/2/2 175/2/2 185/2/2 
f 184/2/2 183/2/2 185/2/2 
f 95/1/2 186/1/2 97/1/2 
f 97/1/2 186/1/2 187/1/2 
f 188/1/2 100/1/2 189/1/2 
f 189/1/2 100/1/2 98/1/2 
f 190/1/2 191/1/2 104/1/2 
f 190/1/2 104/1/2 102/1/2 
f 190/1/2 102/1/2 192/1/2 
f 192/1/2 102/1/2 193/1/2 
f 194/1/2 195/1/2 108/1/2 
f 194/1/2 108/1/2 106/1/2 
f 194/1/2 106/1/2 196/1/2 
f 196/1/2 106/1/2 197/1/2 
f 198/1/2 199/1/2 200/1/2 
f 200/1/2 199/1/2 201/1/2 
f 118/3/3 33/3/3 34/3/3 
f 120/3/3 33/3/3 118/3/3 
f 179/3/3 90/3/3 92/3/3 
f 180/3/3 90/3/3 179/3/3 
f 122/3/3 121/3/3 119/3/3 
f 124/3/3 121/3/3 122/3/3 
f 126/5/3 70/5/3 72/5/3 
f 128/1/3 76/1/3 70/1/3 
f 128/5/3 70/5/3 126/5/3 
f 132/1/3 76/1/3 128/1/3 
f 91/3/3 86/3/3 88/3/3 
f 93/3/3 86/3/3 91/3/3 
f 75/2/3 62/2/3 64/2/3 
f 77/2/3 62/2/3 75/2/3 
f 138/2/3 133/2/3 131/2/3 
f 140/2/3 133/2/3 138/2/3 
f 154/2/3 82/2/3 84/2/3 
f 156/2/3 82/2/3 154/2/3 
f 40/2/3 28/2/3 29/2/3 
f 123/2/3 28/2/3 40/2/3 
f 123/2/3 40/2/3 42/2/3 
f 125/2/3 44/2/3 46/2/3 
f 202/4/3 48/4/3 44/4/3 
f 202/2/3 44/2/3 125/2/3 
f 203/4/3 48/4/3 202/4/3 
f 63/2/3 125/2/3 123/2/3 
f 63/2/3 123/2/3 42/2/3 
f 63/2/3 202/2/3 125/2/3 
f 65/6/3 203/6/3 202/6/3 
f 65/2/3 202/2/3 63/2/3 
f 204/6/3 203/6/3 65/6/3 
f 205/2/3 204/2/3 65/2/3 
f 206/2/3 204/2/3 205/2/3 
f 141/2/3 204/2/3 206/2/3 
f 207/2/3 204/2/3 141/2/3 
f 83/2/3 141/2/3 139/2/3 
f 85/2/3 141/2/3 83/2/3 
f 87/2/3 141/2/3 85/2/3 
f 89/2/3 141/2/3 87/2/3 
f 208/6/3 207/6/3 141/6/3 
f 208/2/3 141/2/3 89/2/3 
f 209/6/3 207/6/3 208/6/3 
f 157/2/3 87/2/3 85/2/3 
f 158/2/3 87/2/3 157/2/3 
f 160/2/3 208/2/3 89/2/3 
f 162/4/3 209/4/3 208/4/3 
f 162/2/3 208/2/3 160/2/3 
f 164/4/3 209/4/3 162/4/3 
f 41/2/3 25/2/3 27/2/3 
f 43/2/3 25/2/3 41/2/3 
f 45/2/3 38/2/3 35/2/3 
f 47/2/3 38/2/3 45/2/3 
f 49/2/3 38/2/3 47/2/3 
f 210/2/3 38/2/3 49/2/3 
f 211/7/3 210/7/3 49/7/3 
f 212/7/3 210/7/3 211/7/3 
f 213/7/3 210/7/3 212/7/3 
f 214/2/3 38/2/3 210/2/3 
f 214/7/3 210/7/3 213/7/3 
f 215/2/3 214/2/3 213/2/3 
f 216/2/3 38/2/3 214/2/3 
f 216/2/3 214/2/3 215/2/3 
f 217/7/3 216/7/3 215/7/3 
f 218/7/3 216/7/3 217/7/3 
f 165/7/3 216/7/3 218/7/3 
f 219/2/3 38/2/3 216/2/3 
f 219/7/3 216/7/3 165/7/3 
f 174/2/3 159/2/3 155/2/3 
f 176/2/3 159/2/3 174/2/3 
f 181/2/3 165/2/3 163/2/3 
f 181/2/3 163/2/3 161/2/3 
f 181/2/3 219/2/3 165/2/3 
f 184/2/3 38/2/3 219/2/3 
f 184/2/3 219/2/3 181/2/3 
f 116/1/3 17/1/3 19/1/3 
f 117/1/3 17/1/3 116/1/3 
f 170/2/3 54/2/3 56/2/3 
f 172/2/3 54/2/3 170/2/3 
f 188/1/3 94/1/3 96/1/3 
f 189/1/3 94/1/3 188/1/3 
f 18/1/3 15/1/3 13/1/3 
f 20/1/3 15/1/3 18/1/3 
f 31/1/3 21/1/3 23/1/3 
f 36/1/3 21/1/3 31/1/3 
f 95/1/3 182/1/3 177/1/3 
f 97/1/3 182/1/3 95/1/3 
f 190/1/3 98/1/3 100/1/3 
f 192/1/3 98/1/3 190/1/3 
f 11/1/3 9/1/3 7/1/3 
f 14/1/3 9/1/3 11/1/3 
f 194/1/3 102/1/3 104/1/3 
f 196/1/3 102/1/3 194/1/3 
f 5/1/3 1/1/3 3/1/3 
f 8/1/3 1/1/3 5/1/3 
f 198/1/3 106/1/3 108/1/3 
f 200/1/3 106/1/3 198/1/3 
f 74/1/4 75/1/4 129/1/4 
f 129/1/4 75/1/4 131/1/4 
f 18/1/4 20/1/4 23/1/4 
f 23/1/4 20/1/4 21/1/4 
f 55/2/4 57/2/4 60/2/4 
f 60/2/4 57/2/4 58/2/4 
f 150/2/4 152/2/4 171/2/4 
f 171/2/4 152/2/4 173/2/4 
f 95/1/4 97/1/4 100/1/4 
f 100/1/4 97/1/4 98/1/4 
f 12/1/4 11/1/4 114/1/4 
f 14/1/4 16/1/4 114/1/4 
f 11/1/4 14/1/4 114/1/4 
f 114/1/4 16/1/4 115/1/4 
f 22/1/4 24/1/4 32/1/4 
f 32/1/4 24/1/4 37/1/4 
f 178/1/4 183/1/4 186/1/4 
f 186/1/4 183/1/4 187/1/4 
f 99/1/4 101/1/4 191/1/4 
f 191/1/4 101/1/4 104/1/4 
f 104/1/4 101/1/4 102/1/4 
f 102/1/4 101/1/4 193/1/4 
f 6/1/4 5/1/4 112/1/4 
f 8/1/4 10/1/4 112/1/4 
f 5/1/4 8/1/4 112/1/4 
f 112/1/4 10/1/4 113/1/4 
f 26/2/4 39/2/4 52/2/4 
f 52/2/4 39/2/4 50/2/4 
f 59/2/4 61/2/4 80/2/4 
f 80/2/4 61/2/4 78/2/4 
f 134/2/4 136/2/4 151/2/4 
f 151/2/4 136/2/4 153/2/4 
f 146/2/4 148/2/4 166/2/4 
f 146/2/4 166/2/4 175/2/4 
f 166/2/4 168/2/4 175/2/4 
f 175/2/4 168/2/4 185/2/4 
f 103/1/4 105/1/4 195/1/4 
f 195/1/4 105/1/4 108/1/4 
f 108/1/4 105/1/4 106/1/4 
f 106/1/4 105/1/4 197/1/4 
f 2/1/4 4/1/4 110/1/4 
f 110/1/4 4/1/4 111/1/4 
f 51/2/4 53/2/4 68/2/4 
f 68/2/4 53/2/4 66/2/4 
f 79/2/4 81/2/4 135/2/4 
f 135/2/4 81/2/4 137/2/4 
f 142/2/4 144/2/4 147/2/4 
f 147/2/4 144/2/4 149/2/4 
f 149/2/4 144/2/4 167/2/4 
f 167/2/4 144/2/4 169/2/4 
f 107/1/4 109/1/4 199/1/4 
f 199/1/4 109/1/4 201/1/4 
f 67/2/4 69/2/4 143/2/4 
f 143/2/4 69/2/4 145/2/4 
f 71/5/5 126/5/5 72/5/5 
f 127/5/5 126/5/5 71/5/5 
f 74/1/5 127/1/5 71/1/5 
f 129/1/5 127/1/5 74/1/5 
f 63/2/5 75/2/5 64/2/5 
f 63/2/5 131/2/5 75/2/5 
f 63/2/5 138/2/5 131/2/5 
f 139/2/5 138/2/5 63/2/5 
f 83/2/5 154/2/5 84/2/5 
f 41/2/5 139/2/5 63/2/5 
f 41/2/5 83/2/5 139/2/5 
f 41/2/5 63/2/5 42/2/5 
f 155/2/5 154/2/5 83/2/5 
f 155/2/5 83/2/5 41/2/5 
f 26/2/5 41/2/5 27/2/5 
f 26/2/5 174/2/5 155/2/5 
f 26/2/5 155/2/5 41/2/5 
f 52/2/5 174/2/5 26/2/5 
f 146/2/5 174/2/5 52/2/5 
f 175/2/5 174/2/5 146/2/5 
f 51/2/5 146/2/5 52/2/5 
f 68/2/5 146/2/5 51/2/5 
f 142/2/5 146/2/5 68/2/5 
f 147/2/5 146/2/5 142/2/5 
f 67/2/5 142/2/5 68/2/5 
f 143/2/5 142/2/5 67/2/5 
f 25/2/5 40/2/5 29/2/5 
f 43/2/5 40/2/5 25/2/5 
f 149/2/5 166/2/5 148/2/5 
f 167/2/5 166/2/5 149/2/5 
f 119/3/5 118/3/5 34/3/5 
f 91/3/5 179/3/5 92/3/5 
f 28/3/5 122/3/5 119/3/5 
f 28/3/5 119/3/5 34/3/5 
f 123/3/5 122/3/5 28/3/5 
f 87/3/5 91/3/5 88/3/5 
f 158/3/5 179/3/5 91/3/5 
f 158/3/5 91/3/5 87/3/5 
f 159/3/5 179/3/5 158/3/5 
f 176/3/5 179/3/5 159/3/5 
f 18/1/5 116/1/5 19/1/5 
f 23/1/5 116/1/5 18/1/5 
f 95/1/5 188/1/5 96/1/5 
f 100/1/5 188/1/5 95/1/5 
f 12/1/5 18/1/5 13/1/5 
f 114/1/5 18/1/5 12/1/5 
f 22/1/5 31/1/5 23/1/5 
f 32/1/5 31/1/5 22/1/5 
f 178/1/5 95/1/5 177/1/5 
f 186/1/5 95/1/5 178/1/5 
f 99/1/5 190/1/5 100/1/5 
f 191/1/5 190/1/5 99/1/5 
f 6/1/5 11/1/5 7/1/5 
f 112/1/5 11/1/5 6/1/5 
f 103/1/5 194/1/5 104/1/5 
f 195/1/5 194/1/5 103/1/5 
f 2/1/5 5/1/5 3/1/5 
f 110/1/5 5/1/5 2/1/5 
f 107/1/5 198/1/5 108/1/5 
f 199/1/5 198/1/5 107/1/5 
f 82/2/6 156/2/6 85/2/6 
f 85/2/6 156/2/6 157/2/6 
f 33/3/6 120/3/6 121/3/6 
f 90/3/6 180/3/6 93/3/6 
f 121/3/6 124/3/6 46/3/6 
f 33/3/6 121/3/6 46/3/6 
f 46/3/6 124/3/6 125/3/6 
f 86/3/6 93/3/6 89/3/6 
f 93/3/6 180/3/6 160/3/6 
f 89/3/6 93/3/6 160/3/6 
f 33/3/6 46/3/6 35/3/6 
f 35/3/6 46/3/6 45/3/6 
f 160/3/6 180/3/6 161/3/6 
f 161/3/6 180/3/6 181/3/6 
f 76/1/6 132/1/6 77/1/6 
f 77/1/6 132/1/6 133/1/6 
f 62/2/6 77/2/6 65/2/6 
f 77/1/6 133/1/6 205/1/6 
f 65/2/6 77/2/6 205/2/6 
f 133/2/6 140/2/6 206/2/6 
f 205/1/6 133/1/6 206/1/6 
f 206/2/6 140/2/6 141/2/6 
f 1/1/6 8/1/6 4/1/6 
f 4/1/6 8/1/6 111/1/6 
f 106/1/6 200/1/6 109/1/6 
f 109/1/6 200/1/6 201/1/6 
f 48/4/6 203/4/6 49/4/6 
f 203/6/6 204/6/6 211/6/6 
f 49/4/6 203/4/6 211/4/6 
f 204/2/6 207/2/6 212/2/6 
f 211/6/6 204/6/6 212/6/6 
f 212/2/6 207/2/6 213/2/6 
f 213/2/6 207/2/6 215/2/6 
f 207/6/6 209/6/6 217/6/6 
f 215/2/6 207/2/6 217/2/6 
f 209/4/6 164/4/6 218/4/6 
f 217/6/6 209/6/6 218/6/6 
f 218/4/6 164/4/6 165/4/6 
f 9/1/6 14/1/6 10/1/6 
f 10/1/6 14/1/6 113/1/6 
f 102/1/6 196/1/6 105/1/6 
f 105/1/6 196/1/6 197/1/6 
f 17/1/6 117/1/6 20/1/6 
f 20/1/6 117/1/6 21/1/6 
f 94/1/6 189/1/6 97/1/6 
f 97/1/6 189/1/6 98/1/6 
f 15/1/6 20/1/6 16/1/6 
f 16/1/6 20/1/6 115/1/6 
f 21/1/6 36/1/6 24/1/6 
f 24/1/6 36/1/6 37/1/6 
f 182/1/6 97/1/6 183/1/6 
f 183/1/6 97/1/6 187/1/6 
f 98/1/6 192/1/6 101/1/6 
f 101/1/6 192/1/6 193/1/6 
f 38/2/6 184/2/6 56/2/6 
f 56/2/6 184/2/6 170/2/6 
f 38/2/6 56/2/6 55/2/6 
f 170/2/6 184/2/6 171/2/6 
f 55/2/6 60/2/6 39/2/6 
f 38/2/6 55/2/6 39/2/6 
f 39/2/6 60/2/6 50/2/6 
f 50/2/6 60/2/6 59/2/6 
f 150/2/6 171/2/6 151/2/6 
f 171/2/6 184/2/6 168/2/6 
f 151/2/6 171/2/6 168/2/6 
f 168/2/6 184/2/6 185/2/6 
f 59/2/6 80/2/6 53/2/6 
f 50/2/6 59/2/6 53/2/6 
f 53/2/6 80/2/6 66/2/6 
f 66/2/6 80/2/6 79/2/6 
f 134/2/6 151/2/6 135/2/6 
f 151/2/6 168/2/6 135/2/6 
f 135/2/6 168/2/6 144/2/6 
f 144/2/6 168/2/6 169/2/6 
f 66/2/6 79/2/6 69/2/6 
f 135/2/6 144/2/6 69/2/6 
f 79/2/6 135/2/6 69/2/6 
f 69/2/6 144/2/6 145/2/6 
f 54/2/6 172/2/6 57/2/6 
f 57/2/6 172/2/6 58/2/6 
f 58/2/6 172/2/6 152/2/6 
f 152/2/6 172/2/6 173/2/6 
f 58/2/6 152/2/6 61/2/6 
f 61/2/6 152/2/6 78/2/6 
f 78/2/6 152/2/6 136/2/6 
f 136/2/6 152/2/6 153/2/6 
f 78/2/6 136/2/6 81/2/6 
f 81/2/6 136/2/6 137/2/6 
# 0 polygons - 434 triangles

