# 3ds Max Wavefront OBJ Exporter v0.97b - (c)2007 guruware
# File Created: 30.01.2016 11:21:21

#
# object default
#

v  -2.0000 -6.0390 2.0000
v  -2.0000 -8.0390 1.0000
v  -2.0000 -8.0390 2.0000
v  -2.0000 -6.0390 1.0000
v  -2.0000 -8.0390 -2.0000
v  -2.0000 -0.0390 2.0000
v  -2.0000 -0.0390 -2.0000
v  2.0000 -8.0390 2.0000
v  2.0000 -8.0390 1.0000
v  2.0000 -6.0390 2.0000
v  2.0000 -8.0390 -2.0000
v  2.0000 -6.0390 1.0000
v  2.0000 -0.0390 2.0000
v  2.0000 -0.0390 -2.0000
v  -1.0000 -8.0390 2.0000
v  -1.0000 -6.0390 2.0000
v  1.0000 -8.0390 2.0000
v  1.0000 -6.0390 2.0000
v  -1.0000 -8.0390 1.0000
v  1.0000 -8.0390 1.0000
# 20 vertices

vn -1.0000 0.0000 -0.0000
vn 1.0000 0.0000 -0.0000
vn 0.0000 0.0000 1.0000
vn 0.0000 0.0000 -1.0000
vn 0.0000 -1.0000 -0.0000
vn 0.0000 1.0000 -0.0000
# 6 vertex normals

vt 0.0098 0.5000 0.0000
vt 0.0293 0.5000 0.0000
# 2 texture coords

g default
s 1
f 1/1/1 2/1/1 3/1/1 
f 4/2/1 5/2/1 2/2/1 
f 4/1/1 2/1/1 1/1/1 
f 6/2/1 4/2/1 1/2/1 
f 7/2/1 5/2/1 4/2/1 
f 7/2/1 4/2/1 6/2/1 
f 8/1/2 9/1/2 10/1/2 
f 9/2/2 11/2/2 12/2/2 
f 10/1/2 9/1/2 12/1/2 
f 10/2/2 12/2/2 13/2/2 
f 12/2/2 11/2/2 14/2/2 
f 13/2/2 12/2/2 14/2/2 
f 15/1/3 1/1/3 3/1/3 
f 16/2/3 6/2/3 1/2/3 
f 16/1/3 1/1/3 15/1/3 
f 17/2/3 16/2/3 15/2/3 
f 18/2/3 6/2/3 16/2/3 
f 18/2/3 16/2/3 17/2/3 
f 8/1/3 18/1/3 17/1/3 
f 10/2/3 6/2/3 18/2/3 
f 10/1/3 18/1/3 8/1/3 
f 13/2/3 6/2/3 10/2/3 
f 5/2/4 7/2/4 11/2/4 
f 11/2/4 7/2/4 14/2/4 
f 2/1/5 15/1/5 3/1/5 
f 19/2/5 17/2/5 15/2/5 
f 19/1/5 15/1/5 2/1/5 
f 20/1/5 8/1/5 17/1/5 
f 20/2/5 17/2/5 19/2/5 
f 9/1/5 8/1/5 20/1/5 
f 5/2/5 19/2/5 2/2/5 
f 5/2/5 20/2/5 19/2/5 
f 5/2/5 9/2/5 20/2/5 
f 11/2/5 9/2/5 5/2/5 
f 6/2/6 13/2/6 7/2/6 
f 7/2/6 13/2/6 14/2/6 
# 0 polygons - 36 triangles

