# MagicaVoxel @ ephtracy

# material
mtllib elephant_body.mtl
usemtl palette

# normals
vn -1 0 0
vn 1 0 0
vn 0 0 1
vn 0 0 -1
vn 0 -1 0
vn 0 1 0

# texcoords
vt 0.0214844 0.5
vt 0.0292969 0.5
vt 0.255859 0.5
vt 0.259766 0.5

# verts
v -7 0 9
v -7 0 -5
v -7 1 9
v -7 1 -5
v -7 4 3
v -7 4 -1
v -7 5 6
v -7 5 3
v -7 5 -1
v -7 5 -3
v -7 6 8
v -7 6 6
v -7 6 -3
v -7 6 -4
v -7 7 9
v -7 7 8
v -7 7 -4
v -7 7 -5
v -7 9 9
v -7 9 -5
v -6 0 10
v -6 0 9
v -6 0 -5
v -6 0 -6
v -6 1 10
v -6 1 9
v -6 1 -5
v -6 1 -6
v -6 7 9
v -6 7 -5
v -6 8 10
v -6 8 9
v -6 8 -5
v -6 8 -6
v -6 9 10
v -6 9 9
v -6 9 -5
v -6 9 -6
v -5 0 -6
v -5 0 -7
v -5 1 -6
v -5 1 -7
v -5 7 -6
v -5 7 -7
v -5 8 -6
v -5 8 -7
v -5 9 10
v -5 9 -6
v -5 10 10
v -5 10 -6
v -4 0 -7
v -4 0 -8
v -4 1 -7
v -4 1 -8
v -4 7 -7
v -4 7 -8
v -2 7 -7
v -2 7 -8
v -2 8 -7
v -2 8 -8
v -2 10 9
v -2 10 -5
v -2 11 9
v -2 11 -5
v -1 4 -9
v -1 4 -10
v -1 6 -8
v -1 6 -9
v -1 7 -8
v -1 7 -9
v -1 7 -10
v -1 8 -8
v -1 8 -9
v 1 4 -9
v 1 4 -10
v 1 6 -8
v 1 6 -9
v 1 7 -8
v 1 7 -9
v 1 7 -10
v 1 8 -8
v 1 8 -9
v 2 7 -7
v 2 7 -8
v 2 8 -7
v 2 8 -8
v 2 10 9
v 2 10 -5
v 2 11 9
v 2 11 -5
v 4 0 -7
v 4 0 -8
v 4 1 -7
v 4 1 -8
v 4 7 -7
v 4 7 -8
v 5 0 -6
v 5 0 -7
v 5 1 -6
v 5 1 -7
v 5 7 -6
v 5 7 -7
v 5 8 -6
v 5 8 -7
v 5 9 10
v 5 9 -6
v 5 10 10
v 5 10 -6
v 6 0 10
v 6 0 9
v 6 0 -5
v 6 0 -6
v 6 1 10
v 6 1 9
v 6 1 -5
v 6 1 -6
v 6 7 9
v 6 7 -5
v 6 8 10
v 6 8 9
v 6 8 -5
v 6 8 -6
v 6 9 10
v 6 9 9
v 6 9 -5
v 6 9 -6
v 7 0 9
v 7 0 -5
v 7 1 9
v 7 1 -5
v 7 4 3
v 7 4 -1
v 7 5 6
v 7 5 3
v 7 5 -1
v 7 5 -3
v 7 6 8
v 7 6 6
v 7 6 -3
v 7 6 -4
v 7 7 9
v 7 7 8
v 7 7 -4
v 7 7 -5
v 7 9 9
v 7 9 -5
v -6 0 10
v -6 1 10
v -6 8 10
v -6 9 10
v -5 8 10
v -5 9 10
v -5 10 10
v 5 8 10
v 5 9 10
v 5 10 10
v 6 0 10
v 6 1 10
v 6 8 10
v 6 9 10
v -7 0 9
v -7 1 9
v -7 7 9
v -7 9 9
v -6 0 9
v -6 1 9
v -6 7 9
v -6 8 9
v -6 9 9
v -2 10 9
v -2 11 9
v 2 10 9
v 2 11 9
v 6 0 9
v 6 1 9
v 6 7 9
v 6 8 9
v 6 9 9
v 7 0 9
v 7 1 9
v 7 7 9
v 7 9 9
v -1 4 -9
v -1 6 -9
v 1 4 -9
v 1 6 -9
v -7 0 -5
v -7 1 -5
v -7 7 -5
v -7 9 -5
v -6 0 -5
v -6 1 -5
v -6 7 -5
v -6 8 -5
v -6 9 -5
v -2 10 -5
v -2 11 -5
v 2 10 -5
v 2 11 -5
v 6 0 -5
v 6 1 -5
v 6 7 -5
v 6 8 -5
v 6 9 -5
v 7 0 -5
v 7 1 -5
v 7 7 -5
v 7 9 -5
v -6 0 -6
v -6 1 -6
v -6 8 -6
v -6 9 -6
v -5 0 -6
v -5 1 -6
v -5 7 -6
v -5 8 -6
v -5 9 -6
v -5 10 -6
v 5 0 -6
v 5 1 -6
v 5 7 -6
v 5 8 -6
v 5 9 -6
v 5 10 -6
v 6 0 -6
v 6 1 -6
v 6 8 -6
v 6 9 -6
v -5 0 -7
v -5 1 -7
v -5 7 -7
v -5 8 -7
v -4 0 -7
v -4 1 -7
v -4 7 -7
v -2 7 -7
v -2 8 -7
v 2 7 -7
v 2 8 -7
v 4 0 -7
v 4 1 -7
v 4 7 -7
v 5 0 -7
v 5 1 -7
v 5 7 -7
v 5 8 -7
v -4 0 -8
v -4 1 -8
v -4 7 -8
v -2 7 -8
v -2 8 -8
v -1 6 -8
v -1 7 -8
v -1 8 -8
v 1 6 -8
v 1 7 -8
v 1 8 -8
v 2 7 -8
v 2 8 -8
v 4 0 -8
v 4 1 -8
v 4 7 -8
v -1 7 -9
v -1 8 -9
v 1 7 -9
v 1 8 -9
v -1 4 -10
v -1 7 -10
v 1 4 -10
v 1 7 -10
v -6 0 10
v 6 0 10
v -7 0 9
v -6 0 9
v 6 0 9
v 7 0 9
v -7 0 -5
v -6 0 -5
v 6 0 -5
v 7 0 -5
v -6 0 -6
v -5 0 -6
v 5 0 -6
v 6 0 -6
v -5 0 -7
v -4 0 -7
v 4 0 -7
v 5 0 -7
v -4 0 -8
v 4 0 -8
v -1 4 -9
v 1 4 -9
v -1 4 -10
v 1 4 -10
v -1 6 -8
v 1 6 -8
v -1 6 -9
v 1 6 -9
v -4 7 -7
v -2 7 -7
v 2 7 -7
v 4 7 -7
v -4 7 -8
v -2 7 -8
v 2 7 -8
v 4 7 -8
v -1 7 -9
v 1 7 -9
v -1 7 -10
v 1 7 -10
v -5 8 -6
v 5 8 -6
v -5 8 -7
v -2 8 -7
v 2 8 -7
v 5 8 -7
v -2 8 -8
v -1 8 -8
v 1 8 -8
v 2 8 -8
v -1 8 -9
v 1 8 -9
v -6 9 10
v -5 9 10
v 5 9 10
v 6 9 10
v -7 9 9
v -6 9 9
v 6 9 9
v 7 9 9
v -7 9 -5
v -6 9 -5
v 6 9 -5
v 7 9 -5
v -6 9 -6
v -5 9 -6
v 5 9 -6
v 6 9 -6
v -5 10 10
v 5 10 10
v -2 10 9
v 2 10 9
v -2 10 -5
v 2 10 -5
v -5 10 -6
v 5 10 -6
v -2 11 9
v 2 11 9
v -2 11 -5
v 2 11 -5

# faces
f 3/4/1 2/4/1 1/4/1
f 4/4/1 2/4/1 3/4/1
f 5/2/1 4/2/1 3/2/1
f 6/2/1 4/2/1 5/2/1
f 7/2/1 5/2/1 3/2/1
f 8/1/1 6/1/1 5/1/1
f 8/2/1 5/2/1 7/2/1
f 9/2/1 4/2/1 6/2/1
f 9/1/1 6/1/1 8/1/1
f 10/2/1 4/2/1 9/2/1
f 11/2/1 7/2/1 3/2/1
f 12/1/1 8/1/1 7/1/1
f 12/2/1 7/2/1 11/2/1
f 12/1/1 9/1/1 8/1/1
f 12/1/1 10/1/1 9/1/1
f 13/2/1 4/2/1 10/2/1
f 13/1/1 10/1/1 12/1/1
f 14/2/1 4/2/1 13/2/1
f 15/2/1 11/2/1 3/2/1
f 16/1/1 12/1/1 11/1/1
f 16/2/1 11/2/1 15/2/1
f 16/1/1 13/1/1 12/1/1
f 16/1/1 14/1/1 13/1/1
f 17/2/1 4/2/1 14/2/1
f 17/1/1 14/1/1 16/1/1
f 18/2/1 4/2/1 17/2/1
f 19/1/1 16/1/1 15/1/1
f 19/1/1 17/1/1 16/1/1
f 19/1/1 18/1/1 17/1/1
f 20/1/1 18/1/1 19/1/1
f 25/4/1 22/4/1 21/4/1
f 26/4/1 22/4/1 25/4/1
f 27/4/1 24/4/1 23/4/1
f 28/4/1 24/4/1 27/4/1
f 29/2/1 26/2/1 25/2/1
f 30/2/1 28/2/1 27/2/1
f 31/2/1 29/2/1 25/2/1
f 32/2/1 29/2/1 31/2/1
f 33/2/1 28/2/1 30/2/1
f 34/2/1 28/2/1 33/2/1
f 35/1/1 32/1/1 31/1/1
f 36/1/1 32/1/1 35/1/1
f 37/1/1 34/1/1 33/1/1
f 38/1/1 34/1/1 37/1/1
f 41/4/1 40/4/1 39/4/1
f 42/4/1 40/4/1 41/4/1
f 43/2/1 42/2/1 41/2/1
f 44/2/1 42/2/1 43/2/1
f 45/1/1 44/1/1 43/1/1
f 46/1/1 44/1/1 45/1/1
f 49/1/1 48/1/1 47/1/1
f 50/1/1 48/1/1 49/1/1
f 53/4/1 52/4/1 51/4/1
f 54/4/1 52/4/1 53/4/1
f 55/2/1 54/2/1 53/2/1
f 56/2/1 54/2/1 55/2/1
f 59/1/1 58/1/1 57/1/1
f 60/1/1 58/1/1 59/1/1
f 63/1/1 62/1/1 61/1/1
f 64/1/1 62/1/1 63/1/1
f 68/3/1 66/3/1 65/3/1
f 69/3/1 68/3/1 67/3/1
f 70/3/1 66/3/1 68/3/1
f 70/3/1 68/3/1 69/3/1
f 71/3/1 66/3/1 70/3/1
f 72/3/1 70/3/1 69/3/1
f 73/3/1 70/3/1 72/3/1
f 74/3/2 75/3/2 77/3/2
f 76/3/2 77/3/2 78/3/2
f 77/3/2 75/3/2 79/3/2
f 78/3/2 77/3/2 79/3/2
f 79/3/2 75/3/2 80/3/2
f 78/3/2 79/3/2 81/3/2
f 81/3/2 79/3/2 82/3/2
f 83/1/2 84/1/2 85/1/2
f 85/1/2 84/1/2 86/1/2
f 87/1/2 88/1/2 89/1/2
f 89/1/2 88/1/2 90/1/2
f 91/4/2 92/4/2 93/4/2
f 93/4/2 92/4/2 94/4/2
f 93/2/2 94/2/2 95/2/2
f 95/2/2 94/2/2 96/2/2
f 97/4/2 98/4/2 99/4/2
f 99/4/2 98/4/2 100/4/2
f 99/2/2 100/2/2 101/2/2
f 101/2/2 100/2/2 102/2/2
f 101/1/2 102/1/2 103/1/2
f 103/1/2 102/1/2 104/1/2
f 105/1/2 106/1/2 107/1/2
f 107/1/2 106/1/2 108/1/2
f 109/4/2 110/4/2 113/4/2
f 113/4/2 110/4/2 114/4/2
f 111/4/2 112/4/2 115/4/2
f 115/4/2 112/4/2 116/4/2
f 113/2/2 114/2/2 117/2/2
f 115/2/2 116/2/2 118/2/2
f 113/2/2 117/2/2 119/2/2
f 119/2/2 117/2/2 120/2/2
f 118/2/2 116/2/2 121/2/2
f 121/2/2 116/2/2 122/2/2
f 119/1/2 120/1/2 123/1/2
f 123/1/2 120/1/2 124/1/2
f 121/1/2 122/1/2 125/1/2
f 125/1/2 122/1/2 126/1/2
f 127/4/2 128/4/2 129/4/2
f 129/4/2 128/4/2 130/4/2
f 129/2/2 130/2/2 131/2/2
f 131/2/2 130/2/2 132/2/2
f 129/2/2 131/2/2 133/2/2
f 131/1/2 132/1/2 134/1/2
f 133/2/2 131/2/2 134/2/2
f 132/2/2 130/2/2 135/2/2
f 134/1/2 132/1/2 135/1/2
f 135/2/2 130/2/2 136/2/2
f 129/2/2 133/2/2 137/2/2
f 133/1/2 134/1/2 138/1/2
f 137/2/2 133/2/2 138/2/2
f 134/1/2 135/1/2 138/1/2
f 135/1/2 136/1/2 138/1/2
f 136/2/2 130/2/2 139/2/2
f 138/1/2 136/1/2 139/1/2
f 139/2/2 130/2/2 140/2/2
f 129/2/2 137/2/2 141/2/2
f 137/1/2 138/1/2 142/1/2
f 141/2/2 137/2/2 142/2/2
f 138/1/2 139/1/2 142/1/2
f 139/1/2 140/1/2 142/1/2
f 140/2/2 130/2/2 143/2/2
f 142/1/2 140/1/2 143/1/2
f 143/2/2 130/2/2 144/2/2
f 141/1/2 142/1/2 145/1/2
f 142/1/2 143/1/2 145/1/2
f 143/1/2 144/1/2 145/1/2
f 145/1/2 144/1/2 146/1/2
f 151/2/3 149/2/3 148/2/3
f 151/1/3 150/1/3 149/1/3
f 152/1/3 150/1/3 151/1/3
f 154/2/3 151/2/3 148/2/3
f 154/2/3 152/2/3 151/2/3
f 155/1/3 153/1/3 152/1/3
f 155/2/3 152/2/3 154/2/3
f 156/1/3 153/1/3 155/1/3
f 157/4/3 148/4/3 147/4/3
f 158/2/3 154/2/3 148/2/3
f 158/4/3 148/4/3 157/4/3
f 159/1/3 155/1/3 154/1/3
f 159/2/3 154/2/3 158/2/3
f 160/1/3 155/1/3 159/1/3
f 165/4/3 162/4/3 161/4/3
f 166/2/3 163/2/3 162/2/3
f 166/4/3 162/4/3 165/4/3
f 167/1/3 164/1/3 163/1/3
f 167/2/3 163/2/3 166/2/3
f 168/1/3 164/1/3 167/1/3
f 169/1/3 164/1/3 168/1/3
f 172/1/3 171/1/3 170/1/3
f 173/1/3 171/1/3 172/1/3
f 179/4/3 175/4/3 174/4/3
f 180/2/3 176/2/3 175/2/3
f 180/4/3 175/4/3 179/4/3
f 181/1/3 178/1/3 177/1/3
f 181/2/3 176/2/3 180/2/3
f 181/1/3 177/1/3 176/1/3
f 182/1/3 178/1/3 181/1/3
f 185/3/3 184/3/3 183/3/3
f 186/3/3 184/3/3 185/3/3
f 187/4/4 188/4/4 191/4/4
f 188/2/4 189/2/4 192/2/4
f 191/4/4 188/4/4 192/4/4
f 189/1/4 190/1/4 193/1/4
f 192/2/4 189/2/4 193/2/4
f 193/1/4 190/1/4 194/1/4
f 194/1/4 190/1/4 195/1/4
f 196/1/4 197/1/4 198/1/4
f 198/1/4 197/1/4 199/1/4
f 200/4/4 201/4/4 205/4/4
f 201/2/4 202/2/4 206/2/4
f 205/4/4 201/4/4 206/4/4
f 203/1/4 204/1/4 207/1/4
f 206/2/4 202/2/4 207/2/4
f 202/1/4 203/1/4 207/1/4
f 207/1/4 204/1/4 208/1/4
f 209/4/4 210/4/4 213/4/4
f 210/2/4 211/2/4 214/2/4
f 213/4/4 210/4/4 214/4/4
f 214/2/4 211/2/4 215/2/4
f 211/1/4 212/1/4 216/1/4
f 215/2/4 211/2/4 216/2/4
f 216/1/4 212/1/4 217/1/4
f 217/1/4 218/1/4 222/1/4
f 216/1/4 217/1/4 222/1/4
f 222/1/4 218/1/4 223/1/4
f 223/1/4 218/1/4 224/1/4
f 219/4/4 220/4/4 225/4/4
f 220/2/4 221/2/4 226/2/4
f 225/4/4 220/4/4 226/4/4
f 221/2/4 222/2/4 226/2/4
f 222/1/4 223/1/4 227/1/4
f 226/2/4 222/2/4 227/2/4
f 227/1/4 223/1/4 228/1/4
f 229/4/4 230/4/4 233/4/4
f 230/2/4 231/2/4 234/2/4
f 233/4/4 230/4/4 234/4/4
f 231/1/4 232/1/4 235/1/4
f 234/2/4 231/2/4 235/2/4
f 235/1/4 232/1/4 236/1/4
f 236/1/4 232/1/4 237/1/4
f 238/1/4 239/1/4 242/1/4
f 240/4/4 241/4/4 243/4/4
f 241/2/4 242/2/4 244/2/4
f 243/4/4 241/4/4 244/4/4
f 242/1/4 239/1/4 245/1/4
f 244/2/4 242/2/4 245/2/4
f 245/1/4 239/1/4 246/1/4
f 248/2/4 249/2/4 250/2/4
f 248/2/4 250/2/4 252/2/4
f 250/1/4 251/1/4 253/1/4
f 252/2/4 250/2/4 253/2/4
f 253/1/4 251/1/4 254/1/4
f 248/2/4 252/2/4 255/2/4
f 255/2/4 256/2/4 258/2/4
f 256/1/4 257/1/4 258/1/4
f 258/1/4 257/1/4 259/1/4
f 247/4/4 248/4/4 260/4/4
f 248/2/4 255/2/4 261/2/4
f 260/4/4 248/4/4 261/4/4
f 255/2/4 258/2/4 261/2/4
f 261/2/4 258/2/4 262/2/4
f 263/3/4 264/3/4 265/3/4
f 265/3/4 264/3/4 266/3/4
f 267/3/4 268/3/4 269/3/4
f 269/3/4 268/3/4 270/3/4
f 274/4/5 272/4/5 271/4/5
f 275/4/5 272/4/5 274/4/5
f 277/4/5 274/4/5 273/4/5
f 277/4/5 276/4/5 275/4/5
f 277/4/5 275/4/5 274/4/5
f 278/4/5 276/4/5 277/4/5
f 279/4/5 276/4/5 278/4/5
f 280/4/5 276/4/5 279/4/5
f 281/4/5 279/4/5 278/4/5
f 282/4/5 279/4/5 281/4/5
f 283/4/5 279/4/5 282/4/5
f 284/4/5 279/4/5 283/4/5
f 285/4/5 283/4/5 282/4/5
f 286/4/5 283/4/5 285/4/5
f 287/4/5 283/4/5 286/4/5
f 288/4/5 283/4/5 287/4/5
f 289/4/5 287/4/5 286/4/5
f 290/4/5 287/4/5 289/4/5
f 293/3/5 292/3/5 291/3/5
f 294/3/5 292/3/5 293/3/5
f 297/3/5 296/3/5 295/3/5
f 298/3/5 296/3/5 297/3/5
f 299/2/6 300/2/6 303/2/6
f 303/2/6 300/2/6 304/2/6
f 301/2/6 302/2/6 305/2/6
f 305/2/6 302/2/6 306/2/6
f 307/3/6 308/3/6 309/3/6
f 309/3/6 308/3/6 310/3/6
f 311/1/6 312/1/6 313/1/6
f 313/1/6 312/1/6 314/1/6
f 314/1/6 312/1/6 315/1/6
f 315/1/6 312/1/6 316/1/6
f 314/1/6 315/1/6 317/1/6
f 317/1/6 315/1/6 318/1/6
f 318/1/6 315/1/6 319/1/6
f 319/1/6 315/1/6 320/1/6
f 318/3/6 319/3/6 321/3/6
f 321/3/6 319/3/6 322/3/6
f 323/1/6 324/1/6 328/1/6
f 325/1/6 326/1/6 329/1/6
f 327/1/6 328/1/6 331/1/6
f 328/1/6 324/1/6 332/1/6
f 331/1/6 328/1/6 332/1/6
f 329/1/6 330/1/6 333/1/6
f 325/1/6 329/1/6 333/1/6
f 333/1/6 330/1/6 334/1/6
f 332/1/6 324/1/6 335/1/6
f 335/1/6 324/1/6 336/1/6
f 325/1/6 333/1/6 337/1/6
f 337/1/6 333/1/6 338/1/6
f 339/1/6 340/1/6 341/1/6
f 341/1/6 340/1/6 342/1/6
f 339/1/6 341/1/6 343/1/6
f 342/1/6 340/1/6 344/1/6
f 339/1/6 343/1/6 345/1/6
f 343/1/6 344/1/6 345/1/6
f 344/1/6 340/1/6 346/1/6
f 345/1/6 344/1/6 346/1/6
f 347/1/6 348/1/6 349/1/6
f 349/1/6 348/1/6 350/1/6
