# 3ds Max Wavefront OBJ Exporter v0.97b - (c)2007 guruware
# File Created: 30.01.2016 11:11:40

#
# object default
#

v  -1.9972 3.5514 0.5000
v  -1.9972 2.5514 -0.5000
v  -1.9972 2.5514 0.5000
v  -1.9972 3.5514 -0.5000
v  -0.9972 5.5514 0.5000
v  -0.9972 4.5514 -0.5000
v  -0.9972 4.5514 0.5000
v  -0.9972 5.5514 -0.5000
v  -0.9972 7.5514 0.5000
v  -0.9972 6.5514 -0.5000
v  -0.9972 6.5514 0.5000
v  -0.9972 7.5514 -0.5000
v  -0.9972 9.5514 0.5000
v  -0.9972 8.5514 -0.5000
v  -0.9972 8.5514 0.5000
v  -0.9972 9.5514 -0.5000
v  0.0028 -0.4486 -1.5000
v  0.0028 -1.4486 -1.5000
v  0.0028 -1.4486 2.5000
v  0.0028 2.5514 2.5000
v  0.0028 -0.4486 -2.5000
v  0.0028 2.5514 1.5000
v  0.0028 2.5514 0.5000
v  0.0028 2.5514 -0.5000
v  0.0028 2.5514 -1.5000
v  0.0028 2.5514 -2.5000
v  0.0028 3.5514 1.5000
v  0.0028 3.5514 0.5000
v  0.0028 3.5514 -0.5000
v  0.0028 3.5514 -1.5000
v  0.0028 4.5514 0.5000
v  0.0028 4.5514 -0.5000
v  0.0028 6.5514 0.5000
v  0.0028 5.5514 -0.5000
v  0.0028 5.5514 0.5000
v  0.0028 6.5514 -0.5000
v  0.0028 8.5514 0.5000
v  0.0028 7.5514 -0.5000
v  0.0028 7.5514 0.5000
v  0.0028 8.5514 -0.5000
v  0.0028 10.5514 0.5000
v  0.0028 9.5514 -0.5000
v  0.0028 9.5514 0.5000
v  0.0028 10.5514 -0.5000
v  1.0028 3.5514 1.5000
v  1.0028 2.5514 1.5000
v  1.0028 2.5514 2.5000
v  1.0028 3.5514 -1.5000
v  1.0028 2.5514 -2.5000
v  1.0028 2.5514 -1.5000
v  1.0028 8.5514 2.5000
v  1.0028 3.5514 0.5000
v  1.0028 8.5514 1.5000
v  1.0028 8.5514 -1.5000
v  1.0028 3.5514 -0.5000
v  1.0028 8.5514 -2.5000
v  1.0028 9.5514 1.5000
v  1.0028 9.5514 0.5000
v  1.0028 9.5514 -0.5000
v  1.0028 9.5514 -1.5000
v  1.0028 11.5514 2.5000
v  1.0028 11.5514 1.5000
v  1.0028 11.5514 -1.5000
v  1.0028 11.5514 -2.5000
v  2.0028 10.5514 0.5000
v  2.0028 9.5514 -0.5000
v  2.0028 9.5514 0.5000
v  2.0028 10.5514 -0.5000
v  1.0028 10.5514 0.5000
v  1.0028 10.5514 -0.5000
v  2.0028 8.5514 2.5000
v  2.0028 8.5514 1.5000
v  2.0028 9.5514 1.5000
v  2.0028 8.5514 -1.5000
v  2.0028 8.5514 -2.5000
v  2.0028 9.5514 -1.5000
v  2.0028 11.5514 2.5000
v  2.0028 11.5514 1.5000
v  2.0028 11.5514 -1.5000
v  2.0028 11.5514 -2.5000
v  3.0028 9.5514 0.5000
v  3.0028 9.5514 -0.5000
v  3.0028 10.5514 0.5000
v  3.0028 10.5514 -0.5000
v  4.0028 -1.4486 2.5000
v  4.0028 -1.4486 1.5000
v  4.0028 -0.4486 2.5000
v  4.0028 -0.4486 1.5000
v  5.0028 -1.4486 1.5000
v  5.0028 -1.4486 -1.5000
v  5.0028 -0.4486 1.5000
v  5.0028 -0.4486 0.5000
v  5.0028 -0.4486 -0.5000
v  5.0028 -0.4486 -1.5000
v  5.0028 -0.4486 2.5000
v  5.0028 0.5514 1.5000
v  5.0028 0.5514 0.5000
v  5.0028 0.5514 -0.5000
v  5.0028 -0.4486 -2.5000
v  5.0028 0.5514 -1.5000
v  5.0028 1.5514 0.5000
v  5.0028 1.5514 -0.5000
v  5.0028 2.5514 0.5000
v  5.0028 2.5514 -0.5000
v  5.0028 3.5514 0.5000
v  5.0028 3.5514 -0.5000
v  5.0028 4.5514 1.5000
v  5.0028 4.5514 -1.5000
v  5.0028 5.5514 1.5000
v  5.0028 5.5514 -1.5000
v  5.0028 6.5514 1.5000
v  5.0028 6.5514 -1.5000
v  5.0028 7.5514 2.5000
v  5.0028 7.5514 1.5000
v  5.0028 7.5514 -1.5000
v  5.0028 7.5514 -2.5000
v  5.0028 8.5514 2.5000
v  5.0028 8.5514 1.5000
v  5.0028 8.5514 -1.5000
v  5.0028 8.5514 -2.5000
v  5.0028 9.5514 1.5000
v  5.0028 9.5514 -1.5000
v  8.0028 4.5514 1.5000
v  8.0028 4.5514 -1.5000
v  8.0028 5.5514 1.5000
v  8.0028 5.5514 -1.5000
v  8.0028 6.5514 1.5000
v  8.0028 6.5514 -1.5000
v  9.0028 6.5514 1.5000
v  9.0028 6.5514 -1.5000
v  9.0028 7.5514 1.5000
v  9.0028 7.5514 0.5000
v  9.0028 7.5514 -0.5000
v  9.0028 7.5514 -1.5000
v  9.0028 8.5514 1.5000
v  9.0028 8.5514 0.5000
v  9.0028 8.5514 -0.5000
v  9.0028 8.5514 -1.5000
v  3.0028 7.5514 2.5000
v  3.0028 8.5514 2.5000
v  4.0028 7.5514 2.5000
v  4.0028 8.5514 2.5000
v  3.0028 8.5514 1.5000
v  4.0028 8.5514 1.5000
v  8.0028 7.5514 1.5000
v  8.0028 8.5514 1.5000
v  -0.9972 2.5514 0.5000
v  -0.9972 3.5514 0.5000
v  -0.9972 2.5514 -0.5000
v  -0.9972 3.5514 -0.5000
v  3.0028 8.5514 -1.5000
v  4.0028 -1.4486 -1.5000
v  4.0028 -0.4486 -1.5000
v  4.0028 8.5514 -1.5000
v  8.0028 7.5514 -1.5000
v  8.0028 8.5514 -1.5000
v  3.0028 7.5514 -2.5000
v  3.0028 8.5514 -2.5000
v  4.0028 7.5514 -2.5000
v  4.0028 8.5514 -2.5000
v  8.0028 8.5514 0.5000
v  8.0028 8.5514 -0.5000
# 162 vertices

vn -1.0000 0.0000 -0.0000
vn 1.0000 0.0000 -0.0000
vn 0.0000 0.0000 1.0000
vn 0.0000 0.0000 -1.0000
vn 0.0000 -1.0000 -0.0000
vn 0.0000 1.0000 -0.0000
# 6 vertex normals

vt 0.0059 0.5000 0.0000
vt 0.2207 0.5000 0.0000
vt 0.0176 0.5000 0.0000
vt 0.2324 0.5000 0.0000
vt 0.2520 0.5000 0.0000
vt 0.2793 0.5000 0.0000
vt 0.2363 0.5000 0.0000
vt 0.0020 0.5000 0.0000
vt 0.2441 0.5000 0.0000
# 9 texture coords

g default
s 1
f 1/1/1 2/1/1 3/1/1 
f 4/1/1 2/1/1 1/1/1 
f 5/1/1 6/1/1 7/1/1 
f 8/1/1 6/1/1 5/1/1 
f 9/1/1 10/1/1 11/1/1 
f 12/1/1 10/1/1 9/1/1 
f 13/1/1 14/1/1 15/1/1 
f 16/1/1 14/1/1 13/1/1 
f 17/2/1 18/2/1 19/2/1 
f 20/2/1 17/2/1 19/2/1 
f 20/2/1 21/2/1 17/2/1 
f 22/2/1 21/2/1 20/2/1 
f 23/2/1 21/2/1 22/2/1 
f 24/2/1 21/2/1 23/2/1 
f 25/2/1 21/2/1 24/2/1 
f 26/2/1 21/2/1 25/2/1 
f 27/3/1 23/3/1 22/3/1 
f 28/3/1 23/3/1 27/3/1 
f 29/3/1 25/3/1 24/3/1 
f 30/3/1 25/3/1 29/3/1 
f 31/3/1 29/3/1 28/3/1 
f 32/3/1 29/3/1 31/3/1 
f 33/3/1 34/3/1 35/3/1 
f 36/3/1 34/3/1 33/3/1 
f 37/3/1 38/3/1 39/3/1 
f 40/3/1 38/3/1 37/3/1 
f 41/1/1 42/1/1 43/1/1 
f 44/1/1 42/1/1 41/1/1 
f 45/2/1 46/2/1 47/2/1 
f 48/2/1 49/2/1 50/2/1 
f 51/2/1 52/2/1 45/2/1 
f 51/2/1 45/2/1 47/2/1 
f 53/2/1 52/2/1 51/2/1 
f 54/2/1 48/2/1 55/2/1 
f 54/2/1 49/2/1 48/2/1 
f 56/2/1 49/2/1 54/2/1 
f 57/2/1 52/2/1 53/2/1 
f 57/4/1 53/4/1 51/4/1 
f 58/2/1 52/2/1 57/2/1 
f 59/2/1 54/2/1 55/2/1 
f 60/4/1 56/4/1 54/4/1 
f 60/2/1 54/2/1 59/2/1 
f 61/4/1 57/4/1 51/4/1 
f 62/4/1 57/4/1 61/4/1 
f 63/4/1 56/4/1 60/4/1 
f 64/4/1 56/4/1 63/4/1 
f 65/1/1 66/1/1 67/1/1 
f 68/1/1 66/1/1 65/1/1 
f 58/1/2 59/1/2 69/1/2 
f 69/1/2 59/1/2 70/1/2 
f 71/4/2 72/4/2 73/4/2 
f 74/4/2 75/4/2 76/4/2 
f 71/4/2 73/4/2 77/4/2 
f 77/4/2 73/4/2 78/4/2 
f 76/4/2 75/4/2 79/4/2 
f 79/4/2 75/4/2 80/4/2 
f 81/1/2 82/1/2 83/1/2 
f 83/1/2 82/1/2 84/1/2 
f 85/2/2 86/2/2 87/2/2 
f 87/2/2 86/2/2 88/2/2 
f 89/5/2 90/5/2 91/5/2 
f 91/5/2 90/5/2 92/5/2 
f 92/5/2 90/5/2 93/5/2 
f 93/5/2 90/5/2 94/5/2 
f 95/2/2 91/2/2 96/2/2 
f 91/5/2 92/5/2 96/5/2 
f 92/2/2 93/2/2 97/2/2 
f 96/5/2 92/5/2 97/5/2 
f 93/5/2 94/5/2 98/5/2 
f 97/2/2 93/2/2 98/2/2 
f 94/2/2 99/2/2 100/2/2 
f 98/5/2 94/5/2 100/5/2 
f 97/5/2 98/5/2 101/5/2 
f 96/2/2 97/2/2 101/2/2 
f 98/2/2 100/2/2 102/2/2 
f 101/5/2 98/5/2 102/5/2 
f 96/2/2 101/2/2 103/2/2 
f 101/2/2 102/2/2 103/2/2 
f 102/2/2 100/2/2 104/2/2 
f 103/2/2 102/2/2 104/2/2 
f 96/2/2 103/2/2 105/2/2 
f 103/5/2 104/5/2 105/5/2 
f 104/2/2 100/2/2 106/2/2 
f 105/5/2 104/5/2 106/5/2 
f 96/2/2 105/2/2 107/2/2 
f 95/2/2 96/2/2 107/2/2 
f 105/2/2 106/2/2 107/2/2 
f 100/2/2 99/2/2 108/2/2 
f 107/2/2 106/2/2 108/2/2 
f 106/2/2 100/2/2 108/2/2 
f 95/2/2 107/2/2 109/2/2 
f 108/2/2 99/2/2 110/2/2 
f 95/2/2 109/2/2 111/2/2 
f 110/2/2 99/2/2 112/2/2 
f 95/2/2 111/2/2 113/2/2 
f 113/2/2 111/2/2 114/2/2 
f 112/2/2 99/2/2 115/2/2 
f 115/2/2 99/2/2 116/2/2 
f 113/6/2 114/6/2 117/6/2 
f 117/6/2 114/6/2 118/6/2 
f 115/6/2 116/6/2 119/6/2 
f 119/6/2 116/6/2 120/6/2 
f 118/2/2 119/2/2 121/2/2 
f 121/2/2 119/2/2 122/2/2 
f 123/7/2 124/7/2 125/7/2 
f 125/7/2 124/7/2 126/7/2 
f 125/8/2 126/8/2 127/8/2 
f 127/8/2 126/8/2 128/8/2 
f 129/7/2 130/7/2 131/7/2 
f 131/7/2 130/7/2 132/7/2 
f 132/7/2 130/7/2 133/7/2 
f 133/7/2 130/7/2 134/7/2 
f 131/9/2 132/9/2 135/9/2 
f 132/7/2 133/7/2 136/7/2 
f 135/9/2 132/9/2 136/9/2 
f 133/9/2 134/9/2 137/9/2 
f 136/7/2 133/7/2 137/7/2 
f 137/9/2 134/9/2 138/9/2 
f 47/2/3 20/2/3 19/2/3 
f 71/2/3 51/2/3 47/2/3 
f 71/4/3 61/4/3 51/4/3 
f 77/4/3 61/4/3 71/4/3 
f 139/2/3 71/2/3 47/2/3 
f 140/2/3 71/2/3 139/2/3 
f 85/2/3 47/2/3 19/2/3 
f 85/2/3 139/2/3 47/2/3 
f 87/2/3 139/2/3 85/2/3 
f 141/8/3 140/8/3 139/8/3 
f 141/2/3 139/2/3 87/2/3 
f 142/8/3 140/8/3 141/8/3 
f 95/2/3 141/2/3 87/2/3 
f 113/6/3 142/6/3 141/6/3 
f 113/2/3 141/2/3 95/2/3 
f 117/6/3 142/6/3 113/6/3 
f 46/3/3 27/3/3 22/3/3 
f 45/3/3 27/3/3 46/3/3 
f 143/2/3 73/2/3 72/2/3 
f 144/2/3 73/2/3 143/2/3 
f 89/5/3 88/5/3 86/5/3 
f 91/5/3 88/5/3 89/5/3 
f 118/2/3 73/2/3 144/2/3 
f 121/2/3 73/2/3 118/2/3 
f 123/7/3 109/7/3 107/7/3 
f 125/8/3 111/8/3 109/8/3 
f 125/7/3 109/7/3 123/7/3 
f 127/7/3 114/7/3 111/7/3 
f 127/8/3 111/8/3 125/8/3 
f 127/7/3 118/7/3 114/7/3 
f 145/7/3 118/7/3 127/7/3 
f 146/7/3 118/7/3 145/7/3 
f 129/7/3 145/7/3 127/7/3 
f 131/9/3 146/9/3 145/9/3 
f 131/7/3 145/7/3 129/7/3 
f 135/9/3 146/9/3 131/9/3 
f 147/1/3 1/1/3 3/1/3 
f 148/1/3 1/1/3 147/1/3 
f 23/3/3 148/3/3 147/3/3 
f 28/3/3 148/3/3 23/3/3 
f 31/1/3 5/1/3 7/1/3 
f 35/1/3 5/1/3 31/1/3 
f 33/1/3 9/1/3 11/1/3 
f 39/1/3 9/1/3 33/1/3 
f 37/1/3 13/1/3 15/1/3 
f 43/1/3 13/1/3 37/1/3 
f 52/3/3 39/3/3 33/3/3 
f 52/3/3 43/3/3 37/3/3 
f 52/3/3 37/3/3 39/3/3 
f 52/3/3 35/3/3 31/3/3 
f 52/3/3 33/3/3 35/3/3 
f 52/3/3 31/3/3 28/3/3 
f 58/1/3 41/1/3 43/1/3 
f 58/3/3 43/3/3 52/3/3 
f 69/1/3 41/1/3 58/1/3 
f 81/1/3 65/1/3 67/1/3 
f 83/1/3 65/1/3 81/1/3 
f 76/4/3 63/4/3 60/4/3 
f 79/4/3 63/4/3 76/4/3 
f 57/4/4 62/4/4 73/4/4 
f 73/4/4 62/4/4 78/4/4 
f 2/1/4 4/1/4 149/1/4 
f 149/1/4 4/1/4 150/1/4 
f 149/3/4 150/3/4 24/3/4 
f 24/3/4 150/3/4 29/3/4 
f 6/1/4 8/1/4 32/1/4 
f 32/1/4 8/1/4 34/1/4 
f 10/1/4 12/1/4 36/1/4 
f 36/1/4 12/1/4 38/1/4 
f 14/1/4 16/1/4 40/1/4 
f 40/1/4 16/1/4 42/1/4 
f 36/3/4 38/3/4 55/3/4 
f 40/3/4 42/3/4 55/3/4 
f 38/3/4 40/3/4 55/3/4 
f 32/3/4 34/3/4 55/3/4 
f 34/3/4 36/3/4 55/3/4 
f 29/3/4 32/3/4 55/3/4 
f 42/1/4 44/1/4 59/1/4 
f 55/3/4 42/3/4 59/3/4 
f 59/1/4 44/1/4 70/1/4 
f 66/1/4 68/1/4 82/1/4 
f 82/1/4 68/1/4 84/1/4 
f 25/3/4 30/3/4 50/3/4 
f 50/3/4 30/3/4 48/3/4 
f 74/2/4 76/2/4 151/2/4 
f 18/2/4 17/2/4 152/2/4 
f 152/2/4 17/2/4 153/2/4 
f 151/2/4 76/2/4 154/2/4 
f 152/5/4 153/5/4 90/5/4 
f 90/5/4 153/5/4 94/5/4 
f 154/2/4 76/2/4 119/2/4 
f 119/2/4 76/2/4 122/2/4 
f 108/7/4 110/7/4 124/7/4 
f 110/8/4 112/8/4 126/8/4 
f 124/7/4 110/7/4 126/7/4 
f 112/7/4 115/7/4 128/7/4 
f 126/8/4 112/8/4 128/8/4 
f 115/7/4 119/7/4 128/7/4 
f 128/7/4 119/7/4 155/7/4 
f 155/7/4 119/7/4 156/7/4 
f 128/7/4 155/7/4 130/7/4 
f 155/9/4 156/9/4 134/9/4 
f 130/7/4 155/7/4 134/7/4 
f 134/9/4 156/9/4 138/9/4 
f 21/2/4 26/2/4 49/2/4 
f 49/2/4 56/2/4 75/2/4 
f 56/4/4 64/4/4 75/4/4 
f 75/4/4 64/4/4 80/4/4 
f 49/2/4 75/2/4 157/2/4 
f 157/2/4 75/2/4 158/2/4 
f 49/2/4 157/2/4 159/2/4 
f 157/8/4 158/8/4 159/8/4 
f 159/8/4 158/8/4 160/8/4 
f 21/2/4 49/2/4 99/2/4 
f 49/2/4 159/2/4 99/2/4 
f 159/6/4 160/6/4 116/6/4 
f 99/2/4 159/2/4 116/2/4 
f 116/6/4 160/6/4 120/6/4 
f 86/2/5 85/2/5 19/2/5 
f 18/2/5 86/2/5 19/2/5 
f 152/5/5 89/5/5 86/5/5 
f 152/2/5 86/2/5 18/2/5 
f 90/5/5 89/5/5 152/5/5 
f 88/2/5 95/2/5 87/2/5 
f 91/2/5 95/2/5 88/2/5 
f 21/2/5 153/2/5 17/2/5 
f 21/2/5 94/2/5 153/2/5 
f 99/2/5 94/2/5 21/2/5 
f 2/1/5 147/1/5 3/1/5 
f 149/3/5 23/3/5 147/3/5 
f 149/1/5 147/1/5 2/1/5 
f 24/3/5 23/3/5 149/3/5 
f 6/1/5 31/1/5 7/1/5 
f 32/1/5 31/1/5 6/1/5 
f 108/7/5 123/7/5 107/7/5 
f 124/7/5 123/7/5 108/7/5 
f 10/1/5 33/1/5 11/1/5 
f 36/1/5 33/1/5 10/1/5 
f 128/7/5 129/7/5 127/7/5 
f 130/7/5 129/7/5 128/7/5 
f 14/1/5 37/1/5 15/1/5 
f 40/1/5 37/1/5 14/1/5 
f 20/2/6 47/2/6 22/2/6 
f 22/2/6 47/2/6 46/2/6 
f 25/2/6 50/2/6 26/2/6 
f 26/2/6 50/2/6 49/2/6 
f 27/3/6 45/3/6 28/3/6 
f 28/3/6 45/3/6 52/3/6 
f 1/1/6 148/1/6 4/1/6 
f 148/3/6 28/3/6 150/3/6 
f 4/1/6 148/1/6 150/1/6 
f 150/3/6 28/3/6 29/3/6 
f 29/3/6 55/3/6 30/3/6 
f 30/3/6 55/3/6 48/3/6 
f 5/1/6 35/1/6 8/1/6 
f 8/1/6 35/1/6 34/1/6 
f 9/1/6 39/1/6 12/1/6 
f 12/1/6 39/1/6 38/1/6 
f 71/2/6 140/2/6 72/2/6 
f 140/8/6 142/8/6 143/8/6 
f 72/2/6 140/2/6 143/2/6 
f 142/6/6 117/6/6 144/6/6 
f 143/8/6 142/8/6 144/8/6 
f 144/6/6 117/6/6 118/6/6 
f 146/9/6 135/9/6 161/9/6 
f 118/7/6 146/7/6 161/7/6 
f 161/9/6 135/9/6 136/9/6 
f 118/7/6 161/7/6 162/7/6 
f 161/7/6 136/7/6 162/7/6 
f 162/7/6 136/7/6 137/7/6 
f 118/7/6 162/7/6 119/7/6 
f 162/9/6 137/9/6 156/9/6 
f 119/7/6 162/7/6 156/7/6 
f 156/9/6 137/9/6 138/9/6 
f 74/2/6 151/2/6 75/2/6 
f 151/8/6 154/8/6 158/8/6 
f 75/2/6 151/2/6 158/2/6 
f 154/6/6 119/6/6 160/6/6 
f 158/8/6 154/8/6 160/8/6 
f 160/6/6 119/6/6 120/6/6 
f 57/2/6 73/2/6 58/2/6 
f 73/2/6 121/2/6 58/2/6 
f 58/2/6 121/2/6 67/2/6 
f 67/2/6 121/2/6 81/2/6 
f 13/1/6 43/1/6 16/1/6 
f 16/1/6 43/1/6 42/1/6 
f 58/2/6 67/2/6 59/2/6 
f 59/2/6 67/2/6 66/2/6 
f 81/2/6 121/2/6 82/2/6 
f 59/2/6 66/2/6 60/2/6 
f 66/2/6 82/2/6 60/2/6 
f 60/2/6 82/2/6 76/2/6 
f 82/2/6 121/2/6 122/2/6 
f 76/2/6 82/2/6 122/2/6 
f 41/1/6 69/1/6 44/1/6 
f 44/1/6 69/1/6 70/1/6 
f 65/1/6 83/1/6 68/1/6 
f 68/1/6 83/1/6 84/1/6 
f 61/4/6 77/4/6 62/4/6 
f 62/4/6 77/4/6 78/4/6 
f 63/4/6 79/4/6 64/4/6 
f 64/4/6 79/4/6 80/4/6 
# 0 polygons - 320 triangles

