# 3ds Max Wavefront OBJ Exporter v0.97b - (c)2007 guruware
# File Created: 30.01.2016 11:16:48

#
# object default
#

v  -1.8249 1.1086 3.0178
v  -1.8249 -2.8914 0.0178
v  -1.8249 -2.8914 3.0178
v  -1.8249 1.1086 0.0178
v  -0.8249 -7.8914 3.0178
v  -0.8249 -8.8914 1.0178
v  -0.8249 -8.8914 3.0178
v  -0.8249 -7.8914 1.0178
v  -0.8249 -6.8914 3.0178
v  -0.8249 -6.8914 1.0178
v  -0.8249 -4.8914 3.0178
v  -0.8249 -4.8914 1.0178
v  -0.8249 -2.8914 3.0178
v  -0.8249 -2.8914 1.0178
v  1.1751 -8.8914 3.0178
v  1.1751 -8.8914 1.0178
v  1.1751 -7.8914 3.0178
v  1.1751 -7.8914 1.0178
v  1.1751 -6.8914 3.0178
v  1.1751 -6.8914 1.0178
v  1.1751 -4.8914 3.0178
v  1.1751 -4.8914 1.0178
v  1.1751 -2.8914 1.0178
v  1.1751 0.1086 3.0178
v  1.1751 -2.8914 0.0178
v  1.1751 0.1086 0.0178
v  2.1751 0.1086 3.0178
v  2.1751 0.1086 0.0178
v  2.1751 1.1086 3.0178
v  2.1751 1.1086 0.0178
# 30 vertices

vn -1.0000 0.0000 -0.0000
vn 1.0000 0.0000 -0.0000
vn 0.0000 0.0000 1.0000
vn 0.0000 0.0000 -1.0000
vn 0.0000 -1.0000 -0.0000
vn 0.0000 1.0000 -0.0000
# 6 vertex normals

vt 0.2207 0.5000 0.0000
vt 0.2441 0.5000 0.0000
vt 0.2363 0.5000 0.0000
vt 0.2246 0.5000 0.0000
# 4 texture coords

g default
s 1
f 1/1/1 2/1/1 3/1/1 
f 4/1/1 2/1/1 1/1/1 
f 5/2/1 6/2/1 7/2/1 
f 8/2/1 6/2/1 5/2/1 
f 9/3/1 8/3/1 5/3/1 
f 10/3/1 8/3/1 9/3/1 
f 11/4/1 10/4/1 9/4/1 
f 12/4/1 10/4/1 11/4/1 
f 13/1/1 12/1/1 11/1/1 
f 14/1/1 12/1/1 13/1/1 
f 15/2/2 16/2/2 17/2/2 
f 17/2/2 16/2/2 18/2/2 
f 17/3/2 18/3/2 19/3/2 
f 19/3/2 18/3/2 20/3/2 
f 19/4/2 20/4/2 21/4/2 
f 21/4/2 20/4/2 22/4/2 
f 21/1/2 22/1/2 23/1/2 
f 21/1/2 23/1/2 24/1/2 
f 23/1/2 25/1/2 24/1/2 
f 24/1/2 25/1/2 26/1/2 
f 27/1/2 28/1/2 29/1/2 
f 29/1/2 28/1/2 30/1/2 
f 13/1/3 1/1/3 3/1/3 
f 15/2/3 5/2/3 7/2/3 
f 17/3/3 9/3/3 5/3/3 
f 17/2/3 5/2/3 15/2/3 
f 19/4/3 11/4/3 9/4/3 
f 19/3/3 9/3/3 17/3/3 
f 21/1/3 13/1/3 11/1/3 
f 21/4/3 11/4/3 19/4/3 
f 24/1/3 1/1/3 13/1/3 
f 24/1/3 13/1/3 21/1/3 
f 27/1/3 1/1/3 24/1/3 
f 29/1/3 1/1/3 27/1/3 
f 6/2/4 8/2/4 16/2/4 
f 8/3/4 10/3/4 18/3/4 
f 16/2/4 8/2/4 18/2/4 
f 10/4/4 12/4/4 20/4/4 
f 18/3/4 10/3/4 20/3/4 
f 12/1/4 14/1/4 22/1/4 
f 20/4/4 12/4/4 22/4/4 
f 22/1/4 14/1/4 23/1/4 
f 2/1/4 4/1/4 25/1/4 
f 25/1/4 4/1/4 26/1/4 
f 26/1/4 4/1/4 28/1/4 
f 28/1/4 4/1/4 30/1/4 
f 6/2/5 15/2/5 7/2/5 
f 16/2/5 15/2/5 6/2/5 
f 14/1/5 13/1/5 3/1/5 
f 2/1/5 14/1/5 3/1/5 
f 2/1/5 23/1/5 14/1/5 
f 25/1/5 23/1/5 2/1/5 
f 26/1/5 27/1/5 24/1/5 
f 28/1/5 27/1/5 26/1/5 
f 1/1/6 29/1/6 4/1/6 
f 4/1/6 29/1/6 30/1/6 
# 0 polygons - 56 triangles

