# MagicaVoxel @ ephtracy

# material
mtllib rhino_body.mtl
usemtl palette

# normals
vn -1 0 0
vn 1 0 0
vn 0 0 1
vn 0 0 -1
vn 0 -1 0
vn 0 1 0

# texcoords
vt 0.0214844 0.5
vt 0.0253906 0.5
vt 0.259766 0.5
vt 0.267578 0.5

# verts
v -9 1 1
v -9 1 -1
v -9 6 1
v -9 6 -1
v -8 6 1
v -8 6 -1
v -8 7 1
v -8 7 -1
v -7 0 5
v -7 0 4
v -7 0 -4
v -7 0 -5
v -7 6 5
v -7 6 4
v -7 6 -4
v -7 6 -5
v -7 7 1
v -7 7 -1
v -7 8 1
v -7 8 -1
v -6 0 4
v -6 0 -4
v -6 2 1
v -6 2 -1
v -6 6 5
v -6 6 4
v -6 6 -4
v -6 6 -5
v -6 7 5
v -6 7 4
v -6 7 1
v -6 7 -1
v -6 7 -4
v -6 7 -5
v -6 8 4
v -6 8 1
v -6 8 -1
v -6 8 -4
v -6 9 1
v -6 9 -1
v 1 0 5
v 1 0 4
v 1 0 -4
v 1 0 -5
v 1 4 5
v 1 4 4
v 1 4 -4
v 1 4 -5
v 1 8 1
v 1 8 -1
v 1 9 1
v 1 9 -1
v 2 4 5
v 2 4 4
v 2 4 -4
v 2 4 -5
v 2 7 5
v 2 7 4
v 2 7 2
v 2 7 1
v 2 7 -1
v 2 7 -2
v 2 7 -4
v 2 7 -5
v 2 8 4
v 2 8 1
v 2 8 -1
v 2 8 -4
v -8 1 1
v -8 1 -1
v -8 2 1
v -8 2 -1
v -3 6 5
v -3 6 4
v -3 6 -4
v -3 6 -5
v -3 7 5
v -3 7 4
v -3 7 2
v -3 7 1
v -3 7 -1
v -3 7 -2
v -3 7 -4
v -3 7 -5
v -3 8 4
v -3 8 1
v -3 8 -1
v -3 8 -4
v -2 5 5
v -2 5 4
v -2 5 -4
v -2 5 -5
v -2 6 5
v -2 6 4
v -2 6 -4
v -2 6 -5
v -2 8 1
v -2 8 -1
v -2 9 1
v -2 9 -1
v -1 0 5
v -1 0 4
v -1 0 -4
v -1 0 -5
v -1 5 5
v -1 5 4
v -1 5 -4
v -1 5 -5
v 8 0 4
v 8 0 -4
v 8 1 3
v 8 1 -3
v 8 4 5
v 8 4 4
v 8 4 -4
v 8 4 -5
v 8 7 5
v 8 7 4
v 8 7 3
v 8 7 1
v 8 7 -1
v 8 7 -3
v 8 7 -4
v 8 7 -5
v 8 8 4
v 8 8 1
v 8 8 -1
v 8 8 -4
v 8 9 1
v 8 9 -1
v 9 0 5
v 9 0 4
v 9 0 -4
v 9 0 -5
v 9 4 5
v 9 4 4
v 9 4 -4
v 9 4 -5
v -7 0 5
v -7 6 5
v -6 6 5
v -6 7 5
v -3 6 5
v -3 7 5
v -2 5 5
v -2 6 5
v -1 0 5
v -1 5 5
v 1 0 5
v 1 4 5
v 2 4 5
v 2 7 5
v 8 4 5
v 8 7 5
v 9 0 5
v 9 4 5
v -6 7 4
v -6 8 4
v -3 6 4
v -3 7 4
v -3 8 4
v -2 5 4
v -2 6 4
v -1 0 4
v -1 5 4
v 1 0 4
v 1 4 4
v 2 4 4
v 2 7 4
v 2 8 4
v 8 7 4
v 8 8 4
v -9 1 1
v -9 6 1
v -8 1 1
v -8 2 1
v -8 6 1
v -8 7 1
v -7 7 1
v -7 8 1
v -6 2 1
v -6 7 1
v -6 8 1
v -6 9 1
v -3 7 1
v -3 8 1
v -2 8 1
v -2 9 1
v 1 8 1
v 1 9 1
v 2 7 1
v 2 8 1
v 8 8 1
v 8 9 1
v -7 0 -4
v -7 6 -4
v -6 0 -4
v -6 6 -4
v 8 0 -4
v 8 4 -4
v 9 0 -4
v 9 4 -4
v -7 0 4
v -7 6 4
v -6 0 4
v -6 6 4
v 8 0 4
v 8 4 4
v 9 0 4
v 9 4 4
v -9 1 -1
v -9 6 -1
v -8 1 -1
v -8 2 -1
v -8 6 -1
v -8 7 -1
v -7 7 -1
v -7 8 -1
v -6 2 -1
v -6 7 -1
v -6 8 -1
v -6 9 -1
v -3 7 -1
v -3 8 -1
v -2 8 -1
v -2 9 -1
v 1 7 -1
v 1 8 -1
v 1 9 -1
v 2 7 -1
v 2 8 -1
v 8 8 -1
v 8 9 -1
v -6 7 -4
v -6 8 -4
v -3 6 -4
v -3 7 -4
v -3 8 -4
v -2 5 -4
v -2 6 -4
v -1 0 -4
v -1 5 -4
v 1 0 -4
v 1 4 -4
v 2 4 -4
v 2 7 -4
v 2 8 -4
v 8 7 -4
v 8 8 -4
v -7 0 -5
v -7 6 -5
v -6 6 -5
v -6 7 -5
v -3 6 -5
v -3 7 -5
v -2 5 -5
v -2 6 -5
v -1 0 -5
v -1 5 -5
v 1 0 -5
v 1 4 -5
v 2 4 -5
v 2 7 -5
v 8 4 -5
v 8 7 -5
v 9 0 -5
v 9 4 -5
v -7 0 5
v -1 0 5
v 1 0 5
v 9 0 5
v -7 0 4
v -6 0 4
v -5 0 4
v -2 0 4
v -1 0 4
v 1 0 4
v 2 0 4
v 6 0 4
v 8 0 4
v 9 0 4
v -5 0 1
v -2 0 1
v 2 0 1
v 6 0 1
v -5 0 -1
v -2 0 -1
v 2 0 -1
v 6 0 -1
v -7 0 -4
v -6 0 -4
v -5 0 -4
v -2 0 -4
v -1 0 -4
v 1 0 -4
v 2 0 -4
v 6 0 -4
v 8 0 -4
v 9 0 -4
v -7 0 -5
v -1 0 -5
v 1 0 -5
v 9 0 -5
v -9 1 1
v -8 1 1
v -9 1 -1
v -8 1 -1
v -8 2 1
v -6 2 1
v -8 2 -1
v -6 2 -1
v 1 4 5
v 2 4 5
v 8 4 5
v 9 4 5
v 1 4 4
v 2 4 4
v 8 4 4
v 9 4 4
v 1 4 -4
v 2 4 -4
v 8 4 -4
v 9 4 -4
v 1 4 -5
v 2 4 -5
v 8 4 -5
v 9 4 -5
v -2 5 5
v -1 5 5
v -2 5 4
v -1 5 4
v -2 5 -4
v -1 5 -4
v -2 5 -5
v -1 5 -5
v -7 6 5
v -6 6 5
v -3 6 5
v -2 6 5
v -7 6 4
v -6 6 4
v -3 6 4
v -2 6 4
v -9 6 1
v -8 6 1
v -9 6 -1
v -8 6 -1
v -7 6 -4
v -6 6 -4
v -3 6 -4
v -2 6 -4
v -7 6 -5
v -6 6 -5
v -3 6 -5
v -2 6 -5
v -6 7 5
v -3 7 5
v 2 7 5
v 8 7 5
v -6 7 4
v -3 7 4
v 2 7 4
v 8 7 4
v -3 7 2
v 2 7 2
v -8 7 1
v -7 7 1
v -3 7 1
v 2 7 1
v -8 7 -1
v -7 7 -1
v -3 7 -1
v 1 7 -1
v 2 7 -1
v -3 7 -2
v 2 7 -2
v -6 7 -4
v -3 7 -4
v 2 7 -4
v 8 7 -4
v -6 7 -5
v -3 7 -5
v 2 7 -5
v 8 7 -5
v -6 8 4
v -3 8 4
v 2 8 4
v 8 8 4
v -7 8 1
v -6 8 1
v -3 8 1
v -2 8 1
v 1 8 1
v 2 8 1
v 8 8 1
v -7 8 -1
v -6 8 -1
v -3 8 -1
v -2 8 -1
v 1 8 -1
v 2 8 -1
v 8 8 -1
v -6 8 -4
v -3 8 -4
v 2 8 -4
v 8 8 -4
v -6 9 1
v -2 9 1
v 1 9 1
v 8 9 1
v -6 9 -1
v -2 9 -1
v 1 9 -1
v 8 9 -1

# faces
f 3/4/1 2/4/1 1/4/1
f 4/4/1 2/4/1 3/4/1
f 7/4/1 6/4/1 5/4/1
f 8/4/1 6/4/1 7/4/1
f 13/3/1 10/3/1 9/3/1
f 14/3/1 10/3/1 13/3/1
f 15/3/1 12/3/1 11/3/1
f 16/3/1 12/3/1 15/3/1
f 19/4/1 18/4/1 17/4/1
f 20/4/1 18/4/1 19/4/1
f 23/1/1 22/1/1 21/1/1
f 24/1/1 22/1/1 23/1/1
f 26/1/1 23/1/1 21/1/1
f 27/1/1 22/1/1 24/1/1
f 29/3/1 26/3/1 25/3/1
f 30/1/1 23/1/1 26/1/1
f 30/3/1 26/3/1 29/3/1
f 31/1/1 23/1/1 30/1/1
f 32/1/1 27/1/1 24/1/1
f 33/3/1 28/3/1 27/3/1
f 33/1/1 27/1/1 32/1/1
f 34/3/1 28/3/1 33/3/1
f 35/3/1 31/3/1 30/3/1
f 36/3/1 31/3/1 35/3/1
f 37/3/1 33/3/1 32/3/1
f 38/3/1 33/3/1 37/3/1
f 39/4/1 37/4/1 36/4/1
f 40/4/1 37/4/1 39/4/1
f 45/3/1 42/3/1 41/3/1
f 46/3/1 42/3/1 45/3/1
f 47/3/1 44/3/1 43/3/1
f 48/3/1 44/3/1 47/3/1
f 51/4/1 50/4/1 49/4/1
f 52/4/1 50/4/1 51/4/1
f 57/3/1 54/3/1 53/3/1
f 58/3/1 54/3/1 57/3/1
f 63/3/1 56/3/1 55/3/1
f 64/3/1 56/3/1 63/3/1
f 65/3/1 59/3/1 58/3/1
f 65/3/1 60/3/1 59/3/1
f 66/3/1 60/3/1 65/3/1
f 67/3/1 62/3/1 61/3/1
f 67/3/1 63/3/1 62/3/1
f 68/3/1 63/3/1 67/3/1
f 69/4/2 70/4/2 71/4/2
f 71/4/2 70/4/2 72/4/2
f 73/3/2 74/3/2 77/3/2
f 77/3/2 74/3/2 78/3/2
f 75/3/2 76/3/2 83/3/2
f 83/3/2 76/3/2 84/3/2
f 78/3/2 79/3/2 85/3/2
f 79/3/2 80/3/2 85/3/2
f 85/3/2 80/3/2 86/3/2
f 81/3/2 82/3/2 87/3/2
f 82/3/2 83/3/2 87/3/2
f 87/3/2 83/3/2 88/3/2
f 89/3/2 90/3/2 93/3/2
f 93/3/2 90/3/2 94/3/2
f 91/3/2 92/3/2 95/3/2
f 95/3/2 92/3/2 96/3/2
f 97/4/2 98/4/2 99/4/2
f 99/4/2 98/4/2 100/4/2
f 101/3/2 102/3/2 105/3/2
f 105/3/2 102/3/2 106/3/2
f 103/3/2 104/3/2 107/3/2
f 107/3/2 104/3/2 108/3/2
f 109/1/2 110/1/2 111/1/2
f 111/1/2 110/1/2 112/1/2
f 109/1/2 111/1/2 114/1/2
f 112/1/2 110/1/2 115/1/2
f 113/3/2 114/3/2 117/3/2
f 114/1/2 111/1/2 118/1/2
f 117/3/2 114/3/2 118/3/2
f 111/3/2 112/3/2 119/3/2
f 118/1/2 111/1/2 119/1/2
f 119/3/2 112/3/2 120/3/2
f 120/3/2 112/3/2 121/3/2
f 112/1/2 115/1/2 122/1/2
f 121/3/2 112/3/2 122/3/2
f 115/3/2 116/3/2 123/3/2
f 122/1/2 115/1/2 123/1/2
f 123/3/2 116/3/2 124/3/2
f 118/3/2 119/3/2 125/3/2
f 119/3/2 120/3/2 125/3/2
f 120/4/2 121/4/2 126/4/2
f 125/3/2 120/3/2 126/3/2
f 121/3/2 122/3/2 127/3/2
f 126/4/2 121/4/2 127/4/2
f 122/3/2 123/3/2 127/3/2
f 127/3/2 123/3/2 128/3/2
f 126/4/2 127/4/2 129/4/2
f 129/4/2 127/4/2 130/4/2
f 131/3/2 132/3/2 135/3/2
f 135/3/2 132/3/2 136/3/2
f 133/3/2 134/3/2 137/3/2
f 137/3/2 134/3/2 138/3/2
f 141/3/3 140/3/3 139/3/3
f 143/3/3 141/3/3 139/3/3
f 143/3/3 142/3/3 141/3/3
f 144/3/3 142/3/3 143/3/3
f 145/3/3 143/3/3 139/3/3
f 146/3/3 143/3/3 145/3/3
f 147/3/3 145/3/3 139/3/3
f 148/3/3 145/3/3 147/3/3
f 151/3/3 150/3/3 149/3/3
f 153/3/3 151/3/3 149/3/3
f 153/3/3 152/3/3 151/3/3
f 154/3/3 152/3/3 153/3/3
f 155/3/3 153/3/3 149/3/3
f 156/3/3 153/3/3 155/3/3
f 160/3/3 158/3/3 157/3/3
f 161/3/3 158/3/3 160/3/3
f 163/1/3 160/1/3 159/1/3
f 165/1/3 163/1/3 162/1/3
f 166/1/3 165/1/3 164/1/3
f 167/1/3 165/1/3 166/1/3
f 168/1/3 165/1/3 167/1/3
f 169/1/3 160/1/3 163/1/3
f 169/1/3 165/1/3 168/1/3
f 169/1/3 163/1/3 165/1/3
f 171/3/3 170/3/3 169/3/3
f 172/3/3 170/3/3 171/3/3
f 175/4/3 174/4/3 173/4/3
f 176/4/3 174/4/3 175/4/3
f 177/4/3 174/4/3 176/4/3
f 179/4/3 178/4/3 177/4/3
f 179/4/3 177/4/3 176/4/3
f 181/4/3 179/4/3 176/4/3
f 181/4/3 180/4/3 179/4/3
f 182/4/3 180/4/3 181/4/3
f 183/4/3 180/4/3 182/4/3
f 186/4/3 184/4/3 183/4/3
f 187/4/3 184/4/3 186/4/3
f 187/4/3 186/4/3 185/4/3
f 188/4/3 184/4/3 187/4/3
f 189/4/3 187/4/3 185/4/3
f 191/4/3 189/4/3 185/4/3
f 191/4/3 190/4/3 189/4/3
f 192/4/3 190/4/3 191/4/3
f 193/4/3 190/4/3 192/4/3
f 194/4/3 190/4/3 193/4/3
f 197/3/3 196/3/3 195/3/3
f 198/3/3 196/3/3 197/3/3
f 201/3/3 200/3/3 199/3/3
f 202/3/3 200/3/3 201/3/3
f 203/3/4 204/3/4 205/3/4
f 205/3/4 204/3/4 206/3/4
f 207/3/4 208/3/4 209/3/4
f 209/3/4 208/3/4 210/3/4
f 211/4/4 212/4/4 213/4/4
f 213/4/4 212/4/4 214/4/4
f 214/4/4 212/4/4 215/4/4
f 215/4/4 216/4/4 217/4/4
f 214/4/4 215/4/4 217/4/4
f 214/4/4 217/4/4 219/4/4
f 217/4/4 218/4/4 219/4/4
f 219/4/4 218/4/4 220/4/4
f 220/4/4 218/4/4 221/4/4
f 221/4/4 222/4/4 224/4/4
f 224/4/4 222/4/4 225/4/4
f 223/4/4 224/4/4 225/4/4
f 225/4/4 222/4/4 226/4/4
f 223/4/4 225/4/4 227/4/4
f 227/4/4 225/4/4 228/4/4
f 227/3/4 228/3/4 230/3/4
f 228/4/4 229/4/4 231/4/4
f 230/3/4 228/3/4 231/3/4
f 231/4/4 229/4/4 232/4/4
f 232/4/4 229/4/4 233/4/4
f 234/3/4 235/3/4 237/3/4
f 237/3/4 235/3/4 238/3/4
f 236/1/4 237/1/4 240/1/4
f 239/1/4 240/1/4 242/1/4
f 241/1/4 242/1/4 243/1/4
f 243/1/4 242/1/4 244/1/4
f 244/1/4 242/1/4 245/1/4
f 240/1/4 237/1/4 246/1/4
f 245/1/4 242/1/4 246/1/4
f 242/1/4 240/1/4 246/1/4
f 246/3/4 247/3/4 248/3/4
f 248/3/4 247/3/4 249/3/4
f 250/3/4 251/3/4 252/3/4
f 250/3/4 252/3/4 254/3/4
f 252/3/4 253/3/4 254/3/4
f 254/3/4 253/3/4 255/3/4
f 250/3/4 254/3/4 256/3/4
f 256/3/4 254/3/4 257/3/4
f 250/3/4 256/3/4 258/3/4
f 258/3/4 256/3/4 259/3/4
f 260/3/4 261/3/4 262/3/4
f 260/3/4 262/3/4 264/3/4
f 262/3/4 263/3/4 264/3/4
f 264/3/4 263/3/4 265/3/4
f 260/3/4 264/3/4 266/3/4
f 266/3/4 264/3/4 267/3/4
f 272/3/5 269/3/5 268/3/5
f 273/3/5 269/3/5 272/3/5
f 274/3/5 269/3/5 273/3/5
f 275/3/5 269/3/5 274/3/5
f 276/3/5 269/3/5 275/3/5
f 277/3/5 271/3/5 270/3/5
f 278/3/5 271/3/5 277/3/5
f 279/3/5 271/3/5 278/3/5
f 280/3/5 271/3/5 279/3/5
f 281/3/5 271/3/5 280/3/5
f 282/1/5 274/1/5 273/1/5
f 282/3/5 275/3/5 274/3/5
f 283/1/5 276/1/5 275/1/5
f 283/3/5 275/3/5 282/3/5
f 283/1/5 277/1/5 276/1/5
f 283/1/5 278/1/5 277/1/5
f 284/3/5 279/3/5 278/3/5
f 284/1/5 278/1/5 283/1/5
f 285/1/5 280/1/5 279/1/5
f 285/3/5 279/3/5 284/3/5
f 286/1/5 282/1/5 273/1/5
f 286/1/5 284/1/5 283/1/5
f 286/1/5 285/1/5 284/1/5
f 286/1/5 283/1/5 282/1/5
f 287/1/5 285/1/5 286/1/5
f 288/1/5 285/1/5 287/1/5
f 289/1/5 280/1/5 285/1/5
f 289/1/5 285/1/5 288/1/5
f 291/1/5 286/1/5 273/1/5
f 292/3/5 287/3/5 286/3/5
f 292/1/5 286/1/5 291/1/5
f 293/1/5 288/1/5 287/1/5
f 293/3/5 287/3/5 292/3/5
f 294/1/5 288/1/5 293/1/5
f 295/1/5 288/1/5 294/1/5
f 296/3/5 289/3/5 288/3/5
f 296/1/5 288/1/5 295/1/5
f 297/1/5 280/1/5 289/1/5
f 297/3/5 289/3/5 296/3/5
f 298/1/5 280/1/5 297/1/5
f 300/3/5 292/3/5 291/3/5
f 300/3/5 291/3/5 290/3/5
f 300/3/5 293/3/5 292/3/5
f 300/3/5 294/3/5 293/3/5
f 301/3/5 294/3/5 300/3/5
f 302/3/5 299/3/5 298/3/5
f 302/3/5 296/3/5 295/3/5
f 302/3/5 298/3/5 297/3/5
f 302/3/5 297/3/5 296/3/5
f 303/3/5 299/3/5 302/3/5
f 306/4/5 305/4/5 304/4/5
f 307/4/5 305/4/5 306/4/5
f 310/4/5 309/4/5 308/4/5
f 311/4/5 309/4/5 310/4/5
f 312/3/6 313/3/6 316/3/6
f 316/3/6 313/3/6 317/3/6
f 314/3/6 315/3/6 318/3/6
f 318/3/6 315/3/6 319/3/6
f 320/3/6 321/3/6 324/3/6
f 324/3/6 321/3/6 325/3/6
f 322/3/6 323/3/6 326/3/6
f 326/3/6 323/3/6 327/3/6
f 328/3/6 329/3/6 330/3/6
f 330/3/6 329/3/6 331/3/6
f 332/3/6 333/3/6 334/3/6
f 334/3/6 333/3/6 335/3/6
f 336/3/6 337/3/6 340/3/6
f 340/3/6 337/3/6 341/3/6
f 338/3/6 339/3/6 342/3/6
f 342/3/6 339/3/6 343/3/6
f 344/4/6 345/4/6 346/4/6
f 346/4/6 345/4/6 347/4/6
f 348/3/6 349/3/6 352/3/6
f 352/3/6 349/3/6 353/3/6
f 350/3/6 351/3/6 354/3/6
f 354/3/6 351/3/6 355/3/6
f 356/3/6 357/3/6 360/3/6
f 360/3/6 357/3/6 361/3/6
f 358/3/6 359/3/6 362/3/6
f 362/3/6 359/3/6 363/3/6
f 361/1/6 362/1/6 364/1/6
f 364/1/6 362/1/6 365/1/6
f 364/2/6 365/2/6 368/2/6
f 368/2/6 365/2/6 369/2/6
f 366/4/6 367/4/6 370/4/6
f 370/4/6 367/4/6 371/4/6
f 373/2/6 374/2/6 375/2/6
f 372/2/6 373/2/6 375/2/6
f 375/2/6 374/2/6 376/2/6
f 375/1/6 376/1/6 378/1/6
f 378/1/6 376/1/6 379/1/6
f 377/3/6 378/3/6 381/3/6
f 381/3/6 378/3/6 382/3/6
f 379/3/6 380/3/6 383/3/6
f 383/3/6 380/3/6 384/3/6
f 385/3/6 386/3/6 390/3/6
f 390/3/6 386/3/6 391/3/6
f 387/3/6 388/3/6 394/3/6
f 394/3/6 388/3/6 395/3/6
f 389/4/6 390/4/6 396/4/6
f 396/4/6 390/4/6 397/4/6
f 392/4/6 393/4/6 399/4/6
f 399/4/6 393/4/6 400/4/6
f 397/3/6 398/3/6 403/3/6
f 403/3/6 398/3/6 404/3/6
f 401/3/6 402/3/6 405/3/6
f 405/3/6 402/3/6 406/3/6
f 407/4/6 408/4/6 411/4/6
f 411/4/6 408/4/6 412/4/6
f 409/4/6 410/4/6 413/4/6
f 413/4/6 410/4/6 414/4/6
