# 3ds Max Wavefront OBJ Exporter v0.97b - (c)2007 guruware
# File Created: 30.01.2016 11:13:26

#
# object default
#

v  -1.9489 -1.9619 1.5000
v  -1.9489 -3.9619 -1.5000
v  -1.9489 -3.9619 1.5000
v  -1.9489 -1.9619 -1.5000
v  -1.9489 0.0381 1.5000
v  -1.9489 0.0381 -1.5000
v  2.0511 -3.9619 0.5000
v  2.0511 -3.9619 -0.5000
v  2.0511 -2.9619 0.5000
v  2.0511 -2.9619 -0.5000
v  2.0511 -2.9619 1.5000
v  2.0511 0.0381 1.5000
v  2.0511 -2.9619 -1.5000
v  2.0511 0.0381 -1.5000
v  3.0511 -3.9619 1.5000
v  3.0511 -3.9619 0.5000
v  3.0511 -2.9619 1.5000
v  3.0511 -2.9619 0.5000
v  3.0511 -3.9619 -0.5000
v  3.0511 -3.9619 -1.5000
v  3.0511 -2.9619 -0.5000
v  3.0511 -2.9619 -1.5000
v  0.0511 -2.9619 1.5000
v  0.0511 -1.9619 1.5000
v  2.0511 -3.9619 1.5000
v  0.0511 -2.9619 -1.5000
v  0.0511 -1.9619 -1.5000
v  2.0511 -3.9619 -1.5000
v  -0.9489 -3.9619 0.5000
v  -0.9489 -3.9619 -0.5000
# 30 vertices

vn -1.0000 0.0000 -0.0000
vn 1.0000 0.0000 -0.0000
vn 0.0000 0.0000 1.0000
vn 0.0000 0.0000 -1.0000
vn 0.0000 -1.0000 -0.0000
vn 0.0000 1.0000 -0.0000
# 6 vertex normals

vt 0.0254 0.5000 0.0000
vt 0.0215 0.5000 0.0000
vt 0.2520 0.5000 0.0000
# 3 texture coords

g default
s 1
f 1/1/1 2/1/1 3/1/1 
f 4/1/1 2/1/1 1/1/1 
f 5/2/1 4/2/1 1/2/1 
f 6/2/1 4/2/1 5/2/1 
f 7/2/2 8/2/2 9/2/2 
f 9/2/2 8/2/2 10/2/2 
f 11/2/2 9/2/2 12/2/2 
f 10/2/2 13/2/2 12/2/2 
f 9/2/2 10/2/2 12/2/2 
f 12/2/2 13/2/2 14/2/2 
f 15/3/2 16/3/2 17/3/2 
f 17/3/2 16/3/2 18/3/2 
f 19/3/2 20/3/2 21/3/2 
f 21/3/2 20/3/2 22/3/2 
f 23/1/3 1/1/3 3/1/3 
f 24/2/3 5/2/3 1/2/3 
f 24/1/3 1/1/3 23/1/3 
f 25/1/3 23/1/3 3/1/3 
f 11/2/3 24/2/3 23/2/3 
f 11/1/3 23/1/3 25/1/3 
f 12/2/3 5/2/3 24/2/3 
f 12/2/3 24/2/3 11/2/3 
f 15/3/3 11/3/3 25/3/3 
f 17/3/3 11/3/3 15/3/3 
f 19/3/3 10/3/3 8/3/3 
f 21/3/3 10/3/3 19/3/3 
f 7/3/4 9/3/4 16/3/4 
f 16/3/4 9/3/4 18/3/4 
f 2/1/4 4/1/4 26/1/4 
f 4/2/4 6/2/4 27/2/4 
f 26/1/4 4/1/4 27/1/4 
f 2/1/4 26/1/4 28/1/4 
f 26/2/4 27/2/4 13/2/4 
f 28/1/4 26/1/4 13/1/4 
f 27/2/4 6/2/4 14/2/4 
f 13/2/4 27/2/4 14/2/4 
f 28/3/4 13/3/4 20/3/4 
f 20/3/4 13/3/4 22/3/4 
f 29/1/5 25/1/5 3/1/5 
f 7/3/5 15/3/5 25/3/5 
f 7/1/5 25/1/5 29/1/5 
f 16/3/5 15/3/5 7/3/5 
f 30/1/5 29/1/5 3/1/5 
f 30/2/5 7/2/5 29/2/5 
f 8/2/5 7/2/5 30/2/5 
f 2/1/5 30/1/5 3/1/5 
f 2/1/5 8/1/5 30/1/5 
f 28/3/5 19/3/5 8/3/5 
f 28/1/5 8/1/5 2/1/5 
f 20/3/5 19/3/5 28/3/5 
f 11/3/6 17/3/6 9/3/6 
f 9/3/6 17/3/6 18/3/6 
f 10/3/6 21/3/6 13/3/6 
f 13/3/6 21/3/6 22/3/6 
f 5/2/6 12/2/6 6/2/6 
f 6/2/6 12/2/6 14/2/6 
# 0 polygons - 56 triangles

