# 3ds Max Wavefront OBJ Exporter v0.97b - (c)2007 guruware
# File Created: 30.01.2016 11:08:40

#
# object default
#

v  0.0306 4.8491 3.0000
v  0.0306 -1.1509 -3.0000
v  0.0306 -1.1509 3.0000
v  0.0306 4.8491 -3.0000
v  2.0306 6.8491 3.0000
v  2.0306 4.8491 2.0000
v  2.0306 4.8491 3.0000
v  2.0306 6.8491 2.0000
v  2.0306 6.8491 -2.0000
v  2.0306 4.8491 -3.0000
v  2.0306 4.8491 -2.0000
v  2.0306 6.8491 -3.0000
v  4.0306 8.8491 1.0000
v  4.0306 6.8491 -1.0000
v  4.0306 6.8491 1.0000
v  4.0306 8.8491 -1.0000
v  5.0306 3.8491 2.0000
v  5.0306 2.8491 -2.0000
v  5.0306 2.8491 2.0000
v  5.0306 3.8491 1.0000
v  5.0306 3.8491 -1.0000
v  5.0306 3.8491 -2.0000
v  5.0306 6.8491 1.0000
v  5.0306 6.8491 -1.0000
v  6.0306 4.8491 2.0000
v  6.0306 3.8491 1.0000
v  6.0306 3.8491 2.0000
v  6.0306 4.8491 1.0000
v  6.0306 4.8491 -1.0000
v  6.0306 3.8491 -2.0000
v  6.0306 3.8491 -1.0000
v  6.0306 4.8491 -2.0000
v  2.0306 3.8491 2.0000
v  2.0306 3.8491 -2.0000
v  3.0306 3.8491 3.0000
v  3.0306 3.8491 2.0000
v  3.0306 6.8491 3.0000
v  3.0306 6.8491 2.0000
v  3.0306 3.8491 -2.0000
v  3.0306 3.8491 -3.0000
v  3.0306 6.8491 -2.0000
v  3.0306 6.8491 -3.0000
v  4.0306 2.8491 3.0000
v  4.0306 2.8491 2.0000
v  4.0306 3.8491 3.0000
v  4.0306 2.8491 -2.0000
v  4.0306 2.8491 -3.0000
v  4.0306 3.8491 -3.0000
v  5.0306 1.8491 3.0000
v  5.0306 1.8491 2.0000
v  5.0306 2.8491 3.0000
v  5.0306 1.8491 -2.0000
v  5.0306 1.8491 -3.0000
v  5.0306 2.8491 -3.0000
v  5.0306 7.8491 1.0000
v  5.0306 7.8491 -1.0000
v  5.0306 8.8491 1.0000
v  5.0306 8.8491 -1.0000
v  6.0306 6.8491 1.0000
v  6.0306 6.8491 -1.0000
v  6.0306 7.8491 1.0000
v  6.0306 7.8491 -1.0000
v  7.0306 5.8491 1.0000
v  7.0306 5.8491 -1.0000
v  7.0306 6.8491 1.0000
v  7.0306 6.8491 -1.0000
v  8.0306 -1.1509 3.0000
v  8.0306 -1.1509 -3.0000
v  8.0306 -0.1509 3.0000
v  8.0306 -0.1509 -3.0000
v  8.0306 1.8491 2.0000
v  8.0306 1.8491 -2.0000
v  8.0306 4.8491 2.0000
v  8.0306 4.8491 1.0000
v  8.0306 4.8491 -1.0000
v  8.0306 4.8491 -2.0000
v  8.0306 5.8491 1.0000
v  8.0306 5.8491 -1.0000
v  9.0306 -0.1509 3.0000
v  9.0306 -0.1509 -3.0000
v  9.0306 0.8491 3.0000
v  9.0306 0.8491 2.0000
v  9.0306 0.8491 -2.0000
v  9.0306 0.8491 -3.0000
v  9.0306 1.8491 3.0000
v  9.0306 1.8491 2.0000
v  9.0306 1.8491 -2.0000
v  9.0306 1.8491 -3.0000
v  2.0306 3.8491 3.0000
v  3.0306 0.8491 3.0000
v  3.0306 2.8491 3.0000
v  4.0306 0.8491 3.0000
v  4.0306 1.8491 3.0000
v  5.0306 0.8491 3.0000
v  7.0306 -1.1509 3.0000
v  7.0306 -0.1509 3.0000
v  8.0306 0.8491 3.0000
v  8.0306 1.8491 3.0000
v  2.0306 3.8491 -3.0000
v  3.0306 0.8491 -3.0000
v  3.0306 2.8491 -3.0000
v  4.0306 0.8491 -3.0000
v  4.0306 1.8491 -3.0000
v  5.0306 0.8491 -3.0000
v  7.0306 -1.1509 -3.0000
v  7.0306 -0.1509 -3.0000
v  8.0306 0.8491 -3.0000
v  8.0306 1.8491 -3.0000
# 108 vertices

vn -1.0000 0.0000 -0.0000
vn 1.0000 0.0000 -0.0000
vn 0.0000 0.0000 1.0000
vn 0.0000 0.0000 -1.0000
vn 0.0000 -1.0000 -0.0000
vn 0.0000 1.0000 -0.0000
# 6 vertex normals

vt 0.2598 0.5000 0.0000
vt 0.0254 0.5000 0.0000
vt 0.2559 0.5000 0.0000
vt 0.0020 0.5000 0.0000
vt 0.2520 0.5000 0.0000
vt 0.2715 0.5000 0.0000
vt 0.2793 0.5000 0.0000
# 7 texture coords

g default
s 1
f 1/1/1 2/1/1 3/1/1 
f 4/1/1 2/1/1 1/1/1 
f 5/2/1 6/2/1 7/2/1 
f 8/2/1 6/2/1 5/2/1 
f 9/2/1 10/2/1 11/2/1 
f 12/2/1 10/2/1 9/2/1 
f 13/3/1 14/3/1 15/3/1 
f 16/3/1 14/3/1 13/3/1 
f 17/3/1 18/3/1 19/3/1 
f 20/3/1 18/3/1 17/3/1 
f 21/3/1 18/3/1 20/3/1 
f 22/3/1 18/3/1 21/3/1 
f 23/3/1 21/3/1 20/3/1 
f 24/3/1 21/3/1 23/3/1 
f 25/3/1 26/3/1 27/3/1 
f 28/3/1 26/3/1 25/3/1 
f 29/3/1 30/3/1 31/3/1 
f 32/3/1 30/3/1 29/3/1 
f 33/1/2 34/1/2 6/1/2 
f 6/1/2 34/1/2 11/1/2 
f 35/2/2 36/2/2 37/2/2 
f 37/2/2 36/2/2 38/2/2 
f 39/2/2 40/2/2 41/2/2 
f 41/2/2 40/2/2 42/2/2 
f 43/1/2 44/1/2 45/1/2 
f 46/1/2 47/1/2 45/1/2 
f 44/1/2 46/1/2 45/1/2 
f 45/1/2 47/1/2 48/1/2 
f 49/4/2 50/4/2 51/4/2 
f 51/4/2 50/4/2 19/4/2 
f 52/4/2 53/4/2 18/4/2 
f 18/4/2 53/4/2 54/4/2 
f 55/3/2 56/3/2 57/3/2 
f 57/3/2 56/3/2 58/3/2 
f 59/3/2 60/3/2 61/3/2 
f 61/3/2 60/3/2 62/3/2 
f 63/3/2 64/3/2 65/3/2 
f 65/3/2 64/3/2 66/3/2 
f 67/5/2 68/5/2 69/5/2 
f 69/5/2 68/5/2 70/5/2 
f 71/3/2 72/3/2 73/3/2 
f 73/3/2 72/3/2 74/3/2 
f 74/3/2 72/3/2 75/3/2 
f 75/3/2 72/3/2 76/3/2 
f 74/3/2 75/3/2 77/3/2 
f 77/3/2 75/3/2 78/3/2 
f 79/1/2 80/1/2 81/1/2 
f 81/1/2 80/1/2 82/1/2 
f 82/1/2 80/1/2 83/1/2 
f 83/1/2 80/1/2 84/1/2 
f 81/6/2 82/6/2 85/6/2 
f 82/1/2 83/1/2 86/1/2 
f 85/6/2 82/6/2 86/6/2 
f 83/6/2 84/6/2 87/6/2 
f 86/1/2 83/1/2 87/1/2 
f 87/6/2 84/6/2 88/6/2 
f 89/1/3 1/1/3 3/1/3 
f 7/1/3 1/1/3 89/1/3 
f 90/1/3 89/1/3 3/1/3 
f 91/1/3 89/1/3 90/1/3 
f 35/2/3 5/2/3 7/2/3 
f 35/1/3 89/1/3 91/1/3 
f 35/2/3 7/2/3 89/2/3 
f 37/2/3 5/2/3 35/2/3 
f 92/4/3 91/4/3 90/4/3 
f 92/1/3 90/1/3 3/1/3 
f 93/4/3 91/4/3 92/4/3 
f 43/1/3 35/1/3 91/1/3 
f 43/4/3 91/4/3 93/4/3 
f 45/1/3 35/1/3 43/1/3 
f 94/7/3 93/7/3 92/7/3 
f 94/1/3 92/1/3 3/1/3 
f 49/4/3 43/4/3 93/4/3 
f 49/7/3 93/7/3 94/7/3 
f 51/4/3 43/4/3 49/4/3 
f 95/1/3 94/1/3 3/1/3 
f 95/1/3 49/1/3 94/1/3 
f 96/1/3 49/1/3 95/1/3 
f 67/5/3 96/5/3 95/5/3 
f 69/1/3 49/1/3 96/1/3 
f 69/5/3 96/5/3 67/5/3 
f 97/1/3 49/1/3 69/1/3 
f 98/1/3 49/1/3 97/1/3 
f 79/1/3 97/1/3 69/1/3 
f 81/6/3 98/6/3 97/6/3 
f 81/1/3 97/1/3 79/1/3 
f 85/6/3 98/6/3 81/6/3 
f 27/3/3 19/3/3 50/3/3 
f 27/3/3 17/3/3 19/3/3 
f 71/3/3 27/3/3 50/3/3 
f 71/3/3 25/3/3 27/3/3 
f 73/3/3 25/3/3 71/3/3 
f 23/3/3 13/3/3 15/3/3 
f 55/3/3 13/3/3 23/3/3 
f 57/3/3 13/3/3 55/3/3 
f 26/3/3 23/3/3 20/3/3 
f 26/3/3 55/3/3 23/3/3 
f 28/3/3 55/3/3 26/3/3 
f 59/3/3 55/3/3 28/3/3 
f 61/3/3 55/3/3 59/3/3 
f 63/3/3 59/3/3 28/3/3 
f 65/3/3 59/3/3 63/3/3 
f 74/3/3 63/3/3 28/3/3 
f 77/3/3 63/3/3 74/3/3 
f 39/2/3 11/2/3 34/2/3 
f 39/2/3 9/2/3 11/2/3 
f 41/2/3 9/2/3 39/2/3 
f 33/2/4 6/2/4 36/2/4 
f 6/2/4 8/2/4 36/2/4 
f 36/2/4 8/2/4 38/2/4 
f 14/3/4 16/3/4 24/3/4 
f 24/3/4 16/3/4 56/3/4 
f 56/3/4 16/3/4 58/3/4 
f 21/3/4 24/3/4 31/3/4 
f 24/3/4 56/3/4 31/3/4 
f 31/3/4 56/3/4 29/3/4 
f 29/3/4 56/3/4 60/3/4 
f 60/3/4 56/3/4 62/3/4 
f 29/3/4 60/3/4 64/3/4 
f 64/3/4 60/3/4 66/3/4 
f 29/3/4 64/3/4 75/3/4 
f 75/3/4 64/3/4 78/3/4 
f 52/3/4 18/3/4 30/3/4 
f 18/3/4 22/3/4 30/3/4 
f 52/3/4 30/3/4 72/3/4 
f 30/3/4 32/3/4 72/3/4 
f 72/3/4 32/3/4 76/3/4 
f 2/1/4 4/1/4 99/1/4 
f 99/1/4 4/1/4 10/1/4 
f 2/1/4 99/1/4 100/1/4 
f 100/1/4 99/1/4 101/1/4 
f 10/2/4 12/2/4 40/2/4 
f 101/1/4 99/1/4 40/1/4 
f 99/2/4 10/2/4 40/2/4 
f 40/2/4 12/2/4 42/2/4 
f 100/4/4 101/4/4 102/4/4 
f 2/1/4 100/1/4 102/1/4 
f 102/4/4 101/4/4 103/4/4 
f 101/1/4 40/1/4 47/1/4 
f 103/4/4 101/4/4 47/4/4 
f 47/1/4 40/1/4 48/1/4 
f 102/7/4 103/7/4 104/7/4 
f 2/1/4 102/1/4 104/1/4 
f 103/4/4 47/4/4 53/4/4 
f 104/7/4 103/7/4 53/7/4 
f 53/4/4 47/4/4 54/4/4 
f 2/1/4 104/1/4 105/1/4 
f 104/1/4 53/1/4 105/1/4 
f 105/1/4 53/1/4 106/1/4 
f 105/5/4 106/5/4 68/5/4 
f 106/1/4 53/1/4 70/1/4 
f 68/5/4 106/5/4 70/5/4 
f 70/1/4 53/1/4 107/1/4 
f 107/1/4 53/1/4 108/1/4 
f 70/1/4 107/1/4 80/1/4 
f 107/6/4 108/6/4 84/6/4 
f 80/1/4 107/1/4 84/1/4 
f 84/6/4 108/6/4 88/6/4 
f 2/1/5 95/1/5 3/1/5 
f 105/5/5 67/5/5 95/5/5 
f 105/1/5 95/1/5 2/1/5 
f 68/5/5 67/5/5 105/5/5 
f 70/1/5 79/1/5 69/1/5 
f 80/1/5 79/1/5 70/1/5 
f 14/3/5 23/3/5 15/3/5 
f 24/3/5 23/3/5 14/3/5 
f 49/1/6 98/1/6 50/1/6 
f 98/6/6 85/6/6 71/6/6 
f 50/1/6 98/1/6 71/1/6 
f 71/6/6 85/6/6 86/6/6 
f 71/1/6 86/1/6 72/1/6 
f 72/1/6 86/1/6 87/1/6 
f 52/1/6 72/1/6 53/1/6 
f 72/6/6 87/6/6 108/6/6 
f 53/1/6 72/1/6 108/1/6 
f 108/6/6 87/6/6 88/6/6 
f 43/4/6 51/4/6 44/4/6 
f 44/4/6 51/4/6 19/4/6 
f 44/1/6 19/1/6 46/1/6 
f 46/1/6 19/1/6 18/1/6 
f 46/4/6 18/4/6 47/4/6 
f 47/4/6 18/4/6 54/4/6 
f 35/1/6 45/1/6 36/1/6 
f 17/3/6 27/3/6 20/3/6 
f 20/3/6 27/3/6 26/3/6 
f 33/1/6 36/1/6 34/1/6 
f 36/1/6 45/1/6 39/1/6 
f 34/1/6 36/1/6 39/1/6 
f 21/3/6 31/3/6 22/3/6 
f 22/3/6 31/3/6 30/3/6 
f 39/1/6 45/1/6 40/1/6 
f 40/1/6 45/1/6 48/1/6 
f 1/1/6 7/1/6 6/1/6 
f 25/3/6 73/3/6 28/3/6 
f 28/3/6 73/3/6 74/3/6 
f 1/1/6 6/1/6 11/1/6 
f 29/3/6 75/3/6 32/3/6 
f 32/3/6 75/3/6 76/3/6 
f 1/1/6 11/1/6 4/1/6 
f 4/1/6 11/1/6 10/1/6 
f 63/3/6 77/3/6 64/3/6 
f 64/3/6 77/3/6 78/3/6 
f 5/2/6 37/2/6 8/2/6 
f 8/2/6 37/2/6 38/2/6 
f 59/3/6 65/3/6 60/3/6 
f 60/3/6 65/3/6 66/3/6 
f 9/2/6 41/2/6 12/2/6 
f 12/2/6 41/2/6 42/2/6 
f 55/3/6 61/3/6 56/3/6 
f 56/3/6 61/3/6 62/3/6 
f 13/3/6 57/3/6 16/3/6 
f 16/3/6 57/3/6 58/3/6 
# 0 polygons - 212 triangles

