# MagicaVoxel @ ephtracy

# material
mtllib turtle_body.mtl
usemtl palette

# normals
vn -1 0 0
vn 1 0 0
vn 0 0 1
vn 0 0 -1
vn 0 -1 0
vn 0 1 0

# texcoords
vt 0.197266 0.5
vt 0.228516 0.5

# verts
v -4 1 1
v -4 1 -1
v -4 2 1
v -4 2 -1
v -3 1 2
v -3 1 1
v -3 1 -1
v -3 1 -2
v -3 2 2
v -3 2 1
v -3 2 -1
v -3 2 -2
v -3 3 2
v -3 3 -2
v -2 0 2
v -2 0 -2
v -2 1 2
v -2 1 -2
v -2 2 3
v -2 2 2
v -2 2 -2
v -2 2 -3
v -2 3 3
v -2 3 2
v -2 3 1
v -2 3 -1
v -2 3 -2
v -2 3 -3
v -2 4 1
v -2 4 -1
v -1 1 4
v -1 1 2
v -1 1 -2
v -1 1 -4
v -1 2 4
v -1 2 3
v -1 2 2
v -1 2 -2
v -1 2 -3
v -1 2 -4
v -1 3 2
v -1 3 1
v -1 3 -1
v -1 3 -2
v -1 4 2
v -1 4 1
v -1 4 -1
v -1 4 -2
v -1 5 1
v -1 5 -1
v 1 1 4
v 1 1 2
v 1 1 -2
v 1 1 -4
v 1 2 4
v 1 2 3
v 1 2 2
v 1 2 -2
v 1 2 -3
v 1 2 -4
v 1 3 2
v 1 3 1
v 1 3 -1
v 1 3 -2
v 1 4 2
v 1 4 1
v 1 4 -1
v 1 4 -2
v 1 5 1
v 1 5 -1
v 2 0 2
v 2 0 -2
v 2 1 2
v 2 1 -2
v 2 2 3
v 2 2 2
v 2 2 -2
v 2 2 -3
v 2 3 3
v 2 3 2
v 2 3 1
v 2 3 -1
v 2 3 -2
v 2 3 -3
v 2 4 1
v 2 4 -1
v 3 1 1
v 3 1 -1
v 3 2 2
v 3 2 1
v 3 2 -1
v 3 2 -2
v 3 3 2
v 3 3 1
v 3 3 -1
v 3 3 -2
v 4 1 2
v 4 1 1
v 4 1 -1
v 4 1 -2
v 4 2 2
v 4 2 1
v 4 2 -1
v 4 2 -2
v 4 3 1
v 4 3 -1
v -1 1 4
v -1 2 4
v 1 1 4
v 1 2 4
v -2 2 3
v -2 3 3
v -1 2 3
v 1 2 3
v 2 2 3
v 2 3 3
v -3 1 2
v -3 2 2
v -3 3 2
v -2 0 2
v -2 1 2
v -2 2 2
v -2 3 2
v -1 1 2
v -1 2 2
v -1 3 2
v -1 4 2
v 1 1 2
v 1 2 2
v 1 3 2
v 1 4 2
v 2 0 2
v 2 1 2
v 2 2 2
v 2 3 2
v 3 2 2
v 3 3 2
v 4 1 2
v 4 2 2
v -4 1 1
v -4 2 1
v -3 1 1
v -3 2 1
v -2 3 1
v -2 4 1
v -1 3 1
v -1 4 1
v -1 5 1
v 1 3 1
v 1 4 1
v 1 5 1
v 2 3 1
v 2 4 1
v 3 2 1
v 3 3 1
v 4 2 1
v 4 3 1
v 3 1 -1
v 3 2 -1
v 4 1 -1
v 4 2 -1
v 3 1 1
v 3 2 1
v 4 1 1
v 4 2 1
v -4 1 -1
v -4 2 -1
v -3 1 -1
v -3 2 -1
v -2 3 -1
v -2 4 -1
v -1 3 -1
v -1 4 -1
v -1 5 -1
v 1 3 -1
v 1 4 -1
v 1 5 -1
v 2 3 -1
v 2 4 -1
v 3 2 -1
v 3 3 -1
v 4 2 -1
v 4 3 -1
v -3 1 -2
v -3 2 -2
v -3 3 -2
v -2 0 -2
v -2 1 -2
v -2 2 -2
v -2 3 -2
v -1 1 -2
v -1 2 -2
v -1 3 -2
v -1 4 -2
v 1 1 -2
v 1 2 -2
v 1 3 -2
v 1 4 -2
v 2 0 -2
v 2 1 -2
v 2 2 -2
v 2 3 -2
v 3 2 -2
v 3 3 -2
v 4 1 -2
v 4 2 -2
v -2 2 -3
v -2 3 -3
v -1 2 -3
v 1 2 -3
v 2 2 -3
v 2 3 -3
v -1 1 -4
v -1 2 -4
v 1 1 -4
v 1 2 -4
v -2 0 2
v 2 0 2
v -2 0 -2
v 2 0 -2
v -1 1 4
v 1 1 4
v -3 1 2
v -2 1 2
v -1 1 2
v 1 1 2
v 2 1 2
v 4 1 2
v -4 1 1
v -3 1 1
v 3 1 1
v 4 1 1
v -4 1 -1
v -3 1 -1
v 3 1 -1
v 4 1 -1
v -3 1 -2
v -2 1 -2
v -1 1 -2
v 1 1 -2
v 2 1 -2
v 4 1 -2
v -1 1 -4
v 1 1 -4
v -2 2 3
v -1 2 3
v 1 2 3
v 2 2 3
v -2 2 2
v -1 2 2
v 1 2 2
v 2 2 2
v 3 2 1
v 4 2 1
v 3 2 -1
v 4 2 -1
v -2 2 -2
v -1 2 -2
v 1 2 -2
v 2 2 -2
v -2 2 -3
v -1 2 -3
v 1 2 -3
v 2 2 -3
v -1 2 4
v 1 2 4
v -1 2 3
v 1 2 3
v 3 2 2
v 4 2 2
v -4 2 1
v -3 2 1
v 3 2 1
v 4 2 1
v -4 2 -1
v -3 2 -1
v 3 2 -1
v 4 2 -1
v 3 2 -2
v 4 2 -2
v -1 2 -3
v 1 2 -3
v -1 2 -4
v 1 2 -4
v -2 3 3
v 2 3 3
v -3 3 2
v -2 3 2
v -1 3 2
v 1 3 2
v 2 3 2
v 3 3 2
v -2 3 1
v -1 3 1
v 1 3 1
v 2 3 1
v 3 3 1
v 4 3 1
v -2 3 -1
v -1 3 -1
v 1 3 -1
v 2 3 -1
v 3 3 -1
v 4 3 -1
v -3 3 -2
v -2 3 -2
v -1 3 -2
v 1 3 -2
v 2 3 -2
v 3 3 -2
v -2 3 -3
v 2 3 -3
v -1 4 2
v 1 4 2
v -2 4 1
v -1 4 1
v 1 4 1
v 2 4 1
v -2 4 -1
v -1 4 -1
v 1 4 -1
v 2 4 -1
v -1 4 -2
v 1 4 -2
v -1 5 1
v 1 5 1
v -1 5 -1
v 1 5 -1

# faces
f 3/1/1 2/1/1 1/1/1
f 4/1/1 2/1/1 3/1/1
f 9/1/1 6/1/1 5/1/1
f 10/1/1 6/1/1 9/1/1
f 11/1/1 8/1/1 7/1/1
f 12/1/1 8/1/1 11/1/1
f 13/2/1 10/2/1 9/2/1
f 13/2/1 11/2/1 10/2/1
f 13/2/1 12/2/1 11/2/1
f 14/2/1 12/2/1 13/2/1
f 17/1/1 16/1/1 15/1/1
f 18/1/1 16/1/1 17/1/1
f 23/2/1 20/2/1 19/2/1
f 24/2/1 20/2/1 23/2/1
f 27/2/1 22/2/1 21/2/1
f 28/2/1 22/2/1 27/2/1
f 29/2/1 26/2/1 25/2/1
f 30/2/1 26/2/1 29/2/1
f 35/1/1 32/1/1 31/1/1
f 36/1/1 32/1/1 35/1/1
f 37/1/1 32/1/1 36/1/1
f 38/1/1 34/1/1 33/1/1
f 39/1/1 34/1/1 38/1/1
f 40/1/1 34/1/1 39/1/1
f 45/2/1 42/2/1 41/2/1
f 46/2/1 42/2/1 45/2/1
f 47/2/1 44/2/1 43/2/1
f 48/2/1 44/2/1 47/2/1
f 49/2/1 47/2/1 46/2/1
f 50/2/1 47/2/1 49/2/1
f 51/1/2 52/1/2 55/1/2
f 55/1/2 52/1/2 56/1/2
f 56/1/2 52/1/2 57/1/2
f 53/1/2 54/1/2 58/1/2
f 58/1/2 54/1/2 59/1/2
f 59/1/2 54/1/2 60/1/2
f 61/2/2 62/2/2 65/2/2
f 65/2/2 62/2/2 66/2/2
f 63/2/2 64/2/2 67/2/2
f 67/2/2 64/2/2 68/2/2
f 66/2/2 67/2/2 69/2/2
f 69/2/2 67/2/2 70/2/2
f 71/1/2 72/1/2 73/1/2
f 73/1/2 72/1/2 74/1/2
f 75/2/2 76/2/2 79/2/2
f 79/2/2 76/2/2 80/2/2
f 77/2/2 78/2/2 83/2/2
f 83/2/2 78/2/2 84/2/2
f 81/2/2 82/2/2 85/2/2
f 85/2/2 82/2/2 86/2/2
f 87/1/2 88/1/2 90/1/2
f 90/1/2 88/1/2 91/1/2
f 89/2/2 90/2/2 93/2/2
f 93/2/2 90/2/2 94/2/2
f 91/2/2 92/2/2 95/2/2
f 95/2/2 92/2/2 96/2/2
f 97/1/2 98/1/2 101/1/2
f 101/1/2 98/1/2 102/1/2
f 99/1/2 100/1/2 103/1/2
f 103/1/2 100/1/2 104/1/2
f 102/1/2 103/1/2 105/1/2
f 105/1/2 103/1/2 106/1/2
f 109/1/3 108/1/3 107/1/3
f 110/1/3 108/1/3 109/1/3
f 113/2/3 112/2/3 111/2/3
f 114/2/3 112/2/3 113/2/3
f 115/2/3 112/2/3 114/2/3
f 116/2/3 112/2/3 115/2/3
f 121/1/3 118/1/3 117/1/3
f 122/2/3 119/2/3 118/2/3
f 122/1/3 118/1/3 121/1/3
f 123/2/3 119/2/3 122/2/3
f 124/1/3 121/1/3 120/1/3
f 124/1/3 122/1/3 121/1/3
f 125/1/3 122/1/3 124/1/3
f 128/1/3 124/1/3 120/1/3
f 130/2/3 127/2/3 126/2/3
f 131/2/3 127/2/3 130/2/3
f 132/1/3 129/1/3 128/1/3
f 132/1/3 128/1/3 120/1/3
f 133/1/3 129/1/3 132/1/3
f 134/1/3 129/1/3 133/1/3
f 136/2/3 135/2/3 134/2/3
f 136/1/3 134/1/3 133/1/3
f 137/2/3 135/2/3 136/2/3
f 138/1/3 136/1/3 133/1/3
f 139/1/3 136/1/3 138/1/3
f 142/1/3 141/1/3 140/1/3
f 143/1/3 141/1/3 142/1/3
f 146/2/3 145/2/3 144/2/3
f 147/2/3 145/2/3 146/2/3
f 150/2/3 148/2/3 147/2/3
f 151/2/3 148/2/3 150/2/3
f 152/2/3 150/2/3 149/2/3
f 153/2/3 150/2/3 152/2/3
f 156/1/3 155/1/3 154/1/3
f 157/1/3 155/1/3 156/1/3
f 160/1/3 159/1/3 158/1/3
f 161/1/3 159/1/3 160/1/3
f 162/1/4 163/1/4 164/1/4
f 164/1/4 163/1/4 165/1/4
f 166/1/4 167/1/4 168/1/4
f 168/1/4 167/1/4 169/1/4
f 170/2/4 171/2/4 172/2/4
f 172/2/4 171/2/4 173/2/4
f 173/2/4 174/2/4 176/2/4
f 176/2/4 174/2/4 177/2/4
f 175/2/4 176/2/4 178/2/4
f 178/2/4 176/2/4 179/2/4
f 180/1/4 181/1/4 182/1/4
f 182/1/4 181/1/4 183/1/4
f 184/1/4 185/1/4 188/1/4
f 185/2/4 186/2/4 189/2/4
f 188/1/4 185/1/4 189/1/4
f 189/2/4 186/2/4 190/2/4
f 187/1/4 188/1/4 191/1/4
f 188/1/4 189/1/4 191/1/4
f 191/1/4 189/1/4 192/1/4
f 187/1/4 191/1/4 195/1/4
f 193/2/4 194/2/4 197/2/4
f 197/2/4 194/2/4 198/2/4
f 195/1/4 196/1/4 199/1/4
f 187/1/4 195/1/4 199/1/4
f 199/1/4 196/1/4 200/1/4
f 200/1/4 196/1/4 201/1/4
f 201/2/4 202/2/4 203/2/4
f 200/1/4 201/1/4 203/1/4
f 203/2/4 202/2/4 204/2/4
f 200/1/4 203/1/4 205/1/4
f 205/1/4 203/1/4 206/1/4
f 207/2/4 208/2/4 209/2/4
f 209/2/4 208/2/4 210/2/4
f 210/2/4 208/2/4 211/2/4
f 211/2/4 208/2/4 212/2/4
f 213/1/4 214/1/4 215/1/4
f 215/1/4 214/1/4 216/1/4
f 219/1/5 218/1/5 217/1/5
f 220/1/5 218/1/5 219/1/5
f 225/1/5 222/1/5 221/1/5
f 226/1/5 222/1/5 225/1/5
f 230/1/5 224/1/5 223/1/5
f 231/1/5 228/1/5 227/1/5
f 232/1/5 228/1/5 231/1/5
f 233/1/5 230/1/5 229/1/5
f 234/1/5 224/1/5 230/1/5
f 234/1/5 230/1/5 233/1/5
f 235/1/5 231/1/5 227/1/5
f 237/1/5 224/1/5 234/1/5
f 238/1/5 224/1/5 237/1/5
f 241/1/5 236/1/5 235/1/5
f 241/1/5 235/1/5 227/1/5
f 242/1/5 236/1/5 241/1/5
f 243/1/5 240/1/5 239/1/5
f 244/1/5 240/1/5 243/1/5
f 249/2/5 246/2/5 245/2/5
f 250/2/5 246/2/5 249/2/5
f 251/2/5 248/2/5 247/2/5
f 252/2/5 248/2/5 251/2/5
f 255/1/5 254/1/5 253/1/5
f 256/1/5 254/1/5 255/1/5
f 261/2/5 258/2/5 257/2/5
f 262/2/5 258/2/5 261/2/5
f 263/2/5 260/2/5 259/2/5
f 264/2/5 260/2/5 263/2/5
f 265/1/6 266/1/6 267/1/6
f 267/1/6 266/1/6 268/1/6
f 269/1/6 270/1/6 273/1/6
f 273/1/6 270/1/6 274/1/6
f 271/1/6 272/1/6 275/1/6
f 275/1/6 272/1/6 276/1/6
f 277/1/6 278/1/6 279/1/6
f 279/1/6 278/1/6 280/1/6
f 281/1/6 282/1/6 283/1/6
f 283/1/6 282/1/6 284/1/6
f 285/2/6 286/2/6 288/2/6
f 288/2/6 286/2/6 289/2/6
f 289/2/6 286/2/6 290/2/6
f 290/2/6 286/2/6 291/2/6
f 287/2/6 288/2/6 293/2/6
f 288/2/6 289/2/6 293/2/6
f 293/2/6 289/2/6 294/2/6
f 291/2/6 292/2/6 295/2/6
f 290/2/6 291/2/6 295/2/6
f 295/2/6 292/2/6 296/2/6
f 296/2/6 292/2/6 297/2/6
f 287/2/6 293/2/6 299/2/6
f 296/2/6 297/2/6 302/2/6
f 297/1/6 298/1/6 303/1/6
f 302/2/6 297/2/6 303/2/6
f 303/1/6 298/1/6 304/1/6
f 299/2/6 300/2/6 305/2/6
f 287/2/6 299/2/6 305/2/6
f 305/2/6 300/2/6 306/2/6
f 306/2/6 300/2/6 307/2/6
f 301/2/6 302/2/6 308/2/6
f 302/2/6 303/2/6 308/2/6
f 308/2/6 303/2/6 309/2/6
f 309/2/6 303/2/6 310/2/6
f 306/2/6 307/2/6 311/2/6
f 308/2/6 309/2/6 311/2/6
f 307/2/6 308/2/6 311/2/6
f 311/2/6 309/2/6 312/2/6
f 313/2/6 314/2/6 316/2/6
f 316/2/6 314/2/6 317/2/6
f 315/2/6 316/2/6 319/2/6
f 319/2/6 316/2/6 320/2/6
f 317/2/6 318/2/6 321/2/6
f 321/2/6 318/2/6 322/2/6
f 320/2/6 321/2/6 323/2/6
f 323/2/6 321/2/6 324/2/6
f 325/2/6 326/2/6 327/2/6
f 327/2/6 326/2/6 328/2/6
